<svg width="16" height="16" viewBox="0 0 16 16" fill="none" xmlns="http://www.w3.org/2000/svg">
<path d="M0 2.66667C0 1.19391 1.19391 0 2.66667 0H13.3333C14.8061 0 16 1.19391 16 2.66667V13.3333C16 14.8061 14.8061 16 13.3333 16H2.66667C1.19391 16 0 14.8061 0 13.3333V2.66667Z" fill="#FEEBC8"/>
<path d="M9.3295 2.73542C9.59414 2.73542 9.84835 2.84167 10.0359 3.02917L12.8177 5.80834C13.0052 5.99584 13.1115 6.25 13.1115 6.51459V9.61459C13.1115 9.87917 13.0052 10.1333 12.8177 10.3208L10.0359 13.1063C9.84835 13.2938 9.59414 13.4 9.3295 13.4H6.2289C5.96426 13.4 5.71005 13.2938 5.52251 13.1063L2.73863 10.325C2.55109 10.1375 2.44482 9.88334 2.44482 9.61875V6.51875C2.44482 6.25417 2.55109 6 2.73863 5.8125L5.52042 3.02709C5.70796 2.83959 5.96218 2.73334 6.22681 2.73334H9.32742L9.3295 2.73542ZM3.44502 6.51667V9.61667L6.22681 12.3979H9.32742L12.1092 9.61667V6.51667L9.32742 3.73542H6.22681L3.44502 6.51667ZM7.77712 5.56667C8.05425 5.56667 8.27721 5.78959 8.27721 6.06667V8.4C8.27721 8.67709 8.05425 8.9 7.77712 8.9C7.49998 8.9 7.27702 8.67709 7.27702 8.4V6.06667C7.27702 5.78959 7.49998 5.56667 7.77712 5.56667ZM7.22284 10.0667C7.2182 9.9909 7.22911 9.91498 7.25492 9.84358C7.28073 9.77219 7.32088 9.70683 7.3729 9.65154C7.42492 9.59624 7.48771 9.55217 7.55741 9.52205C7.6271 9.49193 7.70223 9.47639 7.77816 9.47639C7.85409 9.47639 7.92921 9.49193 7.99891 9.52205C8.0686 9.55217 8.13139 9.59624 8.18342 9.65154C8.23544 9.70683 8.27559 9.77219 8.30139 9.84358C8.3272 9.91498 8.33812 9.9909 8.33347 10.0667C8.33812 10.1424 8.3272 10.2184 8.30139 10.2898C8.27559 10.3612 8.23544 10.4265 8.18342 10.4818C8.13139 10.5371 8.0686 10.5812 7.99891 10.6113C7.92921 10.6414 7.85409 10.6569 7.77816 10.6569C7.70223 10.6569 7.6271 10.6414 7.55741 10.6113C7.48771 10.5812 7.42492 10.5371 7.3729 10.4818C7.32088 10.4265 7.28073 10.3612 7.25492 10.2898C7.22911 10.2184 7.2182 10.1424 7.22284 10.0667Z" fill="#DD6B20"/>
</svg>
