<svg width="24" height="24" viewBox="0 0 24 24" fill="none" xmlns="http://www.w3.org/2000/svg">
<path d="M5.23125 12.5438C5.08438 12.4001 5 12.2063 5 12.0001C5 11.7938 5.08438 11.6001 5.23125 11.4563L10.7312 6.20633C11.0312 5.91883 11.5062 5.93133 11.7906 6.23133C12.075 6.53133 12.0656 7.00633 11.7656 7.2907L7.62188 11.2501H18.25C18.6656 11.2501 19 11.5845 19 12.0001C19 12.4157 18.6656 12.7501 18.25 12.7501H7.62188L11.7688 16.7063C12.0688 16.9938 12.0781 17.4657 11.7937 17.7657C11.5094 18.0657 11.0344 18.0751 10.7344 17.7907L5.23438 12.5407L5.23125 12.5438Z" fill="black" fill-opacity="0.45"/>
</svg>
