<svg width="24" height="24" viewBox="0 0 24 24" fill="none" xmlns="http://www.w3.org/2000/svg">
<path d="M5.5 6.5V8H18.5V6.5H5.5ZM5 5H19C19.5531 5 20 5.44687 20 6V8.5C20 9.05312 19.5531 9.5 19 9.5H5C4.44687 9.5 4 9.05312 4 8.5V6C4 5.44687 4.44687 5 5 5ZM9 11.75C9 11.3344 9.33437 11 9.75 11H14.25C14.6656 11 15 11.3344 15 11.75C15 12.1656 14.6656 12.5 14.25 12.5H9.75C9.33437 12.5 9 12.1656 9 11.75ZM5 17V10.5H6.5V17C6.5 17.275 6.725 17.5 7 17.5H17C17.275 17.5 17.5 17.275 17.5 17V10.5H19V17C19 18.1031 18.1031 19 17 19H7C5.89688 19 5 18.1031 5 17Z" fill="black" fill-opacity="0.45"/>
</svg>
