<svg width="24" height="24" viewBox="0 0 24 24" fill="none" xmlns="http://www.w3.org/2000/svg">
<path d="M12 4.1999C13.5913 4.1999 15.1174 4.83204 16.2426 5.95726C17.3679 7.08248 18 8.6086 18 10.1999C18 11.7912 17.3679 13.3173 16.2426 14.4425C15.1174 15.5678 13.5913 16.1999 12 16.1999C10.4087 16.1999 8.88257 15.5678 7.75735 14.4425C6.63213 13.3173 5.99999 11.7912 5.99999 10.1999C5.99999 8.6086 6.63213 7.08248 7.75735 5.95726C8.88257 4.83204 10.4087 4.1999 12 4.1999ZM12 17.9999C14.0687 17.9999 16.0526 17.1781 17.5154 15.7153C18.9782 14.2526 19.8 12.2686 19.8 10.1999C19.8 8.13121 18.9782 6.14725 17.5154 4.68447C16.0526 3.22169 14.0687 2.3999 12 2.3999C9.93131 2.3999 7.94735 3.22169 6.48456 4.68447C5.02178 6.14725 4.19999 8.13121 4.19999 10.1999C4.19999 12.2686 5.02178 14.2526 6.48456 15.7153C7.94735 17.1781 9.93131 17.9999 12 17.9999ZM4.79999 15.5999C3.47624 15.5999 2.39999 16.6762 2.39999 17.9999V19.1999C2.39999 20.5237 3.47624 21.5999 4.79999 21.5999H19.2C20.5237 21.5999 21.6 20.5237 21.6 19.1999V17.9999C21.6 16.6762 20.5275 15.5999 19.2 15.5999C18.69 16.2824 18.0825 16.8862 17.4 17.3999H19.2C19.53 17.3999 19.8 17.6699 19.8 17.9999V19.1999C19.8 19.5299 19.53 19.7999 19.2 19.7999H4.79999C4.46999 19.7999 4.19999 19.5299 4.19999 19.1999V17.9999C4.19999 17.6699 4.46999 17.3999 4.79999 17.3999H6.59999C5.91749 16.8862 5.31374 16.2824 4.79999 15.5999ZM12.75 6.2999C12.75 5.8874 12.4125 5.5499 12 5.5499C11.5875 5.5499 11.25 5.8874 11.25 6.2999V6.8249C10.965 6.88865 10.68 6.9899 10.4175 7.14365C9.89625 7.4549 9.44624 7.99865 9.44999 8.7899C9.45374 9.55115 9.89999 10.0312 10.3762 10.3162C10.7887 10.5637 11.3025 10.7212 11.7112 10.8412L11.775 10.8599C12.2475 11.0024 12.5925 11.1149 12.825 11.2612C13.0162 11.3812 13.0425 11.4637 13.0462 11.5687C13.05 11.7562 12.9787 11.8687 12.825 11.9624C12.6375 12.0787 12.3412 12.1499 12.0225 12.1387C11.6062 12.1237 11.2162 11.9924 10.7062 11.8199C10.62 11.7899 10.53 11.7599 10.4362 11.7299C10.0425 11.5987 9.61874 11.8124 9.48749 12.2024C9.35624 12.5924 9.56999 13.0199 9.95999 13.1512C10.0312 13.1737 10.11 13.1999 10.1887 13.2299C10.5 13.3387 10.86 13.4624 11.2462 13.5449V14.0999C11.2462 14.5124 11.5837 14.8499 11.9962 14.8499C12.4087 14.8499 12.7462 14.5124 12.7462 14.0999V13.5824C13.0462 13.5187 13.3462 13.4137 13.6162 13.2449C14.1525 12.9112 14.5575 12.3412 14.5462 11.5574C14.535 10.7962 14.1075 10.3049 13.6237 9.9974C13.1925 9.7274 12.6525 9.5624 12.2325 9.4349L12.2062 9.4274C11.7262 9.28115 11.385 9.17615 11.145 9.03365C10.95 8.9174 10.9462 8.8499 10.9462 8.7824C10.9462 8.64365 10.9987 8.53865 11.1787 8.43365C11.3812 8.31365 11.6887 8.2424 11.985 8.24615C12.345 8.2499 12.7425 8.32865 13.155 8.44115C13.5562 8.54615 13.965 8.3099 14.0737 7.90865C14.1825 7.5074 13.9425 7.09865 13.5412 6.9899C13.2975 6.92615 13.0275 6.8624 12.75 6.81365V6.2999Z" fill="black" fill-opacity="0.45"/>
</svg>
