<svg width="870" height="60" viewBox="0 0 870 60" fill="none" xmlns="http://www.w3.org/2000/svg">
<rect x="0.5" y="0.5" width="869" height="59" rx="4.5" stroke="#9747FF" stroke-dasharray="10 5"/>
<path d="M16 20C16 17.7909 17.7909 16 20 16H36C38.2091 16 40 17.7909 40 20V36C40 38.2091 38.2091 40 36 40H20C17.7909 40 16 38.2091 16 36V20Z" fill="#C4F1F9"/>
<path d="M22 21C20.8969 21 20 21.8969 20 23V33C20 34.1031 20.8969 35 22 35H34C35.1031 35 36 34.1031 36 33V25C36 23.8969 35.1031 23 34 23H29.0594L27.7188 21.6594C27.2969 21.2375 26.725 21 26.1281 21H22ZM21.5 23C21.5 22.725 21.725 22.5 22 22.5H26.1281C26.3281 22.5 26.5188 22.5781 26.6594 22.7188L28.075 24.1344C28.3094 24.3688 28.6281 24.5 28.9594 24.5H34C34.275 24.5 34.5 24.725 34.5 25V26H21.5V23ZM21.5 27.5H34.5V33C34.5 33.275 34.275 33.5 34 33.5H22C21.725 33.5 21.5 33.275 21.5 33V27.5Z" fill="#00B5D8"/>
<rect x="46" y="16" width="24" height="24" rx="4" fill="#C4F1F9"/>
<path d="M61 35H62.5C62.8562 35 63.1844 34.8125 63.3625 34.5031L66.8625 28.5031C67.0437 28.1938 67.0438 27.8125 66.8656 27.5C66.6875 27.1875 66.3594 27 66 27H53.5C53.1438 27 52.8156 27.1875 52.6375 27.4969L50.5 31.1594V23C50.5 22.725 50.725 22.5 51 22.5H54.6719C54.8031 22.5 54.9313 22.5531 55.025 22.6469L55.8531 23.475C56.5094 24.1312 57.4 24.5 58.3281 24.5H62C62.275 24.5 62.5 24.725 62.5 25V26H64V25C64 23.8969 63.1031 23 62 23H58.3281C57.7969 23 57.2875 22.7906 56.9125 22.4156L56.0844 21.5844C55.7094 21.2094 55.2 21 54.6687 21H51C49.8969 21 49 21.8969 49 23V33C49 34.1031 49.8969 35 51 35H51.7406H61Z" fill="#00B5D8"/>
<path d="M76 20C76 17.7909 77.7909 16 80 16H96C98.2091 16 100 17.7909 100 20V36C100 38.2091 98.2091 40 96 40H80C77.7909 40 76 38.2091 76 36V20Z" fill="#E9D8FD"/>
<path d="M85.0833 23.8335V23.0002C85.0833 22.771 85.2708 22.5835 85.5 22.5835H90.5C90.7292 22.5835 90.9167 22.771 90.9167 23.0002V26.3335C90.9167 27.0236 91.4766 27.5835 92.1667 27.5835H93.8333C94.0625 27.5835 94.25 27.771 94.25 28.0002V33.0002C94.25 33.2293 94.0625 33.4168 93.8333 33.4168H90.5H89.6667H88.8333V32.1668C88.8333 31.7059 88.4609 31.3335 88 31.3335C87.5391 31.3335 87.1667 31.7059 87.1667 32.1668V33.4168H85.5H82.1667C81.9375 33.4168 81.75 33.2293 81.75 33.0002V25.5002C81.75 25.271 81.9375 25.0835 82.1667 25.0835H83.8333C84.5234 25.0835 85.0833 24.5236 85.0833 23.8335ZM85.5 34.6668H87.1667H88.8333H89.6667H90.5H93.8333C94.7526 34.6668 95.5 33.9194 95.5 33.0002V28.0002C95.5 27.0809 94.7526 26.3335 93.8333 26.3335H93.4167H92.1667V25.0835V23.0002C92.1667 22.0809 91.4193 21.3335 90.5 21.3335H85.5C84.5807 21.3335 83.8333 22.0809 83.8333 23.0002V23.8335H82.5833H82.1667C81.2474 23.8335 80.5 24.5809 80.5 25.5002V33.0002C80.5 33.9194 81.2474 34.6668 82.1667 34.6668H85.5ZM89.6667 30.0835C89.8958 30.0835 90.0833 29.896 90.0833 29.6668V28.8335C90.0833 28.6043 89.8958 28.4168 89.6667 28.4168H88.8333C88.6042 28.4168 88.4167 28.6043 88.4167 28.8335V29.6668C88.4167 29.896 88.6042 30.0835 88.8333 30.0835H89.6667ZM93.4167 32.1668V31.3335C93.4167 31.1043 93.2292 30.9168 93 30.9168H92.1667C91.9375 30.9168 91.75 31.1043 91.75 31.3335V32.1668C91.75 32.396 91.9375 32.5835 92.1667 32.5835H93C93.2292 32.5835 93.4167 32.396 93.4167 32.1668ZM83.8333 30.0835C84.0625 30.0835 84.25 29.896 84.25 29.6668V28.8335C84.25 28.6043 84.0625 28.4168 83.8333 28.4168H83C82.7708 28.4168 82.5833 28.6043 82.5833 28.8335V29.6668C82.5833 29.896 82.7708 30.0835 83 30.0835H83.8333ZM84.25 32.1668V31.3335C84.25 31.1043 84.0625 30.9168 83.8333 30.9168H83C82.7708 30.9168 82.5833 31.1043 82.5833 31.3335V32.1668C82.5833 32.396 82.7708 32.5835 83 32.5835H83.8333C84.0625 32.5835 84.25 32.396 84.25 32.1668ZM87.1667 30.0835C87.3958 30.0835 87.5833 29.896 87.5833 29.6668V28.8335C87.5833 28.6043 87.3958 28.4168 87.1667 28.4168H86.3333C86.1042 28.4168 85.9167 28.6043 85.9167 28.8335V29.6668C85.9167 29.896 86.1042 30.0835 86.3333 30.0835H87.1667ZM90.0833 23.8335C90.0833 23.6043 89.8958 23.4168 89.6667 23.4168H88.8333C88.6042 23.4168 88.4167 23.6043 88.4167 23.8335V24.6668C88.4167 24.896 88.6042 25.0835 88.8333 25.0835H89.6667C89.8958 25.0835 90.0833 24.896 90.0833 24.6668V23.8335ZM87.1667 23.4168H86.3333C86.1042 23.4168 85.9167 23.6043 85.9167 23.8335V24.6668C85.9167 24.896 86.1042 25.0835 86.3333 25.0835H87.1667C87.3958 25.0835 87.5833 24.896 87.5833 24.6668V23.8335C87.5833 23.6043 87.3958 23.4168 87.1667 23.4168ZM90.0833 27.1668V26.3335C90.0833 26.1043 89.8958 25.9168 89.6667 25.9168H88.8333C88.6042 25.9168 88.4167 26.1043 88.4167 26.3335V27.1668C88.4167 27.396 88.6042 27.5835 88.8333 27.5835H89.6667C89.8958 27.5835 90.0833 27.396 90.0833 27.1668ZM93 30.0835C93.2292 30.0835 93.4167 29.896 93.4167 29.6668V28.8335C93.4167 28.6043 93.2292 28.4168 93 28.4168H92.1667C91.9375 28.4168 91.75 28.6043 91.75 28.8335V29.6668C91.75 29.896 91.9375 30.0835 92.1667 30.0835H93ZM84.25 27.1668V26.3335C84.25 26.1043 84.0625 25.9168 83.8333 25.9168H83C82.7708 25.9168 82.5833 26.1043 82.5833 26.3335V27.1668C82.5833 27.396 82.7708 27.5835 83 27.5835H83.8333C84.0625 27.5835 84.25 27.396 84.25 27.1668ZM87.1667 27.5835C87.3958 27.5835 87.5833 27.396 87.5833 27.1668V26.3335C87.5833 26.1043 87.3958 25.9168 87.1667 25.9168H86.3333C86.1042 25.9168 85.9167 26.1043 85.9167 26.3335V27.1668C85.9167 27.396 86.1042 27.5835 86.3333 27.5835H87.1667Z" fill="#805AD5"/>
<path d="M496 20C496 17.7909 497.791 16 500 16H516C518.209 16 520 17.7909 520 20V36C520 38.2091 518.209 40 516 40H500C497.791 40 496 38.2091 496 36V20Z" fill="#E9D8FD"/>
<path d="M502 20C501.447 20 501 20.4469 501 21V23C501 23.5531 501.447 24 502 24H504.5V25H502.734C501.741 25 500.894 25.7312 500.753 26.7156L500.019 31.8594C500.006 31.9531 500 32.0469 500 32.1406V34C500 35.1031 500.897 36 502 36H514C515.103 36 516 35.1031 516 34V32.1406C516 32.0469 515.994 31.95 515.981 31.8594L515.244 26.7156C515.103 25.7312 514.259 25 513.263 25H506.5V24H509C509.553 24 510 23.5531 510 23V21C510 20.4469 509.553 20 509 20H502ZM503 21.5H508C508.275 21.5 508.5 21.725 508.5 22C508.5 22.275 508.275 22.5 508 22.5H503C502.725 22.5 502.5 22.275 502.5 22C502.5 21.725 502.725 21.5 503 21.5ZM501.5 34V33.5H514.5V34C514.5 34.275 514.275 34.5 514 34.5H502C501.725 34.5 501.5 34.275 501.5 34ZM513.759 26.9281L514.484 32H501.516L502.241 26.9281C502.275 26.6813 502.488 26.5 502.734 26.5H513.266C513.516 26.5 513.725 26.6844 513.759 26.9281ZM503.5 27.25C503.301 27.25 503.11 27.329 502.97 27.4697C502.829 27.6103 502.75 27.8011 502.75 28C502.75 28.1989 502.829 28.3897 502.97 28.5303C503.11 28.671 503.301 28.75 503.5 28.75C503.699 28.75 503.89 28.671 504.03 28.5303C504.171 28.3897 504.25 28.1989 504.25 28C504.25 27.8011 504.171 27.6103 504.03 27.4697C503.89 27.329 503.699 27.25 503.5 27.25ZM505.75 28C505.75 28.1989 505.829 28.3897 505.97 28.5303C506.11 28.671 506.301 28.75 506.5 28.75C506.699 28.75 506.89 28.671 507.03 28.5303C507.171 28.3897 507.25 28.1989 507.25 28C507.25 27.8011 507.171 27.6103 507.03 27.4697C506.89 27.329 506.699 27.25 506.5 27.25C506.301 27.25 506.11 27.329 505.97 27.4697C505.829 27.6103 505.75 27.8011 505.75 28ZM505 29.75C504.801 29.75 504.61 29.829 504.47 29.9697C504.329 30.1103 504.25 30.3011 504.25 30.5C504.25 30.6989 504.329 30.8897 504.47 31.0303C504.61 31.171 504.801 31.25 505 31.25C505.199 31.25 505.39 31.171 505.53 31.0303C505.671 30.8897 505.75 30.6989 505.75 30.5C505.75 30.3011 505.671 30.1103 505.53 29.9697C505.39 29.829 505.199 29.75 505 29.75ZM508.75 28C508.75 28.1989 508.829 28.3897 508.97 28.5303C509.11 28.671 509.301 28.75 509.5 28.75C509.699 28.75 509.89 28.671 510.03 28.5303C510.171 28.3897 510.25 28.1989 510.25 28C510.25 27.8011 510.171 27.6103 510.03 27.4697C509.89 27.329 509.699 27.25 509.5 27.25C509.301 27.25 509.11 27.329 508.97 27.4697C508.829 27.6103 508.75 27.8011 508.75 28ZM508 29.75C507.801 29.75 507.61 29.829 507.47 29.9697C507.329 30.1103 507.25 30.3011 507.25 30.5C507.25 30.6989 507.329 30.8897 507.47 31.0303C507.61 31.171 507.801 31.25 508 31.25C508.199 31.25 508.39 31.171 508.53 31.0303C508.671 30.8897 508.75 30.6989 508.75 30.5C508.75 30.3011 508.671 30.1103 508.53 29.9697C508.39 29.829 508.199 29.75 508 29.75ZM511.75 28C511.75 28.0985 511.769 28.196 511.807 28.287C511.845 28.378 511.9 28.4607 511.97 28.5303C512.039 28.6 512.122 28.6552 512.213 28.6929C512.304 28.7306 512.402 28.75 512.5 28.75C512.599 28.75 512.696 28.7306 512.787 28.6929C512.878 28.6552 512.961 28.6 513.03 28.5303C513.1 28.4607 513.155 28.378 513.193 28.287C513.231 28.196 513.25 28.0985 513.25 28C513.25 27.9015 513.231 27.804 513.193 27.713C513.155 27.622 513.1 27.5393 513.03 27.4697C512.961 27.4 512.878 27.3448 512.787 27.3071C512.696 27.2694 512.599 27.25 512.5 27.25C512.402 27.25 512.304 27.2694 512.213 27.3071C512.122 27.3448 512.039 27.4 511.97 27.4697C511.9 27.5393 511.845 27.622 511.807 27.713C511.769 27.804 511.75 27.9015 511.75 28ZM511 29.75C510.801 29.75 510.61 29.829 510.47 29.9697C510.329 30.1103 510.25 30.3011 510.25 30.5C510.25 30.6989 510.329 30.8897 510.47 31.0303C510.61 31.171 510.801 31.25 511 31.25C511.199 31.25 511.39 31.171 511.53 31.0303C511.671 30.8897 511.75 30.6989 511.75 30.5C511.75 30.3011 511.671 30.1103 511.53 29.9697C511.39 29.829 511.199 29.75 511 29.75Z" fill="#805AD5"/>
<rect x="136" y="16" width="24" height="24" rx="4" fill="#FEEBC8"/>
<path d="M150.5 22.9858C150.5 22.5326 150.872 22.1665 151.333 22.1665H154.667C155.128 22.1665 155.5 22.5326 155.5 22.9858C155.5 23.439 155.128 23.8052 154.667 23.8052H152.167V26.2631C152.167 26.7163 151.794 27.0825 151.333 27.0825H148.833V29.5405C148.833 29.9936 148.461 30.3598 148 30.3598H145.5V32.8178C145.5 33.271 145.128 33.6371 144.667 33.6371H141.333C140.872 33.6371 140.5 33.271 140.5 32.8178C140.5 32.3646 140.872 31.9984 141.333 31.9984H143.833V29.5405C143.833 29.0873 144.206 28.7211 144.667 28.7211H147.167V26.2631C147.167 25.81 147.539 25.4438 148 25.4438H150.5V22.9858Z" fill="#DD6B20"/>
<rect x="166" y="16" width="24" height="24" rx="4" fill="#CFE0FF"/>
<path d="M172.5 20.75C172.5 20.3344 172.166 20 171.75 20C171.334 20 171 20.3344 171 20.75V21V22.5V29.5V31V35.25C171 35.6656 171.334 36 171.75 36C172.166 36 172.5 35.6656 172.5 35.25V30.9656L184.528 26.6687C184.809 26.5687 185 26.3 185 26C185 25.7 184.812 25.4313 184.528 25.3313L172.5 21.0344V20.75ZM172.5 22.6281L181.941 26L172.5 29.3719V22.6281Z" fill="#3E4BE0"/>
<rect x="466" y="16" width="24" height="24" rx="4" fill="#FEEBC8"/>
<path d="M480.5 24C480.5 23.337 480.237 22.7011 479.768 22.2322C479.299 21.7634 478.663 21.5 478 21.5C477.337 21.5 476.701 21.7634 476.232 22.2322C475.763 22.7011 475.5 23.337 475.5 24C475.5 24.663 475.763 25.2989 476.232 25.7678C476.701 26.2366 477.337 26.5 478 26.5C478.663 26.5 479.299 26.2366 479.768 25.7678C480.237 25.2989 480.5 24.663 480.5 24ZM474 24C474 22.9391 474.421 21.9217 475.172 21.1716C475.922 20.4214 476.939 20 478 20C479.061 20 480.078 20.4214 480.828 21.1716C481.579 21.9217 482 22.9391 482 24C482 25.0609 481.579 26.0783 480.828 26.8284C480.078 27.5786 479.061 28 478 28C476.939 28 475.922 27.5786 475.172 26.8284C474.421 26.0783 474 25.0609 474 24ZM472.541 34.5H483.459C483.181 32.5219 481.481 31 479.428 31H476.572C474.519 31 472.819 32.5219 472.541 34.5ZM471 35.0719C471 31.9938 473.494 29.5 476.572 29.5H479.428C482.506 29.5 485 31.9938 485 35.0719C485 35.5844 484.584 36 484.072 36H471.928C471.416 36 471 35.5844 471 35.0719Z" fill="#DD6B20"/>
<path d="M106 20C106 17.7909 107.791 16 110 16H126C128.209 16 130 17.7909 130 20V36C130 38.2091 128.209 40 126 40H110C107.791 40 106 38.2091 106 36V20Z" fill="#C6F6D5"/>
<path d="M114 21.5C113.725 21.5 113.5 21.725 113.5 22V34C113.5 34.275 113.725 34.5 114 34.5H116.5V32.5C116.5 31.6719 117.172 31 118 31C118.828 31 119.5 31.6719 119.5 32.5V34.5H122C122.275 34.5 122.5 34.275 122.5 34V22C122.5 21.725 122.275 21.5 122 21.5H114ZM112 22C112 20.8969 112.897 20 114 20H122C123.103 20 124 20.8969 124 22V34C124 35.1031 123.103 36 122 36H114C112.897 36 112 35.1031 112 34V22ZM114.75 23.25C114.75 22.975 114.975 22.75 115.25 22.75H116.75C117.025 22.75 117.25 22.975 117.25 23.25V24.75C117.25 25.025 117.025 25.25 116.75 25.25H115.25C114.975 25.25 114.75 25.025 114.75 24.75V23.25ZM119.25 22.75H120.75C121.025 22.75 121.25 22.975 121.25 23.25V24.75C121.25 25.025 121.025 25.25 120.75 25.25H119.25C118.975 25.25 118.75 25.025 118.75 24.75V23.25C118.75 22.975 118.975 22.75 119.25 22.75ZM114.75 27.25C114.75 26.975 114.975 26.75 115.25 26.75H116.75C117.025 26.75 117.25 26.975 117.25 27.25V28.75C117.25 29.025 117.025 29.25 116.75 29.25H115.25C114.975 29.25 114.75 29.025 114.75 28.75V27.25ZM119.25 26.75H120.75C121.025 26.75 121.25 26.975 121.25 27.25V28.75C121.25 29.025 121.025 29.25 120.75 29.25H119.25C118.975 29.25 118.75 29.025 118.75 28.75V27.25C118.75 26.975 118.975 26.75 119.25 26.75Z" fill="#38A169"/>
<path d="M196 20C196 17.7909 197.791 16 200 16H216C218.209 16 220 17.7909 220 20V36C220 38.2091 218.209 40 216 40H200C197.791 40 196 38.2091 196 36V20Z" fill="#BEE3F8"/>
<path d="M201.438 22.7397V26.4253C201.862 26.1997 202.34 26.062 202.844 26.0269V26.0181V25.0806C202.844 24.562 203.263 24.1431 203.781 24.1431H206.594C207.112 24.1431 207.531 24.562 207.531 25.0806V26.0181H208.469V25.0806C208.469 24.562 208.888 24.1431 209.406 24.1431H212.219C212.737 24.1431 213.156 24.562 213.156 25.0806V26.0181V26.0269C213.66 26.0591 214.138 26.1997 214.563 26.4253V22.7397C214.563 21.9634 213.933 21.3335 213.156 21.3335H202.844C202.067 21.3335 201.438 21.9634 201.438 22.7397ZM203.078 26.9585C201.654 26.9585 200.5 28.1128 200.5 29.5366V31.8804V33.7554C200.5 34.145 200.813 34.4585 201.203 34.4585C201.593 34.4585 201.906 34.145 201.906 33.7554V32.5835H214.094V33.7554C214.094 34.145 214.407 34.4585 214.797 34.4585C215.187 34.4585 215.5 34.145 215.5 33.7554V31.8804V29.5366C215.5 28.1128 214.346 26.9585 212.922 26.9585H203.078ZM214.094 31.1772H201.906V29.5366C201.906 28.8892 202.431 28.3647 203.078 28.3647H212.922C213.569 28.3647 214.094 28.8892 214.094 29.5366V31.1772Z" fill="#3182CE"/>
<path d="M226 20C226 17.7909 227.791 16 230 16H246C248.209 16 250 17.7909 250 20V36C250 38.2091 248.209 40 246 40H230C227.791 40 226 38.2091 226 36V20Z" fill="#C6F6D5"/>
<path d="M238 34.0938C239.616 34.0938 241.166 33.4517 242.309 32.3089C243.452 31.1661 244.094 29.6162 244.094 28C244.094 26.3838 243.452 24.8339 242.309 23.6911C241.166 22.5483 239.616 21.9063 238 21.9063C236.384 21.9063 234.834 22.5483 233.691 23.6911C232.548 24.8339 231.906 26.3838 231.906 28C231.906 29.6162 232.548 31.1661 233.691 32.3089C234.834 33.4517 236.384 34.0938 238 34.0938ZM238 20.5C239.989 20.5 241.897 21.2902 243.303 22.6967C244.71 24.1032 245.5 26.0109 245.5 28C245.5 29.9891 244.71 31.8968 243.303 33.3033C241.897 34.7098 239.989 35.5 238 35.5C236.011 35.5 234.103 34.7098 232.697 33.3033C231.29 31.8968 230.5 29.9891 230.5 28C230.5 26.0109 231.29 24.1032 232.697 22.6967C234.103 21.2902 236.011 20.5 238 20.5ZM238.938 28C238.938 28.2486 238.839 28.4871 238.663 28.6629C238.487 28.8387 238.249 28.9375 238 28.9375C237.751 28.9375 237.513 28.8387 237.337 28.6629C237.161 28.4871 237.063 28.2486 237.063 28C237.063 27.7514 237.161 27.5129 237.337 27.3371C237.513 27.1613 237.751 27.0625 238 27.0625C238.249 27.0625 238.487 27.1613 238.663 27.3371C238.839 27.5129 238.938 27.7514 238.938 28ZM240.813 27.0625C241.061 27.0625 241.3 27.1613 241.475 27.3371C241.651 27.5129 241.75 27.7514 241.75 28C241.75 28.2486 241.651 28.4871 241.475 28.6629C241.3 28.8387 241.061 28.9375 240.813 28.9375C240.564 28.9375 240.325 28.8387 240.15 28.6629C239.974 28.4871 239.875 28.2486 239.875 28C239.875 27.7514 239.974 27.5129 240.15 27.3371C240.325 27.1613 240.564 27.0625 240.813 27.0625ZM236.125 28C236.125 28.2486 236.026 28.4871 235.85 28.6629C235.675 28.8387 235.436 28.9375 235.188 28.9375C234.939 28.9375 234.7 28.8387 234.525 28.6629C234.349 28.4871 234.25 28.2486 234.25 28C234.25 27.7514 234.349 27.5129 234.525 27.3371C234.7 27.1613 234.939 27.0625 235.188 27.0625C235.436 27.0625 235.675 27.1613 235.85 27.3371C236.026 27.5129 236.125 27.7514 236.125 28Z" fill="#38A169"/>
<path d="M616 20C616 17.7909 617.791 16 620 16H636C638.209 16 640 17.7909 640 20V36C640 38.2091 638.209 40 636 40H620C617.791 40 616 38.2091 616 36V20Z" fill="#C6F6D5"/>
<path d="M621.25 27C620.834 27 620.5 26.6656 620.5 26.25V21.75C620.5 21.3344 620.834 21 621.25 21C621.666 21 622 21.3344 622 21.75V24.2531L622.625 23.5187C623.906 21.9812 625.841 21 628 21C631.866 21 635 24.1344 635 28C635 31.8656 631.866 35 628 35C626.425 35 624.969 34.4781 623.8 33.6C623.469 33.35 623.403 32.8812 623.65 32.55C623.897 32.2187 624.369 32.1531 624.7 32.4C625.619 33.0906 626.759 33.5 628 33.5C631.038 33.5 633.5 31.0375 633.5 28C633.5 24.9625 631.038 22.5 628 22.5C626.303 22.5 624.784 23.2687 623.775 24.4812L623.772 24.4875L622.909 25.5H625.75C626.166 25.5 626.5 25.8344 626.5 26.25C626.5 26.6656 626.166 27 625.75 27H621.25Z" fill="#38A169"/>
<path d="M256 20C256 17.7909 257.791 16 260 16H276C278.209 16 280 17.7909 280 20V36C280 38.2091 278.209 40 276 40H260C257.791 40 256 38.2091 256 36V20Z" fill="#E9D8FD"/>
<path d="M264 21.5C263.725 21.5 263.5 21.725 263.5 22V34C263.5 34.275 263.725 34.5 264 34.5H266.5V32.5C266.5 31.6719 267.172 31 268 31C268.828 31 269.5 31.6719 269.5 32.5V34.5H272C272.275 34.5 272.5 34.275 272.5 34V22C272.5 21.725 272.275 21.5 272 21.5H264ZM262 22C262 20.8969 262.897 20 264 20H272C273.103 20 274 20.8969 274 22V34C274 35.1031 273.103 36 272 36H264C262.897 36 262 35.1031 262 34V22ZM264.75 23.25C264.75 22.975 264.975 22.75 265.25 22.75H266.75C267.025 22.75 267.25 22.975 267.25 23.25V24.75C267.25 25.025 267.025 25.25 266.75 25.25H265.25C264.975 25.25 264.75 25.025 264.75 24.75V23.25ZM269.25 22.75H270.75C271.025 22.75 271.25 22.975 271.25 23.25V24.75C271.25 25.025 271.025 25.25 270.75 25.25H269.25C268.975 25.25 268.75 25.025 268.75 24.75V23.25C268.75 22.975 268.975 22.75 269.25 22.75ZM264.75 27.25C264.75 26.975 264.975 26.75 265.25 26.75H266.75C267.025 26.75 267.25 26.975 267.25 27.25V28.75C267.25 29.025 267.025 29.25 266.75 29.25H265.25C264.975 29.25 264.75 29.025 264.75 28.75V27.25ZM269.25 26.75H270.75C271.025 26.75 271.25 26.975 271.25 27.25V28.75C271.25 29.025 271.025 29.25 270.75 29.25H269.25C268.975 29.25 268.75 29.025 268.75 28.75V27.25C268.75 26.975 268.975 26.75 269.25 26.75Z" fill="#805AD5"/>
<path d="M286 20C286 17.7909 287.791 16 290 16H306C308.209 16 310 17.7909 310 20V36C310 38.2091 308.209 40 306 40H290C287.791 40 286 38.2091 286 36V20Z" fill="#FED7D7"/>
<path d="M295.5 26.7499C296.053 26.7499 296.582 26.5304 296.973 26.1397C297.364 25.749 297.583 25.2191 297.583 24.6666C297.583 24.1141 297.364 23.5841 296.973 23.1934C296.582 22.8027 296.053 22.5833 295.5 22.5833C294.947 22.5833 294.418 22.8027 294.027 23.1934C293.636 23.5841 293.417 24.1141 293.417 24.6666C293.417 25.2191 293.636 25.749 294.027 26.1397C294.418 26.5304 294.947 26.7499 295.5 26.7499ZM295.5 21.3333C296.384 21.3333 297.232 21.6844 297.857 22.3096C298.482 22.9347 298.833 23.7825 298.833 24.6666C298.833 25.5506 298.482 26.3985 297.857 27.0236C297.232 27.6487 296.384 27.9999 295.5 27.9999C294.616 27.9999 293.768 27.6487 293.143 27.0236C292.518 26.3985 292.167 25.5506 292.167 24.6666C292.167 23.7825 292.518 22.9347 293.143 22.3096C293.768 21.6844 294.616 21.3333 295.5 21.3333ZM290.951 33.4166H299.424C299.768 33.8645 300.187 34.2864 300.698 34.6536C300.654 34.6614 300.607 34.6666 300.56 34.6666H290.44C290.013 34.6666 289.667 34.3202 289.667 33.8931C289.667 31.328 291.745 29.2499 294.31 29.2499H295.5H296.69C297.148 29.2499 297.591 29.3176 298.01 29.44C298.034 29.8723 298.099 30.3593 298.227 30.8671C297.766 30.6327 297.242 30.4999 296.69 30.4999H294.31C292.599 30.4999 291.182 31.7681 290.951 33.4166ZM302.352 27.2109C302.5 27.151 302.667 27.151 302.815 27.2109L305.94 28.4609C306.177 28.5572 306.333 28.7864 306.333 29.0416C306.333 30.69 305.659 33.4374 302.823 34.6197C302.669 34.6848 302.495 34.6848 302.341 34.6197C299.508 33.4374 298.833 30.69 298.833 29.0416C298.833 28.7864 298.99 28.5572 299.227 28.4609L302.352 27.2109ZM305.068 29.4583L302.583 28.4635V33.3541C304.359 32.4947 304.966 30.776 305.068 29.4556V29.4583Z" fill="#E53E3E"/>
<path d="M646 20C646 17.7909 647.791 16 650 16H666C668.209 16 670 17.7909 670 20V36C670 38.2091 668.209 40 666 40H650C647.791 40 646 38.2091 646 36V20Z" fill="#FED7D7"/>
<path d="M658 21.5C659.724 21.5 661.377 22.1848 662.596 23.4038C663.815 24.6228 664.5 26.2761 664.5 28C664.5 29.7239 663.815 31.3772 662.596 32.5962C661.377 33.8152 659.724 34.5 658 34.5C656.276 34.5 654.623 33.8152 653.404 32.5962C652.185 31.3772 651.5 29.7239 651.5 28C651.5 26.2761 652.185 24.6228 653.404 23.4038C654.623 22.1848 656.276 21.5 658 21.5ZM658 36C660.122 36 662.157 35.1571 663.657 33.6569C665.157 32.1566 666 30.1217 666 28C666 25.8783 665.157 23.8434 663.657 22.3431C662.157 20.8429 660.122 20 658 20C655.878 20 653.843 20.8429 652.343 22.3431C650.843 23.8434 650 25.8783 650 28C650 30.1217 650.843 32.1566 652.343 33.6569C653.843 35.1571 655.878 36 658 36ZM658 24C657.584 24 657.25 24.3344 657.25 24.75V28.25C657.25 28.6656 657.584 29 658 29C658.416 29 658.75 28.6656 658.75 28.25V24.75C658.75 24.3344 658.416 24 658 24ZM659 31C659 30.7348 658.895 30.4804 658.707 30.2929C658.52 30.1054 658.265 30 658 30C657.735 30 657.48 30.1054 657.293 30.2929C657.105 30.4804 657 30.7348 657 31C657 31.2652 657.105 31.5196 657.293 31.7071C657.48 31.8946 657.735 32 658 32C658.265 32 658.52 31.8946 658.707 31.7071C658.895 31.5196 659 31.2652 659 31Z" fill="#E53E3E"/>
<path d="M826 20C826 17.7909 827.791 16 830 16H846C848.209 16 850 17.7909 850 20V36C850 38.2091 848.209 40 846 40H830C827.791 40 826 38.2091 826 36V20Z" fill="#FEEBC8"/>
<path d="M839.994 19.6032C840.391 19.6032 840.772 19.7626 841.053 20.0438L845.226 24.2126C845.507 24.4938 845.667 24.8751 845.667 25.272V29.922C845.667 30.3188 845.507 30.7001 845.226 30.9813L841.053 35.1595C840.772 35.4407 840.391 35.6001 839.994 35.6001H835.343C834.946 35.6001 834.564 35.4407 834.283 35.1595L830.107 30.9876C829.826 30.7063 829.667 30.3251 829.667 29.9282V25.2782C829.667 24.8813 829.826 24.5001 830.107 24.2188L834.28 20.0407C834.561 19.7595 834.943 19.6001 835.34 19.6001H839.991L839.994 19.6032ZM831.167 25.2751V29.9251L835.34 34.097H839.991L844.163 29.9251V25.2751L839.991 21.1032H835.34L831.167 25.2751ZM837.665 23.8501C838.081 23.8501 838.415 24.1845 838.415 24.6001V28.1001C838.415 28.5157 838.081 28.8501 837.665 28.8501C837.249 28.8501 836.915 28.5157 836.915 28.1001V24.6001C836.915 24.1845 837.249 23.8501 837.665 23.8501ZM836.834 30.6001C836.827 30.4864 836.843 30.3726 836.882 30.2655C836.921 30.1584 836.981 30.0603 837.059 29.9774C837.137 29.8945 837.231 29.8284 837.336 29.7832C837.44 29.738 837.553 29.7147 837.667 29.7147C837.781 29.7147 837.893 29.738 837.998 29.7832C838.102 29.8284 838.197 29.8945 838.275 29.9774C838.353 30.0603 838.413 30.1584 838.452 30.2655C838.49 30.3726 838.507 30.4864 838.5 30.6001C838.507 30.7138 838.49 30.8276 838.452 30.9347C838.413 31.0418 838.353 31.1399 838.275 31.2228C838.197 31.3057 838.102 31.3718 837.998 31.417C837.893 31.4622 837.781 31.4855 837.667 31.4855C837.553 31.4855 837.44 31.4622 837.336 31.417C837.231 31.3718 837.137 31.3057 837.059 31.2228C836.981 31.1399 836.921 31.0418 836.882 30.9347C836.843 30.8276 836.827 30.7138 836.834 30.6001Z" fill="#DD6B20"/>
<path d="M316 20C316 17.7909 317.791 16 320 16H336C338.209 16 340 17.7909 340 20V36C340 38.2091 338.209 40 336 40H320C317.791 40 316 38.2091 316 36V20Z" fill="#C6F6D5"/>
<path d="M328 26.7499C328.553 26.7499 329.082 26.5304 329.473 26.1397C329.864 25.749 330.083 25.2191 330.083 24.6666C330.083 24.1141 329.864 23.5841 329.473 23.1934C329.082 22.8027 328.553 22.5833 328 22.5833C327.447 22.5833 326.918 22.8027 326.527 23.1934C326.136 23.5841 325.917 24.1141 325.917 24.6666C325.917 25.2191 326.136 25.749 326.527 26.1397C326.918 26.5304 327.447 26.7499 328 26.7499ZM331.333 24.6666C331.333 25.5506 330.982 26.3985 330.357 27.0236C329.732 27.6487 328.884 27.9999 328 27.9999C327.116 27.9999 326.268 27.6487 325.643 27.0236C325.018 26.3985 324.667 25.5506 324.667 24.6666C324.667 23.7825 325.018 22.9347 325.643 22.3096C326.268 21.6844 327.116 21.3333 328 21.3333C328.884 21.3333 329.732 21.6844 330.357 22.3096C330.982 22.9347 331.333 23.7825 331.333 24.6666ZM327.612 30.6874L327.128 29.8801C326.961 29.6015 327.161 29.2499 327.484 29.2499H327.997H328.51C328.833 29.2499 329.034 29.6041 328.867 29.8801L328.383 30.6874L328.797 32.2291L329.938 29.9478C330.016 29.7916 330.182 29.7004 330.352 29.7291C332.333 30.0728 333.833 31.7942 333.833 33.8671C333.833 34.3098 333.474 34.6666 333.034 34.6666H322.966C322.526 34.6666 322.167 34.3072 322.167 33.8671C322.167 31.7942 323.667 30.0728 325.643 29.7291C325.815 29.7004 325.979 29.7916 326.057 29.9478L327.198 32.2291L327.612 30.6874ZM325.253 31.1327C324.31 31.5181 323.609 32.3801 323.451 33.4166H326.393L325.253 31.1327ZM329.607 33.4166H332.549C332.391 32.3801 331.69 31.5181 330.747 31.1327L329.607 33.4166Z" fill="#38A169"/>
<path d="M346 20C346 17.7909 347.791 16 350 16H366C368.209 16 370 17.7909 370 20V36C370 38.2091 368.209 40 366 40H350C347.791 40 346 38.2091 346 36V20Z" fill="#BEE3F8"/>
<path d="M359.529 30.3997C361.501 30.3998 363.099 31.9994 363.102 33.9709C363.102 34.4118 362.745 34.7668 362.307 34.7668H353.695C353.254 34.7667 352.9 34.4086 352.9 33.9709C352.9 31.9992 354.5 30.3997 356.471 30.3997H359.529ZM356.471 31.4329C355.149 31.4329 354.068 32.4431 353.947 33.7336H362.05C361.93 32.4431 360.848 31.4329 359.526 31.4329H356.471ZM354.899 26.2336L354.868 26.3577C354.802 26.6152 354.766 26.8883 354.766 27.1663V27.2668H352.584C351.488 27.2668 350.6 28.1544 350.6 29.2502C350.6 29.5344 350.368 29.7667 350.084 29.7668C349.799 29.7668 349.567 29.5345 349.567 29.2502C349.567 27.583 350.916 26.2336 352.584 26.2336H354.899ZM358 24.5667C358.341 24.5667 358.679 24.6342 358.995 24.7649C359.31 24.8956 359.597 25.0869 359.839 25.3284C360.08 25.5697 360.271 25.8559 360.402 26.1711C360.533 26.4865 360.6 26.8249 360.6 27.1663C360.6 27.5076 360.533 27.846 360.402 28.1614C360.271 28.4768 360.08 28.7637 359.839 29.0051C359.597 29.2466 359.31 29.4379 358.995 29.5686C358.679 29.6992 358.341 29.7668 358 29.7668C357.658 29.7668 357.32 29.6992 357.005 29.5686C356.689 29.438 356.403 29.2464 356.162 29.0051C355.92 28.7637 355.729 28.4768 355.598 28.1614C355.468 27.8459 355.4 27.5077 355.4 27.1663C355.4 26.8249 355.468 26.4865 355.598 26.1711C355.729 25.8559 355.92 25.5697 356.162 25.3284C356.403 25.0871 356.689 24.8955 357.005 24.7649C357.32 24.6343 357.658 24.5667 358 24.5667ZM363.417 26.2336C365.084 26.2336 366.433 27.583 366.433 29.2502C366.433 29.5345 366.201 29.7668 365.917 29.7668C365.632 29.7668 365.4 29.5345 365.4 29.2502C365.4 28.1544 364.512 27.2668 363.417 27.2668H361.233V27.1663C361.233 26.8883 361.198 26.6152 361.132 26.3577L361.1 26.2336H363.417ZM358 25.5999C357.584 25.5999 357.186 25.7651 356.892 26.0588C356.599 26.3526 356.433 26.7509 356.433 27.1663C356.433 27.5818 356.598 27.9809 356.892 28.2747C357.186 28.5683 357.584 28.7336 358 28.7336C358.415 28.7336 358.814 28.5685 359.108 28.2747C359.402 27.9809 359.567 27.5818 359.567 27.1663C359.567 26.7509 359.402 26.3526 359.108 26.0588C358.814 25.765 358.415 25.5999 358 25.5999ZM353.417 21.2336C353.996 21.2336 354.551 21.463 354.961 21.8723C355.37 22.2817 355.6 22.8373 355.6 23.4163C355.6 23.9952 355.37 24.5508 354.961 24.9602C354.551 25.3697 353.996 25.5999 353.417 25.5999C352.838 25.5999 352.282 25.3697 351.873 24.9602C351.463 24.5508 351.233 23.9952 351.233 23.4163C351.233 22.8373 351.463 22.2817 351.873 21.8723C352.282 21.463 352.838 21.2336 353.417 21.2336ZM363 21.2336C363.579 21.2336 364.134 21.4631 364.544 21.8723C364.953 22.2817 365.183 22.8373 365.183 23.4163C365.183 23.9953 364.953 24.5508 364.544 24.9602C364.134 25.3697 363.579 25.5999 363 25.5999C362.421 25.5998 361.865 25.3696 361.456 24.9602C361.046 24.5508 360.817 23.9952 360.817 23.4163C360.817 22.8373 361.046 22.2817 361.456 21.8723C361.865 21.4629 362.421 21.2337 363 21.2336ZM353.417 22.2668C353.112 22.2668 352.819 22.3881 352.603 22.6038C352.388 22.8193 352.266 23.1115 352.266 23.4163C352.266 23.7212 352.388 24.0141 352.603 24.2297C352.819 24.4454 353.112 24.5667 353.417 24.5667C353.722 24.5667 354.014 24.4454 354.23 24.2297C354.446 24.0141 354.567 23.7212 354.567 23.4163C354.567 23.1115 354.446 22.8193 354.23 22.6038C354.014 22.3881 353.722 22.2668 353.417 22.2668ZM363 22.2668C362.695 22.2669 362.403 22.3882 362.187 22.6038C361.972 22.8193 361.85 23.1114 361.85 23.4163C361.85 23.7213 361.972 24.0141 362.187 24.2297C362.403 24.4452 362.695 24.5666 363 24.5667C363.305 24.5667 363.597 24.4454 363.813 24.2297C364.029 24.0141 364.15 23.7213 364.15 23.4163C364.15 23.1115 364.029 22.8193 363.813 22.6038C363.597 22.3881 363.305 22.2668 363 22.2668Z" fill="#3182CE" stroke="#3182CE" stroke-width="0.2"/>
<path d="M376 20C376 17.7909 377.791 16 380 16H396C398.209 16 400 17.7909 400 20V36C400 38.2091 398.209 40 396 40H380C377.791 40 376 38.2091 376 36V20Z" fill="#FEEBC8"/>
<path d="M387.029 25.2916H388.971L389.331 25.5208C390.737 26.4218 393.417 28.5468 393.417 32.1666C393.417 32.8567 392.857 33.4166 392.167 33.4166H383.833C383.143 33.4166 382.583 32.8567 382.583 32.1666C382.583 28.5468 385.263 26.4218 386.669 25.5208L387.029 25.2916ZM388.781 24.0416H387.219L387.023 23.7603L386.214 22.5833H389.786L388.977 23.7603L388.781 24.0416ZM385.26 24.9765C383.661 26.164 381.333 28.4895 381.333 32.1666C381.333 33.5468 382.453 34.6666 383.833 34.6666H392.167C393.547 34.6666 394.667 33.5468 394.667 32.1666C394.667 28.4895 392.339 26.164 390.74 24.9765C390.469 24.776 390.219 24.6067 390.005 24.4713L390.716 23.4426L391.492 22.3176C391.776 21.8984 391.479 21.3333 390.977 21.3333H385.023C384.521 21.3333 384.224 21.8984 384.508 22.3124L385.284 23.4374L385.995 24.4687C385.781 24.6067 385.531 24.7734 385.26 24.9739V24.9765ZM388.521 26.9583C388.521 26.6718 388.286 26.4374 388 26.4374C387.714 26.4374 387.479 26.6718 387.479 26.9583V27.3228C387.281 27.3671 387.083 27.4374 386.901 27.5442C386.539 27.7603 386.227 28.1379 386.229 28.6874C386.232 29.2161 386.542 29.5494 386.872 29.7473C387.159 29.9192 387.516 30.0286 387.799 30.1119L387.844 30.1249C388.172 30.2239 388.411 30.302 388.573 30.4036C388.706 30.4869 388.724 30.5442 388.727 30.6171C388.729 30.7473 388.68 30.8254 388.573 30.8905C388.443 30.9713 388.237 31.0208 388.016 31.0129C387.727 31.0025 387.456 30.9114 387.102 30.7916C387.042 30.7708 386.979 30.7499 386.914 30.7291C386.641 30.6379 386.346 30.7864 386.255 31.0572C386.164 31.328 386.312 31.6249 386.583 31.7161C386.633 31.7317 386.687 31.7499 386.742 31.7708C386.958 31.8463 387.208 31.9322 387.477 31.9895V32.3697C387.477 32.6562 387.711 32.8905 387.997 32.8905C388.284 32.8905 388.518 32.6562 388.518 32.3697V32.0103C388.727 31.9661 388.935 31.8931 389.122 31.776C389.495 31.5442 389.776 31.1484 389.768 30.6041C389.76 30.0754 389.464 29.7343 389.128 29.5208C388.828 29.3333 388.453 29.2187 388.161 29.1301L388.143 29.1249C387.81 29.0234 387.573 28.9504 387.406 28.8515C387.271 28.7708 387.268 28.7239 387.268 28.677C387.268 28.5806 387.305 28.5077 387.43 28.4348C387.57 28.3515 387.784 28.302 387.99 28.3046C388.24 28.3072 388.516 28.3619 388.802 28.44C389.081 28.5129 389.365 28.3489 389.44 28.0702C389.516 27.7916 389.349 27.5077 389.07 27.4322C388.901 27.3879 388.714 27.3437 388.521 27.3098V26.9478V26.9583Z" fill="#DD6B20"/>
<path d="M556 20C556 17.7909 557.791 16 560 16H576C578.209 16 580 17.7909 580 20V36C580 38.2091 578.209 40 576 40H560C557.791 40 556 38.2091 556 36V20Z" fill="#FEEBC8"/>
<path d="M572.401 22.1407L574.484 24.224C574.729 24.4688 574.729 24.8647 574.484 25.1069L572.401 27.1902C572.156 27.435 571.76 27.435 571.518 27.1902C571.276 26.9454 571.273 26.5496 571.518 26.3074L572.534 25.2917H570.5C570.172 25.2917 569.865 25.4454 569.667 25.7084L568.469 27.3048L567.688 26.2631L568.667 24.9584C569.099 24.3803 569.779 24.0417 570.5 24.0417H572.534L571.516 23.0261C571.271 22.7813 571.271 22.3855 571.516 22.1433C571.76 21.9011 572.156 21.8985 572.398 22.1433L572.401 22.1407ZM566.646 29.7371L565.667 31.0417C565.234 31.6199 564.555 31.9584 563.833 31.9584H561.958C561.612 31.9584 561.333 31.6798 561.333 31.3334C561.333 30.9871 561.612 30.7084 561.958 30.7084H563.833C564.161 30.7084 564.469 30.5548 564.667 30.2917L565.865 28.6954L566.646 29.7371ZM571.516 28.8074C571.76 28.5626 572.156 28.5626 572.398 28.8074L574.482 30.8907C574.727 31.1355 574.727 31.5313 574.482 31.7735L572.398 33.8569C572.154 34.1016 571.758 34.1016 571.516 33.8569C571.273 33.6121 571.271 33.2162 571.516 32.974L572.531 31.9584H570.5C569.779 31.9584 569.099 31.6199 568.667 31.0417L564.667 25.7084C564.469 25.4454 564.161 25.2917 563.833 25.2917H561.958C561.612 25.2917 561.333 25.0131 561.333 24.6667C561.333 24.3204 561.612 24.0417 561.958 24.0417H563.833C564.555 24.0417 565.234 24.3803 565.667 24.9584L569.667 30.2917C569.865 30.5548 570.172 30.7084 570.5 30.7084H572.534L571.518 29.6928C571.273 29.448 571.273 29.0522 571.518 28.81L571.516 28.8074Z" fill="#DD6B20"/>
<path d="M586 20C586 17.7909 587.791 16 590 16H606C608.209 16 610 17.7909 610 20V36C610 38.2091 608.209 40 606 40H590C587.791 40 586 38.2091 586 36V20Z" fill="#FEEBC8"/>
<path d="M598.547 24.0938C598.844 23.9115 599.042 23.5808 599.042 23.2084C599.042 22.6329 598.576 22.1667 598 22.1667C597.424 22.1667 596.958 22.6329 596.958 23.2084C596.958 23.5834 597.156 23.9115 597.453 24.0938L597.302 24.3959L595.961 27.0782C595.724 27.5522 595.109 27.6876 594.695 27.3569L592.82 25.8569L592.375 25.5001C592.505 25.3256 592.583 25.1095 592.583 24.8751C592.583 24.2996 592.117 23.8334 591.542 23.8334C590.966 23.8334 590.5 24.2996 590.5 24.8751C590.5 25.4506 590.966 25.9167 591.542 25.9167C591.547 25.9167 591.555 25.9167 591.56 25.9167L591.674 26.5391L592.75 32.4636C592.893 33.2553 593.583 33.8334 594.391 33.8334H601.609C602.414 33.8334 603.104 33.2579 603.25 32.4636L604.328 26.5391L604.443 25.9167C604.448 25.9167 604.456 25.9167 604.461 25.9167C605.036 25.9167 605.503 25.4506 605.503 24.8751C605.503 24.2996 605.036 23.8334 604.461 23.8334C603.885 23.8334 603.419 24.2996 603.419 24.8751C603.419 25.1095 603.497 25.3256 603.628 25.5001L603.182 25.8569L601.307 27.3569C600.893 27.6876 600.279 27.5522 600.042 27.0782L598.698 24.3985L598.547 24.0938ZM593.982 32.2423L593.161 27.7292L593.914 28.3308C594.951 29.1589 596.487 28.823 597.078 27.6355L598 25.7944L598.922 27.6355C599.516 28.823 601.052 29.1589 602.086 28.3308L602.839 27.7292L602.018 32.2423C601.982 32.4402 601.81 32.5834 601.609 32.5834H594.391C594.19 32.5834 594.016 32.4402 593.982 32.2423Z" fill="#DD6B20"/>
<path d="M526 20C526 17.7909 527.791 16 530 16H546C548.209 16 550 17.7909 550 20V36C550 38.2091 548.209 40 546 40H530C527.791 40 526 38.2091 526 36V20Z" fill="#FEEBC8"/>
<path d="M544.833 27.7837C545.412 27.7837 545.883 28.2543 545.883 28.8335V33.8335C545.883 34.4127 545.412 34.8833 544.833 34.8833H537.833C537.254 34.8833 536.784 34.4127 536.784 33.8335V28.8335C536.784 28.2543 537.254 27.7837 537.833 27.7837H544.833ZM537.633 33.8335C537.633 33.9434 537.723 34.0337 537.833 34.0337H544.833C544.943 34.0337 545.034 33.9434 545.034 33.8335V30.8833H537.633V33.8335ZM539.458 32.5337C539.694 32.5337 539.883 32.7231 539.883 32.9585C539.883 33.1939 539.694 33.3833 539.458 33.3833H538.708C538.473 33.3833 538.284 33.1939 538.284 32.9585C538.284 32.7231 538.473 32.5337 538.708 32.5337H539.458ZM542.458 32.5337C542.694 32.5337 542.883 32.7231 542.883 32.9585C542.883 33.1939 542.694 33.3833 542.458 33.3833H540.708C540.473 33.3833 540.284 33.1939 540.284 32.9585C540.284 32.7231 540.473 32.5337 540.708 32.5337H542.458ZM537.833 28.6333C537.723 28.6333 537.633 28.7236 537.633 28.8335V29.2837H545.034V28.8335C545.034 28.7236 544.943 28.6333 544.833 28.6333H537.833Z" fill="#DD6B20" stroke="#DD6B20" stroke-width="0.1"/>
<path d="M536.662 20C538.65 20 540.557 20.7926 541.963 22.2031C543.183 23.4276 543.939 25.0307 544.117 26.7373H542.702C542.675 26.525 542.638 26.316 542.589 26.1113H540.343C540.363 26.3167 540.377 26.5256 540.388 26.7373H538.982C538.97 26.5243 538.953 26.3154 538.932 26.1113H534.394C534.347 26.5607 534.32 27.0339 534.32 27.5215C534.32 28.0091 534.347 28.4822 534.394 28.9316H535.882V30.3418H534.625C534.789 31.0584 535.011 31.6901 535.269 32.21C535.481 32.6364 535.691 32.9385 535.882 33.1514V35C534.181 34.8213 532.583 34.0643 531.362 32.8398C529.957 31.4294 529.167 29.5161 529.167 27.5215C529.167 25.5268 529.957 23.6136 531.362 22.2031C532.768 20.7927 534.674 20.0001 536.662 20ZM531.258 30.3418C531.884 31.5491 532.9 32.519 534.139 33.0859H534.142C533.729 32.3339 533.4 31.3965 533.187 30.3418H531.258ZM530.736 26.1113C530.631 26.5637 530.572 27.0369 530.572 27.5215C530.572 28.0061 530.628 28.4793 530.736 28.9316H532.982C532.939 28.4764 532.918 28.0032 532.918 27.5215C532.918 27.0398 532.941 26.5666 532.982 26.1113H530.736ZM536.662 21.4102C536.445 21.4105 535.871 21.6225 535.269 22.832C535.011 23.3519 534.789 23.9836 534.625 24.7002H538.7C538.536 23.9836 538.314 23.3519 538.057 22.832C537.453 21.6216 536.879 21.4102 536.662 21.4102ZM539.184 21.957C539.596 22.709 539.925 23.6458 540.139 24.7002H542.064C541.438 23.493 540.422 22.524 539.184 21.957ZM534.139 21.957C532.9 22.524 531.884 23.493 531.258 24.7002H533.184C533.397 23.6457 533.726 22.712 534.139 21.957Z" fill="#DD6B20"/>
<path d="M406 20C406 17.7909 407.791 16 410 16H426C428.209 16 430 17.7909 430 20V36C430 38.2091 428.209 40 426 40H410C407.791 40 406 38.2091 406 36V20Z" fill="black" fill-opacity="0.15"/>
<path d="M419.727 28.3124C419.971 28.3801 420.229 28.4166 420.5 28.4166C422.076 28.4166 423.359 27.1666 423.414 25.6041L422.755 26.2629C422.443 26.5754 422.018 26.7499 421.576 26.7499H420.917C419.997 26.7499 419.25 26.0025 419.25 25.0833V24.4218C419.25 23.9791 419.424 23.5546 419.737 23.2421L420.396 22.5859C418.833 22.6379 417.583 23.9244 417.583 25.4999C417.583 25.7681 417.62 26.0286 417.687 26.2734C417.807 26.7056 417.682 27.1692 417.365 27.4869L412.82 32.0286C412.667 32.1796 412.583 32.3879 412.583 32.6041C412.583 33.052 412.948 33.4166 413.396 33.4166C413.612 33.4166 413.818 33.3306 413.971 33.1796L418.513 28.6353C418.831 28.3176 419.294 28.1952 419.727 28.3124ZM422.391 22.3593L420.622 24.1275C420.544 24.2056 420.5 24.3124 420.5 24.4218V25.0833C420.5 25.3124 420.687 25.4999 420.917 25.4999H421.578C421.687 25.4999 421.794 25.4556 421.872 25.3775L423.641 23.6093C423.828 23.4218 424.143 23.4556 424.258 23.6952C424.521 24.2421 424.667 24.8541 424.667 25.4999C424.667 27.802 422.802 29.6666 420.5 29.6666C420.117 29.6666 419.747 29.6145 419.398 29.5181L414.854 34.0624C414.466 34.4504 413.943 34.6666 413.396 34.6666C412.258 34.6666 411.333 33.7421 411.333 32.6041C411.333 32.0572 411.549 31.5338 411.937 31.1458L416.482 26.6015C416.385 26.2525 416.333 25.8827 416.333 25.4999C416.333 23.1978 418.198 21.3333 420.5 21.3333C421.146 21.3333 421.758 21.4817 422.305 21.7421C422.544 21.8567 422.578 22.1718 422.391 22.3593ZM413.625 31.9583C413.736 31.9583 413.841 32.0022 413.92 32.0803C413.998 32.1584 414.042 32.2644 414.042 32.3749C414.042 32.4854 413.998 32.5914 413.92 32.6695C413.841 32.7477 413.736 32.7916 413.625 32.7916C413.514 32.7916 413.409 32.7477 413.33 32.6695C413.252 32.5914 413.208 32.4854 413.208 32.3749C413.208 32.2644 413.252 32.1584 413.33 32.0803C413.409 32.0022 413.514 31.9583 413.625 31.9583Z" fill="black" fill-opacity="0.45"/>
<path d="M436 20C436 17.7909 437.791 16 440 16H456C458.209 16 460 17.7909 460 20V36C460 38.2091 458.209 40 456 40H440C437.791 40 436 38.2091 436 36V20Z" fill="#C4F1F9"/>
<path d="M454.484 22.4011C454.729 22.1563 454.729 21.7605 454.484 21.5183C454.24 21.2761 453.844 21.2735 453.602 21.5183L450.057 25.0574L449.721 24.7214C449.195 24.1954 448.383 24.0808 447.734 24.4428L441.76 27.7631C441.497 27.9089 441.333 28.1876 441.333 28.4897C441.333 28.711 441.422 28.922 441.576 29.0782L446.924 34.4246C447.081 34.5808 447.292 34.6667 447.513 34.6667C447.815 34.6667 448.094 34.5027 448.24 34.2397L451.557 28.2657C451.919 27.6147 451.805 26.8048 451.279 26.2787L450.943 25.9428L454.484 22.4011ZM449.76 28.9272L447.417 33.1485L444.901 30.6329L445.37 29.2292C445.424 29.0652 445.268 28.9115 445.107 28.9662L443.701 29.4324L442.854 28.586L447.076 26.2423L449.76 28.9272Z" fill="#00B5D8"/>
<path d="M676 20C676 17.7909 677.791 16 680 16H696C698.209 16 700 17.7909 700 20V36C700 38.2091 698.209 40 696 40H680C677.791 40 676 38.2091 676 36V20Z" fill="#BEE3F8"/>
<path d="M695 22.5C695.275 22.5 695.5 22.725 695.5 23V24H680.5V23C680.5 22.725 680.725 22.5 681 22.5H695ZM695.5 27V33C695.5 33.275 695.275 33.5 695 33.5H681C680.725 33.5 680.5 33.275 680.5 33V27H695.5ZM681 21C679.897 21 679 21.8969 679 23V33C679 34.1031 679.897 35 681 35H695C696.103 35 697 34.1031 697 33V23C697 21.8969 696.103 21 695 21H681ZM682.75 30.5C682.334 30.5 682 30.8344 682 31.25C682 31.6656 682.334 32 682.75 32H684.25C684.666 32 685 31.6656 685 31.25C685 30.8344 684.666 30.5 684.25 30.5H682.75ZM686.75 30.5C686.334 30.5 686 30.8344 686 31.25C686 31.6656 686.334 32 686.75 32H690.25C690.666 32 691 31.6656 691 31.25C691 30.8344 690.666 30.5 690.25 30.5H686.75Z" fill="#3182CE"/>
<path d="M706 20C706 17.7909 707.791 16 710 16H726C728.209 16 730 17.7909 730 20V36C730 38.2091 728.209 40 726 40H710C707.791 40 706 38.2091 706 36V20Z" fill="#48BB78"/>
<path d="M718 21.5C719.724 21.5 721.377 22.1848 722.596 23.4038C723.815 24.6228 724.5 26.2761 724.5 28C724.5 29.7239 723.815 31.3772 722.596 32.5962C721.377 33.8152 719.724 34.5 718 34.5C716.276 34.5 714.623 33.8152 713.404 32.5962C712.185 31.3772 711.5 29.7239 711.5 28C711.5 26.2761 712.185 24.6228 713.404 23.4038C714.623 22.1848 716.276 21.5 718 21.5ZM718 36C720.122 36 722.157 35.1571 723.657 33.6569C725.157 32.1566 726 30.1217 726 28C726 25.8783 725.157 23.8434 723.657 22.3431C722.157 20.8429 720.122 20 718 20C715.878 20 713.843 20.8429 712.343 22.3431C710.843 23.8434 710 25.8783 710 28C710 30.1217 710.843 32.1566 712.343 33.6569C713.843 35.1571 715.878 36 718 36ZM721.531 26.5312C721.825 26.2375 721.825 25.7625 721.531 25.4719C721.238 25.1813 720.763 25.1781 720.472 25.4719L717.003 28.9406L715.534 27.4719C715.241 27.1781 714.766 27.1781 714.475 27.4719C714.184 27.7656 714.181 28.2406 714.475 28.5312L716.475 30.5312C716.769 30.825 717.244 30.825 717.534 30.5312L721.531 26.5312Z" fill="white"/>
<path d="M766 20C766 17.7909 767.791 16 770 16H786C788.209 16 790 17.7909 790 20V36C790 38.2091 788.209 40 786 40H770C767.791 40 766 38.2091 766 36V20Z" fill="#0BC5EA"/>
<path d="M776.5 25.5C776.5 23.2906 778.291 21.5 780.5 21.5C782.709 21.5 784.5 23.2906 784.5 25.5C784.5 27.7094 782.709 29.5 780.5 29.5C780.175 29.5 779.859 29.4625 779.559 29.3875C779.306 29.325 779.038 29.4 778.853 29.5875L777.941 30.5H776.25C775.834 30.5 775.5 30.8344 775.5 31.25V32.5H774.25C773.834 32.5 773.5 32.8344 773.5 33.25V34.5H771.5V32.0594L776.413 27.1469C776.597 26.9625 776.672 26.6938 776.613 26.4406C776.541 26.1406 776.5 25.825 776.5 25.5ZM780.5 20C777.463 20 775 22.4625 775 25.5C775 25.7969 775.022 26.0875 775.069 26.3719L770.219 31.2188C770.078 31.3594 770 31.55 770 31.75V35.25C770 35.6656 770.334 36 770.75 36H774.25C774.666 36 775 35.6656 775 35.25V34H776.25C776.666 34 777 33.6656 777 33.25V32H778.25C778.45 32 778.641 31.9219 778.781 31.7812L779.631 30.9312C779.916 30.975 780.206 31 780.503 31C783.541 31 786.003 28.5375 786.003 25.5C786.003 22.4625 783.538 20 780.5 20ZM781.5 25.5C781.765 25.5 782.02 25.3946 782.207 25.2071C782.395 25.0196 782.5 24.7652 782.5 24.5C782.5 24.2348 782.395 23.9804 782.207 23.7929C782.02 23.6054 781.765 23.5 781.5 23.5C781.235 23.5 780.98 23.6054 780.793 23.7929C780.605 23.9804 780.5 24.2348 780.5 24.5C780.5 24.7652 780.605 25.0196 780.793 25.2071C780.98 25.3946 781.235 25.5 781.5 25.5Z" fill="white"/>
<path d="M736 20C736 17.7909 737.791 16 740 16H756C758.209 16 760 17.7909 760 20V36C760 38.2091 758.209 40 756 40H740C737.791 40 736 38.2091 736 36V20Z" fill="#898989"/>
<path d="M745.5 26.7499C746.053 26.7499 746.582 26.5304 746.973 26.1397C747.364 25.749 747.583 25.2191 747.583 24.6666C747.583 24.1141 747.364 23.5841 746.973 23.1934C746.582 22.8027 746.053 22.5833 745.5 22.5833C744.947 22.5833 744.418 22.8027 744.027 23.1934C743.636 23.5841 743.417 24.1141 743.417 24.6666C743.417 25.2191 743.636 25.749 744.027 26.1397C744.418 26.5304 744.947 26.7499 745.5 26.7499ZM745.5 21.3333C746.384 21.3333 747.232 21.6844 747.857 22.3096C748.482 22.9347 748.833 23.7825 748.833 24.6666C748.833 25.5506 748.482 26.3985 747.857 27.0236C747.232 27.6487 746.384 27.9999 745.5 27.9999C744.616 27.9999 743.768 27.6487 743.143 27.0236C742.518 26.3985 742.167 25.5506 742.167 24.6666C742.167 23.7825 742.518 22.9347 743.143 22.3096C743.768 21.6844 744.616 21.3333 745.5 21.3333ZM740.951 33.4166H748.742C749.063 33.9062 749.471 34.3306 749.948 34.6666H740.44C740.013 34.6666 739.667 34.3202 739.667 33.8931C739.667 31.328 741.745 29.2499 744.31 29.2499H745.5H746.69C747.227 29.2499 747.742 29.3411 748.221 29.5077C748.094 29.9062 748.018 30.3254 748.003 30.7629C747.599 30.5937 747.156 30.4999 746.69 30.4999H744.31C742.599 30.4999 741.182 31.7681 740.951 33.4166ZM748.833 30.9166C748.833 29.922 749.228 28.9682 749.932 28.2649C750.635 27.5617 751.589 27.1666 752.583 27.1666C753.578 27.1666 754.532 27.5617 755.235 28.2649C755.938 28.9682 756.333 29.922 756.333 30.9166C756.333 31.9111 755.938 32.865 755.235 33.5682C754.532 34.2715 753.578 34.6666 752.583 34.6666C751.589 34.6666 750.635 34.2715 749.932 33.5682C749.228 32.865 748.833 31.9111 748.833 30.9166ZM752.583 28.8333C752.354 28.8333 752.167 29.0208 752.167 29.2499V30.9166C752.167 31.1458 752.354 31.3333 752.583 31.3333H753.833C754.063 31.3333 754.25 31.1458 754.25 30.9166C754.25 30.6874 754.063 30.4999 753.833 30.4999H753V29.2499C753 29.0208 752.813 28.8333 752.583 28.8333Z" fill="white"/>
<path d="M796 20C796 17.7909 797.791 16 800 16H816C818.209 16 820 17.7909 820 20V36C820 38.2091 818.209 40 816 40H800C797.791 40 796 38.2091 796 36V20Z" fill="#6B85FF"/>
<path d="M805.896 21.333C806.505 21.333 807 21.8281 807 22.4375V34.667H799.291C798.945 34.6667 798.666 34.388 798.666 34.042C798.666 33.6958 798.945 33.4172 799.291 33.417H800.333V23.75C800.333 23.1849 800.714 22.6904 801.258 22.542L805.61 21.3721C805.703 21.3461 805.799 21.333 805.896 21.333ZM812 33.417H813.041C813.388 33.417 813.666 33.6956 813.666 34.042C813.666 34.3882 813.387 34.667 813.041 34.667H811.375C811.029 34.667 810.75 34.3882 810.75 34.042V31.333H812V33.417ZM801.583 23.75V33.417H805.75V22.6279L801.583 23.75ZM804.5 27.167C804.844 27.1671 805.125 27.5418 805.125 28C805.125 28.4582 804.844 28.8329 804.5 28.833C804.154 28.833 803.875 28.4583 803.875 28C803.875 27.5417 804.156 27.167 804.5 27.167ZM810.541 23C811.346 23 812 23.6535 812 24.458V26.333H810.75V24.458C810.75 24.3436 810.656 24.25 810.541 24.25H807.833V23H810.541Z" fill="white"/>
<path d="M814.615 25.7203C814.321 25.4266 813.846 25.4266 813.555 25.7203C813.265 26.0141 813.261 26.4891 813.555 26.7797L814.774 27.9984H809.417C809.001 27.9984 808.667 28.3328 808.667 28.7484C808.667 29.1641 809.001 29.4984 809.417 29.4984H814.774L813.555 30.7172C813.261 31.0109 813.261 31.4859 813.555 31.7766C813.849 32.0672 814.324 32.0703 814.615 31.7766L817.115 29.2766C817.408 28.9828 817.408 28.5078 817.115 28.2172L814.615 25.7172V25.7203Z" fill="white"/>
</svg>
