<svg width="24" height="24" viewBox="0 0 24 24" fill="none" xmlns="http://www.w3.org/2000/svg">
<path d="M11.4 4.26365V19.7999H5.40001V5.8799L11.4 4.26365ZM13.2 19.7999V3.9899C13.2 3.1124 12.4875 2.3999 11.61 2.3999C11.4713 2.3999 11.3325 2.41865 11.1975 2.45615L4.93126 4.1399C4.14751 4.35365 3.60001 5.06615 3.60001 5.8799V19.7999H2.10001C1.60126 19.7999 1.20001 20.2012 1.20001 20.6999C1.20001 21.1987 1.60126 21.5999 2.10001 21.5999H3.60001H4.80001H5.40001H11.4H13.2V19.7999ZM9.60001 13.1999C10.095 13.1999 10.5 12.6599 10.5 11.9999C10.5 11.3399 10.095 10.7999 9.60001 10.7999C9.10501 10.7999 8.70001 11.3399 8.70001 11.9999C8.70001 12.6599 9.10126 13.1999 9.60001 13.1999ZM14.4 6.5999H18.3C18.465 6.5999 18.6 6.7349 18.6 6.8999V20.6999C18.6 21.1987 19.0013 21.5999 19.5 21.5999H21.9C22.3988 21.5999 22.8 21.1987 22.8 20.6999C22.8 20.2012 22.3988 19.7999 21.9 19.7999H20.4V6.8999C20.4 5.74115 19.4588 4.7999 18.3 4.7999H14.4V6.5999Z" fill="black" fill-opacity="0.45"/>
</svg>
