<svg width="24" height="24" viewBox="0 0 24 24" fill="none" xmlns="http://www.w3.org/2000/svg">
<path d="M12 4C12.4156 4 12.75 4.33437 12.75 4.75V19.25C12.75 19.6656 12.4156 20 12 20C11.5844 20 11.25 19.6656 11.25 19.25V4.75C11.25 4.33437 11.5844 4 12 4ZM5.5 9.20625V14.7906L8.29375 12L5.5 9.20625ZM4 8C4 7.59687 4.24375 7.23125 4.61875 7.075C4.99375 6.91875 5.42188 7.00625 5.70938 7.29063L9.70937 11.2906C10.1 11.6813 10.1 12.3156 9.70937 12.7063L5.70938 16.7063C5.42188 16.9938 4.99375 17.0781 4.61875 16.9219C4.24375 16.7656 4 16.4031 4 16V8ZM15.7063 12L18.5 14.7937V9.20937L15.7063 12ZM19.3813 7.075C19.7563 7.23125 20 7.59375 20 8V16C20 16.4031 19.7563 16.7688 19.3813 16.925C19.0063 17.0813 18.5781 16.9938 18.2906 16.7094L14.2906 12.7094C13.9 12.3188 13.9 11.6844 14.2906 11.2937L18.2906 7.29375C18.5781 7.00625 19.0063 6.92188 19.3813 7.07812V7.075Z" fill="black" fill-opacity="0.45"/>
</svg>
