<svg width="24" height="24" viewBox="0 0 24 24" fill="none" xmlns="http://www.w3.org/2000/svg">
<path d="M2.10001 2.3999C1.60126 2.3999 1.20001 2.80115 1.20001 3.2999C1.20001 3.79865 1.60126 4.1999 2.10001 4.1999H21.9C22.3988 4.1999 22.8 3.79865 22.8 3.2999C22.8 2.80115 22.3988 2.3999 21.9 2.3999H2.10001ZM2.40001 5.3999V13.4999C2.40001 14.6587 3.34126 15.5999 4.50001 15.5999H11.1V17.3287L8.36251 20.0662C8.01001 20.4187 8.01001 20.9887 8.36251 21.3374C8.71501 21.6862 9.28501 21.6899 9.63376 21.3374L11.9963 18.9749L14.3588 21.3374C14.7113 21.6899 15.2813 21.6899 15.63 21.3374C15.9788 20.9849 15.9825 20.4149 15.63 20.0662L12.8925 17.3287V15.5999H19.5C20.6588 15.5999 21.6 14.6587 21.6 13.4999V5.3999H19.8V13.4999C19.8 13.6649 19.665 13.7999 19.5 13.7999H12H4.50001C4.33501 13.7999 4.20001 13.6649 4.20001 13.4999V5.3999H2.40001Z" fill="black" fill-opacity="0.45"/>
</svg>
