<svg width="24" height="24" viewBox="0 0 24 24" fill="none" xmlns="http://www.w3.org/2000/svg">
<path d="M8.4 7.84063C9.36562 7.00625 10.625 6.5 12 6.5C15.0375 6.5 17.5 8.9625 17.5 12C17.5 15.0375 15.0375 17.5 12 17.5C10.7594 17.5 9.61875 17.0906 8.7 16.4C8.36875 16.15 7.9 16.2188 7.65 16.55C7.4 16.8813 7.46875 17.35 7.8 17.6C8.96875 18.4781 10.425 19 12 19C15.8656 19 19 15.8656 19 12C19 8.13438 15.8656 5 12 5C10.2094 5 8.575 5.67188 7.3375 6.77813L6.38438 5.82187C6.17813 5.61562 5.89687 5.5 5.60312 5.5C4.99375 5.5 4.5 5.99375 4.5 6.60313V10.25C4.5 10.6656 4.83437 11 5.25 11H8.89687C9.50625 11 10 10.5062 10 9.89687C10 9.60313 9.88438 9.325 9.67812 9.11562L8.40312 7.84063H8.4ZM6 7.55938L7.94062 9.5H6V7.55938Z" fill="black" fill-opacity="0.45"/>
</svg>
