<svg width="24" height="24" viewBox="0 0 24 24" fill="none" xmlns="http://www.w3.org/2000/svg">
<path d="M5.71467 6.28571V17.7143C5.71467 18.0286 5.97187 18.2857 6.28622 18.2857H17.7173C18.0317 18.2857 18.2889 18.0286 18.2889 17.7143V8.94643C18.2889 8.79643 18.2282 8.65 18.121 8.54286L19.332 7.33214C19.7607 7.76071 20 8.34286 20 8.95V17.7143C20 18.975 18.9748 20 17.7138 20H6.28622C5.02523 20 4 18.975 4 17.7143V6.28571C4 5.025 5.02523 4 6.28622 4H15.056C15.6633 4 16.2456 4.23929 16.6743 4.66786L19.3356 7.32857L18.1246 8.53929L15.4597 5.88214C15.449 5.87143 15.4418 5.86429 15.4311 5.85357V9.42857C15.4311 9.90357 15.0489 10.2857 14.5738 10.2857H7.71512C7.24001 10.2857 6.85778 9.90357 6.85778 9.42857V5.71429H6.28622C5.97187 5.71429 5.71467 5.97143 5.71467 6.28571ZM8.57245 5.71429V8.57143H13.7165V5.71429H8.57245ZM9.71556 14.2857C9.71556 13.6795 9.95643 13.0981 10.3852 12.6695C10.8139 12.2408 11.3954 12 12.0018 12C12.6081 12 13.1896 12.2408 13.6184 12.6695C14.0471 13.0981 14.288 13.6795 14.288 14.2857C14.288 14.8919 14.0471 15.4733 13.6184 15.902C13.1896 16.3306 12.6081 16.5714 12.0018 16.5714C11.3954 16.5714 10.8139 16.3306 10.3852 15.902C9.95643 15.4733 9.71556 14.8919 9.71556 14.2857Z" fill="black" fill-opacity="0.45"/>
</svg>
