<svg width="24" height="24" viewBox="0 0 24 24" fill="none" xmlns="http://www.w3.org/2000/svg">
<path d="M0 4C0 1.79086 1.79086 0 4 0H20C22.2091 0 24 1.79086 24 4V20C24 22.2091 22.2091 24 20 24H4C1.79086 24 0 22.2091 0 20V4Z" fill="#FED7D7"/>
<path d="M12 5.5C13.7239 5.5 15.3772 6.18482 16.5962 7.40381C17.8152 8.62279 18.5 10.2761 18.5 12C18.5 13.7239 17.8152 15.3772 16.5962 16.5962C15.3772 17.8152 13.7239 18.5 12 18.5C10.2761 18.5 8.62279 17.8152 7.40381 16.5962C6.18482 15.3772 5.5 13.7239 5.5 12C5.5 10.2761 6.18482 8.62279 7.40381 7.40381C8.62279 6.18482 10.2761 5.5 12 5.5ZM12 20C14.1217 20 16.1566 19.1571 17.6569 17.6569C19.1571 16.1566 20 14.1217 20 12C20 9.87827 19.1571 7.84344 17.6569 6.34315C16.1566 4.84285 14.1217 4 12 4C9.87827 4 7.84344 4.84285 6.34315 6.34315C4.84285 7.84344 4 9.87827 4 12C4 14.1217 4.84285 16.1566 6.34315 17.6569C7.84344 19.1571 9.87827 20 12 20ZM12 8C11.5844 8 11.25 8.33437 11.25 8.75V12.25C11.25 12.6656 11.5844 13 12 13C12.4156 13 12.75 12.6656 12.75 12.25V8.75C12.75 8.33437 12.4156 8 12 8ZM13 15C13 14.7348 12.8946 14.4804 12.7071 14.2929C12.5196 14.1054 12.2652 14 12 14C11.7348 14 11.4804 14.1054 11.2929 14.2929C11.1054 14.4804 11 14.7348 11 15C11 15.2652 11.1054 15.5196 11.2929 15.7071C11.4804 15.8946 11.7348 16 12 16C12.2652 16 12.5196 15.8946 12.7071 15.7071C12.8946 15.5196 13 15.2652 13 15Z" fill="#E53E3E"/>
</svg>
