<svg width="24" height="24" viewBox="0 0 24 24" fill="none" xmlns="http://www.w3.org/2000/svg">
<path d="M0 4C0 1.79086 1.79086 0 4 0H20C22.2091 0 24 1.79086 24 4V20C24 22.2091 22.2091 24 20 24H4C1.79086 24 0 22.2091 0 20V4Z" fill="#FEEBC8"/>
<path d="M13.9937 3.60322C14.3906 3.60322 14.7719 3.7626 15.0533 4.04385L19.2259 8.2126C19.5072 8.49385 19.6667 8.8751 19.6667 9.27197V13.922C19.6667 14.3188 19.5072 14.7001 19.2259 14.9813L15.0533 19.1595C14.7719 19.4407 14.3906 19.6001 13.9937 19.6001H9.34276C8.94581 19.6001 8.56449 19.4407 8.28318 19.1595L4.10737 14.9876C3.82606 14.7063 3.66666 14.3251 3.66666 13.9282V9.27822C3.66666 8.88135 3.82606 8.5001 4.10737 8.21885L8.28006 4.04072C8.56136 3.75947 8.94269 3.6001 9.33964 3.6001H13.9905L13.9937 3.60322ZM5.16695 9.2751V13.9251L9.33964 18.097H13.9905L18.1632 13.9251V9.2751L13.9905 5.10322H9.33964L5.16695 9.2751ZM11.6651 7.8501C12.0808 7.8501 12.4152 8.18447 12.4152 8.6001V12.1001C12.4152 12.5157 12.0808 12.8501 11.6651 12.8501C11.2494 12.8501 10.9149 12.5157 10.9149 12.1001V8.6001C10.9149 8.18447 11.2494 7.8501 11.6651 7.8501ZM10.8337 14.6001C10.8267 14.4864 10.8431 14.3726 10.8818 14.2655C10.9205 14.1584 10.9807 14.0603 11.0588 13.9774C11.1368 13.8945 11.231 13.8284 11.3355 13.7832C11.4401 13.738 11.5528 13.7147 11.6667 13.7147C11.7805 13.7147 11.8932 13.738 11.9978 13.7832C12.1023 13.8284 12.1965 13.8945 12.2745 13.9774C12.3526 14.0603 12.4128 14.1584 12.4515 14.2655C12.4902 14.3726 12.5066 14.4864 12.4996 14.6001C12.5066 14.7138 12.4902 14.8276 12.4515 14.9347C12.4128 15.0418 12.3526 15.1399 12.2745 15.2228C12.1965 15.3057 12.1023 15.3718 11.9978 15.417C11.8932 15.4622 11.7805 15.4855 11.6667 15.4855C11.5528 15.4855 11.4401 15.4622 11.3355 15.417C11.231 15.3718 11.1368 15.3057 11.0588 15.2228C10.9807 15.1399 10.9205 15.0418 10.8818 14.9347C10.8431 14.8276 10.8267 14.7138 10.8337 14.6001Z" fill="#DD6B20"/>
</svg>
