<svg width="24" height="24" viewBox="0 0 24 24" fill="none" xmlns="http://www.w3.org/2000/svg">
<path d="M16.8 4.1999C17.13 4.1999 17.4 4.4699 17.4 4.7999V19.1999C17.4 19.5299 17.13 19.7999 16.8 19.7999H5.99998C5.66998 19.7999 5.39998 19.5299 5.39998 19.1999V4.7999C5.39998 4.4699 5.66998 4.1999 5.99998 4.1999H16.8ZM5.99998 2.3999C4.67623 2.3999 3.59998 3.47615 3.59998 4.7999V19.1999C3.59998 20.5237 4.67623 21.5999 5.99998 21.5999H16.8C18.1237 21.5999 19.2 20.5237 19.2 19.1999V4.7999C19.2 3.47615 18.1237 2.3999 16.8 2.3999H5.99998ZM11.4 11.9999C12.0365 11.9999 12.6469 11.747 13.097 11.297C13.5471 10.8469 13.8 10.2364 13.8 9.5999C13.8 8.96338 13.5471 8.35293 13.097 7.90285C12.6469 7.45276 12.0365 7.1999 11.4 7.1999C10.7635 7.1999 10.153 7.45276 9.70292 7.90285C9.25283 8.35293 8.99998 8.96338 8.99998 9.5999C8.99998 10.2364 9.25283 10.8469 9.70292 11.297C10.153 11.747 10.7635 11.9999 11.4 11.9999ZM10.2 13.1999C8.54248 13.1999 7.19998 14.5424 7.19998 16.1999C7.19998 16.5299 7.46998 16.7999 7.79998 16.7999H15C15.33 16.7999 15.6 16.5299 15.6 16.1999C15.6 14.5424 14.2575 13.1999 12.6 13.1999H10.2ZM21.6 5.3999C21.6 5.0699 21.33 4.7999 21 4.7999C20.67 4.7999 20.4 5.0699 20.4 5.3999V7.7999C20.4 8.1299 20.67 8.3999 21 8.3999C21.33 8.3999 21.6 8.1299 21.6 7.7999V5.3999ZM21 9.5999C20.67 9.5999 20.4 9.8699 20.4 10.1999V12.5999C20.4 12.9299 20.67 13.1999 21 13.1999C21.33 13.1999 21.6 12.9299 21.6 12.5999V10.1999C21.6 9.8699 21.33 9.5999 21 9.5999ZM21.6 14.9999C21.6 14.6699 21.33 14.3999 21 14.3999C20.67 14.3999 20.4 14.6699 20.4 14.9999V17.3999C20.4 17.7299 20.67 17.9999 21 17.9999C21.33 17.9999 21.6 17.7299 21.6 17.3999V14.9999Z" fill="black" fill-opacity="0.45"/>
</svg>
