<svg width="24" height="24" viewBox="0 0 24 24" fill="none" xmlns="http://www.w3.org/2000/svg">
<path d="M20.4 5.4001C20.73 5.4001 21 5.6701 21 6.0001V18.0001C21 18.3301 20.73 18.6001 20.4 18.6001H3.60001C3.27001 18.6001 3.00001 18.3301 3.00001 18.0001V6.0001C3.00001 5.6701 3.27001 5.4001 3.60001 5.4001H20.4ZM3.60001 3.6001C2.27626 3.6001 1.20001 4.67635 1.20001 6.0001V18.0001C1.20001 19.3238 2.27626 20.4001 3.60001 20.4001H20.4C21.7238 20.4001 22.8 19.3238 22.8 18.0001V6.0001C22.8 4.67635 21.7238 3.6001 20.4 3.6001H3.60001ZM9.00001 12.0001C9.63653 12.0001 10.247 11.7472 10.6971 11.2972C11.1472 10.8471 11.4 10.2366 11.4 9.6001C11.4 8.96358 11.1472 8.35313 10.6971 7.90304C10.247 7.45295 9.63653 7.2001 9.00001 7.2001C8.36349 7.2001 7.75304 7.45295 7.30296 7.90304C6.85287 8.35313 6.60001 8.96358 6.60001 9.6001C6.60001 10.2366 6.85287 10.8471 7.30296 11.2972C7.75304 11.7472 8.36349 12.0001 9.00001 12.0001ZM7.80001 13.2001C6.14251 13.2001 4.80001 14.5426 4.80001 16.2001C4.80001 16.5301 5.07001 16.8001 5.40001 16.8001H12.6C12.93 16.8001 13.2 16.5301 13.2 16.2001C13.2 14.5426 11.8575 13.2001 10.2 13.2001H7.80001ZM15.3 7.8001C14.8013 7.8001 14.4 8.20135 14.4 8.7001C14.4 9.19885 14.8013 9.6001 15.3 9.6001H18.3C18.7988 9.6001 19.2 9.19885 19.2 8.7001C19.2 8.20135 18.7988 7.8001 18.3 7.8001H15.3ZM15.3 11.4001C14.8013 11.4001 14.4 11.8013 14.4 12.3001C14.4 12.7988 14.8013 13.2001 15.3 13.2001H18.3C18.7988 13.2001 19.2 12.7988 19.2 12.3001C19.2 11.8013 18.7988 11.4001 18.3 11.4001H15.3Z" fill="black" fill-opacity="0.45"/>
</svg>
