<svg width="24" height="24" viewBox="0 0 24 24" fill="none" xmlns="http://www.w3.org/2000/svg">
<path d="M8.39999 3.35252C7.76249 2.76002 6.90749 2.40002 5.96999 2.40002C3.99749 2.40002 2.39999 3.99752 2.39999 5.97002C2.39999 6.67502 2.60624 7.33127 2.95874 7.88627L8.39999 3.35252ZM12 6.60002C13.7504 6.60002 15.4292 7.29538 16.6669 8.53312C17.9046 9.77086 18.6 11.4496 18.6 13.2C18.6 14.9505 17.9046 16.6292 16.6669 17.8669C15.4292 19.1047 13.7504 19.8 12 19.8C10.2496 19.8 8.57083 19.1047 7.33309 17.8669C6.09535 16.6292 5.39999 14.9505 5.39999 13.2C5.39999 11.4496 6.09535 9.77086 7.33309 8.53312C8.57083 7.29538 10.2496 6.60002 12 6.60002ZM12 21.6C13.995 21.6 15.8287 20.9025 17.2687 19.7438L18.8625 21.3375C19.215 21.69 19.785 21.69 20.1337 21.3375C20.4825 20.985 20.4862 20.415 20.1337 20.0663L18.54 18.4725C19.7025 17.0325 20.3962 15.1988 20.3962 13.2038C20.4 8.56128 16.6387 4.80002 12 4.80002C7.36124 4.80002 3.59999 8.56128 3.59999 13.2C3.59999 15.195 4.29749 17.0288 5.45624 18.4688L3.86249 20.0625C3.50999 20.415 3.50999 20.985 3.86249 21.3338C4.21499 21.6825 4.78499 21.6863 5.13374 21.3338L6.72749 19.74C8.16749 20.9025 10.0012 21.5963 11.9962 21.5963L12 21.6ZM21.0412 7.89002C21.3937 7.33502 21.6 6.67502 21.6 5.97002C21.6 3.99752 20.0025 2.40002 18.03 2.40002C17.0925 2.40002 16.2375 2.76002 15.6 3.35252L21.0412 7.89002ZM12.9 9.30002C12.9 8.80127 12.4987 8.40002 12 8.40002C11.5012 8.40002 11.1 8.80127 11.1 9.30002V13.2C11.1 13.44 11.1937 13.6688 11.3625 13.8375L13.1625 15.6375C13.515 15.99 14.085 15.99 14.4337 15.6375C14.7825 15.285 14.7862 14.715 14.4337 14.3663L12.8962 12.8288V9.30002H12.9Z" fill="black" fill-opacity="0.45"/>
</svg>
