<svg width="24" height="24" viewBox="0 0 24 24" fill="none" xmlns="http://www.w3.org/2000/svg">
<path d="M5.7 3.6001C6.19875 3.6001 6.6 4.00135 6.6 4.5001H7.5C7.99875 4.5001 8.4 4.90135 8.4 5.4001V7.2001H15.6V5.4001C15.6 4.90135 16.0012 4.5001 16.5 4.5001H17.4C17.4 4.00135 17.8012 3.6001 18.3 3.6001C18.7987 3.6001 19.2 4.00135 19.2 4.5001V5.4001C19.2 5.89885 18.7987 6.3001 18.3 6.3001H17.4V8.1001V8.4001H18.3C18.7987 8.4001 19.2 8.80135 19.2 9.3001V11.4001H19.5H21V8.1001C21 7.60135 21.4012 7.2001 21.9 7.2001C22.3987 7.2001 22.8 7.60135 22.8 8.1001V12.3001C22.8 12.7988 22.3987 13.2001 21.9 13.2001H20.4V15.9001C20.4 16.3988 19.9987 16.8001 19.5 16.8001H18V19.5001C18 19.9988 17.5987 20.4001 17.1 20.4001H14.1C13.6012 20.4001 13.2 19.9988 13.2 19.5001C13.2 19.0013 13.6012 18.6001 14.1 18.6001H16.2V16.8001H7.8V18.6001H9.9C10.3987 18.6001 10.8 19.0013 10.8 19.5001C10.8 19.9988 10.3987 20.4001 9.9 20.4001H6.9C6.40125 20.4001 6 19.9988 6 19.5001V16.8001H4.5C4.00125 16.8001 3.6 16.3988 3.6 15.9001V13.2001H2.1C1.60125 13.2001 1.2 12.7988 1.2 12.3001V8.1001C1.2 7.60135 1.60125 7.2001 2.1 7.2001C2.59875 7.2001 3 7.60135 3 8.1001V11.4001H4.5H4.8V9.3001C4.8 8.80135 5.20125 8.4001 5.7 8.4001H6.6V8.1001V6.3001H5.7C5.20125 6.3001 4.8 5.89885 4.8 5.4001V4.5001C4.8 4.00135 5.20125 3.6001 5.7 3.6001ZM8.4 9.0001V9.3001C8.4 9.79885 7.99875 10.2001 7.5 10.2001H6.6V12.3001C6.6 12.7988 6.19875 13.2001 5.7 13.2001H5.4V15.0001H6.9H17.1H18.6V13.2001H18.3C17.8012 13.2001 17.4 12.7988 17.4 12.3001V10.2001H16.5C16.0012 10.2001 15.6 9.79885 15.6 9.3001V9.0001H8.4ZM8.4 11.4001C8.4 11.0701 8.67 10.8001 9 10.8001H10.2C10.53 10.8001 10.8 11.0701 10.8 11.4001V13.2001C10.8 13.5301 10.53 13.8001 10.2 13.8001H9C8.67 13.8001 8.4 13.5301 8.4 13.2001V11.4001ZM13.8 10.8001H15C15.33 10.8001 15.6 11.0701 15.6 11.4001V13.2001C15.6 13.5301 15.33 13.8001 15 13.8001H13.8C13.47 13.8001 13.2 13.5301 13.2 13.2001V11.4001C13.2 11.0701 13.47 10.8001 13.8 10.8001Z" fill="black" fill-opacity="0.45"/>
</svg>
