<svg width="24" height="24" viewBox="0 0 24 24" fill="none" xmlns="http://www.w3.org/2000/svg">
<path d="M13.2 5.3999C13.2 5.71816 13.0736 6.02339 12.8485 6.24843C12.6235 6.47347 12.3182 6.5999 12 6.5999C11.6817 6.5999 11.3765 6.47347 11.1515 6.24843C10.9264 6.02339 10.8 5.71816 10.8 5.3999C10.8 5.08164 10.9264 4.77642 11.1515 4.55137C11.3765 4.32633 11.6817 4.1999 12 4.1999C12.3182 4.1999 12.6235 4.32633 12.8485 4.55137C13.0736 4.77642 13.2 5.08164 13.2 5.3999ZM12 2.3999C10.3425 2.3999 8.99999 3.7424 8.99999 5.3999C8.99999 6.74615 9.88874 7.88615 11.1112 8.2649C11.1037 8.3099 11.1 8.3549 11.1 8.3999V9.5999H9.29999C8.80124 9.5999 8.39999 10.0012 8.39999 10.4999C8.39999 10.9987 8.80124 11.3999 9.29999 11.3999H11.1V19.7999H10.2C7.43624 19.7999 5.18624 17.6024 5.10374 14.8574L5.71499 15.3824C6.09374 15.7049 6.65999 15.6637 6.98249 15.2849C7.30499 14.9062 7.26374 14.3399 6.88499 14.0174L4.78499 12.2174C4.44749 11.9287 3.94874 11.9287 3.61499 12.2174L1.51499 14.0174C1.13624 14.3399 1.09499 14.9099 1.41749 15.2849C1.73999 15.6599 2.30999 15.7049 2.68499 15.3824L3.29999 14.8537C3.38249 18.5924 6.44249 21.5999 10.2 21.5999H12H13.8C17.5575 21.5999 20.6175 18.5924 20.7 14.8537L21.315 15.3824C21.6937 15.7049 22.26 15.6637 22.5825 15.2849C22.905 14.9062 22.8637 14.3399 22.485 14.0174L20.385 12.2174C20.0475 11.9287 19.5525 11.9287 19.215 12.2174L17.115 14.0174C16.7362 14.3399 16.695 14.9099 17.0175 15.2849C17.34 15.6599 17.91 15.7049 18.285 15.3824L18.8962 14.8574C18.8137 17.6024 16.5637 19.7999 13.8 19.7999H12.9V11.3999H14.7C15.1987 11.3999 15.6 10.9987 15.6 10.4999C15.6 10.0012 15.1987 9.5999 14.7 9.5999H12.9V8.3999C12.9 8.3549 12.8962 8.3099 12.8887 8.2649C14.1112 7.88615 15 6.74615 15 5.3999C15 3.7424 13.6575 2.3999 12 2.3999Z" fill="black" fill-opacity="0.45"/>
</svg>
