<svg width="24" height="24" viewBox="0 0 24 24" fill="none" xmlns="http://www.w3.org/2000/svg">
<path d="M18.7062 12.7062C19.0969 12.3155 19.0969 11.6812 18.7062 11.2905L13.7062 6.29053C13.3156 5.8999 12.6812 5.8999 12.2906 6.29053C11.9 6.68115 11.9 7.31553 12.2906 7.70615L16.5844 11.9999L12.2937 16.2937C11.9031 16.6843 11.9031 17.3187 12.2937 17.7093C12.6844 18.0999 13.3187 18.0999 13.7094 17.7093L18.7094 12.7093L18.7062 12.7062ZM7.70624 17.7062L12.7062 12.7062C13.0969 12.3155 13.0969 11.6812 12.7062 11.2905L7.70624 6.29053C7.31562 5.8999 6.68124 5.8999 6.29062 6.29053C5.89999 6.68115 5.89999 7.31553 6.29062 7.70615L10.5844 11.9999L6.29374 16.2937C5.90312 16.6843 5.90312 17.3187 6.29374 17.7093C6.68437 18.0999 7.31874 18.0999 7.70937 17.7093L7.70624 17.7062Z" fill="black" fill-opacity="0.45"/>
</svg>
