<svg width="24" height="24" viewBox="0 0 24 24" fill="none" xmlns="http://www.w3.org/2000/svg">
<path d="M5.29376 11.2937C4.90314 11.6843 4.90314 12.3187 5.29376 12.7093L10.2938 17.7093C10.6844 18.0999 11.3188 18.0999 11.7094 17.7093C12.1 17.3187 12.1 16.6843 11.7094 16.2937L7.41564 11.9999L11.7063 7.70615C12.0969 7.31553 12.0969 6.68115 11.7063 6.29053C11.3156 5.8999 10.6813 5.8999 10.2906 6.29053L5.29064 11.2905L5.29376 11.2937ZM16.2938 6.29365L11.2938 11.2937C10.9031 11.6843 10.9031 12.3187 11.2938 12.7093L16.2938 17.7093C16.6844 18.0999 17.3188 18.0999 17.7094 17.7093C18.1 17.3187 18.1 16.6843 17.7094 16.2937L13.4156 11.9999L17.7063 7.70615C18.0969 7.31553 18.0969 6.68115 17.7063 6.29053C17.3156 5.8999 16.6813 5.8999 16.2906 6.29053L16.2938 6.29365Z" fill="black" fill-opacity="0.45"/>
</svg>
