<svg width="24" height="24" viewBox="0 0 24 24" fill="none" xmlns="http://www.w3.org/2000/svg">
<path d="M8.5 7V6C8.5 5.725 8.725 5.5 9 5.5H15C15.275 5.5 15.5 5.725 15.5 6V10C15.5 10.8281 16.1719 11.5 17 11.5H19C19.275 11.5 19.5 11.725 19.5 12V18C19.5 18.275 19.275 18.5 19 18.5H15H14H13V17C13 16.4469 12.5531 16 12 16C11.4469 16 11 16.4469 11 17V18.5H9H5C4.725 18.5 4.5 18.275 4.5 18V9C4.5 8.725 4.725 8.5 5 8.5H7C7.82812 8.5 8.5 7.82812 8.5 7ZM9 20H11H13H14H15H19C20.1031 20 21 19.1031 21 18V12C21 10.8969 20.1031 10 19 10H18.5H17V8.5V6C17 4.89688 16.1031 4 15 4H9C7.89687 4 7 4.89688 7 6V7H5.5H5C3.89688 7 3 7.89687 3 9V18C3 19.1031 3.89688 20 5 20H9ZM14 14.5C14.275 14.5 14.5 14.275 14.5 14V13C14.5 12.725 14.275 12.5 14 12.5H13C12.725 12.5 12.5 12.725 12.5 13V14C12.5 14.275 12.725 14.5 13 14.5H14ZM18.5 17V16C18.5 15.725 18.275 15.5 18 15.5H17C16.725 15.5 16.5 15.725 16.5 16V17C16.5 17.275 16.725 17.5 17 17.5H18C18.275 17.5 18.5 17.275 18.5 17ZM7 14.5C7.275 14.5 7.5 14.275 7.5 14V13C7.5 12.725 7.275 12.5 7 12.5H6C5.725 12.5 5.5 12.725 5.5 13V14C5.5 14.275 5.725 14.5 6 14.5H7ZM7.5 17V16C7.5 15.725 7.275 15.5 7 15.5H6C5.725 15.5 5.5 15.725 5.5 16V17C5.5 17.275 5.725 17.5 6 17.5H7C7.275 17.5 7.5 17.275 7.5 17ZM11 14.5C11.275 14.5 11.5 14.275 11.5 14V13C11.5 12.725 11.275 12.5 11 12.5H10C9.725 12.5 9.5 12.725 9.5 13V14C9.5 14.275 9.725 14.5 10 14.5H11ZM14.5 7C14.5 6.725 14.275 6.5 14 6.5H13C12.725 6.5 12.5 6.725 12.5 7V8C12.5 8.275 12.725 8.5 13 8.5H14C14.275 8.5 14.5 8.275 14.5 8V7ZM11 6.5H10C9.725 6.5 9.5 6.725 9.5 7V8C9.5 8.275 9.725 8.5 10 8.5H11C11.275 8.5 11.5 8.275 11.5 8V7C11.5 6.725 11.275 6.5 11 6.5ZM14.5 11V10C14.5 9.725 14.275 9.5 14 9.5H13C12.725 9.5 12.5 9.725 12.5 10V11C12.5 11.275 12.725 11.5 13 11.5H14C14.275 11.5 14.5 11.275 14.5 11ZM18 14.5C18.275 14.5 18.5 14.275 18.5 14V13C18.5 12.725 18.275 12.5 18 12.5H17C16.725 12.5 16.5 12.725 16.5 13V14C16.5 14.275 16.725 14.5 17 14.5H18ZM7.5 11V10C7.5 9.725 7.275 9.5 7 9.5H6C5.725 9.5 5.5 9.725 5.5 10V11C5.5 11.275 5.725 11.5 6 11.5H7C7.275 11.5 7.5 11.275 7.5 11ZM11 11.5C11.275 11.5 11.5 11.275 11.5 11V10C11.5 9.725 11.275 9.5 11 9.5H10C9.725 9.5 9.5 9.725 9.5 10V11C9.5 11.275 9.725 11.5 10 11.5H11Z" fill="black" fill-opacity="0.45"/>
</svg>
