<svg width="24" height="24" viewBox="0 0 24 24" fill="none" xmlns="http://www.w3.org/2000/svg">
<path d="M12 19.7999L14.5125 15.4499L15.03 14.5574C15.03 14.5537 15.0338 14.5537 15.0338 14.5499L15.465 13.7999L17.5763 17.4562C16.1588 18.9037 14.1825 19.7999 12 19.7999ZM8.535 10.1999L6.42375 6.54365C7.84125 5.09615 9.8175 4.1999 12 4.1999L9.4875 8.5499L8.96625 9.4499L8.535 10.1999ZM11.8275 8.0999L13.9388 4.44365C15.9938 4.96865 17.7225 6.31115 18.7575 8.0999H13.7325H12.7013C12.6975 8.0999 12.6938 8.0999 12.69 8.0999H11.8275ZM15.7313 10.6612C15.7275 10.6574 15.7275 10.6537 15.7238 10.6499L15.2925 9.8999H19.515C19.7025 10.5674 19.8 11.2724 19.8 11.9999C19.8 13.4212 19.4213 14.7524 18.7575 15.8999L16.245 11.5499L15.7313 10.6612ZM4.2 11.9999C4.2 10.5787 4.57875 9.2474 5.2425 8.0999L7.755 12.4499L8.7075 14.0999H4.485C4.2975 13.4324 4.2 12.7274 4.2 11.9999ZM10.0613 19.5562C8.00625 19.0312 6.2775 17.6887 5.2425 15.8999H10.2675H12.1725L10.0613 19.5562ZM12 21.5999C14.5461 21.5999 16.9879 20.5885 18.7882 18.7881C20.5886 16.9878 21.6 14.546 21.6 11.9999C21.6 9.45382 20.5886 7.01203 18.7882 5.21168C16.9879 3.41133 14.5461 2.3999 12 2.3999C9.45392 2.3999 7.01213 3.41133 5.21178 5.21168C3.41143 7.01203 2.4 9.45382 2.4 11.9999C2.4 14.546 3.41143 16.9878 5.21178 18.7881C7.01213 20.5885 9.45392 21.5999 12 21.5999ZM10.5263 10.3499C10.6875 10.0724 10.98 9.90365 11.2988 9.8999H12.6975C13.0163 9.90365 13.3088 10.0724 13.4663 10.3424L14.1675 11.5537C14.325 11.8312 14.325 12.1687 14.1675 12.4462C14.1675 12.4462 14.1675 12.4499 14.1638 12.4499L13.47 13.6499V13.6537C13.3088 13.9312 13.0125 14.0999 12.6938 14.0999H11.3063C10.9838 14.0999 10.6875 13.9274 10.5263 13.6499L9.8325 12.4499C9.67125 12.1724 9.67125 11.8274 9.8325 11.5499L10.5263 10.3499Z" fill="black" fill-opacity="0.45"/>
</svg>
