<svg width="24" height="24" viewBox="0 0 24 24" fill="none" xmlns="http://www.w3.org/2000/svg">
<path d="M18.3 20.4001C18.7988 20.4001 19.2 19.9988 19.2 19.5001C19.2 19.0013 18.7988 18.6001 18.3 18.6001H5.70002C5.20127 18.6001 4.80002 19.0013 4.80002 19.5001C4.80002 19.9988 5.20127 20.4001 5.70002 20.4001H18.3ZM11.3438 15.3151C11.5125 15.4951 11.7525 15.6001 12 15.6001C12.2475 15.6001 12.4838 15.4988 12.6563 15.3151L17.4563 10.2151C17.7975 9.85135 17.7788 9.2851 17.4188 8.94385C17.0588 8.6026 16.4888 8.62135 16.1475 8.98135L12.9 12.4313V9.3001V4.5001C12.9 4.00135 12.4988 3.6001 12 3.6001C11.5013 3.6001 11.1 4.00135 11.1 4.5001V9.3001V12.4313L7.85627 8.9851C7.51502 8.62135 6.94502 8.60635 6.58502 8.9476C6.22502 9.28885 6.20627 9.85885 6.54752 10.2188L11.3475 15.3188L11.3438 15.3151Z" fill="black" fill-opacity="0.45"/>
</svg>
