<svg width="24" height="24" viewBox="0 0 24 24" fill="none" xmlns="http://www.w3.org/2000/svg">
<path d="M12.6525 3.87748C12.48 3.70123 12.2475 3.59998 12 3.59998C11.7525 3.59998 11.52 3.70123 11.3475 3.87748L5.0475 10.4775C4.7025 10.8375 4.7175 11.4075 5.0775 11.7487C5.4375 12.09 6.0075 12.0787 6.34875 11.7187L11.1 6.74623V19.5C11.1 19.9987 11.5012 20.4 12 20.4C12.4987 20.4 12.9 19.9987 12.9 19.5V6.74623L17.6475 11.7225C17.9925 12.0825 18.5587 12.0937 18.9187 11.7525C19.2787 11.4112 19.29 10.8412 18.9487 10.4812L12.6487 3.88123L12.6525 3.87748Z" fill="black" fill-opacity="0.45"/>
</svg>
