<svg width="24" height="24" viewBox="0 0 24 24" fill="none" xmlns="http://www.w3.org/2000/svg">
<path d="M20.1225 12.6525C20.2988 12.4837 20.4 12.2475 20.4 12C20.4 11.7525 20.2988 11.52 20.1225 11.3475L13.5225 5.0475C13.1625 4.7025 12.5925 4.7175 12.2513 5.0775C11.91 5.4375 11.9213 6.0075 12.2813 6.34875L17.2538 11.1H4.50001C4.00126 11.1 3.60001 11.5012 3.60001 12C3.60001 12.4987 4.00126 12.9 4.50001 12.9H17.2538L12.2775 17.6475C11.9175 17.9925 11.9063 18.5587 12.2475 18.9187C12.5888 19.2787 13.1588 19.29 13.5188 18.9487L20.1188 12.6487L20.1225 12.6525Z" fill="black" fill-opacity="0.45"/>
</svg>
