<svg width="24" height="24" viewBox="0 0 24 24" fill="none" xmlns="http://www.w3.org/2000/svg">
<path d="M12.6375 2.66245C12.285 2.30995 11.715 2.30995 11.3663 2.66245L6.56251 7.46245C6.21001 7.81495 6.21001 8.38495 6.56251 8.7337C6.91501 9.08245 7.48501 9.0862 7.83376 8.7337L11.0963 5.4712L11.1 14.6999C11.1 15.1987 11.5013 15.5999 12 15.5999C12.4988 15.5999 12.9 15.1987 12.9 14.6999V5.4712L16.1625 8.7337C16.515 9.0862 17.085 9.0862 17.4338 8.7337C17.7825 8.3812 17.7863 7.8112 17.4338 7.46245L12.6375 2.66245ZM5.40001 15.2999C5.40001 14.8012 4.99876 14.3999 4.50001 14.3999C4.00126 14.3999 3.60001 14.8012 3.60001 15.2999V18.2999C3.60001 20.1224 5.07751 21.5999 6.90001 21.5999H17.1C18.9225 21.5999 20.4 20.1224 20.4 18.2999V15.2999C20.4 14.8012 19.9988 14.3999 19.5 14.3999C19.0013 14.3999 18.6 14.8012 18.6 15.2999V18.2999C18.6 19.1287 17.9288 19.7999 17.1 19.7999H6.90001C6.07126 19.7999 5.40001 19.1287 5.40001 18.2999V15.2999Z" fill="black" fill-opacity="0.45"/>
</svg>
