<svg width="24" height="24" viewBox="0 0 24 24" fill="none" xmlns="http://www.w3.org/2000/svg">
<path d="M19.0031 10.9962C19.5563 10.9962 20.0031 11.4431 20.0031 11.9962C20.0031 12.5493 19.5563 12.9962 19.0031 12.9962H9.00313V14.9962C9.00313 15.3993 8.75938 15.7649 8.38438 15.9212C8.00938 16.0774 7.58125 15.9899 7.29375 15.7056L4.29375 12.7056C4.10625 12.5181 4 12.2649 4 11.9993C4 11.7337 4.10625 11.4806 4.29375 11.2931L7.29375 8.29306C7.58125 8.00556 8.00938 7.92118 8.38438 8.07743C8.75938 8.23368 9.00313 8.59618 9.00313 9.00243V11.0024H19.0031V10.9962Z" fill="black" fill-opacity="0.45"/>
</svg>
