<svg width="24" height="24" viewBox="0 0 24 24" fill="none" xmlns="http://www.w3.org/2000/svg">
<path d="M18.075 9.41635C17.07 7.05385 14.7263 5.4001 12 5.4001C10.5113 5.4001 9.0825 5.9926 8.02875 7.04635L6.07125 9.0001H8.1C8.59875 9.0001 9 9.40135 9 9.9001C9 10.3988 8.59875 10.8001 8.1 10.8001H3.9C3.40125 10.8001 3 10.3988 3 9.9001V5.7001C3 5.20135 3.40125 4.8001 3.9 4.8001C4.39875 4.8001 4.8 5.20135 4.8 5.7001V7.72885L6.75375 5.7751C8.145 4.3801 10.0313 3.6001 12 3.6001C15.4725 3.6001 18.4538 5.7076 19.7325 8.71135C19.9275 9.16885 19.7138 9.6976 19.2563 9.8926C18.7988 10.0876 18.27 9.87385 18.075 9.41635ZM4.275 15.3038C4.08 14.8463 4.29 14.3176 4.7475 14.1226C5.205 13.9276 5.73375 14.1376 5.92875 14.5951C6.9375 16.9538 9.2775 18.6001 12 18.6001C13.4888 18.6001 14.9175 18.0076 15.9713 16.9538L17.9288 15.0001H15.9C15.4013 15.0001 15 14.5988 15 14.1001C15 13.6013 15.4013 13.2001 15.9 13.2001H20.1C20.5988 13.2001 21 13.6013 21 14.1001V18.3001C21 18.7988 20.5988 19.2001 20.1 19.2001C19.6013 19.2001 19.2 18.7988 19.2 18.3001V16.2713L17.2463 18.2251C15.855 19.6201 13.9688 20.4001 12 20.4001C8.53125 20.4001 5.5575 18.3001 4.275 15.3038Z" fill="black" fill-opacity="0.45"/>
</svg>
