<svg width="24" height="24" viewBox="0 0 24 24" fill="none" xmlns="http://www.w3.org/2000/svg">
<path d="M5.925 9.41635C6.93 7.05385 9.27375 5.4001 12 5.4001C13.4888 5.4001 14.9175 5.9926 15.9713 7.04635L17.9288 9.0001H15.9C15.4013 9.0001 15 9.40135 15 9.9001C15 10.3988 15.4013 10.8001 15.9 10.8001H20.1C20.5988 10.8001 21 10.3988 21 9.9001V5.7001C21 5.20135 20.5988 4.8001 20.1 4.8001C19.6013 4.8001 19.2 5.20135 19.2 5.7001V7.72885L17.2463 5.77135C15.855 4.3801 13.9688 3.6001 12 3.6001C8.5275 3.6001 5.54625 5.7076 4.2675 8.71135C4.0725 9.16885 4.28625 9.6976 4.74375 9.8926C5.20125 10.0876 5.73 9.87385 5.925 9.41635ZM19.725 15.3038C19.92 14.8463 19.71 14.3176 19.2525 14.1226C18.795 13.9276 18.2663 14.1376 18.0712 14.5951C17.0625 16.9538 14.7225 18.6001 12 18.6001C10.5113 18.6001 9.0825 18.0076 8.02875 16.9538L6.07125 15.0001H8.1C8.59875 15.0001 9 14.5988 9 14.1001C9 13.6013 8.59875 13.2001 8.1 13.2001H3.9C3.40125 13.2001 3 13.6013 3 14.1001V18.3001C3 18.7988 3.40125 19.2001 3.9 19.2001C4.39875 19.2001 4.8 18.7988 4.8 18.3001V16.2713L6.75375 18.2251C8.145 19.6201 10.0313 20.4001 12 20.4001C15.4688 20.4001 18.4425 18.3001 19.725 15.3038Z" fill="black" fill-opacity="0.45"/>
</svg>
