<svg width="24" height="24" viewBox="0 0 24 24" fill="none" xmlns="http://www.w3.org/2000/svg">
<path d="M11.3475 20.1226C11.5163 20.2988 11.7525 20.4001 12 20.4001C12.2475 20.4001 12.48 20.2988 12.6525 20.1226L18.9525 13.5226C19.2975 13.1626 19.2825 12.5926 18.9225 12.2513C18.5625 11.9101 17.9925 11.9213 17.6513 12.2813L12.9 17.2538V4.5001C12.9 4.00135 12.4988 3.6001 12 3.6001C11.5013 3.6001 11.1 4.00135 11.1 4.5001V17.2538L6.3525 12.2776C6.0075 11.9176 5.44125 11.9063 5.08125 12.2476C4.72125 12.5888 4.71 13.1588 5.05125 13.5188L11.3513 20.1188L11.3475 20.1226Z" fill="black" fill-opacity="0.45"/>
</svg>
