<svg width="24" height="24" viewBox="0 0 24 24" fill="none" xmlns="http://www.w3.org/2000/svg">
<path d="M4.99687 10.9962C4.44375 10.9962 3.99688 11.4431 3.99688 11.9962C3.99688 12.5493 4.44375 12.9962 4.99687 12.9962H14.9969V14.9962C14.9969 15.3993 15.2406 15.7649 15.6156 15.9212C15.9906 16.0774 16.4188 15.9899 16.7062 15.7056L19.7062 12.7056C19.8937 12.5181 20 12.2649 20 11.9993C20 11.7337 19.8937 11.4806 19.7062 11.2931L16.7062 8.29306C16.4188 8.00556 15.9906 7.92118 15.6156 8.07743C15.2406 8.23368 14.9969 8.59618 14.9969 9.00243V11.0024H4.99687V10.9962Z" fill="black" fill-opacity="0.45"/>
</svg>
