<svg width="24" height="24" viewBox="0 0 24 24" fill="none" xmlns="http://www.w3.org/2000/svg">
<path d="M3.9 10.8001C3.40125 10.8001 3 10.3988 3 9.9001V4.5001C3 4.00135 3.40125 3.6001 3.9 3.6001C4.39875 3.6001 4.8 4.00135 4.8 4.5001V7.50385L5.55 6.6226C7.0875 4.7776 9.40875 3.6001 12 3.6001C16.6387 3.6001 20.4 7.36135 20.4 12.0001C20.4 16.6388 16.6387 20.4001 12 20.4001C10.11 20.4001 8.3625 19.7738 6.96 18.7201C6.5625 18.4201 6.48375 17.8576 6.78 17.4601C7.07625 17.0626 7.6425 16.9838 8.04 17.2801C9.1425 18.1088 10.5112 18.6001 12 18.6001C15.645 18.6001 18.6 15.6451 18.6 12.0001C18.6 8.3551 15.645 5.4001 12 5.4001C9.96375 5.4001 8.14125 6.3226 6.93 7.7776L6.92625 7.7851L5.89125 9.0001H9.3C9.79875 9.0001 10.2 9.40135 10.2 9.9001C10.2 10.3988 9.79875 10.8001 9.3 10.8001H3.9Z" fill="black" fill-opacity="0.45"/>
</svg>
