<svg width="24" height="24" viewBox="0 0 24 24" fill="none" xmlns="http://www.w3.org/2000/svg">
<path d="M20.1 10.8001C20.5988 10.8001 21 10.3988 21 9.9001V4.5001C21 4.00135 20.5988 3.6001 20.1 3.6001C19.6013 3.6001 19.2 4.00135 19.2 4.5001V7.50385L18.45 6.6226C16.9125 4.7776 14.5913 3.6001 12 3.6001C7.36126 3.6001 3.60001 7.36135 3.60001 12.0001C3.60001 16.6388 7.36126 20.4001 12 20.4001C13.89 20.4001 15.6375 19.7738 17.04 18.7201C17.4375 18.4201 17.5163 17.8576 17.22 17.4601C16.9238 17.0626 16.3575 16.9838 15.96 17.2801C14.8575 18.1088 13.4888 18.6001 12 18.6001C8.35501 18.6001 5.40001 15.6451 5.40001 12.0001C5.40001 8.3551 8.35501 5.4001 12 5.4001C14.0363 5.4001 15.8588 6.3226 17.07 7.7776L17.0738 7.7851L18.1088 9.0001H14.7C14.2013 9.0001 13.8 9.40135 13.8 9.9001C13.8 10.3988 14.2013 10.8001 14.7 10.8001H20.1Z" fill="black" fill-opacity="0.45"/>
</svg>
