<svg width="24" height="24" viewBox="0 0 24 24" fill="none" xmlns="http://www.w3.org/2000/svg">
<path d="M5.5 5.75C5.5 5.33437 5.16562 5 4.75 5C4.33437 5 4 5.33437 4 5.75V11C4 12.5188 5.23125 13.75 6.75 13.75H17.4406L14.7219 16.4688C14.4281 16.7625 14.4281 17.2375 14.7219 17.5281C15.0156 17.8187 15.4906 17.8219 15.7812 17.5281L19.7812 13.5312C20.075 13.2375 20.075 12.7625 19.7812 12.4719L15.7812 8.46875C15.4875 8.175 15.0125 8.175 14.7219 8.46875C14.4313 8.7625 14.4281 9.2375 14.7219 9.52812L17.4406 12.2469H6.75C6.05938 12.2469 5.5 11.6875 5.5 10.9969V5.75Z" fill="black" fill-opacity="0.45"/>
</svg>
