<svg width="24" height="24" viewBox="0 0 24 24" fill="none" xmlns="http://www.w3.org/2000/svg">
<path d="M5.75999 18.24C6.05624 18.5362 6.93749 18.8737 8.77499 18.2625C9.26999 18.0975 9.79499 17.8725 10.335 17.5912C9.62624 17.0512 8.92124 16.4362 8.24249 15.7575C7.56374 15.0787 6.94874 14.3737 6.40874 13.665C6.12749 14.205 5.90249 14.73 5.73749 15.225C5.12624 17.0625 5.46374 17.9437 5.75999 18.24ZM5.27999 12C3.43499 8.92124 3.01874 5.95874 4.48874 4.48874C5.95874 3.01874 8.92124 3.43499 12 5.27999C15.0787 3.43499 18.0412 3.01874 19.5112 4.48874C20.9812 5.95874 20.565 8.92124 18.72 12C20.565 15.0787 20.9812 18.0412 19.5112 19.5112C18.0412 20.9812 15.0787 20.565 12 18.72C8.92124 20.565 5.95874 20.9812 4.48874 19.5112C3.01874 18.0412 3.43499 15.0787 5.27999 12ZM6.41249 10.335C6.95249 9.62624 7.56749 8.92124 8.24624 8.24249C8.92499 7.56374 9.62999 6.94874 10.3387 6.40874C9.79874 6.12749 9.27374 5.90249 8.77874 5.73749C6.94124 5.12624 6.05999 5.46374 5.76374 5.75999C5.46749 6.05624 5.12999 6.93749 5.74124 8.77499C5.90624 9.26999 6.13124 9.79499 6.41249 10.335ZM12 7.42499C11.1712 8.00624 10.3312 8.70374 9.51749 9.51749C8.70374 10.3312 8.00624 11.1712 7.42499 12C8.00624 12.8287 8.70374 13.6687 9.51749 14.4825C10.3312 15.2962 11.1712 15.9937 12 16.575C12.8287 15.9937 13.6687 15.2962 14.4825 14.4825C15.2962 13.6687 15.9937 12.8287 16.575 12C15.9937 11.1712 15.2962 10.3312 14.4825 9.51749C13.6687 8.70374 12.8287 8.00624 12 7.42499ZM17.5875 10.3387C17.8687 9.79874 18.0937 9.27374 18.2587 8.77874C18.87 6.94124 18.5325 6.05999 18.2362 5.76374C17.94 5.46749 17.0587 5.12999 15.2212 5.74124C14.7262 5.90624 14.2012 6.13124 13.6612 6.41249C14.37 6.95249 15.075 7.56749 15.7537 8.24624C16.4325 8.92499 17.0475 9.62999 17.5875 10.3387ZM17.5875 13.665C17.0475 14.3737 16.4325 15.0787 15.7537 15.7575C15.075 16.4362 14.37 17.0512 13.6612 17.5912C14.2012 17.8725 14.7262 18.0975 15.2212 18.2625C17.0587 18.8737 17.94 18.5362 18.2362 18.24C18.5325 17.9437 18.87 17.0625 18.2587 15.225C18.0937 14.73 17.8687 14.205 17.5875 13.665ZM10.8 12C10.8 11.6817 10.9264 11.3765 11.1515 11.1515C11.3765 10.9264 11.6817 10.8 12 10.8C12.3182 10.8 12.6235 10.9264 12.8485 11.1515C13.0736 11.3765 13.2 11.6817 13.2 12C13.2 12.3182 13.0736 12.6235 12.8485 12.8485C12.6235 13.0736 12.3182 13.2 12 13.2C11.6817 13.2 11.3765 13.0736 11.1515 12.8485C10.9264 12.6235 10.8 12.3182 10.8 12Z" fill="black" fill-opacity="0.45"/>
</svg>
