<svg width="24" height="24" viewBox="0 0 24 24" fill="none" xmlns="http://www.w3.org/2000/svg">
<path d="M13.2 5.92505C13.2 5.30255 12.6938 4.80005 12.075 4.80005C11.8388 4.80005 11.6063 4.87505 11.415 5.0138L2.77127 11.2725C2.53877 11.4413 2.40002 11.7113 2.40002 12C2.40002 12.2888 2.53877 12.5588 2.77127 12.7275L11.4113 18.9863C11.6025 19.125 11.835 19.2 12.0713 19.2C12.6938 19.2 13.1963 18.6975 13.1963 18.075V14.3588L19.8263 18.9975C20.0175 19.1288 20.2425 19.2 20.475 19.2C21.0975 19.2 21.6038 18.6938 21.6038 18.0713V5.9288C21.6 5.3063 21.0938 4.80005 20.4713 4.80005C20.2388 4.80005 20.0138 4.8713 19.8225 5.00255L13.2 9.6413V5.92505ZM13.2 11.8388L19.8 7.2188V16.7813L13.2 12.1613V11.8388ZM4.83377 12L11.4 7.24505V16.755L4.83377 12Z" fill="black" fill-opacity="0.45"/>
</svg>
