<svg width="24" height="24" viewBox="0 0 24 24" fill="none" xmlns="http://www.w3.org/2000/svg">
<path d="M9.60001 6.5999V8.3999H14.4V6.5999C14.4 5.27615 13.3238 4.1999 12 4.1999C10.6763 4.1999 9.60001 5.27615 9.60001 6.5999ZM7.80001 10.1999H5.40001V17.9999C5.40001 18.9937 6.20626 19.7999 7.20001 19.7999H16.8C17.7938 19.7999 18.6 18.9937 18.6 17.9999V10.1999H16.2V12.2999C16.2 12.7987 15.7988 13.1999 15.3 13.1999C14.8013 13.1999 14.4 12.7987 14.4 12.2999V10.1999H9.60001V12.2999C9.60001 12.7987 9.19876 13.1999 8.70001 13.1999C8.20126 13.1999 7.80001 12.7987 7.80001 12.2999V10.1999ZM7.80001 8.3999V6.5999C7.80001 4.27865 9.67876 2.3999 12 2.3999C14.3213 2.3999 16.2 4.27865 16.2 6.5999V8.3999H18.6C19.5938 8.3999 20.4 9.20615 20.4 10.1999V17.9999C20.4 19.9874 18.7875 21.5999 16.8 21.5999H7.20001C5.21251 21.5999 3.60001 19.9874 3.60001 17.9999V10.1999C3.60001 9.20615 4.40626 8.3999 5.40001 8.3999H7.80001Z" fill="black" fill-opacity="0.45"/>
</svg>
