<svg width="24" height="24" viewBox="0 0 24 24" fill="none" xmlns="http://www.w3.org/2000/svg">
<path d="M10.2 8.3999C10.2 6.07865 8.32125 4.1999 6 4.1999C3.67875 4.1999 1.8 6.07865 1.8 8.3999C1.8 9.5849 2.37375 10.8412 3.2325 12.0224C4.07625 13.1774 5.05875 14.0774 5.5725 14.5087C5.7375 14.6474 5.88 14.8049 6 14.9774C6.12 14.8049 6.2625 14.6474 6.4275 14.5087C6.94125 14.0774 7.92375 13.1774 8.7675 12.0224C9.63 10.8412 10.2 9.5849 10.2 8.3999ZM4.2 17.3999L4.575 16.6462C4.70625 16.3874 4.635 16.0724 4.41 15.8849C3.27 14.9249 0 11.8687 0 8.3999C0 5.0849 2.685 2.3999 6 2.3999C9.315 2.3999 12 5.0849 12 8.3999C12 11.8687 8.73 14.9249 7.58625 15.8887C7.365 16.0762 7.29375 16.3912 7.42125 16.6499L7.8 17.3999L7.80375 17.4037L7.91625 17.6287L8.35125 18.4987C8.385 18.5662 8.40375 18.6412 8.40375 18.7162C8.40375 18.9824 8.18625 19.1999 7.92 19.1999H6.945H6.69375H6.69H5.31375H5.31H5.05875H4.08375C3.8175 19.1999 3.6 18.9824 3.6 18.7162C3.6 18.6412 3.61875 18.5662 3.6525 18.4987L4.0875 17.6287L4.2 17.4037L4.20375 17.3999H4.2ZM6 7.4999C5.50125 7.4999 5.1 7.90115 5.1 8.3999C5.1 8.89865 4.69875 9.2999 4.2 9.2999C3.70125 9.2999 3.3 8.89865 3.3 8.3999C3.3 6.9074 4.5075 5.6999 6 5.6999C6.49875 5.6999 6.9 6.10115 6.9 6.5999C6.9 7.09865 6.49875 7.4999 6 7.4999ZM16.4138 18.2887C15.4313 17.4599 12.87 15.0787 12.1763 12.2212C12.7688 11.0924 13.2 9.7949 13.2 8.3999C13.2 8.02865 13.1737 7.6649 13.1175 7.3124C14.205 5.79365 15.9863 4.7999 18 4.7999C21.315 4.7999 24 7.4849 24 10.7999C24 14.2687 20.73 17.3249 19.5863 18.2887C19.365 18.4762 19.2938 18.7912 19.4213 19.0499L19.8 19.7999L19.8037 19.8037L19.9163 20.0287L20.3513 20.8987C20.385 20.9662 20.4037 21.0412 20.4037 21.1162C20.4037 21.3824 20.1863 21.5999 19.92 21.5999H18.945H18.6938H18.69H17.3138H17.31H17.0588H16.0837C15.8175 21.5999 15.6 21.3824 15.6 21.1162C15.6 21.0412 15.6188 20.9662 15.6525 20.8987L16.0875 20.0287L16.2 19.8037L16.2038 19.7999L16.5788 19.0462C16.71 18.7874 16.6388 18.4724 16.4138 18.2849V18.2887ZM18 6.5999C15.6788 6.5999 13.8 8.47865 13.8 10.7999C13.8 11.9849 14.3738 13.2412 15.2325 14.4224C16.0763 15.5774 17.0588 16.4774 17.5725 16.9087C17.7375 17.0474 17.88 17.2049 18 17.3774C18.12 17.2049 18.2625 17.0474 18.4275 16.9087C18.9412 16.4774 19.9237 15.5774 20.7675 14.4224C21.63 13.2412 22.2 11.9849 22.2 10.7999C22.2 8.47865 20.3213 6.5999 18 6.5999ZM17.1 10.7999C17.1 11.2987 16.6988 11.6999 16.2 11.6999C15.7013 11.6999 15.3 11.2987 15.3 10.7999C15.3 9.3074 16.5075 8.0999 18 8.0999C18.4988 8.0999 18.9 8.50115 18.9 8.9999C18.9 9.49865 18.4988 9.8999 18 9.8999C17.5013 9.8999 17.1 10.3012 17.1 10.7999Z" fill="black" fill-opacity="0.45"/>
</svg>
