<svg width="24" height="24" viewBox="0 0 24 24" fill="none" xmlns="http://www.w3.org/2000/svg">
<path d="M16.8413 17.7163L5.88375 6.75875C4.83 8.08625 4.2 9.77 4.2 11.6C4.2 15.9088 7.69125 19.4 12 19.4C13.83 19.4 15.5138 18.77 16.8413 17.7163ZM18.1125 16.445C19.17 15.1138 19.8 13.43 19.8 11.6C19.8 7.29125 16.3088 3.8 12 3.8C10.17 3.8 8.48625 4.43 7.15875 5.48375L18.1163 16.4413L18.1125 16.445ZM2.4 11.6C2.4 9.05392 3.41143 6.61212 5.21178 4.81178C7.01213 3.01143 9.45392 2 12 2C14.5461 2 16.9879 3.01143 18.7882 4.81178C20.5886 6.61212 21.6 9.05392 21.6 11.6C21.6 14.1461 20.5886 16.5879 18.7882 18.3882C16.9879 20.1886 14.5461 21.2 12 21.2C9.45392 21.2 7.01213 20.1886 5.21178 18.3882C3.41143 16.5879 2.4 14.1461 2.4 11.6Z" fill="black" fill-opacity="0.45"/>
</svg>
