<svg width="24" height="24" viewBox="0 0 24 24" fill="none" xmlns="http://www.w3.org/2000/svg">
<path d="M3.30002 3.6001C2.80127 3.6001 2.40002 4.00135 2.40002 4.5001V19.5001C2.40002 19.9988 2.80127 20.4001 3.30002 20.4001C3.79877 20.4001 4.20002 19.9988 4.20002 19.5001V4.5001C4.20002 4.00135 3.79877 3.6001 3.30002 3.6001ZM6.60002 3.6001C6.27002 3.6001 6.00002 3.8701 6.00002 4.2001V19.8001C6.00002 20.1301 6.27002 20.4001 6.60002 20.4001C6.93002 20.4001 7.20002 20.1301 7.20002 19.8001V4.2001C7.20002 3.8701 6.93002 3.6001 6.60002 3.6001ZM9.30002 3.6001C8.80127 3.6001 8.40002 4.00135 8.40002 4.5001V19.5001C8.40002 19.9988 8.80127 20.4001 9.30002 20.4001C9.79877 20.4001 10.2 19.9988 10.2 19.5001V4.5001C10.2 4.00135 9.79877 3.6001 9.30002 3.6001ZM13.5 3.6001C13.0013 3.6001 12.6 4.00135 12.6 4.5001V19.5001C12.6 19.9988 13.0013 20.4001 13.5 20.4001C13.9988 20.4001 14.4 19.9988 14.4 19.5001V4.5001C14.4 4.00135 13.9988 3.6001 13.5 3.6001ZM19.8 4.5001V19.5001C19.8 19.9988 20.2013 20.4001 20.7 20.4001C21.1988 20.4001 21.6 19.9988 21.6 19.5001V4.5001C21.6 4.00135 21.1988 3.6001 20.7 3.6001C20.2013 3.6001 19.8 4.00135 19.8 4.5001ZM17.4 4.2001V19.8001C17.4 20.1301 17.67 20.4001 18 20.4001C18.33 20.4001 18.6 20.1301 18.6 19.8001V4.2001C18.6 3.8701 18.33 3.6001 18 3.6001C17.67 3.6001 17.4 3.8701 17.4 4.2001Z" fill="black" fill-opacity="0.45"/>
</svg>
