<svg width="24" height="24" viewBox="0 0 24 24" fill="none" xmlns="http://www.w3.org/2000/svg">
<path d="M3.60001 5.70005C3.60001 5.2013 4.00126 4.80005 4.50001 4.80005H19.5C19.9988 4.80005 20.4 5.2013 20.4 5.70005C20.4 6.1988 19.9988 6.60005 19.5 6.60005H4.50001C4.00126 6.60005 3.60001 6.1988 3.60001 5.70005ZM3.60001 11.7C3.60001 11.2013 4.00126 10.8 4.50001 10.8H19.5C19.9988 10.8 20.4 11.2013 20.4 11.7C20.4 12.1988 19.9988 12.6 19.5 12.6H4.50001C4.00126 12.6 3.60001 12.1988 3.60001 11.7ZM20.4 17.7C20.4 18.1988 19.9988 18.6 19.5 18.6H4.50001C4.00126 18.6 3.60001 18.1988 3.60001 17.7C3.60001 17.2013 4.00126 16.8 4.50001 16.8H19.5C19.9988 16.8 20.4 17.2013 20.4 17.7Z" fill="black" fill-opacity="0.45"/>
</svg>
