<svg width="24" height="24" viewBox="0 0 24 24" fill="none" xmlns="http://www.w3.org/2000/svg">
<path d="M14.5613 9.42379C14.0625 9.16879 13.71 8.70004 13.6088 8.15254L13.365 6.84379C12.9488 7.07629 12.48 7.20004 12 7.20004C11.52 7.20004 11.0513 7.07629 10.635 6.84379L10.3913 8.15254C10.29 8.70004 9.9375 9.17254 9.43876 9.42379C8.94 9.67504 8.355 9.68629 7.84875 9.44629L5.2725 8.22004C3.82875 9.99004 3.02625 12.1988 3 14.4863L3.49875 14.2388C4.62 13.6763 5.985 14.0738 6.63 15.15L6.95625 15.6975L7.24126 15.4125C8.26501 14.3888 9.95625 14.4975 10.8413 15.645L12 17.1488L13.155 15.645C14.04 14.4975 15.7313 14.385 16.755 15.4125L17.04 15.6975L17.3663 15.15C18.0113 14.0738 19.3763 13.6763 20.4975 14.2388L20.9963 14.4863C20.9738 12.1988 20.1713 9.98629 18.7238 8.21629L16.1475 9.44254C15.6413 9.68254 15.0563 9.67504 14.5575 9.42004L14.5613 9.42379ZM22.8 15.3863V15.4613V16.53C22.8 16.9275 22.38 17.1863 22.0275 17.01L21.0713 16.53L21 16.5L19.6988 15.8475C19.4175 15.7088 19.0763 15.8063 18.915 16.0763L17.7975 17.94C17.595 18.2738 17.1338 18.33 16.86 18.0563L15.4875 16.6838C15.2325 16.4288 14.8088 16.455 14.5875 16.7438L12.48 19.485C12.24 19.7963 11.7675 19.7963 11.5275 19.485L9.42 16.7438C9.19875 16.455 8.775 16.4288 8.52 16.6838L7.1475 18.0563C6.87001 18.3338 6.40875 18.2738 6.21 17.94L5.0925 16.0763C4.93125 15.8063 4.59 15.7088 4.30875 15.8475L3 16.5L2.9325 16.5338L1.97625 17.0138C1.62 17.19 1.2 16.9313 1.2 16.5338V15.465V15.39V14.595C1.2 11.76 2.21625 9.01504 4.06125 6.86254C4.49625 6.35254 5.22 6.19879 5.8275 6.48754L6.94126 7.01629L8.62125 7.81504L8.96626 5.98504L9.22125 4.62754C9.27 4.37629 9.4875 4.19629 9.74251 4.19629C9.8475 4.19629 9.94876 4.22629 10.035 4.28629L11.4525 5.23129C11.6138 5.34004 11.805 5.39629 12.0038 5.39629C12.2025 5.39629 12.39 5.34004 12.555 5.23129L13.9725 4.28629C14.0588 4.23004 14.16 4.19629 14.265 4.19629C14.52 4.19629 14.7375 4.37629 14.7863 4.62754L15.0413 5.98504L15.3863 7.81504L17.0663 7.01629L18.1725 6.48754C18.78 6.19879 19.5038 6.35254 19.9388 6.86254C21.7838 9.01504 22.8 11.76 22.8 14.595V15.3863Z" fill="black" fill-opacity="0.45"/>
</svg>
