<svg width="24" height="24" viewBox="0 0 24 24" fill="none" xmlns="http://www.w3.org/2000/svg">
<path d="M6.19877 4.1999C5.75627 4.1999 5.40002 4.55615 5.40002 4.99865V11.9999H18.6H20.4H20.7C21.1988 11.9999 21.6 12.4012 21.6 12.8999C21.6 13.3987 21.1988 13.7999 20.7 13.7999H20.4H18.6H5.40002H3.60002H3.30002C2.80127 13.7999 2.40002 13.3987 2.40002 12.8999C2.40002 12.4012 2.80127 11.9999 3.30002 11.9999H3.60002V4.99865C3.60002 3.5624 4.76252 2.3999 6.19877 2.3999C6.88877 2.3999 7.54877 2.67365 8.03627 3.16115L8.21627 3.34115C8.63252 3.12365 9.10502 2.9999 9.60378 2.9999C10.5 2.9999 11.3063 3.39365 11.8575 4.0199C12.2025 3.82115 12.6488 3.8699 12.9413 4.16615C13.2938 4.51865 13.2938 5.08865 12.9413 5.4374L9.03752 9.3374C8.68502 9.6899 8.11503 9.6899 7.76627 9.3374C7.47377 9.0449 7.42502 8.59865 7.62002 8.25365C6.99377 7.7024 6.60002 6.89615 6.60002 5.9999C6.60002 5.4974 6.72377 5.02865 6.94127 4.6124L6.76127 4.4324C6.61127 4.2824 6.40877 4.1999 6.19877 4.1999ZM3.60002 14.9999H5.40002V16.1999C5.40002 17.1937 6.20627 17.9999 7.20002 17.9999H16.8C17.7938 17.9999 18.6 17.1937 18.6 16.1999V14.9999H20.4V16.1999C20.4 17.2649 19.935 18.2249 19.2 18.8849V20.6999C19.2 21.1987 18.7988 21.5999 18.3 21.5999C17.8013 21.5999 17.4 21.1987 17.4 20.6999V19.7512C17.205 19.7849 17.0063 19.7999 16.8 19.7999H7.20002C6.99377 19.7999 6.79502 19.7812 6.60002 19.7512V20.6999C6.60002 21.1987 6.19877 21.5999 5.70002 21.5999C5.20127 21.5999 4.80002 21.1987 4.80002 20.6999V18.8849C4.06502 18.2249 3.60002 17.2649 3.60002 16.1999V14.9999ZM9.60002 4.7999C8.93627 4.7999 8.40002 5.33615 8.40002 5.9999C8.40002 6.3899 8.58378 6.7349 8.87252 6.95615L10.5525 5.27615C10.335 4.98365 9.99002 4.7999 9.60002 4.7999Z" fill="black" fill-opacity="0.45"/>
</svg>
