<svg width="24" height="24" viewBox="0 0 24 24" fill="none" xmlns="http://www.w3.org/2000/svg">
<path d="M3.59999 5.4001V10.1176C4.14374 9.82885 4.75499 9.6526 5.39999 9.6076V9.59635V8.4001C5.39999 7.73635 5.93624 7.2001 6.59999 7.2001H10.2C10.8637 7.2001 11.4 7.73635 11.4 8.4001V9.6001H12.6V8.4001C12.6 7.73635 13.1362 7.2001 13.8 7.2001H17.4C18.0637 7.2001 18.6 7.73635 18.6 8.4001V9.6001V9.61135C19.245 9.6526 19.8562 9.8326 20.4 10.1213V5.4001C20.4 4.40635 19.5937 3.6001 18.6 3.6001H5.39999C4.40624 3.6001 3.59999 4.40635 3.59999 5.4001ZM5.69999 10.8001C3.87749 10.8001 2.39999 12.2776 2.39999 14.1001V17.1001V19.5001C2.39999 19.9988 2.80124 20.4001 3.29999 20.4001C3.79874 20.4001 4.19999 19.9988 4.19999 19.5001V18.0001H19.8V19.5001C19.8 19.9988 20.2012 20.4001 20.7 20.4001C21.1987 20.4001 21.6 19.9988 21.6 19.5001V17.1001V14.1001C21.6 12.2776 20.1225 10.8001 18.3 10.8001H5.69999ZM19.8 16.2001H4.19999V14.1001C4.19999 13.2713 4.87124 12.6001 5.69999 12.6001H18.3C19.1287 12.6001 19.8 13.2713 19.8 14.1001V16.2001Z" fill="black" fill-opacity="0.45"/>
</svg>
