<svg width="24" height="24" viewBox="0 0 24 24" fill="none" xmlns="http://www.w3.org/2000/svg">
<path d="M12 2.40002C11.3362 2.40002 10.8 2.93627 10.8 3.60002V4.32002C8.0625 4.87502 6 7.29752 6 10.2V11.1525C6 12.855 5.41875 14.5088 4.3575 15.8363L3.79875 16.5375C3.58125 16.8075 3.54 17.1788 3.69 17.49C3.84 17.8013 4.155 18 4.5 18H19.5C19.845 18 20.16 17.8013 20.31 17.49C20.46 17.1788 20.4187 16.8075 20.2012 16.5375L19.6425 15.84C18.5812 14.5088 18 12.855 18 11.1525V10.2C18 7.29752 15.9375 4.87502 13.2 4.32002V3.60002C13.2 2.93627 12.6637 2.40002 12 2.40002ZM12 6.00002C14.3212 6.00002 16.2 7.87877 16.2 10.2V11.1525C16.2 12.9488 16.7212 14.7 17.6887 16.2H6.31125C7.27875 14.7 7.8 12.9488 7.8 11.1525V10.2C7.8 7.87877 9.67875 6.00002 12 6.00002ZM14.4 19.2H12H9.6C9.6 19.8375 9.85125 20.4488 10.3012 20.8988C10.7512 21.3488 11.3625 21.6 12 21.6C12.6375 21.6 13.2487 21.3488 13.6987 20.8988C14.1487 20.4488 14.4 19.8375 14.4 19.2Z" fill="black" fill-opacity="0.45"/>
</svg>
