<svg width="24" height="24" viewBox="0 0 24 24" fill="none" xmlns="http://www.w3.org/2000/svg">
<path d="M11.7 3.6001C11.2013 3.6001 10.8 4.00135 10.8 4.5001C10.8 4.99885 11.2013 5.4001 11.7 5.4001H12.6638L13.9613 7.8001H8.35875L7.33125 6.3751C7.1625 6.13885 6.88875 6.0001 6.6 6.0001H4.5C4.00125 6.0001 3.6 6.40135 3.6 6.9001C3.6 7.39885 4.00125 7.8001 4.5 7.8001H6.13875L6.9675 8.95135L5.97 10.9426C5.595 10.8488 5.20125 10.8001 4.8 10.8001C2.14875 10.8001 0 12.9488 0 15.6001C0 18.2513 2.14875 20.4001 4.8 20.4001C7.24875 20.4001 9.26625 18.5663 9.5625 16.2001H11.4C11.7188 16.2001 12.0113 16.0313 12.1763 15.7576L15.3563 10.3763L16.17 11.8801C15.09 12.7613 14.4 14.1001 14.4 15.6001C14.4 18.2513 16.5487 20.4001 19.2 20.4001C21.8513 20.4001 24 18.2513 24 15.6001C24 12.9488 21.8513 10.8001 19.2 10.8001C18.6938 10.8001 18.2063 10.8788 17.7488 11.0251L14.0775 4.2301C13.8675 3.8401 13.4625 3.6001 13.02 3.6001H11.7ZM17.0475 13.5113L18.4088 16.0276C18.645 16.4663 19.1925 16.6276 19.6275 16.3913C20.0625 16.1551 20.2275 15.6076 19.9912 15.1726L18.63 12.6563C18.8138 12.6226 19.005 12.6038 19.2 12.6038C20.8575 12.6038 22.2 13.9463 22.2 15.6038C22.2 17.2613 20.8575 18.6038 19.2 18.6038C17.5425 18.6038 16.2 17.2613 16.2 15.6038C16.2 14.7901 16.5225 14.0551 17.0475 13.5151V13.5113ZM5.13375 12.6188L4.08 14.7226C3.7425 15.4013 4.23375 16.2001 4.99125 16.2001H7.73625C7.45875 17.5688 6.2475 18.6001 4.79625 18.6001C3.13875 18.6001 1.79625 17.2576 1.79625 15.6001C1.79625 13.9426 3.13875 12.6001 4.79625 12.6001C4.90875 12.6001 5.02125 12.6076 5.13 12.6188H5.13375ZM6.255 14.4001L8.15625 10.6013L10.89 14.3963L10.8862 14.4001H6.255ZM9.6525 9.6001H13.7213L11.8875 12.7051L9.6525 9.6001Z" fill="black" fill-opacity="0.45"/>
</svg>
