<svg width="24" height="24" viewBox="0 0 24 24" fill="none" xmlns="http://www.w3.org/2000/svg">
<path d="M5.99999 4.8001C5.99999 4.13635 6.53624 3.6001 7.19999 3.6001H8.39999C9.06374 3.6001 9.59999 4.13635 9.59999 4.8001V5.4001H5.99999V4.8001ZM4.63499 8.3251C4.81499 7.3276 5.68499 6.6001 6.70124 6.6001H9.89999C10.3987 6.6001 10.8 7.00135 10.8 7.5001V8.4001H13.2V7.5001C13.2 7.00135 13.6012 6.6001 14.1 6.6001H17.2987C18.315 6.6001 19.185 7.3276 19.365 8.3251L19.5525 9.34885C19.6875 10.0951 19.9575 10.8113 20.3475 11.4638L20.445 11.6288C21.1987 12.8888 21.6 14.3288 21.6 15.7951V18.3001C21.6 19.4588 20.6587 20.4001 19.5 20.4001H15.3C14.1412 20.4001 13.2 19.4588 13.2 18.3001V13.2001H10.8V18.3001C10.8 19.4588 9.85874 20.4001 8.69999 20.4001H4.49999C3.34124 20.4001 2.39999 19.4588 2.39999 18.3001V15.7951C2.39999 14.3251 2.79749 12.8851 3.55499 11.6251L3.65249 11.4601C4.04249 10.8076 4.31249 10.0913 4.44749 9.3451L4.63499 8.32135V8.3251ZM6.70124 8.4001C6.55499 8.4001 6.43124 8.5051 6.40499 8.6476L6.21749 9.67135C6.04499 10.6313 5.69999 11.5501 5.19749 12.3901L5.09999 12.5551C4.51124 13.5338 4.19999 14.6513 4.19999 15.7951V18.3001C4.19999 18.4651 4.33499 18.6001 4.49999 18.6001H8.69999C8.86499 18.6001 8.99999 18.4651 8.99999 18.3001V8.4001H6.70124ZM17.2987 8.4001H15V18.3001C15 18.4651 15.135 18.6001 15.3 18.6001H19.5C19.665 18.6001 19.8 18.4651 19.8 18.3001V15.7951C19.8 14.6551 19.4887 13.5338 18.9037 12.5551L18.8062 12.3901C18.3037 11.5538 17.9587 10.6313 17.7825 9.67135L17.595 8.6476C17.5687 8.5051 17.445 8.4001 17.2987 8.4001ZM15.6 3.6001H16.8C17.4637 3.6001 18 4.13635 18 4.8001V5.4001H14.4V4.8001C14.4 4.13635 14.9362 3.6001 15.6 3.6001Z" fill="black" fill-opacity="0.45"/>
</svg>
