<svg width="24" height="24" viewBox="0 0 24 24" fill="none" xmlns="http://www.w3.org/2000/svg">
<path d="M4.22625 10.1999H9.6C11.2575 10.1999 12.6 8.8574 12.6 7.1999V6.5999C12.6 5.27615 13.6763 4.1999 15 4.1999C16.3238 4.1999 17.4 5.27615 17.4 6.5999V9.5999C17.4 13.2449 14.445 16.1999 10.8 16.1999C7.3575 16.1999 4.53 13.5637 4.22625 10.1999ZM2.4 9.4649V9.5999C2.4 13.4362 4.96875 16.6687 8.47875 17.6774L10.3013 21.1237C10.5338 21.5624 11.0775 21.7312 11.5163 21.4987C11.955 21.2662 12.1238 20.7224 11.8913 20.2837L10.6875 17.9999C10.725 17.9999 10.7625 17.9999 10.8 17.9999C11.2725 17.9999 11.7375 17.9624 12.1913 17.8837L13.905 21.1199C14.1375 21.5587 14.6813 21.7274 15.12 21.4949C15.5588 21.2624 15.7275 20.7187 15.495 20.2799L13.9613 17.3849C17.0363 16.1362 19.2 13.1212 19.2 9.5999V8.98115L21.3075 7.7174C21.4875 7.60865 21.6 7.41365 21.6 7.20365C21.6 6.99365 21.4913 6.79865 21.3075 6.6899L18.9938 5.3024C18.4463 3.6149 16.8638 2.3999 15 2.3999C12.6788 2.3999 10.8 4.27865 10.8 6.5999V7.1999C10.8 7.86365 10.2638 8.3999 9.6 8.3999H3.465C2.87625 8.3999 2.4 8.87615 2.4 9.4649ZM15 7.7999C15.2387 7.7999 15.4676 7.70508 15.6364 7.5363C15.8052 7.36752 15.9 7.1386 15.9 6.8999C15.9 6.66121 15.8052 6.43229 15.6364 6.26351C15.4676 6.09472 15.2387 5.9999 15 5.9999C14.7613 5.9999 14.5324 6.09472 14.3636 6.26351C14.1948 6.43229 14.1 6.66121 14.1 6.8999C14.1 7.1386 14.1948 7.36752 14.3636 7.5363C14.5324 7.70508 14.7613 7.7999 15 7.7999Z" fill="black" fill-opacity="0.45"/>
</svg>
