<svg width="24" height="24" viewBox="0 0 24 24" fill="none" xmlns="http://www.w3.org/2000/svg">
<path d="M6 5.4001C5.67 5.4001 5.4 5.6701 5.4 6.0001V18.0001C5.4 18.3301 5.67 18.6001 6 18.6001H18C18.33 18.6001 18.6 18.3301 18.6 18.0001V6.0001C18.6 5.6701 18.33 5.4001 18 5.4001H6ZM3.6 6.0001C3.6 4.67635 4.67625 3.6001 6 3.6001H18C19.3237 3.6001 20.4 4.67635 20.4 6.0001V18.0001C20.4 19.3238 19.3237 20.4001 18 20.4001H6C4.67625 20.4001 3.6 19.3238 3.6 18.0001V6.0001ZM8.7675 8.89885C9.06375 8.0626 9.85875 7.5001 10.7475 7.5001H12.9337C14.2425 7.5001 15.3 8.56135 15.3 9.86635C15.3 10.7138 14.8462 11.4976 14.1112 11.9213L12.9 12.6151C12.8925 13.1026 12.4912 13.5001 12 13.5001C11.5012 13.5001 11.1 13.0988 11.1 12.6001V12.0938C11.1 11.7713 11.2725 11.4751 11.5537 11.3138L13.215 10.3613C13.3912 10.2601 13.5 10.0726 13.5 9.8701C13.5 9.5551 13.245 9.30385 12.9337 9.30385H10.7475C10.62 9.30385 10.5075 9.3826 10.4662 9.5026L10.4512 9.5476C10.2862 10.0163 9.76875 10.2601 9.30375 10.0951C8.83875 9.9301 8.59125 9.4126 8.75625 8.9476L8.77125 8.9026L8.7675 8.89885ZM10.8 15.9001C10.8 15.5818 10.9264 15.2766 11.1515 15.0516C11.3765 14.8265 11.6817 14.7001 12 14.7001C12.3183 14.7001 12.6235 14.8265 12.8485 15.0516C13.0736 15.2766 13.2 15.5818 13.2 15.9001C13.2 16.2184 13.0736 16.5236 12.8485 16.7486C12.6235 16.9737 12.3183 17.1001 12 17.1001C11.6817 17.1001 11.3765 16.9737 11.1515 16.7486C10.9264 16.5236 10.8 16.2184 10.8 15.9001ZM6 6.9001C6 6.6614 6.09482 6.43248 6.2636 6.2637C6.43238 6.09492 6.6613 6.0001 6.9 6.0001C7.13869 6.0001 7.36761 6.09492 7.53639 6.2637C7.70518 6.43248 7.8 6.6614 7.8 6.9001C7.8 7.13879 7.70518 7.36771 7.53639 7.53649C7.36761 7.70528 7.13869 7.8001 6.9 7.8001C6.6613 7.8001 6.43238 7.70528 6.2636 7.53649C6.09482 7.36771 6 7.13879 6 6.9001ZM17.1 6.0001C17.3387 6.0001 17.5676 6.09492 17.7364 6.2637C17.9052 6.43248 18 6.6614 18 6.9001C18 7.13879 17.9052 7.36771 17.7364 7.53649C17.5676 7.70528 17.3387 7.8001 17.1 7.8001C16.8613 7.8001 16.6324 7.70528 16.4636 7.53649C16.2948 7.36771 16.2 7.13879 16.2 6.9001C16.2 6.6614 16.2948 6.43248 16.4636 6.2637C16.6324 6.09492 16.8613 6.0001 17.1 6.0001ZM6 17.1001C6 16.8614 6.09482 16.6325 6.2636 16.4637C6.43238 16.2949 6.6613 16.2001 6.9 16.2001C7.13869 16.2001 7.36761 16.2949 7.53639 16.4637C7.70518 16.6325 7.8 16.8614 7.8 17.1001C7.8 17.3388 7.70518 17.5677 7.53639 17.7365C7.36761 17.9053 7.13869 18.0001 6.9 18.0001C6.6613 18.0001 6.43238 17.9053 6.2636 17.7365C6.09482 17.5677 6 17.3388 6 17.1001ZM17.1 16.2001C17.3387 16.2001 17.5676 16.2949 17.7364 16.4637C17.9052 16.6325 18 16.8614 18 17.1001C18 17.3388 17.9052 17.5677 17.7364 17.7365C17.5676 17.9053 17.3387 18.0001 17.1 18.0001C16.8613 18.0001 16.6324 17.9053 16.4636 17.7365C16.2948 17.5677 16.2 17.3388 16.2 17.1001C16.2 16.8614 16.2948 16.6325 16.4636 16.4637C16.6324 16.2949 16.8613 16.2001 17.1 16.2001Z" fill="black" fill-opacity="0.45"/>
</svg>
