<svg width="24" height="24" viewBox="0 0 24 24" fill="none" xmlns="http://www.w3.org/2000/svg">
<path d="M10.5 2.3999C16.6313 2.3999 21.6 7.36865 21.6 13.4999C21.6 13.9987 21.1988 14.3999 20.7 14.3999C20.2013 14.3999 19.8 13.9987 19.8 13.4999C19.8 8.3624 15.6375 4.1999 10.5 4.1999C10.0013 4.1999 9.6 3.79865 9.6 3.2999C9.6 2.80115 10.0013 2.3999 10.5 2.3999ZM3.3 5.9999C3.79875 5.9999 4.2 6.40115 4.2 6.8999V16.1999C4.2 18.1874 5.8125 19.7999 7.8 19.7999C9.7875 19.7999 11.4 18.1874 11.4 16.1999C11.4 14.2124 9.7875 12.5999 7.8 12.5999H7.5C7.00125 12.5999 6.6 12.1987 6.6 11.6999C6.6 11.2012 7.00125 10.7999 7.5 10.7999H7.8C10.7813 10.7999 13.2 13.2187 13.2 16.1999C13.2 19.1812 10.7813 21.5999 7.8 21.5999C4.81875 21.5999 2.4 19.1812 2.4 16.1999V6.8999C2.4 6.40115 2.80125 5.9999 3.3 5.9999ZM9.6 6.8999C9.6 6.40115 10.0013 5.9999 10.5 5.9999C14.6438 5.9999 18 9.35615 18 13.4999C18 13.9987 17.5988 14.3999 17.1 14.3999C16.6013 14.3999 16.2 13.9987 16.2 13.4999C16.2 10.3537 13.6463 7.7999 10.5 7.7999C10.0013 7.7999 9.6 7.39865 9.6 6.8999Z" fill="black" fill-opacity="0.45"/>
</svg>
