<svg width="24" height="24" viewBox="0 0 24 24" fill="none" xmlns="http://www.w3.org/2000/svg">
<path d="M15.6638 2.40002C16.38 2.40002 16.8975 3.08627 16.6988 3.77252L14.6925 10.8H17.8875C18.6113 10.8 19.1963 11.385 19.1963 12.1088C19.1963 12.495 19.0275 12.8588 18.735 13.1063L9.03377 21.345C8.83877 21.51 8.59127 21.6 8.33627 21.6C7.62002 21.6 7.10252 20.9138 7.30127 20.2275L9.30752 13.2H6.06377C5.36627 13.2 4.80002 12.6338 4.80002 11.9363C4.80002 11.565 4.96127 11.2163 5.24252 10.9763L14.9663 2.65877C15.1613 2.49002 15.4088 2.40002 15.6638 2.40002ZM14.31 5.58752L7.51502 11.4H10.5C10.7813 11.4 11.0475 11.5313 11.22 11.7563C11.3925 11.9813 11.445 12.2738 11.3663 12.5438L9.68627 18.4313L16.5563 12.6H13.5C13.2188 12.6 12.9525 12.4688 12.78 12.2438C12.6075 12.0188 12.555 11.7263 12.6338 11.4563L14.31 5.58752Z" fill="black" fill-opacity="0.45"/>
</svg>
