<svg width="24" height="24" viewBox="0 0 24 24" fill="none" xmlns="http://www.w3.org/2000/svg">
<path d="M19.6163 4.36502L21.33 4.99502C21.4913 5.05502 21.6038 5.21627 21.6 5.38502C21.6 5.55377 21.4875 5.71127 21.33 5.76752L19.6163 6.39752L18.9975 8.11502C18.9413 8.28002 18.78 8.39627 18.6075 8.39627C18.435 8.39627 18.2738 8.28002 18.2175 8.11502L17.5875 6.39752L15.87 5.76752C15.7125 5.71127 15.6 5.55377 15.6 5.38502C15.6 5.21252 15.7125 5.05127 15.87 4.99502L17.595 4.36502L18.2138 2.64377C18.285 2.49752 18.4425 2.40002 18.6038 2.40002C18.765 2.40002 18.9225 2.49752 18.9938 2.64377L19.6125 4.36127L19.6163 4.36502ZM13.7588 8.01003C13.305 8.28003 12.7425 8.34002 12.2325 8.15252C11.5988 7.92377 10.9163 7.80002 10.2 7.80002C6.88502 7.80002 4.20002 10.485 4.20002 13.8C4.20002 17.115 6.88502 19.8 10.2 19.8C13.515 19.8 16.2 17.115 16.2 13.8C16.2 13.0838 16.0763 12.3975 15.8475 11.7675C15.6638 11.2538 15.7238 10.695 15.99 10.2413L13.7588 8.01003ZM12.8438 6.46127L12.9525 6.35252C13.4213 5.88377 14.1825 5.88377 14.6513 6.35252L17.6513 9.35252C18.12 9.82127 18.12 10.5825 17.6513 11.0513L17.5425 11.16C17.8388 11.985 18 12.8738 18 13.8038C18 18.1125 14.5088 21.6038 10.2 21.6038C5.89127 21.6038 2.40002 18.1088 2.40002 13.8C2.40002 9.49127 5.89127 6.00002 10.2 6.00002C11.1263 6.00002 12.0188 6.16127 12.8438 6.46127ZM9.90002 10.8C8.40752 10.8 7.20002 12.0075 7.20002 13.5C7.20002 13.9988 6.79877 14.4 6.30002 14.4C5.80127 14.4 5.40002 13.9988 5.40002 13.5C5.40002 11.0138 7.41377 9.00002 9.90002 9.00002C10.3988 9.00002 10.8 9.40127 10.8 9.90002C10.8 10.3988 10.3988 10.8 9.90002 10.8Z" fill="black" fill-opacity="0.45"/>
</svg>
