<svg width="24" height="24" viewBox="0 0 24 24" fill="none" xmlns="http://www.w3.org/2000/svg">
<path d="M3.60001 5.6999C3.60001 3.8774 5.07751 2.3999 6.90001 2.3999H18.3C19.4588 2.3999 20.4 3.34115 20.4 4.4999V15.2999C20.4 16.1362 19.9088 16.8599 19.2 17.1974V19.7999H19.5C19.9988 19.7999 20.4 20.2012 20.4 20.6999C20.4 21.1987 19.9988 21.5999 19.5 21.5999H6.60001C4.94251 21.5999 3.60001 20.2574 3.60001 18.5999C3.60001 18.4987 3.60376 18.3974 3.61501 18.2999H3.60001V5.6999ZM6.60001 17.3999C5.93626 17.3999 5.40001 17.9362 5.40001 18.5999C5.40001 19.2637 5.93626 19.7999 6.60001 19.7999H17.4V17.3999H6.60001ZM5.40001 15.8512C5.76751 15.6899 6.17251 15.5999 6.60001 15.5999H18.3C18.465 15.5999 18.6 15.4649 18.6 15.2999V4.4999C18.6 4.3349 18.465 4.1999 18.3 4.1999H6.90001C6.07126 4.1999 5.40001 4.87115 5.40001 5.6999V15.8512ZM9.30001 6.5999H15.9C16.3988 6.5999 16.8 7.00115 16.8 7.4999C16.8 7.99865 16.3988 8.3999 15.9 8.3999H9.30001C8.80126 8.3999 8.40001 7.99865 8.40001 7.4999C8.40001 7.00115 8.80126 6.5999 9.30001 6.5999ZM9.30001 9.5999H15.9C16.3988 9.5999 16.8 10.0012 16.8 10.4999C16.8 10.9987 16.3988 11.3999 15.9 11.3999H9.30001C8.80126 11.3999 8.40001 10.9987 8.40001 10.4999C8.40001 10.0012 8.80126 9.5999 9.30001 9.5999Z" fill="black" fill-opacity="0.45"/>
</svg>
