<svg width="24" height="24" viewBox="0 0 24 24" fill="none" xmlns="http://www.w3.org/2000/svg">
<path d="M4.79999 4.1999C4.79999 3.20615 5.60624 2.3999 6.59999 2.3999V4.1999V18.9524L11.4787 15.4687C11.79 15.2437 12.2137 15.2437 12.525 15.4687L17.4 18.9524V4.1999H6.59999V2.3999H17.4C18.3937 2.3999 19.2 3.20615 19.2 4.1999V20.6999C19.2 21.0374 19.0125 21.3449 18.7125 21.4987C18.4125 21.6524 18.0525 21.6262 17.7787 21.4312L12 17.3062L6.22124 21.4312C5.94749 21.6262 5.58749 21.6524 5.28749 21.4987C4.98749 21.3449 4.79999 21.0374 4.79999 20.6999V4.1999Z" fill="black" fill-opacity="0.45"/>
</svg>
