<svg width="24" height="24" viewBox="0 0 24 24" fill="none" xmlns="http://www.w3.org/2000/svg">
<path d="M3.59998 4.5001C3.59998 4.00135 4.00123 3.6001 4.49998 3.6001H19.5C19.9987 3.6001 20.4 4.00135 20.4 4.5001C20.4 4.99885 19.9987 5.4001 19.5 5.4001H4.49998C4.00123 5.4001 3.59998 4.99885 3.59998 4.5001ZM5.99998 8.4001C5.99998 8.71836 5.87355 9.02358 5.6485 9.24863C5.42346 9.47367 5.11824 9.6001 4.79998 9.6001C4.48172 9.6001 4.17649 9.47367 3.95145 9.24863C3.7264 9.02358 3.59998 8.71836 3.59998 8.4001C3.59998 8.08184 3.7264 7.77661 3.95145 7.55157C4.17649 7.32653 4.48172 7.2001 4.79998 7.2001C5.11824 7.2001 5.42346 7.32653 5.6485 7.55157C5.87355 7.77661 5.99998 8.08184 5.99998 8.4001ZM18 8.4001C18 8.08184 18.1264 7.77661 18.3514 7.55157C18.5765 7.32653 18.8817 7.2001 19.2 7.2001C19.5182 7.2001 19.8235 7.32653 20.0485 7.55157C20.2735 7.77661 20.4 8.08184 20.4 8.4001C20.4 8.71836 20.2735 9.02358 20.0485 9.24863C19.8235 9.47367 19.5182 9.6001 19.2 9.6001C18.8817 9.6001 18.5765 9.47367 18.3514 9.24863C18.1264 9.02358 18 8.71836 18 8.4001ZM13.2 8.4001C13.2 8.71836 13.0735 9.02358 12.8485 9.24863C12.6235 9.47367 12.3182 9.6001 12 9.6001C11.6817 9.6001 11.3765 9.47367 11.1514 9.24863C10.9264 9.02358 10.8 8.71836 10.8 8.4001C10.8 8.08184 10.9264 7.77661 11.1514 7.55157C11.3765 7.32653 11.6817 7.2001 12 7.2001C12.3182 7.2001 12.6235 7.32653 12.8485 7.55157C13.0735 7.77661 13.2 8.08184 13.2 8.4001ZM3.59998 15.6001C3.59998 15.2818 3.7264 14.9766 3.95145 14.7516C4.17649 14.5265 4.48172 14.4001 4.79998 14.4001C5.11824 14.4001 5.42346 14.5265 5.6485 14.7516C5.87355 14.9766 5.99998 15.2818 5.99998 15.6001C5.99998 15.9184 5.87355 16.2236 5.6485 16.4486C5.42346 16.6737 5.11824 16.8001 4.79998 16.8001C4.48172 16.8001 4.17649 16.6737 3.95145 16.4486C3.7264 16.2236 3.59998 15.9184 3.59998 15.6001ZM20.4 15.6001C20.4 15.9184 20.2735 16.2236 20.0485 16.4486C19.8235 16.6737 19.5182 16.8001 19.2 16.8001C18.8817 16.8001 18.5765 16.6737 18.3514 16.4486C18.1264 16.2236 18 15.9184 18 15.6001C18 15.2818 18.1264 14.9766 18.3514 14.7516C18.5765 14.5265 18.8817 14.4001 19.2 14.4001C19.5182 14.4001 19.8235 14.5265 20.0485 14.7516C20.2735 14.9766 20.4 15.2818 20.4 15.6001ZM10.8 15.6001C10.8 15.2818 10.9264 14.9766 11.1514 14.7516C11.3765 14.5265 11.6817 14.4001 12 14.4001C12.3182 14.4001 12.6235 14.5265 12.8485 14.7516C13.0735 14.9766 13.2 15.2818 13.2 15.6001C13.2 15.9184 13.0735 16.2236 12.8485 16.4486C12.6235 16.6737 12.3182 16.8001 12 16.8001C11.6817 16.8001 11.3765 16.6737 11.1514 16.4486C10.9264 16.2236 10.8 15.9184 10.8 15.6001ZM5.99998 12.0001C5.99998 12.3184 5.87355 12.6236 5.6485 12.8486C5.42346 13.0737 5.11824 13.2001 4.79998 13.2001C4.48172 13.2001 4.17649 13.0737 3.95145 12.8486C3.7264 12.6236 3.59998 12.3184 3.59998 12.0001C3.59998 11.6818 3.7264 11.3766 3.95145 11.1516C4.17649 10.9265 4.48172 10.8001 4.79998 10.8001C5.11824 10.8001 5.42346 10.9265 5.6485 11.1516C5.87355 11.3766 5.99998 11.6818 5.99998 12.0001ZM18 12.0001C18 11.6818 18.1264 11.3766 18.3514 11.1516C18.5765 10.9265 18.8817 10.8001 19.2 10.8001C19.5182 10.8001 19.8235 10.9265 20.0485 11.1516C20.2735 11.3766 20.4 11.6818 20.4 12.0001C20.4 12.3184 20.2735 12.6236 20.0485 12.8486C19.8235 13.0737 19.5182 13.2001 19.2 13.2001C18.8817 13.2001 18.5765 13.0737 18.3514 12.8486C18.1264 12.6236 18 12.3184 18 12.0001ZM13.2 12.0001C13.2 12.3184 13.0735 12.6236 12.8485 12.8486C12.6235 13.0737 12.3182 13.2001 12 13.2001C11.6817 13.2001 11.3765 13.0737 11.1514 12.8486C10.9264 12.6236 10.8 12.3184 10.8 12.0001C10.8 11.6818 10.9264 11.3766 11.1514 11.1516C11.3765 10.9265 11.6817 10.8001 12 10.8001C12.3182 10.8001 12.6235 10.9265 12.8485 11.1516C13.0735 11.3766 13.2 11.6818 13.2 12.0001ZM3.59998 19.2001C3.59998 18.8818 3.7264 18.5766 3.95145 18.3516C4.17649 18.1265 4.48172 18.0001 4.79998 18.0001C5.11824 18.0001 5.42346 18.1265 5.6485 18.3516C5.87355 18.5766 5.99998 18.8818 5.99998 19.2001C5.99998 19.5184 5.87355 19.8236 5.6485 20.0486C5.42346 20.2737 5.11824 20.4001 4.79998 20.4001C4.48172 20.4001 4.17649 20.2737 3.95145 20.0486C3.7264 19.8236 3.59998 19.5184 3.59998 19.2001ZM20.4 19.2001C20.4 19.5184 20.2735 19.8236 20.0485 20.0486C19.8235 20.2737 19.5182 20.4001 19.2 20.4001C18.8817 20.4001 18.5765 20.2737 18.3514 20.0486C18.1264 19.8236 18 19.5184 18 19.2001C18 18.8818 18.1264 18.5766 18.3514 18.3516C18.5765 18.1265 18.8817 18.0001 19.2 18.0001C19.5182 18.0001 19.8235 18.1265 20.0485 18.3516C20.2735 18.5766 20.4 18.8818 20.4 19.2001ZM10.8 19.2001C10.8 18.8818 10.9264 18.5766 11.1514 18.3516C11.3765 18.1265 11.6817 18.0001 12 18.0001C12.3182 18.0001 12.6235 18.1265 12.8485 18.3516C13.0735 18.5766 13.2 18.8818 13.2 19.2001C13.2 19.5184 13.0735 19.8236 12.8485 20.0486C12.6235 20.2737 12.3182 20.4001 12 20.4001C11.6817 20.4001 11.3765 20.2737 11.1514 20.0486C10.9264 19.8236 10.8 19.5184 10.8 19.2001ZM9.59998 12.0001C9.59998 12.3184 9.47355 12.6236 9.2485 12.8486C9.02346 13.0737 8.71824 13.2001 8.39998 13.2001C8.08172 13.2001 7.77649 13.0737 7.55145 12.8486C7.3264 12.6236 7.19998 12.3184 7.19998 12.0001C7.19998 11.6818 7.3264 11.3766 7.55145 11.1516C7.77649 10.9265 8.08172 10.8001 8.39998 10.8001C8.71824 10.8001 9.02346 10.9265 9.2485 11.1516C9.47355 11.3766 9.59998 11.6818 9.59998 12.0001ZM7.19998 19.2001C7.19998 18.8818 7.3264 18.5766 7.55145 18.3516C7.77649 18.1265 8.08172 18.0001 8.39998 18.0001C8.71824 18.0001 9.02346 18.1265 9.2485 18.3516C9.47355 18.5766 9.59998 18.8818 9.59998 19.2001C9.59998 19.5184 9.47355 19.8236 9.2485 20.0486C9.02346 20.2737 8.71824 20.4001 8.39998 20.4001C8.08172 20.4001 7.77649 20.2737 7.55145 20.0486C7.3264 19.8236 7.19998 19.5184 7.19998 19.2001ZM16.8 19.2001C16.8 19.5184 16.6735 19.8236 16.4485 20.0486C16.2235 20.2737 15.9182 20.4001 15.6 20.4001C15.2817 20.4001 14.9765 20.2737 14.7514 20.0486C14.5264 19.8236 14.4 19.5184 14.4 19.2001C14.4 18.8818 14.5264 18.5766 14.7514 18.3516C14.9765 18.1265 15.2817 18.0001 15.6 18.0001C15.9182 18.0001 16.2235 18.1265 16.4485 18.3516C16.6735 18.5766 16.8 18.8818 16.8 19.2001ZM14.4 12.0001C14.4 11.6818 14.5264 11.3766 14.7514 11.1516C14.9765 10.9265 15.2817 10.8001 15.6 10.8001C15.9182 10.8001 16.2235 10.9265 16.4485 11.1516C16.6735 11.3766 16.8 11.6818 16.8 12.0001C16.8 12.3184 16.6735 12.6236 16.4485 12.8486C16.2235 13.0737 15.9182 13.2001 15.6 13.2001C15.2817 13.2001 14.9765 13.0737 14.7514 12.8486C14.5264 12.6236 14.4 12.3184 14.4 12.0001Z" fill="black" fill-opacity="0.45"/>
</svg>
