<svg width="24" height="24" viewBox="0 0 24 24" fill="none" xmlns="http://www.w3.org/2000/svg">
<path d="M2.89124 5.90994L7.19999 5.09994V4.49994C7.19999 4.00119 7.60124 3.59994 8.09999 3.59994C8.59874 3.59994 8.99999 4.00119 8.99999 4.49994V4.76244V6.16869V7.59369V8.99994V10.7999H10.2V8.99994V7.55619V5.98119V4.53744V3.89994C10.2 3.40119 10.6012 2.99994 11.1 2.99994C11.5987 2.99994 12 3.40119 12 3.89994V4.19994V5.69994V7.49994V8.99994V10.7999H13.2H19.8C20.7937 10.7999 21.6 11.6062 21.6 12.5999C21.6 16.0049 19.5712 18.9374 16.6612 20.2574C16.3575 21.0449 15.5962 21.5999 14.7 21.5999H9.29999C8.40749 21.5999 7.64249 21.0412 7.33874 20.2574C4.42874 18.9374 2.39999 16.0049 2.39999 12.5999C2.39999 11.6062 3.20624 10.7999 4.19999 10.7999H7.19999V8.99994H3.00749C2.67374 8.99994 2.39999 8.72619 2.39999 8.38869C2.39999 8.05869 2.66249 7.78869 2.98874 7.78119L7.19999 7.64994V6.44994L3.09374 7.09119C2.72999 7.14744 2.39999 6.86619 2.39999 6.49869C2.39999 6.20994 2.60624 5.96244 2.89124 5.90994ZM20.715 8.99994H13.2V7.46244L20.685 7.22994C21.1875 7.21119 21.6 7.61244 21.6 8.11494C21.6 8.60244 21.2025 8.99994 20.715 8.99994ZM20.8612 4.31619L13.2 5.51244V3.97494L20.565 2.59494C21.1012 2.49369 21.6 2.90619 21.6 3.45369C21.6 3.88494 21.285 4.24869 20.8612 4.31619ZM8.08124 18.6187C8.51249 18.8137 8.84624 19.1699 9.01874 19.6087C9.06374 19.7249 9.17624 19.7999 9.29999 19.7999H14.7C14.8237 19.7999 14.9362 19.7249 14.9812 19.6087C15.15 19.1699 15.4875 18.8137 15.9187 18.6187C18.21 17.5799 19.8 15.2737 19.8 12.5999H4.19999C4.19999 15.2737 5.78999 17.5799 8.08124 18.6187Z" fill="black" fill-opacity="0.45"/>
</svg>
