<svg width="24" height="24" viewBox="0 0 24 24" fill="none" xmlns="http://www.w3.org/2000/svg">
<path d="M6.9 3.6001C5.0775 3.6001 3.6 5.0776 3.6 6.9001V8.60635C3.6 9.00385 3.4425 9.38635 3.16125 9.6676L1.4625 11.3626C1.11 11.7151 1.11 12.2851 1.4625 12.6338L3.16125 14.3326C3.4425 14.6138 3.6 14.9963 3.6 15.3938V17.1001C3.6 18.9226 5.0775 20.4001 6.9 20.4001H8.7C9.19875 20.4001 9.6 19.9988 9.6 19.5001C9.6 19.0013 9.19875 18.6001 8.7 18.6001H6.9C6.07125 18.6001 5.4 17.9288 5.4 17.1001V15.3938C5.4 14.5201 5.05125 13.6801 4.4325 13.0613L3.37125 12.0001L4.4325 10.9388C5.05125 10.3201 5.4 9.4801 5.4 8.60635V6.9001C5.4 6.07135 6.07125 5.4001 6.9 5.4001H8.7C9.19875 5.4001 9.6 4.99885 9.6 4.5001C9.6 4.00135 9.19875 3.6001 8.7 3.6001H6.9ZM17.1 3.6001H15.3C14.8012 3.6001 14.4 4.00135 14.4 4.5001C14.4 4.99885 14.8012 5.4001 15.3 5.4001H17.1C17.9287 5.4001 18.6 6.07135 18.6 6.9001V8.60635C18.6 9.4801 18.9487 10.3201 19.5675 10.9388L20.6287 12.0001L19.5675 13.0613C18.9487 13.6801 18.6 14.5201 18.6 15.3938V17.1001C18.6 17.9288 17.9287 18.6001 17.1 18.6001H15.3C14.8012 18.6001 14.4 19.0013 14.4 19.5001C14.4 19.9988 14.8012 20.4001 15.3 20.4001H17.1C18.9225 20.4001 20.4 18.9226 20.4 17.1001V15.3938C20.4 14.9963 20.5575 14.6138 20.8387 14.3326L22.5375 12.6376C22.89 12.2851 22.89 11.7151 22.5375 11.3663L20.8387 9.6676C20.5575 9.38635 20.4 9.00385 20.4 8.60635V6.9001C20.4 5.0776 18.9225 3.6001 17.1 3.6001Z" fill="black" fill-opacity="0.45"/>
</svg>
