<svg width="24" height="24" viewBox="0 0 24 24" fill="none" xmlns="http://www.w3.org/2000/svg">
<path d="M8.99999 4.4999V5.9999H15V4.4999C15 4.3349 14.865 4.1999 14.7 4.1999H9.29999C9.13499 4.1999 8.99999 4.3349 8.99999 4.4999ZM7.19999 5.9999V4.4999C7.19999 3.34115 8.14124 2.3999 9.29999 2.3999H14.7C15.8587 2.3999 16.8 3.34115 16.8 4.4999V5.9999H19.2C20.5237 5.9999 21.6 7.07615 21.6 8.3999V12.8999V17.9999C21.6 19.3237 20.5237 20.3999 19.2 20.3999H4.79999C3.47624 20.3999 2.39999 19.3237 2.39999 17.9999V12.8999V8.3999C2.39999 7.07615 3.47624 5.9999 4.79999 5.9999H7.19999ZM4.19999 13.7999V17.9999C4.19999 18.3299 4.46999 18.5999 4.79999 18.5999H19.2C19.53 18.5999 19.8 18.3299 19.8 17.9999V13.7999H14.4V14.3999C14.4 15.0637 13.8637 15.5999 13.2 15.5999H10.8C10.1362 15.5999 9.59999 15.0637 9.59999 14.3999V13.7999H4.19999ZM9.59999 11.9999H14.4H19.8V8.3999C19.8 8.0699 19.53 7.7999 19.2 7.7999H15.9H8.09999H4.79999C4.46999 7.7999 4.19999 8.0699 4.19999 8.3999V11.9999H9.59999Z" fill="black" fill-opacity="0.45"/>
</svg>
