<svg width="24" height="24" viewBox="0 0 24 24" fill="none" xmlns="http://www.w3.org/2000/svg">
<path d="M2.41125 5.75635C2.40375 5.8351 2.4 5.9176 2.4 6.0001V8.4001V18.0001C2.4 19.3238 3.47625 20.4001 4.8 20.4001H19.2C20.5238 20.4001 21.6 19.3238 21.6 18.0001V8.4001V6.0001C21.6 4.67635 20.5238 3.6001 19.2 3.6001H4.8C4.7175 3.6001 4.635 3.60385 4.55625 3.61135C4.21125 3.6451 3.88875 3.75385 3.6 3.91885C3.2175 4.14385 2.9025 4.46635 2.68875 4.85635C2.5425 5.1301 2.445 5.43385 2.41125 5.75635ZM4.2 8.4001H19.8V18.0001C19.8 18.3301 19.53 18.6001 19.2 18.6001H4.8C4.47 18.6001 4.2 18.3301 4.2 18.0001V8.4001Z" fill="black" fill-opacity="0.45"/>
</svg>
