<svg width="24" height="24" viewBox="0 0 24 24" fill="none" xmlns="http://www.w3.org/2000/svg">
<path d="M6.6 13.1999V4.7999C6.6 4.4699 6.87 4.1999 7.2 4.1999H8.4V7.7999C8.4 8.1299 8.67 8.3999 9 8.3999C9.33 8.3999 9.6 8.1299 9.6 7.7999V4.1999H12V6.5999C12 6.9299 12.27 7.1999 12.6 7.1999C12.93 7.1999 13.2 6.9299 13.2 6.5999V4.1999H16.8C17.13 4.1999 17.4 4.4699 17.4 4.7999V13.1999H6.6ZM4.8 14.3999C4.8 15.7237 5.87625 16.7999 7.2 16.7999H9.6V19.1999C9.6 20.5237 10.6763 21.5999 12 21.5999C13.3238 21.5999 14.4 20.5237 14.4 19.1999V16.7999H16.8C18.1238 16.7999 19.2 15.7237 19.2 14.3999V4.7999C19.2 3.47615 18.1238 2.3999 16.8 2.3999H7.2C5.87625 2.3999 4.8 3.47615 4.8 4.7999V14.3999ZM12 18.5999C12.1591 18.5999 12.3117 18.6631 12.4243 18.7756C12.5368 18.8882 12.6 19.0408 12.6 19.1999C12.6 19.359 12.5368 19.5116 12.4243 19.6242C12.3117 19.7367 12.1591 19.7999 12 19.7999C11.8409 19.7999 11.6883 19.7367 11.5757 19.6242C11.4632 19.5116 11.4 19.359 11.4 19.1999C11.4 19.0408 11.4632 18.8882 11.5757 18.7756C11.6883 18.6631 11.8409 18.5999 12 18.5999Z" fill="black" fill-opacity="0.45"/>
</svg>
