<svg width="24" height="24" viewBox="0 0 24 24" fill="none" xmlns="http://www.w3.org/2000/svg">
<path d="M12 2.3999C13.9875 2.3999 15.6 4.0124 15.6 5.9999V6.1349C15.6 6.72365 15.1237 7.1999 14.535 7.1999H9.46499C8.87624 7.1999 8.39999 6.72365 8.39999 6.1349V5.9999C8.39999 4.0124 10.0125 2.3999 12 2.3999ZM3.86249 6.2624C4.21499 5.9099 4.78499 5.9099 5.13374 6.2624L7.84874 8.9774C8.44874 8.61365 9.14999 8.3999 9.89999 8.3999H14.1C14.85 8.3999 15.5512 8.61365 16.1475 8.98115L18.8625 6.2624C19.215 5.9099 19.785 5.9099 20.1337 6.2624C20.4825 6.6149 20.4862 7.1849 20.1337 7.53365L17.4187 10.2487C17.7862 10.8487 18 11.5499 18 12.2999H20.7C21.1987 12.2999 21.6 12.7012 21.6 13.1999C21.6 13.6987 21.1987 14.0999 20.7 14.0999H18V14.3999C18 15.4199 17.745 16.3799 17.295 17.2237L20.1375 20.0624C20.49 20.4149 20.49 20.9849 20.1375 21.3337C19.785 21.6824 19.215 21.6862 18.8662 21.3337L16.2075 18.6749C15.1237 19.7437 13.6387 20.3999 12 20.3999C10.3612 20.3999 8.87624 19.7437 7.79249 18.6787L5.13749 21.3374C4.78499 21.6899 4.21499 21.6899 3.86624 21.3374C3.51749 20.9849 3.51374 20.4149 3.86624 20.0662L6.70874 17.2237C6.25499 16.3799 5.99999 15.4199 5.99999 14.3999V14.0999H3.29999C2.80124 14.0999 2.39999 13.6987 2.39999 13.1999C2.39999 12.7012 2.80124 12.2999 3.29999 12.2999H5.99999C5.99999 11.5499 6.21374 10.8487 6.58124 10.2524L3.86249 7.5374C3.50999 7.1849 3.50999 6.6149 3.86249 6.26615V6.2624ZM7.79999 12.2999V14.3999C7.79999 16.4099 9.21374 18.0899 11.1 18.5024V12.8999C11.1 12.4012 11.5012 11.9999 12 11.9999C12.4987 11.9999 12.9 12.4012 12.9 12.8999V18.5024C14.7862 18.0899 16.2 16.4099 16.2 14.3999V12.2999C16.2 11.1412 15.2587 10.1999 14.1 10.1999H9.89999C8.74124 10.1999 7.79999 11.1412 7.79999 12.2999Z" fill="black" fill-opacity="0.45"/>
</svg>
