<svg width="24" height="24" viewBox="0 0 24 24" fill="none" xmlns="http://www.w3.org/2000/svg">
<path d="M7.2 4.1999C6.87 4.1999 6.6 4.4699 6.6 4.7999V19.1999C6.6 19.5299 6.87 19.7999 7.2 19.7999H10.2V17.3999C10.2 16.4062 11.0063 15.5999 12 15.5999C12.9938 15.5999 13.8 16.4062 13.8 17.3999V19.7999H16.8C17.13 19.7999 17.4 19.5299 17.4 19.1999V4.7999C17.4 4.4699 17.13 4.1999 16.8 4.1999H7.2ZM4.8 4.7999C4.8 3.47615 5.87625 2.3999 7.2 2.3999H16.8C18.1238 2.3999 19.2 3.47615 19.2 4.7999V19.1999C19.2 20.5237 18.1238 21.5999 16.8 21.5999H7.2C5.87625 21.5999 4.8 20.5237 4.8 19.1999V4.7999ZM8.1 6.2999C8.1 5.9699 8.37 5.6999 8.7 5.6999H10.5C10.83 5.6999 11.1 5.9699 11.1 6.2999V8.0999C11.1 8.4299 10.83 8.6999 10.5 8.6999H8.7C8.37 8.6999 8.1 8.4299 8.1 8.0999V6.2999ZM13.5 5.6999H15.3C15.63 5.6999 15.9 5.9699 15.9 6.2999V8.0999C15.9 8.4299 15.63 8.6999 15.3 8.6999H13.5C13.17 8.6999 12.9 8.4299 12.9 8.0999V6.2999C12.9 5.9699 13.17 5.6999 13.5 5.6999ZM8.1 11.0999C8.1 10.7699 8.37 10.4999 8.7 10.4999H10.5C10.83 10.4999 11.1 10.7699 11.1 11.0999V12.8999C11.1 13.2299 10.83 13.4999 10.5 13.4999H8.7C8.37 13.4999 8.1 13.2299 8.1 12.8999V11.0999ZM13.5 10.4999H15.3C15.63 10.4999 15.9 10.7699 15.9 11.0999V12.8999C15.9 13.2299 15.63 13.4999 15.3 13.4999H13.5C13.17 13.4999 12.9 13.2299 12.9 12.8999V11.0999C12.9 10.7699 13.17 10.4999 13.5 10.4999Z" fill="black" fill-opacity="0.45"/>
</svg>
