<svg width="24" height="24" viewBox="0 0 24 24" fill="none" xmlns="http://www.w3.org/2000/svg">
<path d="M9.34875 2.3999C8.37375 2.3999 7.52625 3.07115 7.305 4.0199L6.555 7.1999H3.0075H1.2H0.9C0.40125 7.1999 0 7.60115 0 8.0999C0 8.59865 0.40125 8.9999 0.9 8.9999H1.35H3.1575H6.52875H7.87125H11.2425H13.05H13.5C13.9988 8.9999 14.4 8.59865 14.4 8.0999C14.4 7.60115 13.9988 7.1999 13.5 7.1999H13.2H11.3925H8.4075L9.06 4.4324C9.09375 4.2974 9.21375 4.1999 9.3525 4.1999H10.5C10.9988 4.1999 11.4 3.79865 11.4 3.2999C11.4 2.80115 10.9988 2.3999 10.5 2.3999H9.34875ZM2.26125 19.9499C2.34 20.8837 3.12 21.5999 4.05375 21.5999H10.3425C10.545 21.5999 10.7437 21.5662 10.9237 21.5024C10.4475 21.0262 10.0763 20.4487 9.8475 19.7999H4.0575L3.255 10.1999H1.45125L2.26125 19.9499ZM16.8713 11.4074C16.8263 11.4937 16.8 11.5912 16.8 11.6924C16.8 12.0224 17.07 12.2924 17.4 12.2924C17.73 12.2924 18 12.0224 18 11.6924C18 11.5874 17.9738 11.4937 17.9288 11.4074C18.7725 11.4562 19.4587 11.6137 20.0175 11.8312C19.8862 11.9399 19.8 12.1087 19.8 12.2924C19.8 12.6224 20.07 12.8924 20.4 12.8924C20.7113 12.8924 20.97 12.6524 20.9963 12.3449C21.6863 12.8212 22.0238 13.3499 22.1625 13.6049C22.1738 13.6312 22.2 13.6912 22.2 13.8337C22.2 14.4712 21.6825 14.9887 21.045 14.9887H13.755C13.1175 14.9887 12.6 14.4712 12.6 13.8337C12.6 13.6949 12.6225 13.6312 12.6375 13.6049C12.7763 13.3462 13.1138 12.8174 13.8038 12.3449C13.83 12.6524 14.0888 12.8924 14.4 12.8924C14.73 12.8924 15 12.6224 15 12.2924C15 12.1087 14.9175 11.9399 14.7825 11.8312C15.3375 11.6137 16.0238 11.4524 16.8713 11.4074ZM23.5425 15.4162C23.8313 14.9587 24 14.4187 24 13.8374C24 13.5224 23.9513 13.1362 23.7488 12.7574C23.2125 11.7562 21.5325 9.5924 17.4 9.5924C13.2675 9.5924 11.5875 11.7562 11.0513 12.7574C10.8488 13.1324 10.8 13.5224 10.8 13.8374C10.8 14.4187 10.9688 14.9587 11.2575 15.4162C10.9763 15.6899 10.8 16.0724 10.8 16.4924C10.8 16.7962 10.89 17.0774 11.0438 17.3099C10.89 17.6024 10.8 17.9362 10.8 18.2924C10.8 20.1149 12.2775 21.5924 14.1 21.5924H20.7C22.5225 21.5924 24 20.1149 24 18.2924C24 17.9362 23.9138 17.6024 23.7563 17.3099C23.91 17.0737 24 16.7924 24 16.4924C24 16.0687 23.8237 15.6862 23.5425 15.4162ZM12.9 17.9924H21.9C22.065 17.9924 22.2 18.1274 22.2 18.2924C22.2 19.1212 21.5288 19.7924 20.7 19.7924H14.1C13.2713 19.7924 12.6 19.1212 12.6 18.2924C12.6 18.1274 12.735 17.9924 12.9 17.9924Z" fill="black" fill-opacity="0.45"/>
</svg>
