<svg width="24" height="24" viewBox="0 0 24 24" fill="none" xmlns="http://www.w3.org/2000/svg">
<path d="M4.94624 13.7999C4.78124 13.9649 4.64249 14.1524 4.52624 14.3512C5.17499 14.5762 5.87249 14.6999 6.59999 14.6999C9.43499 14.6999 11.8312 12.8287 12.6225 10.2524C12.8025 9.6674 12.9 9.0449 12.9 8.3999C12.9 7.63865 12.765 6.9074 12.5175 6.22865L4.94624 13.7999ZM2.92874 13.5224C3.12749 13.1587 3.37499 12.8249 3.67124 12.5287L11.475 4.7249C11.7825 3.39365 12.975 2.3999 14.4 2.3999C14.8275 2.3999 15.2325 2.4899 15.6 2.65115C15.9675 2.4899 16.3725 2.3999 16.8 2.3999C18.0975 2.3999 19.2037 3.2249 19.62 4.3799C20.775 4.79615 21.6 5.9024 21.6 7.1999C21.6 7.6274 21.51 8.0324 21.3487 8.3999C21.45 8.62865 21.5212 8.87615 21.5625 9.1349C21.81 10.6987 20.7975 12.1724 19.275 12.5249L11.4712 20.3287C10.6575 21.1424 9.55124 21.5999 8.39999 21.5999C7.24874 21.5999 6.14249 21.1424 5.32874 20.3287L6.59999 19.0537C7.07624 19.5299 7.72499 19.7999 8.39999 19.7999C9.07499 19.7999 9.72374 19.5299 10.2 19.0537L17.7712 11.4824C17.0962 11.2349 16.365 11.0999 15.6 11.0999C15.1125 11.0999 14.6362 11.1562 14.1787 11.2612C13.0237 14.3212 10.0687 16.4999 6.59999 16.4999C5.78624 16.4999 5.00249 16.3799 4.25999 16.1587C4.36499 16.6274 4.60124 17.0587 4.94249 17.3999L6.59999 19.0537L5.32874 20.3287L3.67124 18.6712C2.85749 17.8574 2.39999 16.7512 2.39999 15.5999C2.39999 15.5099 2.40374 15.4199 2.40749 15.3337C2.44499 14.6962 2.62499 14.0774 2.92874 13.5224Z" fill="black" fill-opacity="0.45"/>
</svg>
