<svg width="24" height="24" viewBox="0 0 24 24" fill="none" xmlns="http://www.w3.org/2000/svg">
<g clip-path="url(#clip0_9_2144)">
<path d="M6.60002 4.4999V5.9999H12.6V4.4999C12.6 4.3349 12.465 4.1999 12.3 4.1999H6.90002C6.73502 4.1999 6.60002 4.3349 6.60002 4.4999ZM4.80002 5.9999V4.4999C4.80002 3.34115 5.74127 2.3999 6.90002 2.3999H12.3C13.4588 2.3999 14.4 3.34115 14.4 4.4999V5.9999H16.8C18.1238 5.9999 19.2 7.07615 19.2 8.3999V9.62615C19.0013 9.6074 18.8025 9.5999 18.6 9.5999C18.1913 9.5999 17.79 9.6374 17.4 9.70865V8.3999C17.4 8.0699 17.13 7.7999 16.8 7.7999H13.5H5.70002H2.40002C2.07002 7.7999 1.80002 8.0699 1.80002 8.3999V11.9999H7.20002H13.2H13.5075C12.6863 12.9974 12.15 14.2387 12.0263 15.5999H12H8.40002C7.73627 15.5999 7.20002 15.0637 7.20002 14.3999V13.7999H1.80002V17.9999C1.80002 18.3299 2.07002 18.5999 2.40002 18.5999H12.45C12.7088 19.2562 13.065 19.8637 13.5075 20.3999H2.40002C1.07627 20.3999 1.52588e-05 19.3237 1.52588e-05 17.9999V12.8999V8.3999C1.52588e-05 7.07615 1.07627 5.9999 2.40002 5.9999H4.80002ZM13.2 16.1999C13.2 14.7677 13.7689 13.3942 14.7816 12.3815C15.7943 11.3688 17.1678 10.7999 18.6 10.7999C20.0322 10.7999 21.4057 11.3688 22.4184 12.3815C23.4311 13.3942 24 14.7677 24 16.1999C24 17.6321 23.4311 19.0056 22.4184 20.0183C21.4057 21.031 20.0322 21.5999 18.6 21.5999C17.1678 21.5999 15.7943 21.031 14.7816 20.0183C13.7689 19.0056 13.2 17.6321 13.2 16.1999ZM18.6 13.1999C18.27 13.1999 18 13.4699 18 13.7999V16.1999C18 16.5299 18.27 16.7999 18.6 16.7999H20.4C20.73 16.7999 21 16.5299 21 16.1999C21 15.8699 20.73 15.5999 20.4 15.5999H19.2V13.7999C19.2 13.4699 18.93 13.1999 18.6 13.1999Z" fill="black" fill-opacity="0.45"/>
</g>
<defs>
<clipPath id="clip0_9_2144">
<rect width="24" height="24" fill="white"/>
</clipPath>
</defs>
</svg>
