<svg width="24" height="24" viewBox="0 0 24 24" fill="none" xmlns="http://www.w3.org/2000/svg">
<path d="M13.2 4.7999C13.5182 4.7999 13.8235 4.67347 14.0485 4.44843C14.2735 4.22339 14.4 3.91816 14.4 3.5999C14.4 3.28164 14.2735 2.97642 14.0485 2.75137C13.8235 2.52633 13.5182 2.3999 13.2 2.3999C12.8817 2.3999 12.5765 2.52633 12.3514 2.75137C12.1264 2.97642 12 3.28164 12 3.5999C12 3.91816 12.1264 4.22339 12.3514 4.44843C12.5765 4.67347 12.8817 4.7999 13.2 4.7999ZM10.8 4.4999C10.8 4.18164 10.6735 3.87642 10.4485 3.65137C10.2235 3.42633 9.91824 3.2999 9.59998 3.2999C9.28172 3.2999 8.97649 3.42633 8.75145 3.65137C8.52641 3.87642 8.39998 4.18164 8.39998 4.4999C8.39998 4.81816 8.52641 5.12339 8.75145 5.34843C8.97649 5.57347 9.28172 5.6999 9.59998 5.6999C9.91824 5.6999 10.2235 5.57347 10.4485 5.34843C10.6735 5.12339 10.8 4.81816 10.8 4.4999ZM18.6 13.1999V15.5999H15.6V12.5999H18C18.33 12.5999 18.6 12.8699 18.6 13.1999ZM18.6 17.3999V19.1999C18.6 19.5299 18.33 19.7999 18 19.7999H5.99998C5.66998 19.7999 5.39998 19.5299 5.39998 19.1999V17.3999H9.29998H14.7H18.6ZM5.39998 15.5999V13.1999C5.39998 12.8699 5.66998 12.5999 5.99998 12.5999H8.39998V15.5999H5.39998ZM10.2 12.5999H13.8V15.5999H10.2V12.5999ZM5.99998 10.7999C4.67623 10.7999 3.59998 11.8762 3.59998 13.1999V19.1999C3.59998 20.5237 4.67623 21.5999 5.99998 21.5999H18C19.3237 21.5999 20.4 20.5237 20.4 19.1999V13.1999C20.4 11.8762 19.3237 10.7999 18 10.7999H12.9V7.93115L20.8837 6.28115C21.3712 6.1799 21.6825 5.70365 21.5812 5.21615C21.48 4.72865 21.0037 4.4174 20.5162 4.51865L11.8162 6.31865L3.11623 8.11865C2.62873 8.2199 2.31748 8.69615 2.41873 9.18365C2.51998 9.67115 2.99623 9.9824 3.48373 9.88115L11.1 8.30615V10.7999H5.99998Z" fill="black" fill-opacity="0.45"/>
</svg>
