<svg width="24" height="24" viewBox="0 0 24 24" fill="none" xmlns="http://www.w3.org/2000/svg">
<path d="M9.3 3.2999C9.3 2.80115 8.89875 2.3999 8.4 2.3999C7.90125 2.3999 7.5 2.80115 7.5 3.2999V4.7999H6C4.67625 4.7999 3.6 5.87615 3.6 7.1999V7.7999V9.5999V19.1999C3.6 20.5237 4.67625 21.5999 6 21.5999H18C19.3237 21.5999 20.4 20.5237 20.4 19.1999V9.5999V7.7999V7.1999C20.4 5.87615 19.3237 4.7999 18 4.7999H16.5V3.2999C16.5 2.80115 16.0987 2.3999 15.6 2.3999C15.1012 2.3999 14.7 2.80115 14.7 3.2999V4.7999H9.3V3.2999ZM5.4 9.5999H18.6V19.1999C18.6 19.5299 18.33 19.7999 18 19.7999H6C5.67 19.7999 5.4 19.5299 5.4 19.1999V9.5999Z" fill="black" fill-opacity="0.45"/>
</svg>
