<svg width="24" height="24" viewBox="0 0 24 24" fill="none" xmlns="http://www.w3.org/2000/svg">
<path d="M9.30001 3.30002C9.30001 2.80127 8.89876 2.40002 8.40001 2.40002C7.90126 2.40002 7.50001 2.80127 7.50001 3.30002V4.80002H6.00001C4.67626 4.80002 3.60001 5.87627 3.60001 7.20002V7.80002V9.60002V19.2C3.60001 20.5238 4.67626 21.6 6.00001 21.6H18C19.3238 21.6 20.4 20.5238 20.4 19.2V9.60002V7.80002V7.20002C20.4 5.87627 19.3238 4.80002 18 4.80002H16.5V3.30002C16.5 2.80127 16.0988 2.40002 15.6 2.40002C15.1013 2.40002 14.7 2.80127 14.7 3.30002V4.80002H9.30001V3.30002ZM5.40001 9.60002H8.40001V11.7H5.40001V9.60002ZM5.40001 13.5H8.40001V15.9H5.40001V13.5ZM10.2 13.5H13.8V15.9H10.2V13.5ZM15.6 13.5H18.6V15.9H15.6V13.5ZM18.6 11.7H15.6V9.60002H18.6V11.7ZM18.6 17.7V19.2C18.6 19.53 18.33 19.8 18 19.8H15.6V17.7H18.6ZM13.8 17.7V19.8H10.2V17.7H13.8ZM8.40001 17.7V19.8H6.00001C5.67001 19.8 5.40001 19.53 5.40001 19.2V17.7H8.40001ZM13.8 11.7H10.2V9.60002H13.8V11.7Z" fill="black" fill-opacity="0.45"/>
</svg>
