<svg width="24" height="24" viewBox="0 0 24 24" fill="none" xmlns="http://www.w3.org/2000/svg">
<path d="M9.6 6.8999C9.6 6.54533 9.53016 6.19424 9.39447 5.86666C9.25878 5.53908 9.0599 5.24143 8.80919 4.99071C8.55847 4.74 8.26082 4.54112 7.93324 4.40543C7.60566 4.26974 7.25457 4.1999 6.9 4.1999C6.54543 4.1999 6.19433 4.26974 5.86675 4.40543C5.53917 4.54112 5.24153 4.74 4.99081 4.99071C4.74009 5.24143 4.54121 5.53908 4.40552 5.86666C4.26983 6.19424 4.2 6.54533 4.2 6.8999C4.2 7.25447 4.26983 7.60557 4.40552 7.93315C4.54121 8.26073 4.74009 8.55837 4.99081 8.80909C5.24153 9.05981 5.53917 9.25869 5.86675 9.39438C6.19433 9.53007 6.54543 9.5999 6.9 9.5999C7.25457 9.5999 7.60566 9.53007 7.93324 9.39438C8.26082 9.25869 8.55847 9.05981 8.80919 8.80909C9.0599 8.55837 9.25878 8.26073 9.39447 7.93315C9.53016 7.60557 9.6 7.25447 9.6 6.8999ZM14.1 11.3999H6.9C4.41375 11.3999 2.4 9.38615 2.4 6.8999C2.4 4.41365 4.41375 2.3999 6.9 2.3999C8.37375 2.3999 9.67875 3.1049 10.5 4.1999C11.3212 3.10865 12.6262 2.3999 14.1 2.3999C16.5862 2.3999 18.6 4.41365 18.6 6.8999C18.6 9.38615 16.5862 11.3999 14.1 11.3999ZM11.4 6.8999C11.4 7.61599 11.6845 8.30274 12.1908 8.80909C12.6972 9.31544 13.3839 9.5999 14.1 9.5999C14.8161 9.5999 15.5028 9.31544 16.0092 8.80909C16.5155 8.30274 16.8 7.61599 16.8 6.8999C16.8 6.18382 16.5155 5.49706 16.0092 4.99071C15.5028 4.48437 14.8161 4.1999 14.1 4.1999C13.3839 4.1999 12.6972 4.48437 12.1908 4.99071C11.6845 5.49706 11.4 6.18382 11.4 6.8999ZM5.4 14.9999V19.1999C5.4 19.5299 5.67 19.7999 6 19.7999H14.4C14.73 19.7999 15 19.5299 15 19.1999V14.9999C15 14.6699 14.73 14.3999 14.4 14.3999H6.6H6C5.67 14.3999 5.4 14.6699 5.4 14.9999ZM6.6 12.5999H14.4C15.7237 12.5999 16.8 13.6762 16.8 14.9999V19.1999C16.8 20.5237 15.7237 21.5999 14.4 21.5999H6C4.67625 21.5999 3.6 20.5237 3.6 19.1999V14.9999C3.6 14.7937 3.62625 14.5912 3.675 14.3999H2.1C1.60125 14.3999 1.2 13.9987 1.2 13.4999C1.2 13.0012 1.60125 12.5999 2.1 12.5999H6H6.6ZM21 13.9724L18 15.3224V13.3499L20.835 12.0749C20.9437 12.0262 21.06 11.9924 21.1762 11.9699C22.0237 11.8274 22.8 12.4837 22.8 13.3424V20.1187C22.8 20.9362 22.1362 21.5999 21.3187 21.5999C21.1087 21.5999 20.9025 21.5549 20.7112 21.4687L18 20.2499V18.2774L21 19.6274V13.9724Z" fill="black" fill-opacity="0.45"/>
</svg>
