<svg width="24" height="24" viewBox="0 0 24 24" fill="none" xmlns="http://www.w3.org/2000/svg">
<path d="M9.59999 6.59998H4.79999C4.46999 6.59998 4.19999 6.86998 4.19999 7.19998V9.59998H8.25374C9.13499 8.50123 10.485 7.79998 12 7.79998C13.515 7.79998 14.8687 8.50123 15.7462 9.59998H19.8V5.99998C19.8 5.66998 19.53 5.39998 19.2 5.39998H12.5662C12.4725 5.39998 12.3825 5.42248 12.2962 5.46373L10.4025 6.40873C10.1512 6.53248 9.87749 6.59998 9.59624 6.59998H9.59999ZM4.19999 11.4V18C4.19999 18.33 4.46999 18.6 4.79999 18.6H19.2C19.53 18.6 19.8 18.33 19.8 18V11.4H16.65C16.7475 11.7825 16.8 12.1875 16.8 12.6C16.8 15.2512 14.6512 17.4 12 17.4C9.34874 17.4 7.19999 15.2512 7.19999 12.6C7.19999 12.1875 7.25249 11.7825 7.34999 11.4H4.19999ZM2.39999 18V7.19998C2.39999 5.87623 3.47624 4.79998 4.79999 4.79998V4.19998C4.79999 3.86998 5.06999 3.59998 5.39999 3.59998H7.79999C8.12999 3.59998 8.39999 3.86998 8.39999 4.19998V4.79998H9.59999L11.4937 3.85498C11.8275 3.68998 12.195 3.59998 12.5662 3.59998H19.2C20.5237 3.59998 21.6 4.67623 21.6 5.99998V18C21.6 19.3237 20.5237 20.4 19.2 20.4H4.79999C3.47624 20.4 2.39999 19.3237 2.39999 18ZM15 12.6C15 11.8043 14.6839 11.0413 14.1213 10.4787C13.5587 9.91605 12.7956 9.59998 12 9.59998C11.2043 9.59998 10.4413 9.91605 9.87867 10.4787C9.31606 11.0413 8.99999 11.8043 8.99999 12.6C8.99999 13.3956 9.31606 14.1587 9.87867 14.7213C10.4413 15.2839 11.2043 15.6 12 15.6C12.7956 15.6 13.5587 15.2839 14.1213 14.7213C14.6839 14.1587 15 13.3956 15 12.6Z" fill="black" fill-opacity="0.45"/>
</svg>
