<svg width="24" height="24" viewBox="0 0 24 24" fill="none" xmlns="http://www.w3.org/2000/svg">
<path d="M9.86624 3.6001C8.96249 3.6001 8.15999 4.1776 7.87499 5.03635L7.55249 6.0001H4.79999C3.47624 6.0001 2.39999 7.07635 2.39999 8.4001V18.0001C2.39999 19.3238 3.47624 20.4001 4.79999 20.4001H19.2C20.5237 20.4001 21.6 19.3238 21.6 18.0001V8.4001C21.6 7.07635 20.5237 6.0001 19.2 6.0001H16.4475L16.125 5.03635C15.84 4.1776 15.0375 3.6001 14.1337 3.6001H9.86624ZM9.58124 5.60635C9.62249 5.4826 9.73499 5.4001 9.86624 5.4001H14.1337C14.2612 5.4001 14.3775 5.4826 14.4187 5.60635L14.9437 7.1851C15.0675 7.5526 15.4087 7.8001 15.7987 7.8001H19.2C19.53 7.8001 19.8 8.0701 19.8 8.4001V18.0001C19.8 18.3301 19.53 18.6001 19.2 18.6001H4.79999C4.46999 18.6001 4.19999 18.3301 4.19999 18.0001V8.4001C4.19999 8.0701 4.46999 7.8001 4.79999 7.8001H8.20124C8.58749 7.8001 8.93249 7.5526 9.05624 7.1851L9.58124 5.60635ZM12 17.4001C12.5515 17.4001 13.0977 17.2915 13.6073 17.0804C14.1168 16.8693 14.5798 16.56 14.9698 16.1699C15.3598 15.7799 15.6692 15.3169 15.8803 14.8074C16.0914 14.2978 16.2 13.7516 16.2 13.2001C16.2 12.6485 16.0914 12.1024 15.8803 11.5928C15.6692 11.0833 15.3598 10.6203 14.9698 10.2302C14.5798 9.84024 14.1168 9.53087 13.6073 9.3198C13.0977 9.10873 12.5515 9.0001 12 9.0001C11.4484 9.0001 10.9023 9.10873 10.3927 9.3198C9.88316 9.53087 9.42015 9.84024 9.03015 10.2302C8.64014 10.6203 8.33077 11.0833 8.1197 11.5928C7.90863 12.1024 7.79999 12.6485 7.79999 13.2001C7.79999 13.7516 7.90863 14.2978 8.1197 14.8074C8.33077 15.3169 8.64014 15.7799 9.03015 16.1699C9.42015 16.56 9.88316 16.8693 10.3927 17.0804C10.9023 17.2915 11.4484 17.4001 12 17.4001ZM9.59999 13.2001C9.59999 12.5636 9.85285 11.9531 10.3029 11.503C10.753 11.053 11.3635 10.8001 12 10.8001C12.6365 10.8001 13.247 11.053 13.6971 11.503C14.1471 11.9531 14.4 12.5636 14.4 13.2001C14.4 13.8366 14.1471 14.4471 13.6971 14.8972C13.247 15.3472 12.6365 15.6001 12 15.6001C11.3635 15.6001 10.753 15.3472 10.3029 14.8972C9.85285 14.4471 9.59999 13.8366 9.59999 13.2001Z" fill="black" fill-opacity="0.45"/>
</svg>
