<svg width="24" height="24" viewBox="0 0 24 24" fill="none" xmlns="http://www.w3.org/2000/svg">
<path d="M12.8662 4.04636L12.2287 3.36761C12.1612 3.29636 12.0937 3.21761 12.0262 3.13886C11.7225 2.79011 11.3962 2.41136 10.92 2.40011C10.6762 2.39261 10.4287 2.47886 10.2337 2.65511C9.4425 3.37511 8.54625 4.32011 7.84125 5.38886C7.14 6.45011 6.6 7.67636 6.6 8.95136C6.6 11.9701 8.9775 14.4001 12 14.4001C14.9925 14.4001 17.4 11.9739 17.4 8.95136C17.4 7.92761 17.0287 6.87386 16.515 5.94761C16.0012 5.01386 15.3262 4.16261 14.6587 3.54011C14.4712 3.36386 14.2275 3.27386 13.9875 3.27386C13.7325 3.27386 13.4625 3.36761 13.2825 3.57761L12.87 4.04636H12.8662ZM14.235 10.5864C14.235 11.7901 13.26 12.7689 12.0525 12.7689C10.845 12.7689 9.87 11.7939 9.87 10.5864C9.87 9.34136 11.1337 8.09636 11.7375 7.57136C11.9212 7.41386 12.1837 7.41386 12.3675 7.57136C12.9712 8.09636 14.235 9.34136 14.235 10.5864ZM3.61875 13.2601C3.15375 13.0839 2.6325 13.3164 2.45625 13.7814C2.28 14.2464 2.5125 14.7639 2.9775 14.9439L9.46125 17.4001L2.98125 19.8601C2.51625 20.0364 2.28375 20.5576 2.46 21.0226C2.63625 21.4876 3.1575 21.7201 3.6225 21.5439L12 18.3639L20.3812 21.5439C20.8462 21.7201 21.3675 21.4876 21.5437 21.0226C21.72 20.5576 21.4875 20.0401 21.0225 19.8601L14.5387 17.4001L21.0187 14.9401C21.4837 14.7639 21.7162 14.2426 21.54 13.7776C21.3637 13.3126 20.8425 13.0801 20.3775 13.2564L12 16.4364L3.61875 13.2601Z" fill="black" fill-opacity="0.45"/>
</svg>
