<svg width="24" height="24" viewBox="0 0 24 24" fill="none" xmlns="http://www.w3.org/2000/svg">
<path d="M6.42375 5.4001H8.4V6.0001V9.0001V9.6001H3.7275L5.02875 6.34135C5.26125 5.7751 5.8125 5.4001 6.42375 5.4001ZM10.2 9.6001V9.0001V6.0001V5.4001H13.245C13.7025 5.4001 14.13 5.60635 14.415 5.9626L17.325 9.6001H10.2ZM19.65 9.6226L15.825 4.8376C15.1988 4.05385 14.25 3.6001 13.2487 3.6001H6.42375C5.07375 3.6001 3.8625 4.42135 3.36 5.67385L1.755 9.68635C0.7425 9.9676 0 10.8976 0 12.0001V16.2001C0 16.8638 0.53625 17.4001 1.2 17.4001H2.44875C2.73375 19.1026 4.215 20.4001 6 20.4001C7.785 20.4001 9.26625 19.1026 9.55125 17.4001H14.4488C14.7338 19.1026 16.215 20.4001 18 20.4001C19.785 20.4001 21.2663 19.1026 21.5513 17.4001H22.8C23.4638 17.4001 24 16.8638 24 16.2001V14.4001C24 11.8988 22.0913 9.8476 19.65 9.6226ZM16.3013 16.2001C16.3776 15.9742 16.4982 15.7657 16.6558 15.5868C16.8134 15.4079 17.0051 15.262 17.2195 15.1578C17.434 15.0536 17.6671 14.993 17.9052 14.9796C18.1432 14.9661 18.3816 15.0002 18.6065 15.0797C18.8313 15.1592 19.0381 15.2825 19.2148 15.4426C19.3915 15.6027 19.5347 15.7963 19.636 16.0122C19.7373 16.2281 19.7946 16.462 19.8048 16.7002C19.8149 16.9385 19.7776 17.1764 19.695 17.4001C19.6186 17.626 19.4981 17.8345 19.3405 18.0134C19.1828 18.1923 18.9912 18.3381 18.7767 18.4424C18.5622 18.5466 18.3292 18.6072 18.0911 18.6206C17.853 18.634 17.6146 18.6 17.3898 18.5205C17.165 18.441 16.9582 18.3176 16.7814 18.1576C16.6047 17.9975 16.4615 17.8038 16.3603 17.588C16.259 17.3721 16.2016 17.1382 16.1915 16.8999C16.1814 16.6617 16.2187 16.4238 16.3013 16.2001ZM21.3938 15.6001C20.8988 14.2013 19.5675 13.2001 18 13.2001C16.4325 13.2001 15.0975 14.2013 14.6063 15.6001H9.39375C8.89875 14.2013 7.5675 13.2001 6 13.2001C4.4325 13.2001 3.0975 14.2013 2.60625 15.6001H1.8V12.0001C1.8 11.6701 2.07 11.4001 2.4 11.4001H19.2C20.8575 11.4001 22.2 12.7426 22.2 14.4001V15.6001H21.3938ZM6 15.0001C6.47739 15.0001 6.93523 15.1897 7.27279 15.5273C7.61036 15.8649 7.8 16.3227 7.8 16.8001C7.8 17.2775 7.61036 17.7353 7.27279 18.0729C6.93523 18.4105 6.47739 18.6001 6 18.6001C5.52261 18.6001 5.06477 18.4105 4.72721 18.0729C4.38964 17.7353 4.2 17.2775 4.2 16.8001C4.2 16.3227 4.38964 15.8649 4.72721 15.5273C5.06477 15.1897 5.52261 15.0001 6 15.0001Z" fill="black" fill-opacity="0.45"/>
</svg>
