<svg width="24" height="24" viewBox="0 0 24 24" fill="none" xmlns="http://www.w3.org/2000/svg">
<path d="M10.8 4.1999H2.4C2.07 4.1999 1.8 4.4699 1.8 4.7999V17.9999C1.8 18.3299 2.07 18.5999 2.4 18.5999H7.2V20.3999H2.4C1.07625 20.3999 0 19.3237 0 17.9999V4.7999C0 3.47615 1.07625 2.3999 2.4 2.3999H10.8C12.1238 2.3999 13.2 3.47615 13.2 4.7999V7.21865C12.5438 7.2824 11.9288 7.5074 11.4 7.8599V4.7999C11.4 4.4699 11.13 4.1999 10.8 4.1999ZM9.6 10.6162L9.10875 11.9887C9.075 11.9962 9.0375 11.9999 9 11.9999H7.8C7.47 11.9999 7.2 11.7299 7.2 11.3999V10.1999C7.2 9.8699 7.47 9.5999 7.8 9.5999H9C9.33 9.5999 9.6 9.8699 9.6 10.1999V10.6162ZM3.6 6.5999C3.6 6.2699 3.87 5.9999 4.2 5.9999H5.4C5.73 5.9999 6 6.2699 6 6.5999V7.7999C6 8.1299 5.73 8.3999 5.4 8.3999H4.2C3.87 8.3999 3.6 8.1299 3.6 7.7999V6.5999ZM7.8 5.9999H9C9.33 5.9999 9.6 6.2699 9.6 6.5999V7.7999C9.6 8.1299 9.33 8.3999 9 8.3999H7.8C7.47 8.3999 7.2 8.1299 7.2 7.7999V6.5999C7.2 6.2699 7.47 5.9999 7.8 5.9999ZM3.6 10.1999C3.6 9.8699 3.87 9.5999 4.2 9.5999H5.4C5.73 9.5999 6 9.8699 6 10.1999V11.3999C6 11.7299 5.73 11.9999 5.4 11.9999H4.2C3.87 11.9999 3.6 11.7299 3.6 11.3999V10.1999ZM3.6 13.7999C3.6 13.4699 3.87 13.1999 4.2 13.1999H5.4C5.73 13.1999 6 13.4699 6 13.7999V14.9999C6 15.3299 5.73 15.5999 5.4 15.5999H4.2C3.87 15.5999 3.6 15.3299 3.6 14.9999V13.7999ZM13.5675 10.1999C13.1888 10.1999 12.8475 10.4399 12.72 10.7962L12.0788 12.5999H20.3213L19.6763 10.7962C19.5488 10.4362 19.2075 10.1999 18.8288 10.1999H13.5675ZM9.9525 13.1962L11.025 10.1924C11.4075 9.11615 12.4275 8.3999 13.5675 8.3999H18.8325C19.9725 8.3999 20.9925 9.11615 21.375 10.1924L22.4475 13.1962C22.455 13.2149 22.4587 13.2299 22.4662 13.2487C23.3925 13.9012 24 14.9812 24 16.1999V17.3999V17.9999V19.1999V20.6999C24 21.1987 23.5988 21.5999 23.1 21.5999C22.6013 21.5999 22.2 21.1987 22.2 20.6999V19.1999H10.2V20.6999C10.2 21.1987 9.79875 21.5999 9.3 21.5999C8.80125 21.5999 8.4 21.1987 8.4 20.6999V19.1999V17.9999V17.3999V16.1999C8.4 14.9812 9.0075 13.9012 9.93375 13.2487C9.9375 13.2299 9.945 13.2149 9.9525 13.1962ZM20.4 14.3999H12C11.0063 14.3999 10.2 15.2062 10.2 16.1999V17.3999H22.2V16.1999C22.2 15.2062 21.3938 14.3999 20.4 14.3999ZM12.6 14.9999C12.8387 14.9999 13.0676 15.0947 13.2364 15.2635C13.4052 15.4323 13.5 15.6612 13.5 15.8999C13.5 16.1386 13.4052 16.3675 13.2364 16.5363C13.0676 16.7051 12.8387 16.7999 12.6 16.7999C12.3613 16.7999 12.1324 16.7051 11.9636 16.5363C11.7948 16.3675 11.7 16.1386 11.7 15.8999C11.7 15.6612 11.7948 15.4323 11.9636 15.2635C12.1324 15.0947 12.3613 14.9999 12.6 14.9999ZM18.9 15.8999C18.9 15.6612 18.9948 15.4323 19.1636 15.2635C19.3324 15.0947 19.5613 14.9999 19.8 14.9999C20.0387 14.9999 20.2676 15.0947 20.4364 15.2635C20.6052 15.4323 20.7 15.6612 20.7 15.8999C20.7 16.1386 20.6052 16.3675 20.4364 16.5363C20.2676 16.7051 20.0387 16.7999 19.8 16.7999C19.5613 16.7999 19.3324 16.7051 19.1636 16.5363C18.9948 16.3675 18.9 16.1386 18.9 15.8999Z" fill="black" fill-opacity="0.45"/>
</svg>
