<svg width="24" height="24" viewBox="0 0 24 24" fill="none" xmlns="http://www.w3.org/2000/svg">
<path d="M7.18874 6.40498L6.27749 8.99998H17.7225L16.815 6.40498C16.605 5.80498 16.035 5.39998 15.3975 5.39998H8.60249C7.96499 5.39998 7.39874 5.80123 7.18499 6.40498H7.18874ZM4.20374 9.47998L5.48624 5.80873C5.95124 4.48498 7.19999 3.59998 8.60249 3.59998H15.3975C16.8 3.59998 18.0487 4.48498 18.5137 5.80873L19.8 9.47998C20.8725 10.1025 21.6 11.265 21.6 12.6V15.6V17.4V19.5C21.6 19.9987 21.1987 20.4 20.7 20.4C20.2012 20.4 19.8 19.9987 19.8 19.5V17.4H4.19999V19.5C4.19999 19.9987 3.79874 20.4 3.29999 20.4C2.80124 20.4 2.39999 19.9987 2.39999 19.5V17.4V15.6V12.6C2.39999 11.265 3.12374 10.1025 4.20374 9.47998ZM18 10.8H5.99999C5.00624 10.8 4.19999 11.6062 4.19999 12.6V15.6H19.8V12.6C19.8 11.6062 18.9937 10.8 18 10.8ZM6.59999 12C6.91825 12 7.22348 12.1264 7.44852 12.3514C7.67357 12.5765 7.79999 12.8817 7.79999 13.2C7.79999 13.5182 7.67357 13.8235 7.44852 14.0485C7.22348 14.2735 6.91825 14.4 6.59999 14.4C6.28173 14.4 5.97651 14.2735 5.75147 14.0485C5.52642 13.8235 5.39999 13.5182 5.39999 13.2C5.39999 12.8817 5.52642 12.5765 5.75147 12.3514C5.97651 12.1264 6.28173 12 6.59999 12ZM16.2 13.2C16.2 12.8817 16.3264 12.5765 16.5515 12.3514C16.7765 12.1264 17.0817 12 17.4 12C17.7183 12 18.0235 12.1264 18.2485 12.3514C18.4736 12.5765 18.6 12.8817 18.6 13.2C18.6 13.5182 18.4736 13.8235 18.2485 14.0485C18.0235 14.2735 17.7183 14.4 17.4 14.4C17.0817 14.4 16.7765 14.2735 16.5515 14.0485C16.3264 13.8235 16.2 13.5182 16.2 13.2Z" fill="black" fill-opacity="0.45"/>
</svg>
