<svg width="24" height="24" viewBox="0 0 24 24" fill="none" xmlns="http://www.w3.org/2000/svg">
<path d="M2.1 2.40002C1.60125 2.40002 1.2 2.80127 1.2 3.30002C1.2 3.79877 1.60125 4.20002 2.1 4.20002H3.80625C3.94875 4.20002 4.0725 4.30127 4.1025 4.44377L6.0375 14.6063C6.28125 15.8813 7.395 16.8 8.68875 16.8H19.5C19.9988 16.8 20.4 16.3988 20.4 15.9C20.4 15.4013 19.9988 15 19.5 15H8.68875C8.2575 15 7.88625 14.6925 7.80375 14.2688L7.60125 13.2H18.42C19.6425 13.2 20.7113 12.3825 21.0263 11.2013L22.5638 5.49002C22.8225 4.53752 22.1025 3.60002 21.1163 3.60002H5.70375C5.3625 2.88002 4.635 2.40002 3.80625 2.40002H2.1ZM6.11625 5.40002H20.7263L19.29 10.7325C19.185 11.1263 18.8288 11.4 18.42 11.4H7.26L6.11625 5.40002ZM7.8 21.6C8.27739 21.6 8.73523 21.4104 9.0728 21.0728C9.41036 20.7353 9.6 20.2774 9.6 19.8C9.6 19.3226 9.41036 18.8648 9.0728 18.5272C8.73523 18.1897 8.27739 18 7.8 18C7.32261 18 6.86478 18.1897 6.52721 18.5272C6.18965 18.8648 6 19.3226 6 19.8C6 20.2774 6.18965 20.7353 6.52721 21.0728C6.86478 21.4104 7.32261 21.6 7.8 21.6ZM20.4 19.8C20.4 19.3226 20.2104 18.8648 19.8728 18.5272C19.5352 18.1897 19.0774 18 18.6 18C18.1226 18 17.6648 18.1897 17.3272 18.5272C16.9896 18.8648 16.8 19.3226 16.8 19.8C16.8 20.2774 16.9896 20.7353 17.3272 21.0728C17.6648 21.4104 18.1226 21.6 18.6 21.6C19.0774 21.6 19.5352 21.4104 19.8728 21.0728C20.2104 20.7353 20.4 20.2774 20.4 19.8Z" fill="black" fill-opacity="0.45"/>
</svg>
