<svg width="24" height="24" viewBox="0 0 24 24" fill="none" xmlns="http://www.w3.org/2000/svg">
<path d="M1.2 3.2999C1.2 2.80115 1.60125 2.3999 2.1 2.3999H3.80625C4.815 2.3999 5.68125 3.11615 5.86875 4.10615L7.25625 11.3999H18.42C18.8287 11.3999 19.185 11.1262 19.29 10.7324L21.03 4.2674C21.1575 3.7874 21.6525 3.5024 22.1325 3.63365C22.6125 3.7649 22.8975 4.25615 22.7662 4.73615L21.0262 11.2012C20.7075 12.3787 19.6387 13.1999 18.42 13.1999H7.60125L7.80375 14.2687C7.88625 14.6924 8.2575 14.9999 8.68875 14.9999H19.5C19.9987 14.9999 20.4 15.4012 20.4 15.8999C20.4 16.3987 19.9987 16.7999 19.5 16.7999H8.68875C7.39125 16.7999 6.2775 15.8774 6.0375 14.6062L4.1025 4.44365C4.07625 4.30115 3.9525 4.1999 3.80625 4.1999H2.1C1.60125 4.1999 1.2 3.79865 1.2 3.2999ZM6 19.7999C6 19.5635 6.04656 19.3295 6.13701 19.1111C6.22747 18.8927 6.36006 18.6943 6.5272 18.5271C6.69435 18.36 6.89278 18.2274 7.11117 18.1369C7.32955 18.0465 7.56362 17.9999 7.8 17.9999C8.03638 17.9999 8.27044 18.0465 8.48883 18.1369C8.70721 18.2274 8.90564 18.36 9.07279 18.5271C9.23993 18.6943 9.37252 18.8927 9.46298 19.1111C9.55344 19.3295 9.6 19.5635 9.6 19.7999C9.6 20.0363 9.55344 20.2703 9.46298 20.4887C9.37252 20.7071 9.23993 20.9056 9.07279 21.0727C8.90564 21.2398 8.70721 21.3724 8.48883 21.4629C8.27044 21.5533 8.03638 21.5999 7.8 21.5999C7.56362 21.5999 7.32955 21.5533 7.11117 21.4629C6.89278 21.3724 6.69435 21.2398 6.5272 21.0727C6.36006 20.9056 6.22747 20.7071 6.13701 20.4887C6.04656 20.2703 6 20.0363 6 19.7999ZM18.6 17.9999C19.0774 17.9999 19.5352 18.1895 19.8728 18.5271C20.2104 18.8647 20.4 19.3225 20.4 19.7999C20.4 20.2773 20.2104 20.7351 19.8728 21.0727C19.5352 21.4103 19.0774 21.5999 18.6 21.5999C18.1226 21.5999 17.6648 21.4103 17.3272 21.0727C16.9896 20.7351 16.8 20.2773 16.8 19.7999C16.8 19.3225 16.9896 18.8647 17.3272 18.5271C17.6648 18.1895 18.1226 17.9999 18.6 17.9999ZM14.1 4.1999V5.6999H15.6C16.0987 5.6999 16.5 6.10115 16.5 6.5999C16.5 7.09865 16.0987 7.4999 15.6 7.4999H14.1V8.9999C14.1 9.49865 13.6987 9.8999 13.2 9.8999C12.7012 9.8999 12.3 9.49865 12.3 8.9999V7.4999H10.8C10.3012 7.4999 9.9 7.09865 9.9 6.5999C9.9 6.10115 10.3012 5.6999 10.8 5.6999H12.3V4.1999C12.3 3.70115 12.7012 3.2999 13.2 3.2999C13.6987 3.2999 14.1 3.70115 14.1 4.1999Z" fill="black" fill-opacity="0.45"/>
</svg>
