<svg width="24" height="24" viewBox="0 0 24 24" fill="none" xmlns="http://www.w3.org/2000/svg">
<path d="M4.80001 2.3999C4.13626 2.3999 3.60001 2.93615 3.60001 3.5999V5.9999C3.60001 6.66365 4.13626 7.1999 4.80001 7.1999H7.80001V8.3999H5.68126C4.48876 8.3999 3.47251 9.2774 3.30376 10.4587L2.42251 16.6312C2.40751 16.7437 2.40001 16.8562 2.40001 16.9687V19.1999C2.40001 20.5237 3.47626 21.5999 4.80001 21.5999H19.2C20.5238 21.5999 21.6 20.5237 21.6 19.1999V16.9687C21.6 16.8562 21.5925 16.7399 21.5775 16.6312L20.6925 10.4587C20.5238 9.2774 19.5113 8.3999 18.315 8.3999H10.2V7.1999H13.2C13.8638 7.1999 14.4 6.66365 14.4 5.9999V3.5999C14.4 2.93615 13.8638 2.3999 13.2 2.3999H4.80001ZM6.00001 4.1999H12C12.33 4.1999 12.6 4.4699 12.6 4.7999C12.6 5.1299 12.33 5.3999 12 5.3999H6.00001C5.67001 5.3999 5.40001 5.1299 5.40001 4.7999C5.40001 4.4699 5.67001 4.1999 6.00001 4.1999ZM4.20001 19.1999V18.5999H19.8V19.1999C19.8 19.5299 19.53 19.7999 19.2 19.7999H4.80001C4.47001 19.7999 4.20001 19.5299 4.20001 19.1999ZM18.9113 10.7137L19.7813 16.7999H4.21876L5.08876 10.7137C5.13001 10.4174 5.38501 10.1999 5.68126 10.1999H18.3188C18.6188 10.1999 18.87 10.4212 18.9113 10.7137ZM6.60001 11.0999C6.36131 11.0999 6.1324 11.1947 5.96361 11.3635C5.79483 11.5323 5.70001 11.7612 5.70001 11.9999C5.70001 12.2386 5.79483 12.4675 5.96361 12.6363C6.1324 12.8051 6.36131 12.8999 6.60001 12.8999C6.8387 12.8999 7.06762 12.8051 7.23641 12.6363C7.40519 12.4675 7.50001 12.2386 7.50001 11.9999C7.50001 11.7612 7.40519 11.5323 7.23641 11.3635C7.06762 11.1947 6.8387 11.0999 6.60001 11.0999ZM9.30001 11.9999C9.30001 12.2386 9.39483 12.4675 9.56361 12.6363C9.7324 12.8051 9.96131 12.8999 10.2 12.8999C10.4387 12.8999 10.6676 12.8051 10.8364 12.6363C11.0052 12.4675 11.1 12.2386 11.1 11.9999C11.1 11.7612 11.0052 11.5323 10.8364 11.3635C10.6676 11.1947 10.4387 11.0999 10.2 11.0999C9.96131 11.0999 9.7324 11.1947 9.56361 11.3635C9.39483 11.5323 9.30001 11.7612 9.30001 11.9999ZM8.40001 14.0999C8.16131 14.0999 7.9324 14.1947 7.76361 14.3635C7.59483 14.5323 7.50001 14.7612 7.50001 14.9999C7.50001 15.2386 7.59483 15.4675 7.76361 15.6363C7.9324 15.8051 8.16131 15.8999 8.40001 15.8999C8.6387 15.8999 8.86762 15.8051 9.03641 15.6363C9.20519 15.4675 9.30001 15.2386 9.30001 14.9999C9.30001 14.7612 9.20519 14.5323 9.03641 14.3635C8.86762 14.1947 8.6387 14.0999 8.40001 14.0999ZM12.9 11.9999C12.9 12.2386 12.9948 12.4675 13.1636 12.6363C13.3324 12.8051 13.5613 12.8999 13.8 12.8999C14.0387 12.8999 14.2676 12.8051 14.4364 12.6363C14.6052 12.4675 14.7 12.2386 14.7 11.9999C14.7 11.7612 14.6052 11.5323 14.4364 11.3635C14.2676 11.1947 14.0387 11.0999 13.8 11.0999C13.5613 11.0999 13.3324 11.1947 13.1636 11.3635C12.9948 11.5323 12.9 11.7612 12.9 11.9999ZM12 14.0999C11.7613 14.0999 11.5324 14.1947 11.3636 14.3635C11.1948 14.5323 11.1 14.7612 11.1 14.9999C11.1 15.2386 11.1948 15.4675 11.3636 15.6363C11.5324 15.8051 11.7613 15.8999 12 15.8999C12.2387 15.8999 12.4676 15.8051 12.6364 15.6363C12.8052 15.4675 12.9 15.2386 12.9 14.9999C12.9 14.7612 12.8052 14.5323 12.6364 14.3635C12.4676 14.1947 12.2387 14.0999 12 14.0999ZM16.5 11.9999C16.5 12.1181 16.5233 12.2351 16.5685 12.3443C16.6137 12.4535 16.68 12.5527 16.7636 12.6363C16.8472 12.7199 16.9464 12.7862 17.0556 12.8314C17.1648 12.8766 17.2818 12.8999 17.4 12.8999C17.5182 12.8999 17.6352 12.8766 17.7444 12.8314C17.8536 12.7862 17.9528 12.7199 18.0364 12.6363C18.12 12.5527 18.1863 12.4535 18.2315 12.3443C18.2767 12.2351 18.3 12.1181 18.3 11.9999C18.3 11.8817 18.2767 11.7647 18.2315 11.6555C18.1863 11.5463 18.12 11.4471 18.0364 11.3635C17.9528 11.2799 17.8536 11.2136 17.7444 11.1684C17.6352 11.1232 17.5182 11.0999 17.4 11.0999C17.2818 11.0999 17.1648 11.1232 17.0556 11.1684C16.9464 11.2136 16.8472 11.2799 16.7636 11.3635C16.68 11.4471 16.6137 11.5463 16.5685 11.6555C16.5233 11.7647 16.5 11.8817 16.5 11.9999ZM15.6 14.0999C15.3613 14.0999 15.1324 14.1947 14.9636 14.3635C14.7948 14.5323 14.7 14.7612 14.7 14.9999C14.7 15.2386 14.7948 15.4675 14.9636 15.6363C15.1324 15.8051 15.3613 15.8999 15.6 15.8999C15.8387 15.8999 16.0676 15.8051 16.2364 15.6363C16.4052 15.4675 16.5 15.2386 16.5 14.9999C16.5 14.7612 16.4052 14.5323 16.2364 14.3635C16.0676 14.1947 15.8387 14.0999 15.6 14.0999Z" fill="black" fill-opacity="0.45"/>
</svg>
