<svg width="24" height="24" viewBox="0 0 24 24" fill="none" xmlns="http://www.w3.org/2000/svg">
<path d="M4.19999 4.5001C4.19999 4.00135 3.79874 3.6001 3.29999 3.6001C2.80124 3.6001 2.39999 4.00135 2.39999 4.5001V17.7001C2.39999 19.1926 3.60749 20.4001 5.09999 20.4001H20.7C21.1987 20.4001 21.6 19.9988 21.6 19.5001C21.6 19.0013 21.1987 18.6001 20.7 18.6001H5.09999C4.60124 18.6001 4.19999 18.1988 4.19999 17.7001V4.5001ZM9.59999 9.6001C9.91825 9.6001 10.2235 9.47367 10.4485 9.24863C10.6736 9.02358 10.8 8.71836 10.8 8.4001C10.8 8.08184 10.6736 7.77661 10.4485 7.55157C10.2235 7.32653 9.91825 7.2001 9.59999 7.2001C9.28173 7.2001 8.97651 7.32653 8.75147 7.55157C8.52642 7.77661 8.39999 8.08184 8.39999 8.4001C8.39999 8.71836 8.52642 9.02358 8.75147 9.24863C8.97651 9.47367 9.28173 9.6001 9.59999 9.6001ZM14.4 12.0001C14.4 11.6818 14.2736 11.3766 14.0485 11.1516C13.8235 10.9265 13.5183 10.8001 13.2 10.8001C12.8817 10.8001 12.5765 10.9265 12.3515 11.1516C12.1264 11.3766 12 11.6818 12 12.0001C12 12.3184 12.1264 12.6236 12.3515 12.8486C12.5765 13.0737 12.8817 13.2001 13.2 13.2001C13.5183 13.2001 13.8235 13.0737 14.0485 12.8486C14.2736 12.6236 14.4 12.3184 14.4 12.0001ZM16.8 15.6001C17.1183 15.6001 17.4235 15.4737 17.6485 15.2486C17.8736 15.0236 18 14.7184 18 14.4001C18 14.0818 17.8736 13.7766 17.6485 13.5516C17.4235 13.3265 17.1183 13.2001 16.8 13.2001C16.4817 13.2001 16.1765 13.3265 15.9515 13.5516C15.7264 13.7766 15.6 14.0818 15.6 14.4001C15.6 14.7184 15.7264 15.0236 15.9515 15.2486C16.1765 15.4737 16.4817 15.6001 16.8 15.6001ZM19.2 7.2001C19.2 6.88184 19.0736 6.57661 18.8485 6.35157C18.6235 6.12653 18.3183 6.0001 18 6.0001C17.6817 6.0001 17.3765 6.12653 17.1515 6.35157C16.9264 6.57661 16.8 6.88184 16.8 7.2001C16.8 7.51836 16.9264 7.82358 17.1515 8.04863C17.3765 8.27367 17.6817 8.4001 18 8.4001C18.3183 8.4001 18.6235 8.27367 18.8485 8.04863C19.0736 7.82358 19.2 7.51836 19.2 7.2001ZM8.39999 15.6001C8.71825 15.6001 9.02348 15.4737 9.24852 15.2486C9.47357 15.0236 9.59999 14.7184 9.59999 14.4001C9.59999 14.0818 9.47357 13.7766 9.24852 13.5516C9.02348 13.3265 8.71825 13.2001 8.39999 13.2001C8.08173 13.2001 7.77651 13.3265 7.55147 13.5516C7.32642 13.7766 7.19999 14.0818 7.19999 14.4001C7.19999 14.7184 7.32642 15.0236 7.55147 15.2486C7.77651 15.4737 8.08173 15.6001 8.39999 15.6001Z" fill="black" fill-opacity="0.45"/>
</svg>
