<svg width="24" height="24" viewBox="0 0 24 24" fill="none" xmlns="http://www.w3.org/2000/svg">
<path d="M12.6 5.4001V18.6001H11.4V5.4001H12.6ZM11.4 3.6001C10.4062 3.6001 9.59999 4.40635 9.59999 5.4001V18.6001C9.59999 19.5938 10.4062 20.4001 11.4 20.4001H12.6C13.5937 20.4001 14.4 19.5938 14.4 18.6001V5.4001C14.4 4.40635 13.5937 3.6001 12.6 3.6001H11.4ZM6.59999 12.6001V18.6001H5.39999V12.6001H6.59999ZM5.39999 10.8001C4.40624 10.8001 3.59999 11.6063 3.59999 12.6001V18.6001C3.59999 19.5938 4.40624 20.4001 5.39999 20.4001H6.59999C7.59374 20.4001 8.39999 19.5938 8.39999 18.6001V12.6001C8.39999 11.6063 7.59374 10.8001 6.59999 10.8001H5.39999ZM17.4 7.8001H18.6V18.6001H17.4V7.8001ZM15.6 7.8001V18.6001C15.6 19.5938 16.4062 20.4001 17.4 20.4001H18.6C19.5937 20.4001 20.4 19.5938 20.4 18.6001V7.8001C20.4 6.80635 19.5937 6.0001 18.6 6.0001H17.4C16.4062 6.0001 15.6 6.80635 15.6 7.8001Z" fill="black" fill-opacity="0.45"/>
</svg>
