<svg width="24" height="24" viewBox="0 0 24 24" fill="none" xmlns="http://www.w3.org/2000/svg">
<path d="M11.6 3.8C13.6687 3.8 15.6526 4.62178 17.1154 6.08457C18.5782 7.54735 19.4 9.53131 19.4 11.6C19.4 13.6687 18.5782 15.6526 17.1154 17.1154C15.6526 18.5782 13.6687 19.4 11.6 19.4C9.53131 19.4 7.54735 18.5782 6.08457 17.1154C4.62178 15.6526 3.8 13.6687 3.8 11.6C3.8 9.53131 4.62178 7.54735 6.08457 6.08457C7.54735 4.62178 9.53131 3.8 11.6 3.8ZM11.6 21.2C14.1461 21.2 16.5879 20.1886 18.3882 18.3882C20.1886 16.5879 21.2 14.1461 21.2 11.6C21.2 9.05392 20.1886 6.61212 18.3882 4.81178C16.5879 3.01143 14.1461 2 11.6 2C9.05392 2 6.61212 3.01143 4.81178 4.81178C3.01143 6.61212 2 9.05392 2 11.6C2 14.1461 3.01143 16.5879 4.81178 18.3882C6.61212 20.1886 9.05392 21.2 11.6 21.2ZM10.7 14.9C10.7 15.3988 11.1013 15.8 11.6 15.8C12.0988 15.8 12.5 15.3988 12.5 14.9V12.5H14.9C15.3988 12.5 15.8 12.0988 15.8 11.6C15.8 11.1013 15.3988 10.7 14.9 10.7H12.5V8.3C12.5 7.80125 12.0988 7.4 11.6 7.4C11.1013 7.4 10.7 7.80125 10.7 8.3V10.7H8.3C7.80125 10.7 7.4 11.1013 7.4 11.6C7.4 12.0988 7.80125 12.5 8.3 12.5H10.7V14.9Z" fill="black" fill-opacity="0.45"/>
</svg>
