<svg width="24" height="24" viewBox="0 0 24 24" fill="none" xmlns="http://www.w3.org/2000/svg">
<path d="M17.6437 17.385C16.9275 15.6338 15.2062 14.4 13.2 14.4H10.8C8.79374 14.4 7.07249 15.6338 6.35624 17.385C5.02124 15.9825 4.19999 14.0888 4.19999 12C4.19999 7.69127 7.69124 4.20002 12 4.20002C16.3087 4.20002 19.8 7.69127 19.8 12C19.8 14.0888 18.9787 15.9825 17.6437 17.385ZM16.14 18.6113C14.94 19.365 13.5225 19.8 12 19.8C10.4775 19.8 9.05999 19.365 7.85624 18.6113C8.12999 17.235 9.34499 16.2 10.8 16.2H13.2C14.655 16.2 15.87 17.235 16.1437 18.6113H16.14ZM12 21.6C14.5461 21.6 16.9879 20.5886 18.7882 18.7882C20.5886 16.9879 21.6 14.5461 21.6 12C21.6 9.45395 20.5886 7.01215 18.7882 5.2118C16.9879 3.41145 14.5461 2.40002 12 2.40002C9.45392 2.40002 7.01212 3.41145 5.21177 5.2118C3.41142 7.01215 2.39999 9.45395 2.39999 12C2.39999 14.5461 3.41142 16.9879 5.21177 18.7882C7.01212 20.5886 9.45392 21.6 12 21.6ZM12 11.4C11.6022 11.4 11.2206 11.242 10.9393 10.9607C10.658 10.6794 10.5 10.2978 10.5 9.90002C10.5 9.5022 10.658 9.12067 10.9393 8.83936C11.2206 8.55806 11.6022 8.40002 12 8.40002C12.3978 8.40002 12.7794 8.55806 13.0607 8.83936C13.342 9.12067 13.5 9.5022 13.5 9.90002C13.5 10.2978 13.342 10.6794 13.0607 10.9607C12.7794 11.242 12.3978 11.4 12 11.4ZM8.69999 9.90002C8.69999 10.7752 9.04767 11.6146 9.66654 12.2335C10.2854 12.8523 11.1248 13.2 12 13.2C12.8752 13.2 13.7146 12.8523 14.3334 12.2335C14.9523 11.6146 15.3 10.7752 15.3 9.90002C15.3 9.02481 14.9523 8.18544 14.3334 7.56657C13.7146 6.9477 12.8752 6.60002 12 6.60002C11.1248 6.60002 10.2854 6.9477 9.66654 7.56657C9.04767 8.18544 8.69999 9.02481 8.69999 9.90002Z" fill="black" fill-opacity="0.45"/>
</svg>
