<svg width="24" height="24" viewBox="0 0 24 24" fill="none" xmlns="http://www.w3.org/2000/svg">
<path d="M12 4.1999C14.0687 4.1999 16.0527 5.02169 17.5154 6.48447C18.9782 7.94725 19.8 9.93121 19.8 11.9999C19.8 14.0686 18.9782 16.0526 17.5154 17.5153C16.0527 18.9781 14.0687 19.7999 12 19.7999C9.93131 19.7999 7.94735 18.9781 6.48457 17.5153C5.02179 16.0526 4.2 14.0686 4.2 11.9999C4.2 9.93121 5.02179 7.94725 6.48457 6.48447C7.94735 5.02169 9.93131 4.1999 12 4.1999ZM12 21.5999C14.5461 21.5999 16.9879 20.5885 18.7882 18.7881C20.5886 16.9878 21.6 14.546 21.6 11.9999C21.6 9.45382 20.5886 7.01203 18.7882 5.21168C16.9879 3.41133 14.5461 2.3999 12 2.3999C9.45392 2.3999 7.01213 3.41133 5.21178 5.21168C3.41143 7.01203 2.4 9.45382 2.4 11.9999C2.4 14.546 3.41143 16.9878 5.21178 18.7881C7.01213 20.5885 9.45392 21.5999 12 21.5999ZM9.3 11.0999C8.80125 11.0999 8.4 11.5012 8.4 11.9999C8.4 12.4987 8.80125 12.8999 9.3 12.8999H14.7C15.1988 12.8999 15.6 12.4987 15.6 11.9999C15.6 11.5012 15.1988 11.0999 14.7 11.0999H9.3Z" fill="black" fill-opacity="0.45"/>
</svg>
