<svg width="24" height="24" viewBox="0 0 24 24" fill="none" xmlns="http://www.w3.org/2000/svg">
<path d="M19.8 11.9999C19.8 9.93121 18.9782 7.94725 17.5154 6.48447C16.0526 5.02169 14.0687 4.1999 12 4.1999C9.93131 4.1999 7.94735 5.02169 6.48456 6.48447C5.02178 7.94725 4.19999 9.93121 4.19999 11.9999C4.19999 14.0686 5.02178 16.0526 6.48456 17.5153C7.94735 18.9781 9.93131 19.7999 12 19.7999C14.0687 19.7999 16.0526 18.9781 17.5154 17.5153C18.9782 16.0526 19.8 14.0686 19.8 11.9999ZM2.39999 11.9999C2.39999 9.45382 3.41142 7.01203 5.21177 5.21168C7.01212 3.41133 9.45392 2.3999 12 2.3999C14.5461 2.3999 16.9879 3.41133 18.7882 5.21168C20.5886 7.01203 21.6 9.45382 21.6 11.9999C21.6 14.546 20.5886 16.9878 18.7882 18.7881C16.9879 20.5885 14.5461 21.5999 12 21.5999C9.45392 21.5999 7.01212 20.5885 5.21177 18.7881C3.41142 16.9878 2.39999 14.546 2.39999 11.9999Z" fill="black" fill-opacity="0.45"/>
</svg>
