<svg width="24" height="24" viewBox="0 0 24 24" fill="none" xmlns="http://www.w3.org/2000/svg">
<path d="M19.8 12.0001C19.8 9.93146 18.9782 7.9475 17.5154 6.48471C16.0526 5.02193 14.0687 4.20015 12 4.20015C9.93131 4.20015 7.94735 5.02193 6.48456 6.48471C5.02178 7.9475 4.19999 9.93146 4.19999 12.0001C4.19999 14.0688 5.02178 16.0528 6.48456 17.5156C7.94735 18.9784 9.93131 19.8001 12 19.8001C14.0687 19.8001 16.0526 18.9784 17.5154 17.5156C18.9782 16.0528 19.8 14.0688 19.8 12.0001ZM2.39999 12.0001C2.39999 9.45407 3.41142 7.01227 5.21177 5.21192C7.01212 3.41157 9.45392 2.40015 12 2.40015C14.5461 2.40015 16.9879 3.41157 18.7882 5.21192C20.5886 7.01227 21.6 9.45407 21.6 12.0001C21.6 14.5462 20.5886 16.988 18.7882 18.7884C16.9879 20.5887 14.5461 21.6001 12 21.6001C9.45392 21.6001 7.01212 20.5887 5.21177 18.7884C3.41142 16.988 2.39999 14.5462 2.39999 12.0001ZM8.76749 8.5989C9.06374 7.76265 9.85874 7.20015 10.7475 7.20015H12.9337C14.2425 7.20015 15.3 8.2614 15.3 9.5664C15.3 10.4139 14.8462 11.1976 14.1112 11.6214L12.9 12.3151C12.8925 12.8026 12.4912 13.2001 12 13.2001C11.5012 13.2001 11.1 12.7989 11.1 12.3001V11.7939C11.1 11.4714 11.2725 11.1751 11.5537 11.0139L13.215 10.0614C13.3912 9.96015 13.5 9.77265 13.5 9.57015C13.5 9.25515 13.245 9.0039 12.9337 9.0039H10.7475C10.62 9.0039 10.5075 9.08265 10.4662 9.20265L10.4512 9.24765C10.2862 9.7164 9.76874 9.96015 9.30374 9.79515C8.83874 9.63015 8.59124 9.11265 8.75624 8.64765L8.77124 8.60265L8.76749 8.5989ZM10.8 15.6001C10.8 15.2819 10.9264 14.9767 11.1515 14.7516C11.3765 14.5266 11.6817 14.4001 12 14.4001C12.3183 14.4001 12.6235 14.5266 12.8485 14.7516C13.0736 14.9767 13.2 15.2819 13.2 15.6001C13.2 15.9184 13.0736 16.2236 12.8485 16.4487C12.6235 16.6737 12.3183 16.8001 12 16.8001C11.6817 16.8001 11.3765 16.6737 11.1515 16.4487C10.9264 16.2236 10.8 15.9184 10.8 15.6001Z" fill="black" fill-opacity="0.45"/>
</svg>
