<svg width="24" height="24" viewBox="0 0 24 24" fill="none" xmlns="http://www.w3.org/2000/svg">
<path d="M12 4.20002C14.0687 4.20002 16.0527 5.02181 17.5154 6.48459C18.9782 7.94738 19.8 9.93134 19.8 12C19.8 14.0687 18.9782 16.0527 17.5154 17.5155C16.0527 18.9782 14.0687 19.8 12 19.8C9.93131 19.8 7.94735 18.9782 6.48457 17.5155C5.02179 16.0527 4.2 14.0687 4.2 12C4.2 9.93134 5.02179 7.94738 6.48457 6.48459C7.94735 5.02181 9.93131 4.20002 12 4.20002ZM12 21.6C14.5461 21.6 16.9879 20.5886 18.7882 18.7882C20.5886 16.9879 21.6 14.5461 21.6 12C21.6 9.45395 20.5886 7.01215 18.7882 5.2118C16.9879 3.41145 14.5461 2.40002 12 2.40002C9.45392 2.40002 7.01213 3.41145 5.21178 5.2118C3.41143 7.01215 2.4 9.45395 2.4 12C2.4 14.5461 3.41143 16.9879 5.21178 18.7882C7.01213 20.5886 9.45392 21.6 12 21.6ZM7.46625 10.5525C7.2975 10.71 7.2 10.9313 7.2 11.1638C7.2 11.625 7.575 12 8.03625 12H10.2V15.6C10.2 16.2638 10.7363 16.8 11.4 16.8H12.6C13.2638 16.8 13.8 16.2638 13.8 15.6V12H15.9638C16.425 12 16.8 11.625 16.8 11.1638C16.8 10.9313 16.7025 10.71 16.5338 10.5525L12.5175 6.80627C12.375 6.67502 12.1913 6.60002 12 6.60002C11.8088 6.60002 11.6213 6.67502 11.4825 6.80627L7.46625 10.5525Z" fill="black" fill-opacity="0.45"/>
</svg>
