<svg width="24" height="24" viewBox="0 0 24 24" fill="none" xmlns="http://www.w3.org/2000/svg">
<path d="M12 4.20002C14.0687 4.20002 16.0526 5.02181 17.5154 6.48459C18.9782 7.94738 19.8 9.93134 19.8 12C19.8 14.0687 18.9782 16.0527 17.5154 17.5155C16.0526 18.9782 14.0687 19.8 12 19.8C9.93131 19.8 7.94735 18.9782 6.48456 17.5155C5.02178 16.0527 4.19999 14.0687 4.19999 12C4.19999 9.93134 5.02178 7.94738 6.48456 6.48459C7.94735 5.02181 9.93131 4.20002 12 4.20002ZM12 21.6C14.5461 21.6 16.9879 20.5886 18.7882 18.7882C20.5886 16.9879 21.6 14.5461 21.6 12C21.6 9.45395 20.5886 7.01215 18.7882 5.2118C16.9879 3.41145 14.5461 2.40002 12 2.40002C9.45392 2.40002 7.01212 3.41145 5.21177 5.2118C3.41142 7.01215 2.39999 9.45395 2.39999 12C2.39999 14.5461 3.41142 16.9879 5.21177 18.7882C7.01212 20.5886 9.45392 21.6 12 21.6ZM8.96249 8.96252C8.60999 9.31502 8.60999 9.88502 8.96249 10.2338L10.725 11.9963L8.96249 13.7588C8.60999 14.1113 8.60999 14.6813 8.96249 15.03C9.31499 15.3788 9.88499 15.3825 10.2337 15.03L11.9962 13.2675L13.7587 15.03C14.1112 15.3825 14.6812 15.3825 15.03 15.03C15.3787 14.6775 15.3825 14.1075 15.03 13.7588L13.2675 11.9963L15.03 10.2338C15.3825 9.88127 15.3825 9.31128 15.03 8.96252C14.6775 8.61377 14.1075 8.61002 13.7587 8.96252L11.9962 10.725L10.2337 8.96252C9.88124 8.61002 9.31124 8.61002 8.96249 8.96252Z" fill="black" fill-opacity="0.45"/>
</svg>
