<svg width="24" height="24" viewBox="0 0 24 24" fill="none" xmlns="http://www.w3.org/2000/svg">
<path d="M12 4.1999C14.0687 4.1999 16.0527 5.02169 17.5154 6.48447C18.9782 7.94725 19.8 9.93121 19.8 11.9999C19.8 14.0686 18.9782 16.0526 17.5154 17.5153C16.0527 18.9781 14.0687 19.7999 12 19.7999C9.93131 19.7999 7.94735 18.9781 6.48457 17.5153C5.02179 16.0526 4.2 14.0686 4.2 11.9999C4.2 9.93121 5.02179 7.94725 6.48457 6.48447C7.94735 5.02169 9.93131 4.1999 12 4.1999ZM12 21.5999C14.5461 21.5999 16.9879 20.5885 18.7882 18.7881C20.5886 16.9878 21.6 14.546 21.6 11.9999C21.6 9.45382 20.5886 7.01203 18.7882 5.21168C16.9879 3.41133 14.5461 2.3999 12 2.3999C9.45392 2.3999 7.01213 3.41133 5.21178 5.21168C3.41143 7.01203 2.4 9.45382 2.4 11.9999C2.4 14.546 3.41143 16.9878 5.21178 18.7881C7.01213 20.5885 9.45392 21.5999 12 21.5999ZM16.2375 10.2374C16.59 9.8849 16.59 9.3149 16.2375 8.96615C15.885 8.6174 15.315 8.61365 14.9663 8.96615L10.8038 13.1287L9.04125 11.3662C8.68875 11.0137 8.11875 11.0137 7.77 11.3662C7.42125 11.7187 7.4175 12.2887 7.77 12.6374L10.17 15.0374C10.5225 15.3899 11.0925 15.3899 11.4413 15.0374L16.2375 10.2374Z" fill="black" fill-opacity="0.45"/>
</svg>
