<svg width="24" height="24" viewBox="0 0 24 24" fill="none" xmlns="http://www.w3.org/2000/svg">
<path d="M12 4.20002C14.0687 4.20002 16.0527 5.02181 17.5154 6.48459C18.9782 7.94738 19.8 9.93134 19.8 12C19.8 14.0687 18.9782 16.0527 17.5154 17.5155C16.0527 18.9782 14.0687 19.8 12 19.8C9.93132 19.8 7.94736 18.9782 6.48458 17.5155C5.02179 16.0527 4.20001 14.0687 4.20001 12C4.20001 9.93134 5.02179 7.94738 6.48458 6.48459C7.94736 5.02181 9.93132 4.20002 12 4.20002ZM12 21.6C14.5461 21.6 16.9879 20.5886 18.7882 18.7882C20.5886 16.9879 21.6 14.5461 21.6 12C21.6 9.45395 20.5886 7.01215 18.7882 5.2118C16.9879 3.41145 14.5461 2.40002 12 2.40002C9.45393 2.40002 7.01213 3.41145 5.21178 5.2118C3.41144 7.01215 2.40001 9.45395 2.40001 12C2.40001 14.5461 3.41144 16.9879 5.21178 18.7882C7.01213 20.5886 9.45393 21.6 12 21.6ZM10.5 15C10.0013 15 9.60001 15.4013 9.60001 15.9C9.60001 16.3988 10.0013 16.8 10.5 16.8H13.5C13.9988 16.8 14.4 16.3988 14.4 15.9C14.4 15.4013 13.9988 15 13.5 15H13.2V11.7C13.2 11.2013 12.7988 10.8 12.3 10.8H10.5C10.0013 10.8 9.60001 11.2013 9.60001 11.7C9.60001 12.1988 10.0013 12.6 10.5 12.6H11.4V15H10.5ZM12 9.60002C12.3183 9.60002 12.6235 9.4736 12.8485 9.24855C13.0736 9.02351 13.2 8.71828 13.2 8.40002C13.2 8.08176 13.0736 7.77654 12.8485 7.5515C12.6235 7.32645 12.3183 7.20002 12 7.20002C11.6817 7.20002 11.3765 7.32645 11.1515 7.5515C10.9264 7.77654 10.8 8.08176 10.8 8.40002C10.8 8.71828 10.9264 9.02351 11.1515 9.24855C11.3765 9.4736 11.6817 9.60002 12 9.60002Z" fill="black" fill-opacity="0.45"/>
</svg>
