<svg width="24" height="24" viewBox="0 0 24 24" fill="none" xmlns="http://www.w3.org/2000/svg">
<path d="M12 19.8C9.93131 19.8 7.94735 18.9782 6.48456 17.5155C5.02178 16.0527 4.19999 14.0687 4.19999 12C4.19999 9.93134 5.02178 7.94738 6.48456 6.48459C7.94735 5.02181 9.93131 4.20002 12 4.20002C14.0687 4.20002 16.0526 5.02181 17.5154 6.48459C18.9782 7.94738 19.8 9.93134 19.8 12C19.8 14.0687 18.9782 16.0527 17.5154 17.5155C16.0526 18.9782 14.0687 19.8 12 19.8ZM12 2.40002C9.45392 2.40002 7.01212 3.41145 5.21177 5.2118C3.41142 7.01215 2.39999 9.45395 2.39999 12C2.39999 14.5461 3.41142 16.9879 5.21177 18.7882C7.01212 20.5886 9.45392 21.6 12 21.6C14.5461 21.6 16.9879 20.5886 18.7882 18.7882C20.5886 16.9879 21.6 14.5461 21.6 12C21.6 9.45395 20.5886 7.01215 18.7882 5.2118C16.9879 3.41145 14.5461 2.40002 12 2.40002ZM16.5337 13.4475C16.7025 13.29 16.8 13.0688 16.8 12.8363C16.8 12.375 16.425 12 15.9637 12H13.8V8.40002C13.8 7.73627 13.2637 7.20002 12.6 7.20002H11.4C10.7362 7.20002 10.2 7.73627 10.2 8.40002V12H8.03624C7.57499 12 7.19999 12.375 7.19999 12.8363C7.19999 13.0688 7.29749 13.29 7.46624 13.4475L11.4825 17.1938C11.625 17.325 11.8087 17.4 12 17.4C12.1912 17.4 12.3787 17.325 12.5175 17.1938L16.5337 13.4475Z" fill="black" fill-opacity="0.45"/>
</svg>
