<svg width="24" height="24" viewBox="0 0 24 24" fill="none" xmlns="http://www.w3.org/2000/svg">
<path d="M12 4.1999C14.0687 4.1999 16.0526 5.02169 17.5154 6.48447C18.9782 7.94725 19.8 9.93121 19.8 11.9999C19.8 14.0686 18.9782 16.0526 17.5154 17.5153C16.0526 18.9781 14.0687 19.7999 12 19.7999C9.93131 19.7999 7.94735 18.9781 6.48456 17.5153C5.02178 16.0526 4.19999 14.0686 4.19999 11.9999C4.19999 9.93121 5.02178 7.94725 6.48456 6.48447C7.94735 5.02169 9.93131 4.1999 12 4.1999ZM12 21.5999C14.5461 21.5999 16.9879 20.5885 18.7882 18.7881C20.5886 16.9878 21.6 14.546 21.6 11.9999C21.6 9.45382 20.5886 7.01203 18.7882 5.21168C16.9879 3.41133 14.5461 2.3999 12 2.3999C9.45392 2.3999 7.01212 3.41133 5.21177 5.21168C3.41142 7.01203 2.39999 9.45382 2.39999 11.9999C2.39999 14.546 3.41142 16.9878 5.21177 18.7881C7.01212 20.5885 9.45392 21.5999 12 21.5999ZM12 7.1999C11.5012 7.1999 11.1 7.60115 11.1 8.0999V12.2999C11.1 12.7987 11.5012 13.1999 12 13.1999C12.4987 13.1999 12.9 12.7987 12.9 12.2999V8.0999C12.9 7.60115 12.4987 7.1999 12 7.1999ZM13.2 15.5999C13.2 15.2816 13.0736 14.9764 12.8485 14.7514C12.6235 14.5263 12.3183 14.3999 12 14.3999C11.6817 14.3999 11.3765 14.5263 11.1515 14.7514C10.9264 14.9764 10.8 15.2816 10.8 15.5999C10.8 15.9182 10.9264 16.2234 11.1515 16.4484C11.3765 16.6735 11.6817 16.7999 12 16.7999C12.3183 16.7999 12.6235 16.6735 12.8485 16.4484C13.0736 16.2234 13.2 15.9182 13.2 15.5999Z" fill="black" fill-opacity="0.45"/>
</svg>
