<svg width="24" height="24" viewBox="0 0 24 24" fill="none" xmlns="http://www.w3.org/2000/svg">
<path d="M19.8 11.9999C19.8 7.69115 16.3088 4.1999 12 4.1999V19.7999C16.3088 19.7999 19.8 16.3087 19.8 11.9999ZM2.4 11.9999C2.4 9.45382 3.41143 7.01203 5.21178 5.21168C7.01213 3.41133 9.45392 2.3999 12 2.3999C14.5461 2.3999 16.9879 3.41133 18.7882 5.21168C20.5886 7.01203 21.6 9.45382 21.6 11.9999C21.6 14.546 20.5886 16.9878 18.7882 18.7881C16.9879 20.5885 14.5461 21.5999 12 21.5999C9.45392 21.5999 7.01213 20.5885 5.21178 18.7881C3.41143 16.9878 2.4 14.546 2.4 11.9999Z" fill="black" fill-opacity="0.45"/>
</svg>
