<svg width="24" height="24" viewBox="0 0 24 24" fill="none" xmlns="http://www.w3.org/2000/svg">
<path d="M3.9 2.3999C3.40125 2.3999 3 2.80115 3 3.2999V4.7999H2.7C1.2075 4.7999 0 6.0074 0 7.4999V18.8999C0 20.3924 1.2075 21.5999 2.7 21.5999H9C8.625 21.0974 8.4 20.4749 8.4 19.7999H2.7C2.20125 19.7999 1.8 19.3987 1.8 18.8999V7.4999C1.8 7.00115 2.20125 6.5999 2.7 6.5999H3H4.8H6.6H8.4V4.7999V3.2999C8.4 2.80115 7.99875 2.3999 7.5 2.3999C7.00125 2.3999 6.6 2.80115 6.6 3.2999V4.7999H4.8V3.2999C4.8 2.80115 4.39875 2.3999 3.9 2.3999ZM17.4 8.3999C17.4 9.39365 18.2063 10.1999 19.2 10.1999H21.6C21.93 10.1999 22.2 10.4699 22.2 10.7999V19.1999C22.2 19.5299 21.93 19.7999 21.6 19.7999H16.8H12C11.67 19.7999 11.4 19.5299 11.4 19.1999V10.7999V4.7999C11.4 4.4699 11.67 4.1999 12 4.1999H16.8C17.13 4.1999 17.4 4.4699 17.4 4.7999V8.3999ZM19.2 6.5999V4.7999C19.2 3.47615 18.1238 2.3999 16.8 2.3999H12C10.6763 2.3999 9.6 3.47615 9.6 4.7999V10.7999V19.1999C9.6 20.5237 10.6763 21.5999 12 21.5999H16.8H21.6C22.9238 21.5999 24 20.5237 24 19.1999V10.7999C24 9.47615 22.9238 8.3999 21.6 8.3999H21H19.2V6.5999ZM13.2 14.9999C13.2 15.3299 13.47 15.5999 13.8 15.5999H15C15.33 15.5999 15.6 15.3299 15.6 14.9999V13.7999C15.6 13.4699 15.33 13.1999 15 13.1999H13.8C13.47 13.1999 13.2 13.4699 13.2 13.7999V14.9999ZM13.8 5.9999C13.47 5.9999 13.2 6.2699 13.2 6.5999V7.7999C13.2 8.1299 13.47 8.3999 13.8 8.3999H15C15.33 8.3999 15.6 8.1299 15.6 7.7999V6.5999C15.6 6.2699 15.33 5.9999 15 5.9999H13.8ZM13.2 11.3999C13.2 11.7299 13.47 11.9999 13.8 11.9999H15C15.33 11.9999 15.6 11.7299 15.6 11.3999V10.1999C15.6 9.8699 15.33 9.5999 15 9.5999H13.8C13.47 9.5999 13.2 9.8699 13.2 10.1999V11.3999ZM18.6 17.9999H19.8C20.13 17.9999 20.4 17.7299 20.4 17.3999V16.1999C20.4 15.8699 20.13 15.5999 19.8 15.5999H18.6C18.27 15.5999 18 15.8699 18 16.1999V17.3999C18 17.7299 18.27 17.9999 18.6 17.9999ZM18 13.7999C18 14.1299 18.27 14.3999 18.6 14.3999H19.8C20.13 14.3999 20.4 14.1299 20.4 13.7999V12.5999C20.4 12.2699 20.13 11.9999 19.8 11.9999H18.6C18.27 11.9999 18 12.2699 18 12.5999V13.7999ZM4.2 14.3999H5.4C5.73 14.3999 6 14.1299 6 13.7999V12.5999C6 12.2699 5.73 11.9999 5.4 11.9999H4.2C3.87 11.9999 3.6 12.2699 3.6 12.5999V13.7999C3.6 14.1299 3.87 14.3999 4.2 14.3999ZM3.6 17.3999C3.6 17.7299 3.87 17.9999 4.2 17.9999H5.4C5.73 17.9999 6 17.7299 6 17.3999V16.1999C6 15.8699 5.73 15.5999 5.4 15.5999H4.2C3.87 15.5999 3.6 15.8699 3.6 16.1999V17.3999ZM4.2 10.7999H5.4C5.73 10.7999 6 10.5299 6 10.1999V8.9999C6 8.6699 5.73 8.3999 5.4 8.3999H4.2C3.87 8.3999 3.6 8.6699 3.6 8.9999V10.1999C3.6 10.5299 3.87 10.7999 4.2 10.7999Z" fill="black" fill-opacity="0.45"/>
</svg>
