<svg width="24" height="24" viewBox="0 0 24 24" fill="none" xmlns="http://www.w3.org/2000/svg">
<path d="M15.3 4.80002H16.8C18.1238 4.80002 19.2 5.87627 19.2 7.20002V19.2C19.2 20.5238 18.1238 21.6 16.8 21.6H7.2C5.87625 21.6 4.8 20.5238 4.8 19.2V7.20002C4.8 5.87627 5.87625 4.80002 7.2 4.80002H8.7H9.06C9.3375 3.43127 10.5488 2.40002 12 2.40002C13.4513 2.40002 14.6625 3.43127 14.94 4.80002H15.3ZM7.2 6.60002C6.87 6.60002 6.6 6.87002 6.6 7.20002V19.2C6.6 19.53 6.87 19.8 7.2 19.8H16.8C17.13 19.8 17.4 19.53 17.4 19.2V7.20002C17.4 6.87002 17.13 6.60002 16.8 6.60002H16.2V7.50002C16.2 7.99877 15.7988 8.40002 15.3 8.40002H12H8.7C8.20125 8.40002 7.8 7.99877 7.8 7.50002V6.60002H7.2ZM12 6.30002C12.2387 6.30002 12.4676 6.2052 12.6364 6.03642C12.8052 5.86764 12.9 5.63872 12.9 5.40002C12.9 5.16133 12.8052 4.93241 12.6364 4.76363C12.4676 4.59485 12.2387 4.50002 12 4.50002C11.7613 4.50002 11.5324 4.59485 11.3636 4.76363C11.1948 4.93241 11.1 5.16133 11.1 5.40002C11.1 5.63872 11.1948 5.86764 11.3636 6.03642C11.5324 6.2052 11.7613 6.30002 12 6.30002Z" fill="black" fill-opacity="0.45"/>
</svg>
