<svg width="24" height="24" viewBox="0 0 24 24" fill="none" xmlns="http://www.w3.org/2000/svg">
<path d="M19.8 11.9999C19.8 14.0686 18.9782 16.0526 17.5154 17.5153C16.0526 18.9781 14.0687 19.7999 12 19.7999C9.93131 19.7999 7.94735 18.9781 6.48456 17.5153C5.02178 16.0526 4.19999 14.0686 4.19999 11.9999C4.19999 9.93121 5.02178 7.94725 6.48456 6.48447C7.94735 5.02169 9.93131 4.1999 12 4.1999C14.0687 4.1999 16.0526 5.02169 17.5154 6.48447C18.9782 7.94725 19.8 9.93121 19.8 11.9999ZM2.39999 11.9999C2.39999 14.546 3.41142 16.9878 5.21177 18.7881C7.01212 20.5885 9.45392 21.5999 12 21.5999C14.5461 21.5999 16.9879 20.5885 18.7882 18.7881C20.5886 16.9878 21.6 14.546 21.6 11.9999C21.6 9.45382 20.5886 7.01203 18.7882 5.21168C16.9879 3.41133 14.5461 2.3999 12 2.3999C9.45392 2.3999 7.01212 3.41133 5.21177 5.21168C3.41142 7.01203 2.39999 9.45382 2.39999 11.9999ZM11.1 6.8999V11.9999C11.1 12.2999 11.25 12.5812 11.5012 12.7499L15.1012 15.1499C15.5137 15.4274 16.0725 15.3149 16.35 14.8987C16.6275 14.4824 16.515 13.9274 16.0987 13.6499L12.9 11.5199V6.8999C12.9 6.40115 12.4987 5.9999 12 5.9999C11.5012 5.9999 11.1 6.40115 11.1 6.8999Z" fill="black" fill-opacity="0.45"/>
</svg>
