<svg width="24" height="24" viewBox="0 0 24 24" fill="none" xmlns="http://www.w3.org/2000/svg">
<path d="M6 18.5H13C13.275 18.5 13.5 18.275 13.5 18V16H15V18C15 19.1031 14.1031 20 13 20H6C4.89688 20 4 19.1031 4 18V11C4 9.89687 4.89688 9 6 9H8V10.5H6C5.725 10.5 5.5 10.725 5.5 11V18C5.5 18.275 5.725 18.5 6 18.5ZM11 13.5H18C18.275 13.5 18.5 13.275 18.5 13V6C18.5 5.725 18.275 5.5 18 5.5H11C10.725 5.5 10.5 5.725 10.5 6V13C10.5 13.275 10.725 13.5 11 13.5ZM9 13V6C9 4.89688 9.89687 4 11 4H18C19.1031 4 20 4.89688 20 6V13C20 14.1031 19.1031 15 18 15H11C9.89687 15 9 14.1031 9 13Z" fill="black" fill-opacity="0.45"/>
</svg>
