<svg width="24" height="24" viewBox="0 0 24 24" fill="none" xmlns="http://www.w3.org/2000/svg">
<path d="M17.6449 8.04935C18.1134 7.58082 18.1134 6.81993 17.6449 6.3514C17.1763 5.88287 16.4154 5.88287 15.9469 6.3514L12 10.302L8.04935 6.35515C7.58082 5.88662 6.81993 5.88662 6.3514 6.35515C5.88287 6.82368 5.88287 7.58457 6.3514 8.0531L10.302 12L6.35515 15.9506C5.88662 16.4192 5.88662 17.1801 6.35515 17.6486C6.82368 18.1171 7.58457 18.1171 8.0531 17.6486L12 13.698L15.9506 17.6449C16.4192 18.1134 17.1801 18.1134 17.6486 17.6449C18.1171 17.1763 18.1171 16.4154 17.6486 15.9469L13.698 12L17.6449 8.04935Z" fill="black" fill-opacity="0.45"/>
</svg>
