<svg width="24" height="24" viewBox="0 0 24 24" fill="none" xmlns="http://www.w3.org/2000/svg">
<path d="M15.405 7.43248C14.6813 7.75498 13.83 7.56373 13.3088 6.96373C12.48 6.00373 11.2613 5.39998 9.9 5.39998C7.41375 5.39998 5.4 7.41373 5.4 9.89998V9.90747C5.4 10.6725 4.92 11.3512 4.2 11.6062C2.7975 12.1012 1.8 13.4362 1.8 15C1.8 16.9875 3.4125 18.6 5.4 18.6H18.9H19.0238C19.0462 18.5962 19.0725 18.5962 19.095 18.5925C20.8275 18.4912 22.2 17.055 22.2 15.3C22.2 13.95 21.39 12.7837 20.22 12.2737C19.4663 11.9437 19.035 11.1487 19.1663 10.335C19.1888 10.1925 19.2 10.0462 19.2 9.89622C19.2 8.40373 17.9925 7.19623 16.5 7.19623C16.1063 7.19623 15.735 7.27873 15.405 7.42873V7.43248ZM19.2 20.3925V20.4H18.9H17.4H5.4C2.41875 20.4 0 17.9812 0 15C0 12.6487 1.50375 10.65 3.6 9.90747V9.89998C3.6 6.41998 6.42 3.59998 9.9 3.59998C11.8088 3.59998 13.515 4.44748 14.6737 5.78623C15.2325 5.53873 15.8475 5.39998 16.5 5.39998C18.9862 5.39998 21 7.41373 21 9.89998C21 10.1475 20.9813 10.3875 20.9438 10.6237C22.7438 11.4112 24 13.2075 24 15.3C24 18.015 21.8775 20.235 19.2 20.3925Z" fill="black" fill-opacity="0.45"/>
</svg>
