<svg width="24" height="24" viewBox="0 0 24 24" fill="none" xmlns="http://www.w3.org/2000/svg">
<path d="M13.3088 6.96385C13.8263 7.56385 14.6775 7.7551 15.405 7.4326C15.7388 7.28635 16.1063 7.2001 16.5 7.2001C17.9925 7.2001 19.2 8.4076 19.2 9.9001C19.2 10.0501 19.1888 10.1963 19.1663 10.3388C19.035 11.1488 19.47 11.9476 20.22 12.2776C21.39 12.7838 22.2 13.9501 22.2 15.3001C22.2 17.0551 20.8275 18.4951 19.095 18.5926C19.0725 18.5926 19.0462 18.5963 19.0238 18.6001H18.9H5.4C3.4125 18.6001 1.8 16.9876 1.8 15.0001C1.8 13.4363 2.7975 12.1013 4.2 11.6063C4.92 11.3513 5.4 10.6726 5.4 9.9076V9.9001C5.4 7.41385 7.41375 5.4001 9.9 5.4001C11.2613 5.4001 12.48 6.00385 13.3088 6.96385ZM19.2 20.4001V20.3926C21.8775 20.2388 24 18.0188 24 15.3001C24 13.2113 22.7438 11.4113 20.9438 10.6238C20.9813 10.3876 21 10.1438 21 9.9001C21 7.41385 18.9862 5.4001 16.5 5.4001C15.8475 5.4001 15.2325 5.53885 14.6737 5.78635C13.515 4.4476 11.8088 3.6001 9.9 3.6001C6.42 3.6001 3.6 6.4201 3.6 9.9001V9.9076C1.50375 10.6501 0 12.6488 0 15.0001C0 17.9813 2.41875 20.4001 5.4 20.4001H17.4H18.9H19.2ZM8.3625 11.9626C8.01 12.3151 8.01 12.8851 8.3625 13.2338C8.715 13.5826 9.285 13.5863 9.63375 13.2338L11.0963 11.7713V16.8001C11.0963 17.2988 11.4975 17.7001 11.9963 17.7001C12.495 17.7001 12.8963 17.2988 12.8963 16.8001V11.7713L14.3588 13.2338C14.7113 13.5863 15.2812 13.5863 15.63 13.2338C15.9788 12.8813 15.9825 12.3113 15.63 11.9626L12.63 8.9626C12.2775 8.6101 11.7075 8.6101 11.3588 8.9626L8.35875 11.9626H8.3625Z" fill="black" fill-opacity="0.45"/>
</svg>
