<svg width="24" height="24" viewBox="0 0 24 24" fill="none" xmlns="http://www.w3.org/2000/svg">
<path d="M14.4 20.6999C14.4 21.0562 14.19 21.3787 13.8675 21.5212C13.545 21.6637 13.1625 21.6074 12.9 21.3674L9.89999 18.6674C9.70874 18.4949 9.60374 18.2549 9.60374 17.9999C9.60374 17.7449 9.71249 17.5012 9.89999 17.3324L12.9 14.6324C13.1625 14.3962 13.545 14.3362 13.8675 14.4787C14.19 14.6212 14.4 14.9437 14.4 15.2999V17.0999H15C16.4925 17.0999 17.7 15.8924 17.7 14.3999V8.26115C16.4812 7.87865 15.6 6.7424 15.6 5.3999C15.6 3.7424 16.9425 2.3999 18.6 2.3999C20.2575 2.3999 21.6 3.7424 21.6 5.3999C21.6 6.7424 20.7187 7.87865 19.5 8.26115V14.3999C19.5 16.8862 17.4862 18.8999 15 18.8999H14.4V20.6999ZM19.8 5.3999C19.8 5.08164 19.6736 4.77642 19.4485 4.55137C19.2235 4.32633 18.9183 4.1999 18.6 4.1999C18.2817 4.1999 17.9765 4.32633 17.7515 4.55137C17.5264 4.77642 17.4 5.08164 17.4 5.3999C17.4 5.71816 17.5264 6.02339 17.7515 6.24843C17.9765 6.47347 18.2817 6.5999 18.6 6.5999C18.9183 6.5999 19.2235 6.47347 19.4485 6.24843C19.6736 6.02339 19.8 5.71816 19.8 5.3999ZM9.59999 3.2999C9.59999 2.94365 9.80999 2.62115 10.1325 2.47865C10.455 2.33615 10.8375 2.3924 11.1 2.6324L14.1 5.3324C14.2912 5.5049 14.3962 5.7449 14.3962 5.9999C14.3962 6.2549 14.2875 6.49865 14.1 6.6674L11.1 9.3674C10.8375 9.60365 10.455 9.66365 10.1325 9.52115C9.80999 9.37865 9.59999 9.05615 9.59999 8.6999V6.8999H8.99999C7.50749 6.8999 6.29999 8.1074 6.29999 9.5999V15.7387C7.51874 16.1212 8.39999 17.2574 8.39999 18.5999C8.39999 20.2574 7.05749 21.5999 5.39999 21.5999C3.74249 21.5999 2.39999 20.2574 2.39999 18.5999C2.39999 17.2574 3.28124 16.1212 4.49999 15.7387V9.5999C4.49999 7.11365 6.51374 5.0999 8.99999 5.0999H9.59999V3.2999ZM4.19999 18.5999C4.19999 18.9182 4.32642 19.2234 4.55147 19.4484C4.77651 19.6735 5.08173 19.7999 5.39999 19.7999C5.71825 19.7999 6.02348 19.6735 6.24852 19.4484C6.47357 19.2234 6.59999 18.9182 6.59999 18.5999C6.59999 18.2816 6.47357 17.9764 6.24852 17.7514C6.02348 17.5263 5.71825 17.3999 5.39999 17.3999C5.08173 17.3999 4.77651 17.5263 4.55147 17.7514C4.32642 17.9764 4.19999 18.2816 4.19999 18.5999Z" fill="black" fill-opacity="0.45"/>
</svg>
