<svg width="24" height="24" viewBox="0 0 24 24" fill="none" xmlns="http://www.w3.org/2000/svg">
<g clip-path="url(#clip0_9_2194)">
<path d="M14.9663 2.44132C14.49 2.29507 13.9875 2.55757 13.8413 3.03382L8.44127 20.4338C8.29502 20.9101 8.55752 21.4126 9.03377 21.5588C9.51002 21.7051 10.0125 21.4426 10.1588 20.9663L15.5588 3.56632C15.705 3.09007 15.4425 2.58757 14.9663 2.44132ZM17.6438 6.88507C17.3025 7.24882 17.3213 7.81882 17.685 8.15632L21.7838 12.0001L17.685 15.8438C17.3213 16.1851 17.3025 16.7551 17.6438 17.1151C17.985 17.4751 18.555 17.4976 18.915 17.1563L23.715 12.6563C23.895 12.4876 24 12.2476 24 12.0001C24 11.7526 23.8988 11.5126 23.715 11.3438L18.915 6.84382C18.5513 6.50257 17.9813 6.52132 17.6438 6.88507ZM6.35627 6.88507C6.01502 6.52132 5.44502 6.50257 5.08502 6.84382L0.285015 11.3438C0.101265 11.5126 1.52588e-05 11.7526 1.52588e-05 12.0001C1.52588e-05 12.2476 0.101265 12.4876 0.285015 12.6563L5.08502 17.1563C5.44877 17.4976 6.01877 17.4788 6.35627 17.1151C6.69377 16.7513 6.67877 16.1813 6.31502 15.8438L2.21627 12.0001L6.31502 8.15632C6.67877 7.81507 6.69752 7.24507 6.35627 6.88507Z" fill="black" fill-opacity="0.45"/>
</g>
<defs>
<clipPath id="clip0_9_2194">
<rect width="24" height="24" fill="white"/>
</clipPath>
</defs>
</svg>
