<svg width="24" height="24" viewBox="0 0 24 24" fill="none" xmlns="http://www.w3.org/2000/svg">
<path d="M6.09374 12.45C4.61624 11.6175 4.19999 10.7513 4.19999 10.2C4.19999 9.6488 4.61624 8.78255 6.09374 7.95005C7.51499 7.1513 9.59999 6.60005 12 6.60005C14.4 6.60005 16.485 7.1513 17.9062 7.95005C19.3837 8.78255 19.8 9.6488 19.8 10.2C19.8 10.7513 19.3837 11.6175 17.9062 12.45C16.485 13.2488 14.4 13.8 12 13.8C9.59999 13.8 7.51499 13.2488 6.09374 12.45ZM12 4.80005C6.69749 4.80005 2.39999 7.2188 2.39999 10.2V12V14.4C2.39999 17.0513 6.69749 19.2 12 19.2C17.3025 19.2 21.6 17.0513 21.6 14.4V12V10.2C21.6 7.2188 17.3025 4.80005 12 4.80005ZM10.5 15.5363C10.9875 15.5775 11.49 15.6 12 15.6C12.51 15.6 13.0125 15.5775 13.5 15.5363V17.3363C13.0162 17.3775 12.5137 17.4 12 17.4C11.4862 17.4 10.9837 17.3775 10.5 17.3363V15.5363ZM9.29999 15.3863V17.19C8.41124 17.0438 7.60124 16.83 6.89999 16.5675V14.7788C7.63874 15.0413 8.44499 15.2475 9.29999 15.3863ZM4.19999 13.35C4.63499 13.6913 5.13749 14.0025 5.69999 14.2763V16.02C4.43249 15.3075 4.19999 14.655 4.19999 14.4V13.35ZM14.7 17.1863V15.3825C15.555 15.24 16.3612 15.0375 17.1 14.775V16.5638C16.3987 16.8263 15.5887 17.04 14.7 17.1863ZM18.3 16.0163V14.2725C18.8625 13.9988 19.365 13.6875 19.8 13.3463V14.3963C19.8 14.6513 19.5675 15.3038 18.3 16.0125V16.0163ZM12 9.30005C13.5075 9.30005 14.8387 9.49505 15.7612 9.7838C16.2037 9.92255 16.5075 10.0725 16.6875 10.2C16.5075 10.3275 16.2037 10.4738 15.7612 10.6163C14.8387 10.9088 13.5112 11.1 12 11.1C10.4887 11.1 9.16124 10.905 8.23874 10.6163C7.79624 10.4775 7.49249 10.3275 7.31249 10.2C7.49249 10.0725 7.79624 9.9263 8.23874 9.7838C9.16124 9.4913 10.4887 9.30005 12 9.30005ZM16.83 10.3275C16.8297 10.3266 16.8293 10.3256 16.8287 10.3248C16.8281 10.324 16.8273 10.3233 16.8265 10.3228C16.8256 10.3223 16.8246 10.3219 16.8236 10.3218C16.8226 10.3216 16.8216 10.3217 16.8206 10.3219C16.8196 10.3222 16.8187 10.3226 16.8179 10.3232C16.8171 10.3238 16.8164 10.3246 16.8159 10.3254C16.8153 10.3263 16.815 10.3273 16.8148 10.3283C16.8147 10.3293 16.8147 10.3303 16.815 10.3313C16.8155 10.3333 16.8168 10.335 16.8185 10.3361C16.8203 10.3371 16.8224 10.3374 16.8244 10.3369C16.8264 10.3364 16.8281 10.3352 16.8291 10.3334C16.8302 10.3316 16.8305 10.3295 16.83 10.3275ZM16.8262 10.08C16.8287 10.0796 16.8309 10.0781 16.8323 10.076C16.8337 10.0739 16.8342 10.0713 16.8337 10.0688C16.8332 10.0663 16.8318 10.0641 16.8297 10.0627C16.8276 10.0613 16.825 10.0608 16.8225 10.0613C16.8213 10.0615 16.8201 10.062 16.819 10.0627C16.818 10.0634 16.8171 10.0643 16.8164 10.0654C16.815 10.0675 16.8145 10.0701 16.815 10.0725C16.8155 10.075 16.817 10.0772 16.8191 10.0786C16.8212 10.08 16.8238 10.0805 16.8262 10.08ZM7.17374 10.0725C7.17399 10.0735 7.17443 10.0745 7.17503 10.0753C7.17564 10.0761 7.1764 10.0768 7.17727 10.0773C7.17814 10.0778 7.1791 10.0782 7.18011 10.0783C7.18111 10.0785 7.18213 10.0784 7.18312 10.0782C7.1841 10.0779 7.18503 10.0775 7.18585 10.0769C7.18666 10.0763 7.18735 10.0755 7.18787 10.0747C7.1884 10.0738 7.18874 10.0728 7.18889 10.0718C7.18904 10.0708 7.18899 10.0698 7.18874 10.0688C7.1885 10.0678 7.18806 10.0669 7.18746 10.0661C7.18685 10.0653 7.18609 10.0646 7.18522 10.064C7.18435 10.0635 7.18339 10.0632 7.18238 10.063C7.18138 10.0629 7.18035 10.0629 7.17937 10.0632C7.17838 10.0634 7.17746 10.0639 7.17664 10.0645C7.17583 10.0651 7.17514 10.0658 7.17461 10.0667C7.17409 10.0676 7.17375 10.0685 7.1736 10.0695C7.17345 10.0705 7.1735 10.0716 7.17374 10.0725ZM7.17749 10.32C7.17626 10.3203 7.17509 10.3208 7.17405 10.3215C7.17301 10.3222 7.17211 10.3231 7.17141 10.3241C7.17072 10.3252 7.17023 10.3263 7.16999 10.3276C7.16975 10.3288 7.16975 10.3301 7.16999 10.3313C7.17024 10.3325 7.17073 10.3337 7.17143 10.3347C7.17212 10.3358 7.17302 10.3367 7.17407 10.3374C7.17511 10.3381 7.17628 10.3386 7.17751 10.3388C7.17875 10.339 7.18001 10.339 7.18124 10.3388C7.18373 10.3383 7.18592 10.3368 7.18732 10.3347C7.18873 10.3326 7.18924 10.33 7.18874 10.3275C7.18825 10.3251 7.18678 10.3229 7.18467 10.3215C7.18256 10.3201 7.17998 10.3196 7.17749 10.32ZM18.6 10.2C18.6 9.5363 18.1762 9.0638 17.79 8.7788C17.3887 8.4788 16.8675 8.2463 16.3012 8.07005C15.1612 7.71005 13.6387 7.50005 12 7.50005C10.3612 7.50005 8.83874 7.71005 7.69874 8.07005C7.13249 8.25005 6.61124 8.4788 6.20999 8.7788C5.82374 9.0638 5.39999 9.5363 5.39999 10.2C5.39999 10.8638 5.82374 11.3363 6.20999 11.6213C6.61124 11.9213 7.13249 12.1538 7.69874 12.33C8.83874 12.69 10.3612 12.9 12 12.9C13.6387 12.9 15.1612 12.69 16.3012 12.33C16.8675 12.15 17.3887 11.9213 17.79 11.6213C18.1762 11.3325 18.6 10.8638 18.6 10.2Z" fill="black" fill-opacity="0.45"/>
</svg>
