<svg width="24" height="24" viewBox="0 0 24 24" fill="none" xmlns="http://www.w3.org/2000/svg">
<path d="M16.8 5.4001V18.6001H21.6C21.93 18.6001 22.2 18.3301 22.2 18.0001V6.0001C22.2 5.6701 21.93 5.4001 21.6 5.4001H16.8ZM15 5.4001H9V18.6001H15V5.4001ZM7.2 18.6001V5.4001H2.4C2.07 5.4001 1.8 5.6701 1.8 6.0001V18.0001C1.8 18.3301 2.07 18.6001 2.4 18.6001H7.2ZM0 6.0001C0 4.67635 1.07625 3.6001 2.4 3.6001H21.6C22.9238 3.6001 24 4.67635 24 6.0001V18.0001C24 19.3238 22.9238 20.4001 21.6 20.4001H2.4C1.07625 20.4001 0 19.3238 0 18.0001V6.0001Z" fill="black" fill-opacity="0.45"/>
</svg>
