<svg width="24" height="24" viewBox="0 0 24 24" fill="none" xmlns="http://www.w3.org/2000/svg">
<g clip-path="url(#clip0_9_2199)">
<path d="M3.3075 13.9912C3.675 13.3049 3.5625 12.4612 3.02625 11.8987C2.2275 11.0587 1.8 10.0499 1.8 8.9999C1.8 6.61865 4.1925 4.1999 7.8 4.1999C11.4075 4.1999 13.8 6.61865 13.8 8.9999C13.8 11.3812 11.4075 13.7999 7.8 13.7999C7.30875 13.7999 6.8325 13.7512 6.3825 13.6649C5.9925 13.5899 5.5875 13.6424 5.23125 13.8224C5.0775 13.9012 4.92 13.9762 4.75875 14.0474C4.15875 14.3174 3.525 14.5537 2.8875 14.7224C2.9925 14.5499 3.09 14.3812 3.18375 14.2124C3.225 14.1412 3.26625 14.0662 3.30375 13.9912H3.3075ZM5.74568e-07 8.9999C5.74568e-07 10.5674 0.645001 12.0037 1.72125 13.1362C1.6875 13.1999 1.65 13.2674 1.61625 13.3274C1.23 14.0174 0.780001 14.6962 0.243751 15.2812C-0.00374942 15.5437 -0.0674994 15.9262 0.0712506 16.2524C0.217501 16.5862 0.540001 16.7999 0.900001 16.7999C2.5125 16.7999 4.14375 16.3012 5.50125 15.6862C5.68125 15.6037 5.86125 15.5174 6.03375 15.4312C6.6 15.5437 7.1925 15.5999 7.8 15.5999C12.1088 15.5999 15.6 12.6449 15.6 8.9999C15.6 5.3549 12.1088 2.3999 7.8 2.3999C3.49125 2.3999 5.74568e-07 5.3549 5.74568e-07 8.9999ZM16.2 20.3999C16.8075 20.3999 17.3963 20.3399 17.9663 20.2312C18.1388 20.3174 18.3188 20.4037 18.4988 20.4862C19.8563 21.1012 21.4875 21.5999 23.1 21.5999C23.46 21.5999 23.7825 21.3862 23.925 21.0562C24.0675 20.7262 24 20.3437 23.7525 20.0849C23.22 19.4999 22.77 18.8212 22.38 18.1312C22.3463 18.0674 22.3088 18.0037 22.275 17.9399C23.355 16.8037 24 15.3674 24 13.7999C24 10.2599 20.7038 7.36865 16.5675 7.2074C16.7213 7.7774 16.8 8.3774 16.8 8.9999V9.0224C20.07 9.27365 22.2 11.5537 22.2 13.7999C22.2 14.8499 21.7725 15.8587 20.9738 16.6949C20.4375 17.2574 20.325 18.1049 20.6925 18.7874C20.7338 18.8624 20.775 18.9374 20.8125 19.0087C20.9062 19.1774 21.0075 19.3462 21.1088 19.5187C20.4713 19.3499 19.8375 19.1174 19.2375 18.8437C19.0763 18.7724 18.9188 18.6974 18.765 18.6187C18.4088 18.4387 18.0038 18.3862 17.6138 18.4612C17.16 18.5512 16.6875 18.5962 16.1963 18.5962C13.8825 18.5962 12.0713 17.6024 11.0663 16.2599C10.4663 16.4624 9.83625 16.6124 9.19125 16.7024C10.4625 18.8924 13.125 20.3999 16.2 20.3999Z" fill="black" fill-opacity="0.45"/>
</g>
<defs>
<clipPath id="clip0_9_2199">
<rect width="24" height="24" fill="white"/>
</clipPath>
</defs>
</svg>
