<svg width="24" height="24" viewBox="0 0 24 24" fill="none" xmlns="http://www.w3.org/2000/svg">
<path d="M7.03497 17.0737C7.51872 16.7212 8.14497 16.6312 8.70747 16.8337C9.70122 17.1937 10.815 17.4 12 17.4C16.6762 17.4 19.8 14.3812 19.8 11.4C19.8 8.41873 16.6762 5.39998 12 5.39998C7.32372 5.39998 4.19997 8.41873 4.19997 11.4C4.19997 12.6 4.66497 13.755 5.53872 14.745C5.86122 15.1087 6.01872 15.5887 5.98122 16.0762C5.92872 16.755 5.76747 17.3775 5.55747 17.9287C6.19497 17.6325 6.72372 17.3025 7.03497 17.0775V17.0737ZM3.19497 18.5962C3.26247 18.495 3.32622 18.3937 3.38622 18.2925C3.76122 17.67 4.11747 16.8525 4.18872 15.9337C3.06372 14.655 2.39997 13.0912 2.39997 11.4C2.39997 7.09123 6.69747 3.59998 12 3.59998C17.3025 3.59998 21.6 7.09123 21.6 11.4C21.6 15.7087 17.3025 19.2 12 19.2C10.6087 19.2 9.28872 18.96 8.09622 18.5287C7.64997 18.855 6.92247 19.3012 6.05997 19.6762C5.49372 19.9237 4.84872 20.1487 4.18122 20.28C4.15122 20.2875 4.12122 20.2912 4.09122 20.2987C3.92622 20.3287 3.76497 20.355 3.59622 20.37C3.58872 20.37 3.57747 20.3737 3.56997 20.3737C3.37872 20.3925 3.18747 20.4037 2.99622 20.4037C2.75247 20.4037 2.53497 20.2575 2.44122 20.0325C2.34747 19.8075 2.39997 19.5525 2.56872 19.38C2.72247 19.2225 2.86122 19.0537 2.99247 18.8737C3.05622 18.7875 3.11622 18.7012 3.17247 18.615C3.17622 18.6075 3.17997 18.6037 3.18372 18.5962H3.19497Z" fill="black" fill-opacity="0.45"/>
</svg>
