<svg width="24" height="24" viewBox="0 0 24 24" fill="none" xmlns="http://www.w3.org/2000/svg">
<path d="M11.715 20.4001C11.2725 19.9051 10.9613 19.2863 10.8488 18.6001H4.5C4.00125 18.6001 3.6 19.0013 3.6 19.5001C3.6 19.9988 4.00125 20.4001 4.5 20.4001H11.715ZM2.4 3.6001C1.07625 3.6001 0 4.67635 0 6.0001V14.4001C0 15.7238 1.07625 16.8001 2.4 16.8001H10.8V15.0001H2.4C2.07 15.0001 1.8 14.7301 1.8 14.4001V6.0001C1.8 5.6701 2.07 5.4001 2.4 5.4001H10.8488C10.965 4.71385 11.2725 4.0951 11.715 3.6001H2.4ZM21.6 5.4001C21.93 5.4001 22.2 5.6701 22.2 6.0001V18.0001C22.2 18.3301 21.93 18.6001 21.6 18.6001H14.4C14.07 18.6001 13.8 18.3301 13.8 18.0001V6.0001C13.8 5.6701 14.07 5.4001 14.4 5.4001H21.6ZM14.4 3.6001C13.0763 3.6001 12 4.67635 12 6.0001V18.0001C12 19.3238 13.0763 20.4001 14.4 20.4001H21.6C22.9238 20.4001 24 19.3238 24 18.0001V6.0001C24 4.67635 22.9238 3.6001 21.6 3.6001H14.4ZM18 9.0001C18.3183 9.0001 18.6235 8.87367 18.8485 8.64863C19.0736 8.42358 19.2 8.11836 19.2 7.8001C19.2 7.48184 19.0736 7.17661 18.8485 6.95157C18.6235 6.72653 18.3183 6.6001 18 6.6001C17.6817 6.6001 17.3765 6.72653 17.1515 6.95157C16.9264 7.17661 16.8 7.48184 16.8 7.8001C16.8 8.11836 16.9264 8.42358 17.1515 8.64863C17.3765 8.87367 17.6817 9.0001 18 9.0001ZM16.8 14.4001C16.8 14.0818 16.9264 13.7766 17.1515 13.5516C17.3765 13.3265 17.6817 13.2001 18 13.2001C18.3183 13.2001 18.6235 13.3265 18.8485 13.5516C19.0736 13.7766 19.2 14.0818 19.2 14.4001C19.2 14.7184 19.0736 15.0236 18.8485 15.2486C18.6235 15.4737 18.3183 15.6001 18 15.6001C17.6817 15.6001 17.3765 15.4737 17.1515 15.2486C16.9264 15.0236 16.8 14.7184 16.8 14.4001ZM21 14.4001C21 13.6044 20.6839 12.8414 20.1213 12.2788C19.5587 11.7162 18.7957 11.4001 18 11.4001C17.2044 11.4001 16.4413 11.7162 15.8787 12.2788C15.3161 12.8414 15 13.6044 15 14.4001C15 15.1957 15.3161 15.9588 15.8787 16.5214C16.4413 17.084 17.2044 17.4001 18 17.4001C18.7957 17.4001 19.5587 17.084 20.1213 16.5214C20.6839 15.9588 21 15.1957 21 14.4001Z" fill="black" fill-opacity="0.45"/>
</svg>
