<svg width="24" height="24" viewBox="0 0 24 24" fill="none" xmlns="http://www.w3.org/2000/svg">
<path d="M19.8 11.9999C19.8 9.93121 18.9782 7.94725 17.5154 6.48447C16.0527 5.02169 14.0687 4.1999 12 4.1999C9.93132 4.1999 7.94736 5.02169 6.48458 6.48447C5.02179 7.94725 4.20001 9.93121 4.20001 11.9999C4.20001 14.0686 5.02179 16.0526 6.48458 17.5153C7.94736 18.9781 9.93132 19.7999 12 19.7999C14.0687 19.7999 16.0527 18.9781 17.5154 17.5153C18.9782 16.0526 19.8 14.0686 19.8 11.9999ZM2.40001 11.9999C2.40001 9.45382 3.41144 7.01203 5.21178 5.21168C7.01213 3.41133 9.45393 2.3999 12 2.3999C14.5461 2.3999 16.9879 3.41133 18.7882 5.21168C20.5886 7.01203 21.6 9.45382 21.6 11.9999C21.6 14.546 20.5886 16.9878 18.7882 18.7881C16.9879 20.5885 14.5461 21.5999 12 21.5999C9.45393 21.5999 7.01213 20.5885 5.21178 18.7881C3.41144 16.9878 2.40001 14.546 2.40001 11.9999ZM13.9013 14.5912L8.49001 16.6724C7.76251 16.9537 7.04626 16.2374 7.32751 15.5099L9.40876 10.0987C9.53251 9.7799 9.78001 9.5324 10.0988 9.40865L15.51 7.3274C16.2375 7.04615 16.9538 7.7624 16.6725 8.4899L14.5913 13.9012C14.4713 14.2199 14.22 14.4674 13.9013 14.5912ZM13.2 11.9999C13.2 11.6816 13.0736 11.3764 12.8485 11.1514C12.6235 10.9263 12.3183 10.7999 12 10.7999C11.6817 10.7999 11.3765 10.9263 11.1515 11.1514C10.9264 11.3764 10.8 11.6816 10.8 11.9999C10.8 12.3182 10.9264 12.6234 11.1515 12.8484C11.3765 13.0735 11.6817 13.1999 12 13.1999C12.3183 13.1999 12.6235 13.0735 12.8485 12.8484C13.0736 12.6234 13.2 12.3182 13.2 11.9999Z" fill="black" fill-opacity="0.45"/>
</svg>
