<svg width="24" height="24" viewBox="0 0 24 24" fill="none" xmlns="http://www.w3.org/2000/svg">
<path d="M18 4.1999C18.33 4.1999 18.6 4.4699 18.6 4.7999V16.1999C18.6 16.5299 18.33 16.7999 18 16.7999H6.00001C5.67001 16.7999 5.40001 16.5299 5.40001 16.1999V4.7999C5.40001 4.4699 5.67001 4.1999 6.00001 4.1999H18ZM6.00001 2.3999C4.67626 2.3999 3.60001 3.47615 3.60001 4.7999V16.1999C3.60001 17.0887 4.08376 17.8649 4.80001 18.2774V20.3999C4.80001 21.0637 5.33626 21.5999 6.00001 21.5999H18C18.6638 21.5999 19.2 21.0637 19.2 20.3999V18.2774C19.9163 17.8612 20.4 17.0887 20.4 16.1999V4.7999C20.4 3.47615 19.3238 2.3999 18 2.3999H6.00001ZM6.60001 18.5999H17.4V19.7999H6.60001V18.5999ZM6.60001 6.5999V10.1999C6.60001 10.8637 7.13626 11.3999 7.80001 11.3999H16.2C16.8638 11.3999 17.4 10.8637 17.4 10.1999V6.5999C17.4 5.93615 16.8638 5.3999 16.2 5.3999H7.80001C7.13626 5.3999 6.60001 5.93615 6.60001 6.5999ZM11.4 14.3999C11.4 14.7299 11.67 14.9999 12 14.9999H16.8C17.13 14.9999 17.4 14.7299 17.4 14.3999C17.4 14.0699 17.13 13.7999 16.8 13.7999H12C11.67 13.7999 11.4 14.0699 11.4 14.3999ZM8.10001 15.5999C8.3387 15.5999 8.56762 15.5051 8.7364 15.3363C8.90518 15.1675 9.00001 14.9386 9.00001 14.6999C9.00001 14.4612 8.90518 14.2323 8.7364 14.0635C8.56762 13.8947 8.3387 13.7999 8.10001 13.7999C7.86131 13.7999 7.63239 13.8947 7.46361 14.0635C7.29483 14.2323 7.20001 14.4612 7.20001 14.6999C7.20001 14.9386 7.29483 15.1675 7.46361 15.3363C7.63239 15.5051 7.86131 15.5999 8.10001 15.5999Z" fill="black" fill-opacity="0.45"/>
</svg>
