<svg width="24" height="24" viewBox="0 0 24 24" fill="none" xmlns="http://www.w3.org/2000/svg">
<path d="M18 14.9999H10.8C10.47 14.9999 10.2 14.7299 10.2 14.3999V4.7999C10.2 4.4699 10.47 4.1999 10.8 4.1999H16.0538L18.6 6.74615V14.3999C18.6 14.7299 18.33 14.9999 18 14.9999ZM10.8 16.7999H18C19.3238 16.7999 20.4 15.7237 20.4 14.3999V6.74615C20.4 6.2699 20.2088 5.8124 19.8713 5.4749L17.3288 2.92865C16.9913 2.59115 16.5338 2.3999 16.0575 2.3999H10.8C9.47626 2.3999 8.40001 3.47615 8.40001 4.7999V14.3999C8.40001 15.7237 9.47626 16.7999 10.8 16.7999ZM6.00001 7.1999C4.67626 7.1999 3.60001 8.27615 3.60001 9.5999V19.1999C3.60001 20.5237 4.67626 21.5999 6.00001 21.5999H13.2C14.5238 21.5999 15.6 20.5237 15.6 19.1999V17.9999H13.8V19.1999C13.8 19.5299 13.53 19.7999 13.2 19.7999H6.00001C5.67001 19.7999 5.40001 19.5299 5.40001 19.1999V9.5999C5.40001 9.2699 5.67001 8.9999 6.00001 8.9999H7.20001V7.1999H6.00001Z" fill="black" fill-opacity="0.45"/>
</svg>
