<svg width="24" height="24" viewBox="0 0 24 24" fill="none" xmlns="http://www.w3.org/2000/svg">
<path fill-rule="evenodd" clip-rule="evenodd" d="M10.8 14.9999H18C18.33 14.9999 18.6 14.7299 18.6 14.3999V6.74615L16.0538 4.1999H10.8C10.47 4.1999 10.2 4.4699 10.2 4.7999V14.3999C10.2 14.7299 10.47 14.9999 10.8 14.9999ZM18 16.7999H10.8C9.47626 16.7999 8.40001 15.7237 8.40001 14.3999V4.7999C8.40001 3.47615 9.47626 2.3999 10.8 2.3999H16.0575C16.5338 2.3999 16.9913 2.59115 17.3288 2.92865L19.8713 5.4749C20.2088 5.8124 20.4 6.2699 20.4 6.74615V14.3999C20.4 15.7237 19.3238 16.7999 18 16.7999ZM3.60001 9.5999C3.60001 8.27615 4.67626 7.1999 6.00001 7.1999H7.20001V8.9999H6.00001C5.67001 8.9999 5.40001 9.2699 5.40001 9.5999V19.1999C5.40001 19.5299 5.67001 19.7999 6.00001 19.7999H13.2C13.53 19.7999 13.8 19.5299 13.8 19.1999V17.9999H15.6V19.1999C15.6 20.5237 14.5238 21.5999 13.2 21.5999H6.00001C4.67626 21.5999 3.60001 20.5237 3.60001 19.1999V9.5999ZM16.3723 9.19994C16.6067 9.43434 16.6067 9.81502 16.3723 10.0494V10.0513L13.972 12.4516C13.7995 12.6222 13.5426 12.6748 13.3176 12.581C13.0925 12.4872 12.9463 12.2678 12.9463 12.0259V7.22531C12.9463 6.98153 13.0925 6.76401 13.3176 6.67024C13.5426 6.57648 13.7995 6.62711 13.972 6.79963L16.3723 9.19994Z" fill="black" fill-opacity="0.45"/>
</svg>
