<svg width="24" height="24" viewBox="0 0 24 24" fill="none" xmlns="http://www.w3.org/2000/svg">
<path d="M2.40751 6.8999C2.56501 4.3874 4.65001 2.3999 7.20001 2.3999H8.87626C9.14251 2.3999 9.27751 2.7224 9.09001 2.91365L7.71376 4.28615C7.52626 4.47365 7.65751 4.7999 7.92751 4.7999H9.30001C9.46501 4.7999 9.60376 4.9349 9.58126 5.0999C9.43501 6.2849 8.42251 7.1999 7.20001 7.1999H4.20001V8.44865C4.20001 8.80115 4.40251 9.1199 4.72126 9.26615L7.39876 10.4999C8.03251 10.0424 8.78626 9.73865 9.60001 9.6374V8.0999C9.60001 7.60115 10.0013 7.1999 10.5 7.1999C10.9988 7.1999 11.4 7.60115 11.4 8.0999V9.5999H12.6V8.0999C12.6 7.60115 13.0013 7.1999 13.5 7.1999C13.9988 7.1999 14.4 7.60115 14.4 8.0999V9.6374C15.2138 9.73865 15.9638 10.0462 16.6013 10.4999L19.2788 9.26615C19.5975 9.1199 19.8 8.80115 19.8 8.44865V7.1999H16.8C15.5775 7.1999 14.565 6.2849 14.4188 5.0999C14.4 4.9349 14.535 4.7999 14.7 4.7999H16.0763C16.3425 4.7999 16.4775 4.4774 16.29 4.28615L14.9138 2.91365C14.7263 2.72615 14.8575 2.3999 15.1275 2.3999H16.8C19.35 2.3999 21.435 4.3874 21.5925 6.8999C21.5925 6.90365 21.5925 6.91115 21.5925 6.9149L21.6 7.1999H21.3038H21.3H21.6V8.44865C21.6 9.5024 20.9888 10.4587 20.0325 10.9012L17.8913 11.8874C17.9738 12.0224 18.0488 12.1574 18.1163 12.2999H19.2863L20.295 11.7937C20.7413 11.5724 21.2813 11.7524 21.5025 12.1949C21.7238 12.6374 21.5438 13.1812 21.1013 13.4024L19.9013 14.0024C19.7775 14.0662 19.6388 14.0962 19.5 14.0962H18.5925C18.6 14.1937 18.6 14.2949 18.6 14.3962V14.4487L19.485 14.7449C19.6163 14.7899 19.7363 14.8649 19.8375 14.9624L21.0375 16.1624C21.39 16.5149 21.39 17.0849 21.0375 17.4337C20.685 17.7824 20.115 17.7862 19.7663 17.4337L18.7163 16.3837L17.5913 16.0087L16.9125 16.6874L18.285 17.1449C18.4163 17.1899 18.5363 17.2649 18.6375 17.3624L19.8375 18.5624C20.19 18.9149 20.19 19.4849 19.8375 19.8337C19.485 20.1824 18.915 20.1862 18.5663 19.8337L17.5163 18.7837L15.4913 18.1087L15.4088 18.1912L16.3388 18.7124C16.6238 18.8699 16.8 19.1737 16.8 19.4999V20.6999C16.8 21.1987 16.3988 21.5999 15.9 21.5999C15.4013 21.5999 15 21.1987 15 20.6999V20.0287L13.5713 19.2374C13.5488 19.2262 13.53 19.2149 13.5113 19.1999H10.4888C10.47 19.2112 10.4475 19.2262 10.4288 19.2374L9.00001 20.0287V20.6999C9.00001 21.1987 8.59876 21.5999 8.10001 21.5999C7.60126 21.5999 7.20001 21.1987 7.20001 20.6999V19.4999C7.20001 19.1737 7.37626 18.8737 7.66126 18.7124L8.59501 18.1949L8.51251 18.1124L6.48751 18.7874L5.43751 19.8374C5.08501 20.1899 4.51501 20.1899 4.16626 19.8374C3.81751 19.4849 3.81376 18.9149 4.16626 18.5662L5.36626 17.3662C5.46376 17.2687 5.58376 17.1937 5.71876 17.1487L7.08751 16.6874L6.41251 16.0124L5.28751 16.3874L4.23751 17.4374C3.88501 17.7899 3.31501 17.7899 2.96626 17.4374C2.61751 17.0849 2.61376 16.5149 2.96626 16.1662L4.16626 14.9662C4.26376 14.8687 4.38376 14.7937 4.51876 14.7487L5.40001 14.4524V14.3999C5.40001 14.2987 5.40376 14.1974 5.40751 14.0999H4.50001C4.36126 14.0999 4.22251 14.0662 4.09876 14.0062L2.89876 13.4062C2.45251 13.1812 2.27251 12.6412 2.49376 12.1987C2.71501 11.7562 3.25501 11.5724 3.70126 11.7974L4.71376 12.2999H5.88376C5.95126 12.1574 6.03001 12.0224 6.10876 11.8874L3.96751 10.9012C3.01126 10.4587 2.40001 9.5024 2.40001 8.44865V7.1999H2.70001H2.69626H2.40001L2.40751 6.9149C2.40751 6.91115 2.40751 6.90365 2.40751 6.8999ZM13.5 11.3999H10.5H10.2C8.59126 11.3999 7.27876 12.6674 7.20376 14.2574L10.3463 17.3999H13.6538L16.7963 14.2574C16.7213 12.6674 15.4088 11.3999 13.8 11.3999H13.5Z" fill="black" fill-opacity="0.45"/>
</svg>
