<svg width="24" height="24" viewBox="0 0 24 24" fill="none" xmlns="http://www.w3.org/2000/svg">
<path d="M20.4 5.4001C20.73 5.4001 21 5.6701 21 6.0001V7.2001H3V6.0001C3 5.6701 3.27 5.4001 3.6 5.4001H20.4ZM21 10.8001V18.0001C21 18.3301 20.73 18.6001 20.4 18.6001H3.6C3.27 18.6001 3 18.3301 3 18.0001V10.8001H21ZM3.6 3.6001C2.27625 3.6001 1.2 4.67635 1.2 6.0001V18.0001C1.2 19.3238 2.27625 20.4001 3.6 20.4001H20.4C21.7238 20.4001 22.8 19.3238 22.8 18.0001V6.0001C22.8 4.67635 21.7238 3.6001 20.4 3.6001H3.6ZM5.7 15.0001C5.20125 15.0001 4.8 15.4013 4.8 15.9001C4.8 16.3988 5.20125 16.8001 5.7 16.8001H7.5C7.99875 16.8001 8.4 16.3988 8.4 15.9001C8.4 15.4013 7.99875 15.0001 7.5 15.0001H5.7ZM10.5 15.0001C10.0013 15.0001 9.60001 15.4013 9.60001 15.9001C9.60001 16.3988 10.0013 16.8001 10.5 16.8001H14.7C15.1988 16.8001 15.6 16.3988 15.6 15.9001C15.6 15.4013 15.1988 15.0001 14.7 15.0001H10.5Z" fill="black" fill-opacity="0.45"/>
</svg>
