<svg width="24" height="24" viewBox="0 0 24 24" fill="none" xmlns="http://www.w3.org/2000/svg">
<path d="M9.00002 4.1999C9.00002 3.20615 9.80627 2.3999 10.8 2.3999H13.2C14.1938 2.3999 15 3.20615 15 4.1999V6.5999H17.4C18.3938 6.5999 19.2 7.40615 19.2 8.3999V10.7999C19.2 11.7937 18.3938 12.5999 17.4 12.5999H15V19.7999C15 20.7937 14.1938 21.5999 13.2 21.5999H10.8C9.80627 21.5999 9.00002 20.7937 9.00002 19.7999V12.5999H6.60002C5.60627 12.5999 4.80002 11.7937 4.80002 10.7999V8.3999C4.80002 7.40615 5.60627 6.5999 6.60002 6.5999H9.00002V4.1999ZM13.2 4.1999H10.8V7.4999C10.8 7.99865 10.3988 8.3999 9.90002 8.3999H6.60002V10.7999H9.90002C10.3988 10.7999 10.8 11.2012 10.8 11.6999V19.7999H13.2V11.6999C13.2 11.2012 13.6013 10.7999 14.1 10.7999H17.4V8.3999H14.1C13.6013 8.3999 13.2 7.99865 13.2 7.4999V4.1999Z" fill="black" fill-opacity="0.45"/>
</svg>
