<svg width="24" height="24" viewBox="0 0 24 24" fill="none" xmlns="http://www.w3.org/2000/svg">
<path d="M18.6 5.6249V8.95115C18.1012 9.22115 17.415 9.48365 16.545 9.6974C15.2737 10.0124 13.7062 10.1999 12 10.1999C10.2937 10.1999 8.72624 10.0124 7.45499 9.6974C6.58499 9.48365 5.89874 9.2249 5.39999 8.95115V5.6249L5.42249 5.60615C5.62124 5.4374 6.01874 5.2049 6.66749 4.9724C7.94624 4.51865 9.83249 4.1999 12 4.1999C14.1675 4.1999 16.0537 4.51865 17.3325 4.9724C17.9812 5.2049 18.375 5.4374 18.5775 5.60615L18.6 5.6249ZM18.6 10.9312V13.7512C18.1012 14.0212 17.415 14.2837 16.545 14.4974C15.2737 14.8124 13.7062 14.9999 12 14.9999C10.2937 14.9999 8.72624 14.8124 7.45499 14.4974C6.58499 14.2837 5.89874 14.0249 5.39999 13.7512V10.9349C5.89874 11.1337 6.44624 11.3062 7.02374 11.4487C8.45624 11.7974 10.17 11.9999 12 11.9999C13.83 11.9999 15.5437 11.7974 16.9762 11.4449C17.5537 11.3024 18.1012 11.1337 18.6 10.9312ZM5.39999 18.3749V15.7349C5.89874 15.9337 6.44624 16.1062 7.02374 16.2487C8.45624 16.5974 10.17 16.7999 12 16.7999C13.83 16.7999 15.5437 16.5974 16.9762 16.2449C17.5537 16.1024 18.1012 15.9337 18.6 15.7312V18.3749L18.5775 18.3937C18.3787 18.5624 17.9812 18.7949 17.3325 19.0274C16.0537 19.4812 14.1675 19.7999 12 19.7999C9.83249 19.7999 7.94624 19.4812 6.66749 19.0274C6.01874 18.7949 5.62499 18.5624 5.42249 18.3937L5.39999 18.3749ZM18.6787 18.2962C18.6787 18.2962 18.6787 18.2999 18.6712 18.3037L18.675 18.2962V18.2924L18.6787 18.2962ZM5.32499 18.2962C5.32548 18.2976 5.32626 18.299 5.32728 18.3002C5.3283 18.3013 5.32954 18.3023 5.33094 18.303C5.33233 18.3037 5.33385 18.3041 5.3354 18.3042C5.33695 18.3043 5.33851 18.3041 5.33999 18.3037C5.34147 18.3032 5.34283 18.3024 5.34401 18.3014C5.34519 18.3003 5.34615 18.2991 5.34685 18.2977C5.34754 18.2963 5.34796 18.2948 5.34807 18.2932C5.34818 18.2917 5.34798 18.2901 5.34749 18.2887C5.347 18.2872 5.34622 18.2858 5.3452 18.2846C5.34418 18.2835 5.34294 18.2825 5.34154 18.2818C5.34015 18.2811 5.33863 18.2807 5.33708 18.2806C5.33553 18.2805 5.33397 18.2807 5.33249 18.2812C5.33101 18.2816 5.32965 18.2824 5.32847 18.2834C5.32729 18.2845 5.32633 18.2857 5.32563 18.2871C5.32494 18.2885 5.32452 18.29 5.32441 18.2916C5.3243 18.2931 5.3245 18.2947 5.32499 18.2962ZM5.32499 5.70365C5.32357 5.70493 5.3225 5.70655 5.32188 5.70836C5.32126 5.71017 5.32111 5.7121 5.32145 5.71398C5.32178 5.71587 5.32259 5.71763 5.3238 5.71911C5.32501 5.72059 5.32657 5.72174 5.32835 5.72245C5.33012 5.72316 5.33205 5.72341 5.33394 5.72317C5.33584 5.72293 5.33764 5.72221 5.33918 5.72108C5.34072 5.71995 5.34195 5.71844 5.34275 5.71671C5.34354 5.71497 5.34389 5.71306 5.34374 5.71115C5.34516 5.70987 5.34623 5.70825 5.34685 5.70645C5.34747 5.70464 5.34762 5.7027 5.34728 5.70082C5.34695 5.69894 5.34614 5.69717 5.34493 5.69569C5.34372 5.69421 5.34216 5.69306 5.34039 5.69235C5.33861 5.69164 5.33669 5.6914 5.33479 5.69164C5.33289 5.69188 5.33109 5.6926 5.32955 5.69373C5.32801 5.69486 5.32678 5.69636 5.32599 5.6981C5.32519 5.69984 5.32485 5.70175 5.32499 5.70365ZM18.675 5.69615C18.672 5.69566 18.6689 5.69636 18.6665 5.69812C18.664 5.69988 18.6624 5.70254 18.6619 5.70553C18.6614 5.70851 18.6621 5.71157 18.6638 5.71403C18.6656 5.71649 18.6683 5.71816 18.6712 5.71865C18.6727 5.7189 18.6742 5.71885 18.6757 5.71851C18.6771 5.71818 18.6785 5.71755 18.6797 5.71668C18.681 5.71581 18.682 5.71471 18.6828 5.71344C18.6836 5.71217 18.6841 5.71075 18.6844 5.70928C18.6846 5.7078 18.6846 5.70629 18.6842 5.70483C18.6839 5.70337 18.6833 5.70199 18.6824 5.70077C18.6815 5.69955 18.6804 5.69852 18.6792 5.69773C18.6779 5.69693 18.6765 5.6964 18.675 5.69615ZM20.4 18.5999V5.3999C20.4 3.7424 16.6387 2.3999 12 2.3999C7.36124 2.3999 3.59999 3.7424 3.59999 5.3999V18.5999C3.59999 20.2574 7.36124 21.5999 12 21.5999C16.6387 21.5999 20.4 20.2574 20.4 18.5999Z" fill="black" fill-opacity="0.45"/>
</svg>
