<svg width="24" height="24" viewBox="0 0 24 24" fill="none" xmlns="http://www.w3.org/2000/svg">
<path d="M10.125 18.3713C8.3325 16.8301 7.2 14.5463 7.2 12.0001C7.2 9.45385 8.33625 7.1701 10.125 5.62885C9.57375 5.47885 8.99625 5.4001 8.4 5.4001C4.755 5.4001 1.8 8.3551 1.8 12.0001C1.8 15.6451 4.755 18.6001 8.4 18.6001C8.99625 18.6001 9.5775 18.5213 10.125 18.3713ZM9.45 14.4001H14.55C14.7713 13.8338 14.9175 13.2301 14.9738 12.6001H9.02625C9.0825 13.2301 9.22875 13.8338 9.45 14.4001ZM10.0688 15.6001C10.5712 16.3726 11.2313 17.0288 12 17.5313C12.7725 17.0288 13.4288 16.3688 13.9313 15.6001H10.0688ZM9.45 9.6001C9.22875 10.1663 9.0825 10.7701 9.02625 11.4001H14.9738C14.9175 10.7701 14.7713 10.1663 14.55 9.6001H9.45ZM13.9313 8.4001C13.4288 7.6276 12.7688 6.97135 12 6.46885C11.2275 6.97135 10.5712 7.63135 10.0688 8.4001H13.9313ZM12 19.5901C10.9088 20.1076 9.69 20.4001 8.4 20.4001C3.76125 20.4001 0 16.6388 0 12.0001C0 7.36135 3.76125 3.6001 8.4 3.6001C9.69 3.6001 10.9088 3.88885 12 4.4101C13.0913 3.88885 14.31 3.6001 15.6 3.6001C20.2388 3.6001 24 7.36135 24 12.0001C24 16.6388 20.2388 20.4001 15.6 20.4001C14.31 20.4001 13.0913 20.1113 12 19.5901Z" fill="black" fill-opacity="0.45"/>
</svg>
