<svg width="24" height="24" viewBox="0 0 24 24" fill="none" xmlns="http://www.w3.org/2000/svg">
<path d="M5.4 8.3999C5.4 8.89865 5.48625 9.3749 5.64375 9.8174C5.79 10.2224 5.62875 10.6724 5.26125 10.8937L4.53 11.3324L4.07625 10.5712L4.53 11.3287C4.32375 11.4524 4.2 11.6737 4.2 11.9137C4.2 12.2924 4.5075 12.5962 4.8825 12.5962H9.6H10.5H11.7338C11.97 12.5962 12.195 12.6899 12.3638 12.8512L13.8 14.2612V13.4999C13.8 13.0012 14.2013 12.5999 14.7 12.5999H15.3C17.1225 12.5999 18.6 14.0774 18.6 15.8999V16.1999C18.6 16.2337 18.6 16.2674 18.6 16.2974C19.3463 15.5024 19.8 14.4374 19.8 13.2599C19.8 10.9799 18.96 8.9024 17.5725 7.30865C17.3025 7.00115 17.2763 6.5474 17.5088 6.2099C17.8988 5.63615 18.3863 4.87865 18.6863 4.26365C17.6625 4.41365 16.4963 4.7999 15.5288 5.18615C15.2888 5.2799 15.0225 5.26865 14.7938 5.15615C13.5713 4.5449 12.195 4.1999 10.7363 4.1999H9.6C7.27875 4.1999 5.4 6.07865 5.4 8.3999ZM12.8138 17.6999H15.3C16.1288 17.6999 16.8 17.0287 16.8 16.1999V15.8999C16.8 15.1724 16.2863 14.5687 15.6 14.4299V14.5012C15.6 15.4387 14.8388 16.1999 13.9013 16.1999C13.4588 16.1999 13.0313 16.0274 12.7125 15.7162L11.3663 14.3999H10.5H9.6H4.8825C3.51 14.3999 2.4 13.2899 2.4 11.9174C2.4 11.0437 2.8575 10.2374 3.60375 9.7874L3.7425 9.7049C3.64875 9.2849 3.6 8.84615 3.6 8.3999C3.6 5.0849 6.285 2.3999 9.6 2.3999H10.7363C12.3375 2.3999 13.86 2.74865 15.2325 3.37115C16.4588 2.90615 18.1013 2.3999 19.5 2.3999C19.7925 2.3999 20.1713 2.4899 20.445 2.82365C20.6963 3.1274 20.7263 3.47615 20.7188 3.69365C20.7038 4.1174 20.5238 4.57115 20.355 4.9349C20.0925 5.4974 19.7138 6.1274 19.365 6.6674C20.7675 8.49365 21.6 10.7812 21.6 13.2637C21.6 16.7062 18.8063 19.4999 15.3638 19.4999H15.3H12.8138C12.0675 20.7937 10.6838 21.5999 9.17625 21.5999H9C8.79375 21.5999 8.59875 21.4912 8.49 21.3149C8.38125 21.1387 8.37 20.9174 8.46375 20.7299L9.52875 18.5999L8.46375 16.4699C8.37 16.2824 8.38125 16.0612 8.49 15.8849C8.59875 15.7087 8.79375 15.5999 9 15.5999H9.17625C10.6838 15.5999 12.0675 16.4062 12.8138 17.6999ZM7.5 8.3999C7.5 8.16121 7.59482 7.93229 7.76361 7.76351C7.93239 7.59472 8.16131 7.4999 8.4 7.4999C8.6387 7.4999 8.86762 7.59472 9.0364 7.76351C9.20518 7.93229 9.3 8.16121 9.3 8.3999C9.3 8.6386 9.20518 8.86752 9.0364 9.0363C8.86762 9.20508 8.6387 9.2999 8.4 9.2999C8.16131 9.2999 7.93239 9.20508 7.76361 9.0363C7.59482 8.86752 7.5 8.6386 7.5 8.3999Z" fill="black" fill-opacity="0.45"/>
</svg>
