<svg width="24" height="24" viewBox="0 0 24 24" fill="none" xmlns="http://www.w3.org/2000/svg">
<path d="M12.9 3.30002C12.9 2.80127 12.4987 2.40002 12 2.40002C11.5012 2.40002 11.1 2.80127 11.1 3.30002V13.4288L7.53749 9.86627C7.18499 9.51377 6.61499 9.51377 6.26624 9.86627C5.91749 10.2188 5.91374 10.7888 6.26624 11.1375L11.3625 16.2375C11.715 16.59 12.285 16.59 12.6337 16.2375L17.7375 11.1375C18.09 10.785 18.09 10.215 17.7375 9.86627C17.385 9.51752 16.815 9.51377 16.4662 9.86627L12.9037 13.4288V3.30002H12.9ZM7.22999 13.8H4.79999C3.47624 13.8 2.39999 14.8763 2.39999 16.2V19.2C2.39999 20.5238 3.47624 21.6 4.79999 21.6H19.2C20.5237 21.6 21.6 20.5238 21.6 19.2V16.2C21.6 14.8763 20.5237 13.8 19.2 13.8H16.77L14.97 15.6H19.2C19.53 15.6 19.8 15.87 19.8 16.2V19.2C19.8 19.53 19.53 19.8 19.2 19.8H4.79999C4.46999 19.8 4.19999 19.53 4.19999 19.2V16.2C4.19999 15.87 4.46999 15.6 4.79999 15.6H9.02999L7.22999 13.8ZM18.6 17.7C18.6 17.4613 18.5052 17.2324 18.3364 17.0636C18.1676 16.8948 17.9387 16.8 17.7 16.8C17.4613 16.8 17.2324 16.8948 17.0636 17.0636C16.8948 17.2324 16.8 17.4613 16.8 17.7C16.8 17.9387 16.8948 18.1676 17.0636 18.3364C17.2324 18.5052 17.4613 18.6 17.7 18.6C17.9387 18.6 18.1676 18.5052 18.3364 18.3364C18.5052 18.1676 18.6 17.9387 18.6 17.7Z" fill="black" fill-opacity="0.45"/>
</svg>
