<svg width="24" height="24" viewBox="0 0 24 24" fill="none" xmlns="http://www.w3.org/2000/svg">
<path d="M12 19.7999C9.01875 19.7999 6.6 17.3812 6.6 14.3999C6.6 13.9124 6.79125 13.1437 7.2375 12.1087C7.66875 11.1112 8.2725 10.0162 8.94375 8.9324C10.0313 7.1774 11.2313 5.5499 12 4.5449C12.7688 5.54615 13.9725 7.1774 15.0563 8.9324C15.7275 10.0162 16.3313 11.1074 16.7625 12.1087C17.2088 13.1437 17.4 13.9162 17.4 14.3999C17.4 17.3812 14.9813 19.7999 12 19.7999ZM4.8 14.3999C4.8 18.3749 8.025 21.5999 12 21.5999C15.975 21.5999 19.2 18.3749 19.2 14.3999C19.2 10.9799 14.3175 4.56365 12.9525 2.83865C12.7275 2.5574 12.3938 2.3999 12.0338 2.3999H11.9663C11.6063 2.3999 11.2725 2.5574 11.0475 2.83865C9.6825 4.56365 4.8 10.9799 4.8 14.3999ZM10.2 14.0999C10.2 13.6012 9.79875 13.1999 9.3 13.1999C8.80125 13.1999 8.4 13.6012 8.4 14.0999C8.4 16.2524 10.1475 17.9999 12.3 17.9999C12.7988 17.9999 13.2 17.5987 13.2 17.0999C13.2 16.6012 12.7988 16.1999 12.3 16.1999C11.1413 16.1999 10.2 15.2587 10.2 14.0999Z" fill="black" fill-opacity="0.45"/>
</svg>
