<svg width="24" height="24" viewBox="0 0 24 24" fill="none" xmlns="http://www.w3.org/2000/svg">
<path d="M1.86375 3.6001H5.26875L4.30875 8.4001H0.78375C0.34875 8.4001 0 8.05135 0 7.61635C0 7.5376 0.01125 7.4626 0.03375 7.3876L1.005 4.23385C1.12125 3.85885 1.47 3.6001 1.86375 3.6001ZM10.2 8.4001H5.53125L6.49125 3.6001H10.2V8.4001ZM11.4 8.4001V3.6001H15.1088L15.6488 6.30385C15.585 6.3451 15.525 6.39385 15.4688 6.44635C14.7788 7.06135 14.1413 7.72135 13.575 8.4001H11.4ZM19.2713 7.51135C19.2075 7.57135 19.1438 7.63135 19.0837 7.69135C18.675 7.2601 18.2513 6.8476 17.8125 6.4501C17.5275 6.19135 17.175 6.0451 16.815 6.0076L16.3313 3.6001H19.7362C20.13 3.6001 20.4788 3.85885 20.595 4.23385L21.5662 7.3876C21.5737 7.41385 21.5812 7.4401 21.585 7.46635C20.9175 6.90385 19.9238 6.91885 19.2713 7.51135ZM3.015 9.6001H12.6563C12.4913 9.8326 12.3375 10.0688 12.195 10.3013C11.9775 10.6576 11.7713 11.0251 11.5875 11.4001H3.24L3.99 17.4001H11.4788C11.7825 18.0563 12.1838 18.6638 12.66 19.2001H4.2V19.5001C4.2 19.9988 3.79875 20.4001 3.3 20.4001C2.80125 20.4001 2.4 19.9988 2.4 19.5001V19.2001L1.575 12.6001H0.9C0.40125 12.6001 0 12.1988 0 11.7001C0 11.2013 0.40125 10.8001 0.9 10.8001H1.35L1.2 9.6001H3.015ZM18.9638 9.01135L19.425 8.49385C19.6275 8.2651 19.9238 8.16385 20.2088 8.1601C20.4788 8.1601 20.745 8.2576 20.955 8.4526C21.6938 9.13885 22.4475 10.0726 23.0175 11.1001C23.5875 12.1201 24 13.2826 24 14.4076C24 17.7301 21.3263 20.4001 18 20.4001C14.64 20.4001 12 17.7263 12 14.4076C12 13.0088 12.6 11.6551 13.38 10.4888C14.1637 9.3151 15.1613 8.27635 16.0388 7.48135C16.2525 7.28635 16.53 7.1926 16.8 7.2001C17.3288 7.21135 17.6925 7.6276 18.0263 8.0101C18.1013 8.09635 18.1763 8.1826 18.2513 8.26135L18.9638 9.0076V9.01135ZM20.4 16.2076C20.4 14.8388 19.0125 13.4701 18.345 12.8926C18.1425 12.7163 17.8538 12.7163 17.6513 12.8926C16.9875 13.4663 15.6 14.8351 15.6 16.2076C15.6 17.5313 16.6763 18.6076 18 18.6076C19.3238 18.6076 20.4 17.5313 20.4 16.2076Z" fill="black" fill-opacity="0.45"/>
</svg>
