<svg width="24" height="24" viewBox="0 0 24 24" fill="none" xmlns="http://www.w3.org/2000/svg">
<path d="M12 19.7999C7.69124 19.7999 4.19999 16.3087 4.19999 11.9999C4.19999 11.1749 4.32749 10.3837 4.56374 9.6374L4.91624 10.2524C5.22749 10.7962 5.73749 11.1974 6.34124 11.3699L8.51249 11.9887C9.15749 12.1724 9.59999 12.7612 9.59999 13.4324V14.9287C9.59999 15.3412 9.83249 15.7162 10.2 15.8999C10.5675 16.0837 10.8 16.4587 10.8 16.8712V18.0112C10.8 18.6074 11.37 19.0349 11.9437 18.8737C12.54 18.7049 13.005 18.2362 13.1737 17.6437L13.23 17.4412C13.4025 16.8374 13.8037 16.3274 14.3475 16.0162L14.6925 15.8174C15.255 15.4987 15.6 14.8987 15.6 14.2537V13.9424C15.6 13.4662 15.4087 13.0087 15.0712 12.6712L14.925 12.5249C14.5875 12.1874 14.13 11.9962 13.6537 11.9962H12.0375C11.6212 11.9962 11.2087 11.8874 10.845 11.6812L9.55124 10.9424C9.38999 10.8487 9.26624 10.6987 9.20624 10.5224C9.08624 10.1624 9.24749 9.7724 9.58874 9.60365L9.80999 9.49115C10.0575 9.3674 10.3462 9.3449 10.6087 9.4349L11.4787 9.72365C11.7862 9.8249 12.1237 9.70865 12.3 9.4424C12.4762 9.1799 12.4575 8.83115 12.255 8.5874L11.745 7.97615C11.37 7.52615 11.3737 6.8699 11.7562 6.4274L12.345 5.74115C12.675 5.3549 12.7275 4.80365 12.4762 4.3649L12.3862 4.2074C15.1462 4.3424 17.5312 5.9174 18.8062 8.19365L17.85 8.5799C17.2612 8.81615 16.9575 9.4724 17.1562 10.0724L17.79 11.9737C17.9212 12.3637 18.24 12.6599 18.6375 12.7574L19.7287 13.0312C19.2262 16.8524 15.9562 19.7999 12 19.7999ZM12 21.5999C14.5461 21.5999 16.9879 20.5885 18.7882 18.7881C20.5886 16.9878 21.6 14.546 21.6 11.9999C21.6 9.45382 20.5886 7.01203 18.7882 5.21168C16.9879 3.41133 14.5461 2.3999 12 2.3999C9.45392 2.3999 7.01212 3.41133 5.21177 5.21168C3.41142 7.01203 2.39999 9.45382 2.39999 11.9999C2.39999 14.546 3.41142 16.9878 5.21177 18.7881C7.01212 20.5885 9.45392 21.5999 12 21.5999Z" fill="black" fill-opacity="0.45"/>
</svg>
