<svg width="24" height="24" viewBox="0 0 24 24" fill="none" xmlns="http://www.w3.org/2000/svg">
<path d="M18.5 12C18.5 12.3978 18.342 12.7794 18.0607 13.0607C17.7794 13.342 17.3978 13.5 17 13.5C16.6022 13.5 16.2206 13.342 15.9393 13.0607C15.658 12.7794 15.5 12.3978 15.5 12C15.5 11.6022 15.658 11.2206 15.9393 10.9393C16.2206 10.658 16.6022 10.5 17 10.5C17.3978 10.5 17.7794 10.658 18.0607 10.9393C18.342 11.2206 18.5 11.6022 18.5 12ZM13.5 12C13.5 12.197 13.4612 12.392 13.3858 12.574C13.3104 12.756 13.1999 12.9214 13.0607 13.0607C12.9214 13.1999 12.756 13.3104 12.574 13.3858C12.392 13.4612 12.197 13.5 12 13.5C11.803 13.5 11.608 13.4612 11.426 13.3858C11.244 13.3104 11.0786 13.1999 10.9393 13.0607C10.8001 12.9214 10.6896 12.756 10.6142 12.574C10.5388 12.392 10.5 12.197 10.5 12C10.5 11.803 10.5388 11.608 10.6142 11.426C10.6896 11.244 10.8001 11.0786 10.9393 10.9393C11.0786 10.8001 11.244 10.6896 11.426 10.6142C11.608 10.5388 11.803 10.5 12 10.5C12.197 10.5 12.392 10.5388 12.574 10.6142C12.756 10.6896 12.9214 10.8001 13.0607 10.9393C13.1999 11.0786 13.3104 11.244 13.3858 11.426C13.4612 11.608 13.5 11.803 13.5 12ZM7 13.5C6.60218 13.5 6.22064 13.342 5.93934 13.0607C5.65804 12.7794 5.5 12.3978 5.5 12C5.5 11.6022 5.65804 11.2206 5.93934 10.9393C6.22064 10.658 6.60218 10.5 7 10.5C7.39782 10.5 7.77936 10.658 8.06066 10.9393C8.34196 11.2206 8.5 11.6022 8.5 12C8.5 12.3978 8.34196 12.7794 8.06066 13.0607C7.77936 13.342 7.39782 13.5 7 13.5Z" fill="black" fill-opacity="0.45"/>
</svg>
