<svg width="24" height="24" viewBox="0 0 24 24" fill="none" xmlns="http://www.w3.org/2000/svg">
<path d="M20.4 5.4001H7.20001C6.87001 5.4001 6.60001 5.6701 6.60001 6.0001V6.2926L13.2525 11.2201C13.41 11.3363 13.6013 11.4001 13.8 11.4001C13.9988 11.4001 14.19 11.3363 14.3475 11.2201L21 6.2926V6.0001C21 5.6701 20.73 5.4001 20.4 5.4001ZM21 8.53135L15.4163 12.6676C14.9513 13.0126 14.3813 13.2001 13.8 13.2001C13.2188 13.2001 12.6488 13.0126 12.1838 12.6676L6.60001 8.53135V14.4001C6.60001 14.7301 6.87001 15.0001 7.20001 15.0001H20.4C20.73 15.0001 21 14.7301 21 14.4001V8.53135ZM7.20001 3.6001H20.4C21.7238 3.6001 22.8 4.67635 22.8 6.0001V14.4001C22.8 15.7238 21.7238 16.8001 20.4 16.8001H7.20001C5.87626 16.8001 4.80001 15.7238 4.80001 14.4001V6.0001C4.80001 4.67635 5.87626 3.6001 7.20001 3.6001ZM2.10001 6.0001C2.59876 6.0001 3.00001 6.40135 3.00001 6.9001V15.3001C3.00001 17.1226 4.47751 18.6001 6.30001 18.6001H18.3C18.7988 18.6001 19.2 19.0013 19.2 19.5001C19.2 19.9988 18.7988 20.4001 18.3 20.4001H6.30001C3.48376 20.4001 1.20001 18.1163 1.20001 15.3001V6.9001C1.20001 6.40135 1.60126 6.0001 2.10001 6.0001Z" fill="black" fill-opacity="0.45"/>
</svg>
