<svg width="24" height="24" viewBox="0 0 24 24" fill="none" xmlns="http://www.w3.org/2000/svg">
<path d="M4.79999 6.60005C4.46999 6.60005 4.19999 6.87005 4.19999 7.20005V8.0288L10.6687 13.3388C11.445 13.9763 12.5587 13.9763 13.335 13.3388L19.8 8.0288V7.20005C19.8 6.87005 19.53 6.60005 19.2 6.60005H4.79999ZM4.19999 10.3575V16.8C4.19999 17.13 4.46999 17.4 4.79999 17.4H19.2C19.53 17.4 19.8 17.13 19.8 16.8V10.3575L14.475 14.73C13.035 15.9113 10.9612 15.9113 9.52499 14.73L4.19999 10.3575ZM2.39999 7.20005C2.39999 5.8763 3.47624 4.80005 4.79999 4.80005H19.2C20.5237 4.80005 21.6 5.8763 21.6 7.20005V16.8C21.6 18.1238 20.5237 19.2 19.2 19.2H4.79999C3.47624 19.2 2.39999 18.1238 2.39999 16.8V7.20005Z" fill="black" fill-opacity="0.45"/>
</svg>
