<svg width="24" height="24" viewBox="0 0 24 24" fill="none" xmlns="http://www.w3.org/2000/svg">
<path d="M8.7 3.6001C9.19875 3.6001 9.6 4.00135 9.6 4.5001C9.6 4.99885 9.19875 5.4001 8.7 5.4001H5.4V8.7001C5.4 9.19885 4.99875 9.6001 4.5 9.6001C4.00125 9.6001 3.6 9.19885 3.6 8.7001V4.5001C3.6 4.00135 4.00125 3.6001 4.5 3.6001H8.7ZM3.6 15.3001C3.6 14.8013 4.00125 14.4001 4.5 14.4001C4.99875 14.4001 5.4 14.8013 5.4 15.3001V18.6001H8.7C9.19875 18.6001 9.6 19.0013 9.6 19.5001C9.6 19.9988 9.19875 20.4001 8.7 20.4001H4.5C4.00125 20.4001 3.6 19.9988 3.6 19.5001V15.3001ZM19.5 3.6001C19.9987 3.6001 20.4 4.00135 20.4 4.5001V8.7001C20.4 9.19885 19.9987 9.6001 19.5 9.6001C19.0012 9.6001 18.6 9.19885 18.6 8.7001V5.4001H15.3C14.8012 5.4001 14.4 4.99885 14.4 4.5001C14.4 4.00135 14.8012 3.6001 15.3 3.6001H19.5ZM18.6 15.3001C18.6 14.8013 19.0012 14.4001 19.5 14.4001C19.9987 14.4001 20.4 14.8013 20.4 15.3001V19.5001C20.4 19.9988 19.9987 20.4001 19.5 20.4001H15.3C14.8012 20.4001 14.4 19.9988 14.4 19.5001C14.4 19.0013 14.8012 18.6001 15.3 18.6001H18.6V15.3001Z" fill="black" fill-opacity="0.45"/>
</svg>
