<svg width="24" height="24" viewBox="0 0 24 24" fill="none" xmlns="http://www.w3.org/2000/svg">
<g clip-path="url(#clip0_9_2208)">
<path d="M1.45503 2.59136C1.06503 2.28386 0.498778 2.35511 0.191278 2.74511C-0.116222 3.13511 -0.0449723 3.70136 0.345028 4.00886L22.545 21.4089C22.935 21.7164 23.5013 21.6451 23.8088 21.2551C24.1163 20.8651 24.045 20.2989 23.655 19.9914L19.71 16.9014C21.195 15.3789 22.2 13.6726 22.7063 12.4614C22.83 12.1651 22.83 11.8351 22.7063 11.5389C22.1475 10.2001 20.9738 8.25011 19.2188 6.62261C17.4563 4.98011 15.03 3.60011 12 3.60011C9.44253 3.60011 7.31253 4.58636 5.65128 5.88011L1.45503 2.59136ZM7.11753 7.02761C8.47503 6.06386 10.1063 5.40011 12 5.40011C14.445 5.40011 16.455 6.51011 17.9963 7.93886C19.44 9.28136 20.4375 10.8751 20.9475 12.0001C20.475 13.0501 19.575 14.5051 18.2888 15.7839L16.2713 14.2014C16.6125 13.5414 16.8038 12.7951 16.8038 12.0001C16.8038 9.34886 14.655 7.20011 12.0038 7.20011C10.7963 7.20011 9.69003 7.64636 8.84628 8.38136L7.11753 7.02761ZM14.8088 13.0576L11.7525 10.6614C11.91 10.3426 12 9.97886 12 9.60011C12 9.39386 11.9738 9.19136 11.925 9.00011C11.9513 9.00011 11.9738 9.00011 12 9.00011C13.6575 9.00011 15 10.3426 15 12.0001C15 12.3714 14.9325 12.7276 14.8088 13.0576ZM16.7325 19.1814L15.1613 17.9439C14.205 18.3526 13.1513 18.6001 12 18.6001C9.55503 18.6001 7.54503 17.4901 6.00378 16.0614C4.56003 14.7189 3.56253 13.1251 3.05253 12.0001C3.36378 11.3101 3.85878 10.4439 4.53003 9.57011L3.11628 8.45636C2.26128 9.57011 1.65003 10.6801 1.29378 11.5389C1.17003 11.8351 1.17003 12.1651 1.29378 12.4614C1.85253 13.8001 3.02628 15.7501 4.78128 17.3776C6.54378 19.0201 8.97003 20.4001 12 20.4001C13.7925 20.4001 15.3713 19.9164 16.7325 19.1814ZM13.4325 16.5826L11.325 14.9251C10.4438 14.7226 9.70878 14.1301 9.31128 13.3389L7.20753 11.6814C7.20003 11.7864 7.19628 11.8914 7.19628 12.0001C7.19628 14.6514 9.34503 16.8001 11.9963 16.8001C12.495 16.8001 12.975 16.7251 13.4288 16.5826H13.4325Z" fill="black" fill-opacity="0.45"/>
</g>
<defs>
<clipPath id="clip0_9_2208">
<rect width="24" height="24" fill="white"/>
</clipPath>
</defs>
</svg>
