<svg width="24" height="24" viewBox="0 0 24 24" fill="none" xmlns="http://www.w3.org/2000/svg">
<path d="M12 5.4001C9.55499 5.4001 7.54499 6.5101 6.00374 7.93885C4.55999 9.28135 3.56249 10.8751 3.05249 12.0001C3.56249 13.1251 4.55999 14.7188 5.99999 16.0613C7.54499 17.4901 9.55499 18.6001 12 18.6001C14.445 18.6001 16.455 17.4901 17.9962 16.0613C19.44 14.7188 20.4375 13.1251 20.9475 12.0001C20.4375 10.8751 19.44 9.28135 18 7.93885C16.455 6.5101 14.445 5.4001 12 5.4001ZM4.77749 6.6226C6.54374 4.9801 8.96999 3.6001 12 3.6001C15.03 3.6001 17.4562 4.9801 19.2225 6.6226C20.9775 8.25385 22.1512 10.2001 22.71 11.5388C22.8337 11.8351 22.8337 12.1651 22.71 12.4613C22.1512 13.8001 20.9775 15.7501 19.2225 17.3776C17.4562 19.0201 15.03 20.4001 12 20.4001C8.96999 20.4001 6.54374 19.0201 4.77749 17.3776C3.02249 15.7501 1.84874 13.8001 1.29374 12.4613C1.16999 12.1651 1.16999 11.8351 1.29374 11.5388C1.84874 10.2001 3.02249 8.2501 4.77749 6.6226ZM12 15.0001C13.6575 15.0001 15 13.6576 15 12.0001C15 10.3426 13.6575 9.0001 12 9.0001C11.9737 9.0001 11.9512 9.0001 11.925 9.0001C11.9737 9.19135 12 9.39385 12 9.6001C12 10.9238 10.9237 12.0001 9.59999 12.0001C9.39374 12.0001 9.19124 11.9738 8.99999 11.9251C8.99999 11.9513 8.99999 11.9738 8.99999 12.0001C8.99999 13.6576 10.3425 15.0001 12 15.0001ZM12 7.2001C13.273 7.2001 14.4939 7.70581 15.3941 8.60598C16.2943 9.50616 16.8 10.7271 16.8 12.0001C16.8 13.2731 16.2943 14.494 15.3941 15.3942C14.4939 16.2944 13.273 16.8001 12 16.8001C10.727 16.8001 9.50605 16.2944 8.60588 15.3942C7.7057 14.494 7.19999 13.2731 7.19999 12.0001C7.19999 10.7271 7.7057 9.50616 8.60588 8.60598C9.50605 7.70581 10.727 7.2001 12 7.2001Z" fill="black" fill-opacity="0.45"/>
</svg>
