<svg width="24" height="24" viewBox="0 0 24 24" fill="none" xmlns="http://www.w3.org/2000/svg">
<path d="M19.8 12C19.8 9.93134 18.9782 7.94738 17.5154 6.48459C16.0527 5.02181 14.0687 4.20002 12 4.20002C9.93131 4.20002 7.94735 5.02181 6.48457 6.48459C5.02179 7.94738 4.2 9.93134 4.2 12C4.2 14.0687 5.02179 16.0527 6.48457 17.5155C7.94735 18.9782 9.93131 19.8 12 19.8C14.0687 19.8 16.0527 18.9782 17.5154 17.5155C18.9782 16.0527 19.8 14.0687 19.8 12ZM2.4 12C2.4 9.45395 3.41143 7.01215 5.21178 5.2118C7.01213 3.41145 9.45392 2.40002 12 2.40002C14.5461 2.40002 16.9879 3.41145 18.7882 5.2118C20.5886 7.01215 21.6 9.45395 21.6 12C21.6 14.5461 20.5886 16.9879 18.7882 18.7882C16.9879 20.5886 14.5461 21.6 12 21.6C9.45392 21.6 7.01213 20.5886 5.21178 18.7882C3.41143 16.9879 2.4 14.5461 2.4 12ZM9.6 10.8V9.90002C9.6 9.82502 9.59625 9.75377 9.585 9.68252C9.4275 9.81752 9.225 9.90002 9 9.90002C8.50125 9.90002 8.1 9.49877 8.1 9.00002C8.1 8.77502 8.1825 8.57252 8.3175 8.41502C8.24625 8.40377 8.175 8.40002 8.1 8.40002C7.27125 8.40002 6.6 9.07127 6.6 9.90002V10.8H9.6ZM8.1 7.20002C9.5925 7.20002 10.8 8.40752 10.8 9.90002V10.8C10.8 11.4638 10.2638 12 9.6 12H6.6C5.93625 12 5.4 11.4638 5.4 10.8V9.90002C5.4 8.40752 6.6075 7.20002 8.1 7.20002ZM16.2 9.90002C15.7013 9.90002 15.3 9.49877 15.3 9.00002C15.3 8.79752 15.3675 8.61377 15.4763 8.46377C15.3225 8.42252 15.165 8.40002 15 8.40002C14.0063 8.40002 13.2 9.20627 13.2 10.2V10.8H16.8V10.2C16.8 10.035 16.7775 9.87378 16.7363 9.72377C16.5863 9.83627 16.4025 9.90002 16.2 9.90002ZM15 7.20002C16.6575 7.20002 18 8.54252 18 10.2V10.8713C18 11.4938 17.4938 12 16.8713 12H13.1288C12.5063 12 12 11.4938 12 10.8713V10.2C12 8.54252 13.3425 7.20002 15 7.20002ZM6.165 13.9425C6.07875 13.56 6.37125 13.2 6.76125 13.2H17.2388C17.6288 13.2 17.9175 13.56 17.835 13.9425C17.6888 14.595 17.4375 15.2025 17.1038 15.75C16.0463 17.4713 14.145 18.585 12.045 18.6H12.0038C11.8313 18.6 11.655 18.5925 11.4863 18.5775C8.9175 18.3563 6.735 16.4925 6.16875 13.9425H6.165ZM16.0575 15.1575C15.75 15.0563 15.4238 15 15.0863 15C13.6163 15 12.39 16.0238 12.0788 17.4C13.7325 17.3738 15.2213 16.4963 16.0613 15.1575H16.0575Z" fill="black" fill-opacity="0.45"/>
</svg>
