<svg width="24" height="24" viewBox="0 0 24 24" fill="none" xmlns="http://www.w3.org/2000/svg">
<path d="M19.8 11.9999C19.8 14.3774 18.7388 16.5037 17.0625 17.9362C17.28 18.2924 17.6175 18.5737 18.0338 18.7124L18.66 18.9224C20.4713 17.1712 21.6 14.7187 21.6 11.9999C21.6 6.6974 17.3025 2.3999 12 2.3999C6.69751 2.3999 2.40001 6.6974 2.40001 11.9999C2.40001 14.7187 3.52876 17.1712 5.34376 18.9187L5.97001 18.7087C6.38626 18.5699 6.72376 18.2924 6.94126 17.9324C5.26126 16.5037 4.20001 14.3774 4.20001 11.9999C4.20001 7.69115 7.69126 4.1999 12 4.1999C16.3088 4.1999 19.8 7.69115 19.8 11.9999ZM6.75001 8.29115C6.75001 8.39615 6.78751 8.4974 6.85501 8.57615L8.20501 10.1962L6.85501 11.8162C6.78751 11.8949 6.75001 11.9962 6.75001 12.1012C6.75001 12.4387 7.11001 12.6524 7.40626 12.4949L10.7775 10.6987C11.1788 10.4849 11.1788 9.9074 10.7775 9.69365L7.40626 7.8974C7.11001 7.7399 6.75001 7.95365 6.75001 8.29115ZM16.5938 7.8974L13.2225 9.69365C12.8213 9.9074 12.8213 10.4849 13.2225 10.6987L16.5938 12.4949C16.89 12.6524 17.25 12.4387 17.25 12.1012C17.25 11.9962 17.2125 11.8949 17.145 11.8162L15.795 10.1962L17.145 8.57615C17.2125 8.4974 17.25 8.39615 17.25 8.29115C17.25 7.95365 16.89 7.7399 16.5938 7.8974ZM2.40001 21.5999C2.71827 21.5999 3.0235 21.4735 3.24854 21.2484C3.47358 21.0234 3.60001 20.7182 3.60001 20.3999C3.60001 20.0816 3.47358 19.7764 3.24854 19.5514C3.0235 19.3263 2.71827 19.1999 2.40001 19.1999C2.08175 19.1999 1.77653 19.3263 1.55148 19.5514C1.32644 19.7764 1.20001 20.0816 1.20001 20.3999C1.20001 20.7182 1.32644 21.0234 1.55148 21.2484C1.77653 21.4735 2.08175 21.5999 2.40001 21.5999ZM22.8 19.1999C22.8 18.8816 22.6736 18.5764 22.4485 18.3514C22.2235 18.1263 21.9183 17.9999 21.6 17.9999C21.2818 17.9999 20.9765 18.1263 20.7515 18.3514C20.5264 18.5764 20.4 18.8816 20.4 19.1999C20.4 19.5182 20.5264 19.8234 20.7515 20.0484C20.9765 20.2735 21.2818 20.3999 21.6 20.3999C21.9183 20.3999 22.2235 20.2735 22.4485 20.0484C22.6736 19.8234 22.8 19.5182 22.8 19.1999ZM15.6 17.2537V15.0674C16.005 15.2287 16.3013 15.3862 16.4663 15.4987C16.7438 15.6824 17.115 15.6074 17.2988 15.3337C17.4825 15.0599 17.4075 14.6849 17.1338 14.5012C16.4363 14.0362 14.52 13.1999 12 13.1999C9.48001 13.1999 7.56376 14.0362 6.86626 14.5012C6.58876 14.6849 6.51751 15.0562 6.70126 15.3337C6.88501 15.6112 7.25626 15.6824 7.53376 15.4987C7.69876 15.3862 7.99501 15.2287 8.40001 15.0674V17.2537C8.40001 18.4162 7.65751 19.4474 6.55501 19.8149L5.27626 20.2424C4.99126 20.3362 4.80001 20.6024 4.80001 20.9024C4.80001 21.2887 5.11126 21.5999 5.49751 21.5999H18.5025C18.8888 21.5999 19.2 21.2887 19.2 20.9024C19.2 20.6024 19.0088 20.3362 18.7238 20.2424L17.445 19.8149C16.3425 19.4474 15.6 18.4162 15.6 17.2537ZM12.6 17.9999C12.4409 17.9999 12.2883 17.9367 12.1757 17.8242C12.0632 17.7116 12 17.559 12 17.3999C12 17.2408 12.0632 17.0882 12.1757 16.9756C12.2883 16.8631 12.4409 16.7999 12.6 16.7999C12.7591 16.7999 12.9118 16.8631 13.0243 16.9756C13.1368 17.0882 13.2 17.2408 13.2 17.3999C13.2 17.559 13.1368 17.7116 13.0243 17.8242C12.9118 17.9367 12.7591 17.9999 12.6 17.9999ZM9.60001 18.5999C9.60001 18.4408 9.66323 18.2882 9.77575 18.1756C9.88827 18.0631 10.0409 17.9999 10.2 17.9999C10.3591 17.9999 10.5118 18.0631 10.6243 18.1756C10.7368 18.2882 10.8 18.4408 10.8 18.5999C10.8 18.759 10.7368 18.9116 10.6243 19.0242C10.5118 19.1367 10.3591 19.1999 10.2 19.1999C10.0409 19.1999 9.88827 19.1367 9.77575 19.0242C9.66323 18.9116 9.60001 18.759 9.60001 18.5999Z" fill="black" fill-opacity="0.45"/>
</svg>
