<svg width="24" height="24" viewBox="0 0 24 24" fill="none" xmlns="http://www.w3.org/2000/svg">
<path d="M19.4 11.6C19.4 9.53131 18.5782 7.54735 17.1154 6.08457C15.6526 4.62178 13.6687 3.8 11.6 3.8C9.53131 3.8 7.54735 4.62178 6.08457 6.08457C4.62178 7.54735 3.8 9.53131 3.8 11.6C3.8 13.6687 4.62178 15.6526 6.08457 17.1154C7.54735 18.5782 9.53131 19.4 11.6 19.4C13.6687 19.4 15.6526 18.5782 17.1154 17.1154C18.5782 15.6526 19.4 13.6687 19.4 11.6ZM2 11.6C2 9.05392 3.01143 6.61212 4.81178 4.81178C6.61212 3.01143 9.05392 2 11.6 2C14.1461 2 16.5879 3.01143 18.3882 4.81178C20.1886 6.61212 21.2 9.05392 21.2 11.6C21.2 14.1461 20.1886 16.5879 18.3882 18.3882C16.5879 20.1886 14.1461 21.2 11.6 21.2C9.05392 21.2 6.61212 20.1886 4.81178 18.3882C3.01143 16.5879 2 14.1461 2 11.6ZM14.54 16.4713C13.97 15.8563 12.995 15.2 11.6 15.2C10.205 15.2 9.23 15.8563 8.66 16.4713C8.3225 16.835 7.7525 16.8612 7.38875 16.5238C7.025 16.1862 6.99875 15.6163 7.33625 15.2525C8.16125 14.36 9.58625 13.4 11.5963 13.4C13.6062 13.4 15.035 14.3562 15.8563 15.2525C16.1938 15.6163 16.1713 16.1862 15.8038 16.5238C15.4363 16.8612 14.87 16.8388 14.5325 16.4713H14.54ZM7.415 9.8C7.415 9.48174 7.54143 9.17652 7.76647 8.95147C7.99152 8.72643 8.29674 8.6 8.615 8.6C8.93326 8.6 9.23848 8.72643 9.46353 8.95147C9.68857 9.17652 9.815 9.48174 9.815 9.8C9.815 10.1183 9.68857 10.4235 9.46353 10.6485C9.23848 10.8736 8.93326 11 8.615 11C8.29674 11 7.99152 10.8736 7.76647 10.6485C7.54143 10.4235 7.415 10.1183 7.415 9.8ZM14.615 8.6C14.9333 8.6 15.2385 8.72643 15.4635 8.95147C15.6886 9.17652 15.815 9.48174 15.815 9.8C15.815 10.1183 15.6886 10.4235 15.4635 10.6485C15.2385 10.8736 14.9333 11 14.615 11C14.2967 11 13.9915 10.8736 13.7665 10.6485C13.5414 10.4235 13.415 10.1183 13.415 9.8C13.415 9.48174 13.5414 9.17652 13.7665 8.95147C13.9915 8.72643 14.2967 8.6 14.615 8.6Z" fill="black" fill-opacity="0.45"/>
</svg>
