<svg width="24" height="24" viewBox="0 0 24 24" fill="none" xmlns="http://www.w3.org/2000/svg">
<path d="M19.8 12C19.8 9.93134 18.9782 7.94738 17.5154 6.48459C16.0526 5.02181 14.0687 4.20002 12 4.20002C9.93131 4.20002 7.94735 5.02181 6.48456 6.48459C5.02178 7.94738 4.19999 9.93134 4.19999 12C4.19999 14.0687 5.02178 16.0527 6.48456 17.5155C7.94735 18.9782 9.93131 19.8 12 19.8C14.0687 19.8 16.0526 18.9782 17.5154 17.5155C18.9782 16.0527 19.8 14.0687 19.8 12ZM2.39999 12C2.39999 9.45395 3.41142 7.01215 5.21177 5.2118C7.01212 3.41145 9.45392 2.40002 12 2.40002C14.5461 2.40002 16.9879 3.41145 18.7882 5.2118C20.5886 7.01215 21.6 9.45395 21.6 12C21.6 14.5461 20.5886 16.9879 18.7882 18.7882C16.9879 20.5886 14.5461 21.6 12 21.6C9.45392 21.6 7.01212 20.5886 5.21177 18.7882C3.41142 16.9879 2.39999 14.5461 2.39999 12ZM9.05999 14.3288C9.62999 14.9438 10.605 15.6 12 15.6C13.395 15.6 14.37 14.9438 14.94 14.3288C15.2775 13.965 15.8475 13.9388 16.2112 14.2763C16.575 14.6138 16.6012 15.1838 16.2637 15.5475C15.4387 16.44 14.0137 17.4 12.0037 17.4C9.99374 17.4 8.56499 16.4438 7.74374 15.5475C7.40624 15.1838 7.42874 14.6138 7.79624 14.2763C8.16374 13.9388 8.72999 13.9613 9.06749 14.3288H9.05999ZM7.81499 10.2C7.81499 9.88176 7.94142 9.57654 8.16647 9.3515C8.39151 9.12645 8.69673 9.00002 9.01499 9.00002C9.33325 9.00002 9.63848 9.12645 9.86352 9.3515C10.0886 9.57654 10.215 9.88176 10.215 10.2C10.215 10.5183 10.0886 10.8235 9.86352 11.0486C9.63848 11.2736 9.33325 11.4 9.01499 11.4C8.69673 11.4 8.39151 11.2736 8.16647 11.0486C7.94142 10.8235 7.81499 10.5183 7.81499 10.2ZM15.015 9.00002C15.3333 9.00002 15.6385 9.12645 15.8635 9.3515C16.0886 9.57654 16.215 9.88176 16.215 10.2C16.215 10.5183 16.0886 10.8235 15.8635 11.0486C15.6385 11.2736 15.3333 11.4 15.015 11.4C14.6967 11.4 14.3915 11.2736 14.1665 11.0486C13.9414 10.8235 13.815 10.5183 13.815 10.2C13.815 9.88176 13.9414 9.57654 14.1665 9.3515C14.3915 9.12645 14.6967 9.00002 15.015 9.00002Z" fill="black" fill-opacity="0.45"/>
</svg>
