<svg width="24" height="24" viewBox="0 0 24 24" fill="none" xmlns="http://www.w3.org/2000/svg">
<path d="M14.0962 8.62865L6.59999 16.1287V14.7787C6.59999 12.7087 7.42124 10.7249 8.88374 9.2624L12.7762 5.3699C13.5262 4.6199 14.5425 4.1999 15.6 4.1999C16.6575 4.1999 17.6737 4.6199 18.4237 5.3699L18.63 5.57615C19.38 6.32615 19.8 7.3424 19.8 8.3999C19.8 9.0299 19.65 9.64865 19.3725 10.1999H15.0712L15.3675 9.90365C15.72 9.55115 15.72 8.98115 15.3675 8.6324C15.015 8.28365 14.445 8.2799 14.0962 8.6324V8.62865ZM13.2712 11.9999H17.8537L16.0537 13.7999H11.4712L13.2712 11.9999ZM14.205 15.5999C12.81 16.7587 11.0475 17.3999 9.22124 17.3999H7.87124L9.67124 15.5999H14.2087H14.205ZM4.79999 14.7749V17.9249L2.66249 20.0624C2.30999 20.4149 2.30999 20.9849 2.66249 21.3337C3.01499 21.6824 3.58499 21.6862 3.93374 21.3337L6.07124 19.1962H9.22124C11.7675 19.1962 14.2087 18.1837 16.0087 16.3837L19.9012 12.4987C20.9887 11.4112 21.6 9.9374 21.6 8.3999C21.6 6.8624 20.9887 5.38865 19.9012 4.30115L19.695 4.0949C18.6112 3.01115 17.1375 2.3999 15.6 2.3999C14.0625 2.3999 12.5887 3.01115 11.5012 4.09865L7.61249 7.9874C5.81249 9.7874 4.79999 12.2287 4.79999 14.7749Z" fill="black" fill-opacity="0.45"/>
</svg>
