<svg width="24" height="24" viewBox="0 0 24 24" fill="none" xmlns="http://www.w3.org/2000/svg">
<path d="M16.8 19.8C17.13 19.8 17.4 19.53 17.4 19.2V8.40002H14.4C13.7363 8.40002 13.2 7.86377 13.2 7.20002V4.20002H7.2C6.87 4.20002 6.6 4.47002 6.6 4.80002V19.2C6.6 19.53 6.87 19.8 7.2 19.8H16.8ZM4.8 4.80002C4.8 3.47627 5.87625 2.40002 7.2 2.40002H13.4063C14.0438 2.40002 14.655 2.65127 15.105 3.10127L18.4987 6.49502C18.9487 6.94502 19.2 7.55627 19.2 8.19377V19.2C19.2 20.5238 18.1238 21.6 16.8 21.6H7.2C5.87625 21.6 4.8 20.5238 4.8 19.2V4.80002Z" fill="black" fill-opacity="0.45"/>
</svg>
