<svg width="24" height="24" viewBox="0 0 24 24" fill="none" xmlns="http://www.w3.org/2000/svg">
<path d="M7.20001 19.7999H16.8C17.13 19.7999 17.4 19.5299 17.4 19.1999V8.3999H14.4C13.7363 8.3999 13.2 7.86365 13.2 7.1999V4.1999H7.20001C6.87001 4.1999 6.60001 4.4699 6.60001 4.7999V19.1999C6.60001 19.5299 6.87001 19.7999 7.20001 19.7999ZM4.80001 4.7999C4.80001 3.47615 5.87626 2.3999 7.20001 2.3999H13.4063C14.0438 2.3999 14.655 2.65115 15.105 3.10115L18.4988 6.4949C18.9488 6.9449 19.2 7.55615 19.2 8.19365V19.1999C19.2 20.5237 18.1238 21.5999 16.8 21.5999H7.20001C5.87626 21.5999 4.80001 20.5237 4.80001 19.1999V4.7999ZM7.80001 6.5999C7.80001 6.2699 8.07001 5.9999 8.40001 5.9999H11.4C11.73 5.9999 12 6.2699 12 6.5999C12 6.9299 11.73 7.1999 11.4 7.1999H8.40001C8.07001 7.1999 7.80001 6.9299 7.80001 6.5999ZM7.80001 8.9999C7.80001 8.6699 8.07001 8.3999 8.40001 8.3999H11.4C11.73 8.3999 12 8.6699 12 8.9999C12 9.3299 11.73 9.5999 11.4 9.5999H8.40001C8.07001 9.5999 7.80001 9.3299 7.80001 8.9999ZM12 17.3999C12 17.0699 12.27 16.7999 12.6 16.7999H15.6C15.93 16.7999 16.2 17.0699 16.2 17.3999C16.2 17.7299 15.93 17.9999 15.6 17.9999H12.6C12.27 17.9999 12 17.7299 12 17.3999ZM9.00001 10.7999H15C15.6638 10.7999 16.2 11.3362 16.2 11.9999V14.3999C16.2 15.0637 15.6638 15.5999 15 15.5999H9.00001C8.33626 15.5999 7.80001 15.0637 7.80001 14.3999V11.9999C7.80001 11.3362 8.33626 10.7999 9.00001 10.7999Z" fill="black" fill-opacity="0.45"/>
</svg>
