<svg width="24" height="24" viewBox="0 0 24 24" fill="none" xmlns="http://www.w3.org/2000/svg">
<path d="M13.8 19.1999C13.8 19.5299 13.53 19.7999 13.2 19.7999H3.60001C3.27001 19.7999 3.00001 19.5299 3.00001 19.1999V4.7999C3.00001 4.4699 3.27001 4.1999 3.60001 4.1999H9.60001V7.1999C9.60001 7.86365 10.1363 8.3999 10.8 8.3999H13.8V11.9999H15.6V8.19365C15.6 7.55615 15.3488 6.9449 14.8988 6.4949L11.5013 3.10115C11.0513 2.65115 10.4438 2.3999 9.80626 2.3999H3.60001C2.27626 2.3999 1.20001 3.47615 1.20001 4.7999V19.1999C1.20001 20.5237 2.27626 21.5999 3.60001 21.5999H13.2C14.5238 21.5999 15.6 20.5237 15.6 19.1999V16.1999H13.8V19.1999ZM19.5375 10.4624C19.185 10.1099 18.615 10.1099 18.2663 10.4624C17.9175 10.8149 17.9138 11.3849 18.2663 11.7337L19.7288 13.1962H9.30001C8.80126 13.1962 8.40001 13.5974 8.40001 14.0962C8.40001 14.5949 8.80126 14.9962 9.30001 14.9962H19.7288L18.2663 16.4587C17.9138 16.8112 17.9138 17.3812 18.2663 17.7299C18.6188 18.0787 19.1888 18.0824 19.5375 17.7299L22.5375 14.7299C22.89 14.3774 22.89 13.8074 22.5375 13.4587L19.5375 10.4587V10.4624Z" fill="black" fill-opacity="0.45"/>
</svg>
