<svg width="24" height="24" viewBox="0 0 24 24" fill="none" xmlns="http://www.w3.org/2000/svg">
<path d="M6.6 19.1999V4.7999C6.6 4.4699 6.87 4.1999 7.2 4.1999H13.2V7.1999C13.2 7.86365 13.7362 8.3999 14.4 8.3999H17.4V19.1999C17.4 19.5299 17.13 19.7999 16.8 19.7999H7.2C6.87 19.7999 6.6 19.5299 6.6 19.1999ZM7.2 2.3999C5.87625 2.3999 4.8 3.47615 4.8 4.7999V19.1999C4.8 20.5237 5.87625 21.5999 7.2 21.5999H16.8C18.1237 21.5999 19.2 20.5237 19.2 19.1999V8.19365C19.2 7.55615 18.9487 6.9449 18.4987 6.4949L15.1012 3.10115C14.6512 2.65115 14.0437 2.3999 13.4062 2.3999H7.2ZM10.6087 11.1487C10.305 10.7549 9.73875 10.6874 9.345 10.9912C8.95125 11.2949 8.88375 11.8612 9.1875 12.2549L10.86 14.3999L9.19125 16.5487C8.8875 16.9424 8.955 17.5049 9.34875 17.8124C9.7425 18.1199 10.305 18.0487 10.6125 17.6549L12 15.8662L13.3912 17.6512C13.695 18.0449 14.2612 18.1124 14.655 17.8087C15.0487 17.5049 15.1162 16.9387 14.8125 16.5449L13.14 14.3999L14.8087 12.2512C15.1125 11.8574 15.045 11.2949 14.6512 10.9874C14.2575 10.6799 13.695 10.7512 13.3875 11.1449L12 12.9337L10.6087 11.1487Z" fill="black" fill-opacity="0.45"/>
</svg>
