<svg width="24" height="24" viewBox="0 0 24 24" fill="none" xmlns="http://www.w3.org/2000/svg">
<path d="M9.60001 16.1999H18C18.33 16.1999 18.6 15.9299 18.6 15.5999V7.1999H16.8C16.1363 7.1999 15.6 6.66365 15.6 5.9999V4.1999H9.60001C9.27001 4.1999 9.00001 4.4699 9.00001 4.7999V15.5999C9.00001 15.9299 9.27001 16.1999 9.60001 16.1999ZM18 17.9999H9.60001C8.27626 17.9999 7.20001 16.9237 7.20001 15.5999V4.7999C7.20001 3.47615 8.27626 2.3999 9.60001 2.3999H15.8063C16.4438 2.3999 17.055 2.65115 17.505 3.10115L19.6988 5.2949C20.1488 5.7449 20.4 6.35615 20.4 6.99365V15.5999C20.4 16.9237 19.3238 17.9999 18 17.9999ZM4.50001 5.9999C4.99876 5.9999 5.40001 6.40115 5.40001 6.8999V16.4999C5.40001 18.3224 6.87751 19.7999 8.70001 19.7999H15.9C16.3988 19.7999 16.8 20.2012 16.8 20.6999C16.8 21.1987 16.3988 21.5999 15.9 21.5999H8.70001C5.88376 21.5999 3.60001 19.3162 3.60001 16.4999V6.8999C3.60001 6.40115 4.00126 5.9999 4.50001 5.9999Z" fill="black" fill-opacity="0.45"/>
</svg>
