<svg width="24" height="24" viewBox="0 0 24 24" fill="none" xmlns="http://www.w3.org/2000/svg">
<path d="M15.6 18.6H8.4V14.4V12.9H15.6V14.4V18.6ZM15.6 11.1H8.4V9.59998V5.39998H15.6V9.59998V11.1ZM4.8 5.39998H6.6V8.69998H4.2V5.99998C4.2 5.66998 4.47 5.39998 4.8 5.39998ZM4.2 10.5H6.6V13.5H4.2V10.5ZM6.6 18.6H4.8C4.47 18.6 4.2 18.33 4.2 18V15.3H6.6V18.6ZM17.4 8.69998V5.39998H19.2C19.53 5.39998 19.8 5.66998 19.8 5.99998V8.69998H17.4ZM17.4 10.5H19.8V13.5H17.4V10.5ZM17.4 15.3H19.8V18C19.8 18.33 19.53 18.6 19.2 18.6H17.4V15.3ZM19.2 3.59998H4.8C3.47625 3.59998 2.4 4.67623 2.4 5.99998V18C2.4 19.3237 3.47625 20.4 4.8 20.4H19.2C20.5238 20.4 21.6 19.3237 21.6 18V5.99998C21.6 4.67623 20.5238 3.59998 19.2 3.59998Z" fill="black" fill-opacity="0.45"/>
</svg>
