<svg width="24" height="24" viewBox="0 0 24 24" fill="none" xmlns="http://www.w3.org/2000/svg">
<path d="M2.39999 5.16373C2.39999 4.30123 3.10124 3.59998 3.96374 3.59998H20.0362C20.8987 3.59998 21.6 4.30123 21.6 5.16373C21.6 5.52373 21.4762 5.87248 21.2475 6.14998L15 13.8187V19.1887C15 19.8562 14.4562 20.4 13.7887 20.4C13.515 20.4 13.2487 20.3062 13.035 20.1375L9.56624 17.385C9.20624 17.1 8.99999 16.6687 8.99999 16.2112V13.8187L2.75249 6.14998C2.52374 5.87248 2.39999 5.52373 2.39999 5.16373ZM4.46249 5.39998L10.5975 12.93C10.7287 13.0912 10.8 13.29 10.8 13.5V16.065L13.2 17.97V13.5C13.2 13.2937 13.2712 13.0912 13.4025 12.93L19.5375 5.39998H4.46249Z" fill="black" fill-opacity="0.45"/>
</svg>
