<svg width="24" height="24" viewBox="0 0 24 24" fill="none" xmlns="http://www.w3.org/2000/svg">
<path d="M6.94876 8.26116C7.83751 6.71241 8.97001 5.28741 9.99376 4.28991C10.695 4.99116 11.5275 6.05991 12.2475 6.97866C12.39 7.15866 12.525 7.33491 12.6563 7.49991C12.8288 7.71741 13.095 7.84491 13.3725 7.84116C13.65 7.83741 13.9125 7.70616 14.0813 7.48491C14.205 7.32366 14.37 7.07991 14.5425 6.83241C14.64 6.68991 14.7413 6.54741 14.835 6.41241C15.045 6.11616 15.2288 5.86866 15.375 5.69616C16.125 6.47616 16.9125 7.68366 17.5275 9.01116C18.1913 10.4437 18.6 11.8987 18.6 12.9974C18.6 16.8599 15.645 19.7999 12 19.7999C8.31376 19.7999 5.40001 16.8599 5.40001 12.9974C5.40001 11.5912 6.00751 9.90741 6.94876 8.26491V8.26116ZM11.0813 2.83491C10.4738 2.25741 9.52501 2.25366 8.91751 2.83116C7.71751 3.95991 6.40501 5.59116 5.38876 7.36866C4.37626 9.13116 3.60001 11.1374 3.60001 12.9974C3.60001 17.8087 7.27876 21.5999 12 21.5999C16.6725 21.5999 20.4 17.8162 20.4 12.9974C20.4 11.5312 19.8788 9.80241 19.1588 8.25366C18.4388 6.69741 17.4675 5.20866 16.4625 4.23741C15.8513 3.64491 14.8875 3.64491 14.2763 4.23366C13.98 4.51866 13.6388 4.98366 13.365 5.36991L13.3238 5.42991C12.6225 4.53741 11.79 3.50616 11.0813 2.83491ZM12.0638 17.9999C13.0125 17.9999 13.8525 17.7374 14.6438 17.2124C16.2225 16.1099 16.6463 13.9049 15.6975 12.1724C15.5288 11.8349 15.0975 11.8124 14.8538 12.0974L13.9088 13.1962C13.6613 13.4812 13.215 13.4737 12.9825 13.1774C12.3638 12.3899 11.2575 10.9837 10.6275 10.1849C10.3913 9.88491 9.94126 9.88116 9.70126 10.1812C8.43376 11.7749 7.79626 12.7799 7.79626 13.9087C7.80001 16.4774 9.69751 17.9999 12.0638 17.9999Z" fill="black" fill-opacity="0.45"/>
</svg>
