<svg width="24" height="24" viewBox="0 0 24 24" fill="none" xmlns="http://www.w3.org/2000/svg">
<path d="M7.98001 13.7887C8.32501 14.1787 8.70751 14.5612 9.13126 14.9174C10.395 15.9862 11.9813 16.7999 13.8 16.7999C15.6188 16.7999 17.205 15.9824 18.4688 14.9174C19.605 13.9612 20.445 12.8287 20.9175 11.9999C20.445 11.1712 19.605 10.0424 18.4688 9.0824C17.205 8.01365 15.6188 7.1999 13.8 7.1999C11.9813 7.1999 10.395 8.01365 9.13126 9.0824C8.70751 9.43865 8.32501 9.82115 7.98001 10.2112C7.45501 10.8037 6.60376 10.9837 5.88001 10.6537L3.84751 9.72365L4.63876 11.1074C4.95376 11.6624 4.95376 12.3412 4.63876 12.8924L3.84751 14.2762L5.88376 13.3424C6.60376 13.0124 7.45501 13.1924 7.98376 13.7849L7.98001 13.7887ZM1.35751 15.0037L3.07501 11.9999L1.35751 8.99615C1.09876 8.5424 1.16251 7.97615 1.51501 7.5899C1.86751 7.20365 2.42626 7.09115 2.89876 7.30865L6.63001 9.01865C7.02376 8.5724 7.47376 8.12615 7.96876 7.70615C9.43876 6.46865 11.4225 5.3999 13.8 5.3999C16.1775 5.3999 18.1613 6.46865 19.6313 7.70615C21.0975 8.94365 22.14 10.4212 22.6688 11.4487C22.845 11.7937 22.845 12.2024 22.6688 12.5474C22.14 13.5749 21.0975 15.0524 19.6313 16.2899C18.1613 17.5312 16.1775 18.5999 13.8 18.5999C11.4225 18.5999 9.43876 17.5312 7.96876 16.2937C7.47376 15.8737 7.02751 15.4274 6.63001 14.9812L2.89876 16.6912C2.42626 16.9087 1.86376 16.7962 1.51501 16.4099C1.16626 16.0237 1.09876 15.4574 1.35751 15.0037ZM16.8 10.7999C17.1183 10.7999 17.4235 10.9263 17.6485 11.1514C17.8736 11.3764 18 11.6816 18 11.9999C18 12.3182 17.8736 12.6234 17.6485 12.8484C17.4235 13.0735 17.1183 13.1999 16.8 13.1999C16.4817 13.1999 16.1765 13.0735 15.9515 12.8484C15.7264 12.6234 15.6 12.3182 15.6 11.9999C15.6 11.6816 15.7264 11.3764 15.9515 11.1514C16.1765 10.9263 16.4817 10.7999 16.8 10.7999Z" fill="black" fill-opacity="0.45"/>
</svg>
