<svg width="24" height="24" viewBox="0 0 24 24" fill="none" xmlns="http://www.w3.org/2000/svg">
<path d="M4.50001 2.3999C4.99876 2.3999 5.40001 2.80115 5.40001 3.2999V4.3499L8.58751 3.5549C10.0163 3.19865 11.5238 3.36365 12.8438 4.02365C14.58 4.89365 16.6238 4.89365 18.36 4.02365L18.72 3.84365C19.4925 3.45365 20.4 4.01615 20.4 4.87865V15.3674C20.4 15.8662 20.0888 16.3162 19.62 16.4924L18.3188 16.9799C16.5863 17.6287 14.6588 17.5274 13.005 16.7024C11.5838 15.9899 9.95626 15.8137 8.41126 16.1999L5.40001 16.9499V20.6999C5.40001 21.1987 4.99876 21.5999 4.50001 21.5999C4.00126 21.5999 3.60001 21.1987 3.60001 20.6999V17.3999V15.5437V4.7999V3.2999C3.60001 2.80115 4.00126 2.3999 4.50001 2.3999ZM5.40001 8.05115L8.40001 7.39865V5.45615L5.40001 6.20615V8.0549V8.05115ZM5.40001 9.8924V11.6512L8.40001 10.9987V9.24365L5.40001 9.89615V9.8924ZM5.40001 13.4924V15.0937L7.97251 14.4487C8.11501 14.4149 8.25751 14.3812 8.40001 14.3549V12.8437L5.40001 13.4962V13.4924ZM10.2 14.1974C11.4413 14.2237 12.6713 14.5237 13.8 15.0862V13.2187L11.7225 12.6074C11.2275 12.4612 10.71 12.4162 10.2 12.4724V14.1974ZM15.6 15.5849C16.3013 15.6412 17.0138 15.5437 17.685 15.2924L18.6 14.9512V13.1999L17.6363 13.4249C16.965 13.5787 16.2825 13.6312 15.6 13.5862V15.5924V15.5849ZM18.6 11.3474V9.5999L17.6363 9.8249C16.965 9.97865 16.2825 10.0312 15.6 9.98615V11.7787C16.1438 11.8312 16.695 11.7937 17.2313 11.6699L18.6 11.3549V11.3474ZM18.6 7.7474V5.88365C17.64 6.27365 16.62 6.46865 15.6 6.46865V8.1749C16.1438 8.2274 16.695 8.1899 17.2313 8.06615L18.6 7.75115V7.7474ZM13.8 6.26615C13.1963 6.1274 12.6038 5.91365 12.0375 5.6324C11.4638 5.34365 10.8338 5.1899 10.2 5.17115V7.06865C10.8825 7.0199 11.5688 7.09115 12.2288 7.28615L13.8 7.74365V6.26615ZM13.8 9.6224L11.7225 9.01115C11.2275 8.8649 10.71 8.8199 10.2 8.87615V10.6687C10.8825 10.6199 11.5688 10.6912 12.2288 10.8862L13.8 11.3437V9.61865V9.6224Z" fill="black" fill-opacity="0.45"/>
</svg>
