<svg width="24" height="24" viewBox="0 0 24 24" fill="none" xmlns="http://www.w3.org/2000/svg">
<path d="M5.40001 3.2999C5.40001 2.80115 4.99876 2.3999 4.50001 2.3999C4.00126 2.3999 3.60001 2.80115 3.60001 3.2999V4.7999V15.5437V17.3999V20.6999C3.60001 21.1987 4.00126 21.5999 4.50001 21.5999C4.99876 21.5999 5.40001 21.1987 5.40001 20.6999V16.9499L8.41126 16.1962C9.95251 15.8099 11.5838 15.9899 13.005 16.6987C14.6625 17.5274 16.5863 17.6287 18.3188 16.9762L19.62 16.4887C20.0888 16.3124 20.4 15.8662 20.4 15.3637V4.87865C20.4 4.01615 19.4925 3.45365 18.72 3.8399L18.36 4.0199C16.6238 4.8899 14.58 4.8899 12.8438 4.0199C11.5275 3.3599 10.0163 3.1949 8.58751 3.55115L5.40001 4.3499V3.2999ZM5.40001 6.20615L9.02251 5.29865C10.035 5.0474 11.1038 5.16365 12.0375 5.62865C14.0963 6.65615 16.4888 6.7424 18.6 5.88365V14.9512L17.685 15.2924C16.4213 15.7649 15.015 15.6937 13.8075 15.0899C12 14.1862 9.93376 13.9612 7.97251 14.4487L5.40001 15.0937V6.20615Z" fill="black" fill-opacity="0.45"/>
</svg>
