<svg width="24" height="24" viewBox="0 0 24 24" fill="none" xmlns="http://www.w3.org/2000/svg">
<path d="M10.2 9.7799C10.2 10.5562 9.9825 11.3174 9.5775 11.9812L8.08875 14.3999H15.9112L14.4225 11.9812C14.0137 11.3174 13.8 10.5562 13.8 9.7799V4.1999H10.2V9.7799ZM15.6 4.1999V9.7799C15.6 10.2224 15.7237 10.6612 15.9562 11.0362L20.0137 17.6324C20.265 18.0412 20.4 18.5137 20.4 18.9974C20.4 20.4337 19.2337 21.5999 17.7975 21.5999H6.2025C4.76625 21.5999 3.6 20.4337 3.6 18.9974C3.6 18.5174 3.735 18.0449 3.98625 17.6324L8.04375 11.0399C8.27625 10.6612 8.4 10.2262 8.4 9.78365V4.1999H8.1C7.60125 4.1999 7.2 3.79865 7.2 3.2999C7.2 2.80115 7.60125 2.3999 8.1 2.3999H9.6H14.4H15.9C16.3987 2.3999 16.8 2.80115 16.8 3.2999C16.8 3.79865 16.3987 4.1999 15.9 4.1999H15.6Z" fill="black" fill-opacity="0.45"/>
</svg>
