<svg width="24" height="24" viewBox="0 0 24 24" fill="none" xmlns="http://www.w3.org/2000/svg">
<path d="M6 5C4.89688 5 4 5.89688 4 7V17C4 18.1031 4.89688 19 6 19H18C19.1031 19 20 18.1031 20 17V9C20 7.89687 19.1031 7 18 7H13.0594L11.7188 5.65937C11.2969 5.2375 10.725 5 10.1281 5H6ZM5.5 7C5.5 6.725 5.725 6.5 6 6.5H10.1281C10.3281 6.5 10.5188 6.57812 10.6594 6.71875L12.075 8.13438C12.3094 8.36875 12.6281 8.5 12.9594 8.5H18C18.275 8.5 18.5 8.725 18.5 9V17C18.5 17.275 18.275 17.5 18 17.5H6C5.725 17.5 5.5 17.275 5.5 17V7ZM11.25 15.75C11.25 16.1656 11.5844 16.5 12 16.5C12.4156 16.5 12.75 16.1656 12.75 15.75V13.75H14.75C15.1656 13.75 15.5 13.4156 15.5 13C15.5 12.5844 15.1656 12.25 14.75 12.25H12.75V10.25C12.75 9.83437 12.4156 9.5 12 9.5C11.5844 9.5 11.25 9.83437 11.25 10.25V12.25H9.25C8.83437 12.25 8.5 12.5844 8.5 13C8.5 13.4156 8.83437 13.75 9.25 13.75H11.25V15.75Z" fill="#8C8C8C"/>
</svg>
