<svg width="24" height="24" viewBox="0 0 24 24" fill="none" xmlns="http://www.w3.org/2000/svg">
<path d="M15.6 20.4001H17.4C17.8275 20.4001 18.2213 20.1751 18.435 19.8038L22.635 12.6038C22.8525 12.2326 22.8525 11.7751 22.6388 11.4001C22.425 11.0251 22.0313 10.8001 21.6 10.8001H6.60001C6.17251 10.8001 5.77876 11.0251 5.56501 11.3963L3.00001 15.7913V6.0001C3.00001 5.6701 3.27001 5.4001 3.60001 5.4001H8.00626C8.16376 5.4001 8.31751 5.46385 8.43001 5.57635L9.42376 6.5701C10.2113 7.3576 11.28 7.8001 12.3938 7.8001H16.8C17.13 7.8001 17.4 8.0701 17.4 8.4001V9.6001H19.2V8.4001C19.2 7.07635 18.1238 6.0001 16.8 6.0001H12.3938C11.7563 6.0001 11.145 5.74885 10.695 5.29885L9.70126 4.30135C9.25126 3.85135 8.64001 3.6001 8.00251 3.6001H3.60001C2.27626 3.6001 1.20001 4.67635 1.20001 6.0001V18.0001C1.20001 19.3238 2.27626 20.4001 3.60001 20.4001H4.48876H15.6Z" fill="black" fill-opacity="0.45"/>
</svg>
