<svg width="24" height="24" viewBox="0 0 24 24" fill="none" xmlns="http://www.w3.org/2000/svg">
<path d="M6 5C4.89688 5 4 5.89688 4 7V17C4 18.1031 4.89688 19 6 19H18C19.1031 19 20 18.1031 20 17V9C20 7.89687 19.1031 7 18 7H13.0594L11.7188 5.65937C11.2969 5.2375 10.725 5 10.1281 5H6ZM5.5 7C5.5 6.725 5.725 6.5 6 6.5H10.1281C10.3281 6.5 10.5188 6.57812 10.6594 6.71875L12.075 8.13438C12.3094 8.36875 12.6281 8.5 12.9594 8.5H18C18.275 8.5 18.5 8.725 18.5 9V10H5.5V7ZM5.5 11.5H18.5V17C18.5 17.275 18.275 17.5 18 17.5H6C5.725 17.5 5.5 17.275 5.5 17V11.5Z" fill="black" fill-opacity="0.45"/>
</svg>
