<svg width="24" height="24" viewBox="0 0 24 24" fill="none" xmlns="http://www.w3.org/2000/svg">
<path d="M2.39999 6.0001C2.39999 4.67635 3.47624 3.6001 4.79999 3.6001H9.75374C10.47 3.6001 11.1562 3.8851 11.6625 4.39135L13.2712 6.0001H19.2C20.5237 6.0001 21.6 7.07635 21.6 8.4001V18.0001C21.6 19.3238 20.5237 20.4001 19.2 20.4001H4.79999C3.47624 20.4001 2.39999 19.3238 2.39999 18.0001V6.0001ZM4.79999 5.4001C4.46999 5.4001 4.19999 5.6701 4.19999 6.0001V18.0001C4.19999 18.3301 4.46999 18.6001 4.79999 18.6001H19.2C19.53 18.6001 19.8 18.3301 19.8 18.0001V8.4001C19.8 8.0701 19.53 7.8001 19.2 7.8001H13.1475C12.75 7.8001 12.3675 7.6426 12.0862 7.36135L10.3912 5.6626C10.2225 5.49385 9.99374 5.4001 9.75374 5.4001H4.79999Z" fill="black" fill-opacity="0.45"/>
</svg>
