<svg width="24" height="24" viewBox="0 0 24 24" fill="none" xmlns="http://www.w3.org/2000/svg">
<path d="M12.8325 4.15885C12.6938 3.82135 12.3675 3.6001 12 3.6001C11.6325 3.6001 11.3063 3.82135 11.1675 4.15885L5.27251 18.6001H4.50001C4.00126 18.6001 3.60001 19.0013 3.60001 19.5001C3.60001 19.9988 4.00126 20.4001 4.50001 20.4001H8.70001C9.19876 20.4001 9.60001 19.9988 9.60001 19.5001C9.60001 19.0013 9.19876 18.6001 8.70001 18.6001H7.21876L8.44501 15.6001H15.5588L16.785 18.6001H15.3C14.8013 18.6001 14.4 19.0013 14.4 19.5001C14.4 19.9988 14.8013 20.4001 15.3 20.4001H19.5C19.9988 20.4001 20.4 19.9988 20.4 19.5001C20.4 19.0013 19.9988 18.6001 19.5 18.6001H18.7275L12.8325 4.15885ZM14.8238 13.8001H9.17626L12 6.88135L14.8238 13.8001Z" fill="black" fill-opacity="0.45"/>
</svg>
