<svg width="24" height="24" viewBox="0 0 24 24" fill="none" xmlns="http://www.w3.org/2000/svg">
<path d="M1.8 6.5999V8.3999C1.8 8.7299 2.07 8.9999 2.4 8.9999H3H6C6.33 8.9999 6.6 8.7299 6.6 8.3999V6.5999H5.1H3.3H1.8ZM8.4 8.3999C8.4 8.60615 8.37375 8.80865 8.325 8.9999H15.675C15.6263 8.80865 15.6 8.60615 15.6 8.3999V6.5999V6.2999V4.7999V3.2999C15.6 2.80115 16.0013 2.3999 16.5 2.3999C16.7663 2.3999 17.0025 2.51615 17.1675 2.69615C17.31 2.8574 17.4 3.0674 17.4 3.2999V4.7999H18.9V3.2999C18.9 3.0674 18.9863 2.8574 19.1325 2.69615C19.2975 2.51615 19.5338 2.3999 19.8 2.3999C20.0662 2.3999 20.3025 2.51615 20.4675 2.69615C20.61 2.8574 20.7 3.0674 20.7 3.2999V4.7999H22.2V3.2999C22.2 3.0674 22.2863 2.8574 22.4325 2.69615C22.5975 2.51615 22.8338 2.3999 23.1 2.3999C23.5988 2.3999 24 2.80115 24 3.2999V4.7999V6.2999V6.5999V8.3999C24 9.28865 23.5163 10.0649 22.8 10.4774V10.7999V19.1999C22.8 20.5237 21.7238 21.5999 20.4 21.5999H14.4H9.6H3.6C2.27625 21.5999 1.2 20.5237 1.2 19.1999V10.7999V10.4774C0.48375 10.0649 0 9.28865 0 8.3999V6.5999V6.2999V4.7999V3.2999C0 2.80115 0.40125 2.3999 0.9 2.3999C1.16625 2.3999 1.4025 2.51615 1.5675 2.69615C1.71375 2.8574 1.8 3.0674 1.8 3.2999V4.7999H3.3V3.2999C3.3 3.0674 3.38625 2.8574 3.5325 2.69615C3.6975 2.51615 3.93375 2.3999 4.2 2.3999C4.46625 2.3999 4.7025 2.51615 4.8675 2.69615C5.01375 2.8574 5.1 3.0674 5.1 3.2999V4.7999H6.6V3.2999C6.6 3.0674 6.68625 2.8574 6.8325 2.69615C6.9975 2.51615 7.23375 2.3999 7.5 2.3999C7.99875 2.3999 8.4 2.80115 8.4 3.2999V4.7999V6.2999V6.5999V8.3999ZM14.4 19.7999H16.8V10.7999H7.2V19.7999H9.6V16.7999C9.6 15.4762 10.6763 14.3999 12 14.3999C13.3238 14.3999 14.4 15.4762 14.4 16.7999V19.7999ZM18.6 19.7999H20.4C20.73 19.7999 21 19.5299 21 19.1999V10.7999H18.6V19.7999ZM3.6 19.7999H5.4V10.7999H3V19.1999C3 19.5299 3.27 19.7999 3.6 19.7999ZM21 8.9999H21.6C21.93 8.9999 22.2 8.7299 22.2 8.3999V6.5999H20.7H18.9H17.4V8.3999C17.4 8.7299 17.67 8.9999 18 8.9999H21Z" fill="black" fill-opacity="0.45"/>
</svg>
