<svg width="24" height="24" viewBox="0 0 24 24" fill="none" xmlns="http://www.w3.org/2000/svg">
<path d="M10.8 5.92505C10.8 5.30255 11.3062 4.80005 11.925 4.80005C12.1612 4.80005 12.3937 4.87505 12.585 5.0138L21.2287 11.2725C21.4612 11.4413 21.6 11.7113 21.6 12C21.6 12.2888 21.4612 12.5588 21.2287 12.7275L12.5887 18.9863C12.3975 19.125 12.165 19.2 11.9287 19.2C11.3062 19.2 10.8037 18.6975 10.8037 18.075V14.3588L4.17374 18.9975C3.98249 19.1288 3.75749 19.2 3.52499 19.2C2.90624 19.2 2.39999 18.6938 2.39999 18.0713V5.9288C2.39999 5.3063 2.90624 4.80005 3.52874 4.80005C3.76124 4.80005 3.98624 4.8713 4.17749 5.00255L10.8 9.6413V5.92505ZM10.8 11.8388L4.19999 7.2188V16.7813L10.8 12.1613V11.8388ZM19.1662 12L12.6 7.24505V16.755L19.1662 12Z" fill="black" fill-opacity="0.45"/>
</svg>
