<svg width="24" height="24" viewBox="0 0 24 24" fill="none" xmlns="http://www.w3.org/2000/svg">
<path d="M7.2 6.60005C4.21875 6.60005 1.8 9.0188 1.8 12C1.8 14.9813 4.21875 17.4 7.2 17.4H16.8C19.7812 17.4 22.2 14.9813 22.2 12C22.2 9.0188 19.7812 6.60005 16.8 6.60005H7.2ZM0 12C0 8.02505 3.225 4.80005 7.2 4.80005H16.8C20.775 4.80005 24 8.02505 24 12C24 15.975 20.775 19.2 16.8 19.2H7.2C3.225 19.2 0 15.975 0 12ZM8.7 9.90005V11.1H9.9C10.3988 11.1 10.8 11.5013 10.8 12C10.8 12.4988 10.3988 12.9 9.9 12.9H8.7V14.1C8.7 14.5988 8.29875 15 7.8 15C7.30125 15 6.9 14.5988 6.9 14.1V12.9H5.7C5.20125 12.9 4.8 12.4988 4.8 12C4.8 11.5013 5.20125 11.1 5.7 11.1H6.9V9.90005C6.9 9.4013 7.30125 9.00005 7.8 9.00005C8.29875 9.00005 8.7 9.4013 8.7 9.90005ZM15 12.6C15.3183 12.6 15.6235 12.7265 15.8485 12.9515C16.0736 13.1766 16.2 13.4818 16.2 13.8C16.2 14.1183 16.0736 14.4235 15.8485 14.6486C15.6235 14.8736 15.3183 15 15 15C14.6817 15 14.3765 14.8736 14.1515 14.6486C13.9264 14.4235 13.8 14.1183 13.8 13.8C13.8 13.4818 13.9264 13.1766 14.1515 12.9515C14.3765 12.7265 14.6817 12.6 15 12.6ZM16.2 10.2C16.2 9.88179 16.3264 9.57656 16.5515 9.35152C16.7765 9.12648 17.0817 9.00005 17.4 9.00005C17.7183 9.00005 18.0235 9.12648 18.2485 9.35152C18.4736 9.57656 18.6 9.88179 18.6 10.2C18.6 10.5183 18.4736 10.8235 18.2485 11.0486C18.0235 11.2736 17.7183 11.4 17.4 11.4C17.0817 11.4 16.7765 11.2736 16.5515 11.0486C16.3264 10.8235 16.2 10.5183 16.2 10.2Z" fill="black" fill-opacity="0.45"/>
</svg>
