<svg width="24" height="24" viewBox="0 0 24 24" fill="none" xmlns="http://www.w3.org/2000/svg">
<path d="M12 4.1999C14.0687 4.1999 16.0526 5.02169 17.5154 6.48447C18.9782 7.94725 19.8 9.93121 19.8 11.9999C19.8 14.0686 18.9782 16.0526 17.5154 17.5153C16.0526 18.9781 14.0687 19.7999 12 19.7999C9.93131 19.7999 7.94735 18.9781 6.48456 17.5153C5.02178 16.0526 4.19999 14.0686 4.19999 11.9999C4.19999 9.93121 5.02178 7.94725 6.48456 6.48447C7.94735 5.02169 9.93131 4.1999 12 4.1999ZM12 21.5999C14.5461 21.5999 16.9879 20.5885 18.7882 18.7881C20.5886 16.9878 21.6 14.546 21.6 11.9999C21.6 9.45382 20.5886 7.01203 18.7882 5.21168C16.9879 3.41133 14.5461 2.3999 12 2.3999C9.45392 2.3999 7.01212 3.41133 5.21177 5.21168C3.41142 7.01203 2.39999 9.45382 2.39999 11.9999C2.39999 14.546 3.41142 16.9878 5.21177 18.7881C7.01212 20.5885 9.45392 21.5999 12 21.5999ZM14.1 15.5999C14.1 14.7637 13.6087 14.0399 12.9 13.7024V6.8999C12.9 6.40115 12.4987 5.9999 12 5.9999C11.5012 5.9999 11.1 6.40115 11.1 6.8999V13.7024C10.3912 14.0399 9.89999 14.7637 9.89999 15.5999C9.89999 16.7587 10.8412 17.6999 12 17.6999C13.1587 17.6999 14.1 16.7587 14.1 15.5999ZM8.39999 9.5999C8.71825 9.5999 9.02348 9.47347 9.24852 9.24843C9.47357 9.02339 9.59999 8.71816 9.59999 8.3999C9.59999 8.08164 9.47357 7.77642 9.24852 7.55137C9.02348 7.32633 8.71825 7.1999 8.39999 7.1999C8.08173 7.1999 7.77651 7.32633 7.55147 7.55137C7.32642 7.77642 7.19999 8.08164 7.19999 8.3999C7.19999 8.71816 7.32642 9.02339 7.55147 9.24843C7.77651 9.47347 8.08173 9.5999 8.39999 9.5999ZM7.79999 11.9999C7.79999 11.6816 7.67357 11.3764 7.44852 11.1514C7.22348 10.9263 6.91825 10.7999 6.59999 10.7999C6.28173 10.7999 5.97651 10.9263 5.75147 11.1514C5.52642 11.3764 5.39999 11.6816 5.39999 11.9999C5.39999 12.3182 5.52642 12.6234 5.75147 12.8484C5.97651 13.0735 6.28173 13.1999 6.59999 13.1999C6.91825 13.1999 7.22348 13.0735 7.44852 12.8484C7.67357 12.6234 7.79999 12.3182 7.79999 11.9999ZM17.4 13.1999C17.7183 13.1999 18.0235 13.0735 18.2485 12.8484C18.4736 12.6234 18.6 12.3182 18.6 11.9999C18.6 11.6816 18.4736 11.3764 18.2485 11.1514C18.0235 10.9263 17.7183 10.7999 17.4 10.7999C17.0817 10.7999 16.7765 10.9263 16.5515 11.1514C16.3264 11.3764 16.2 11.6816 16.2 11.9999C16.2 12.3182 16.3264 12.6234 16.5515 12.8484C16.7765 13.0735 17.0817 13.1999 17.4 13.1999ZM16.8 8.3999C16.8 8.08164 16.6736 7.77642 16.4485 7.55137C16.2235 7.32633 15.9183 7.1999 15.6 7.1999C15.2817 7.1999 14.9765 7.32633 14.7515 7.55137C14.5264 7.77642 14.4 8.08164 14.4 8.3999C14.4 8.71816 14.5264 9.02339 14.7515 9.24843C14.9765 9.47347 15.2817 9.5999 15.6 9.5999C15.9183 9.5999 16.2235 9.47347 16.4485 9.24843C16.6736 9.02339 16.8 8.71816 16.8 8.3999Z" fill="black" fill-opacity="0.45"/>
</svg>
