<svg width="24" height="24" viewBox="0 0 24 24" fill="none" xmlns="http://www.w3.org/2000/svg">
<path d="M12 2.40002C12.6375 2.40002 13.26 2.46377 13.8675 2.58002C14.1637 2.63627 14.685 2.80877 14.97 3.33377C15.045 3.47252 15.105 3.61877 15.1425 3.77627L15.4912 5.22002C15.5437 5.43752 15.9112 5.65127 16.125 5.58752L17.55 5.16752C17.7 5.12252 17.8537 5.10002 18.0075 5.09627C18.6112 5.07752 19.02 5.44877 19.2187 5.67377C20.0475 6.61502 20.685 7.72127 21.09 8.91003C21.1875 9.19502 21.3 9.72752 20.9887 10.2375C20.9062 10.3725 20.805 10.5 20.6887 10.6125L19.6125 11.6363C19.455 11.7863 19.455 12.2175 19.6125 12.3675L20.6887 13.3913C20.805 13.5038 20.9062 13.6313 20.9887 13.7663C21.2962 14.2763 21.1837 14.8088 21.09 15.0938C20.685 16.2825 20.0475 17.385 19.2187 18.33C19.02 18.555 18.6075 18.9263 18.0075 18.9075C17.8537 18.9038 17.7 18.8775 17.55 18.8363L16.125 18.4125C15.9112 18.3488 15.5437 18.5625 15.4912 18.78L15.1425 20.2238C15.105 20.3813 15.045 20.5313 14.97 20.6663C14.6812 21.1913 14.16 21.36 13.8675 21.42C13.26 21.5363 12.6375 21.6 12 21.6C11.3625 21.6 10.74 21.5363 10.1325 21.42C9.83624 21.3638 9.31499 21.1913 9.02999 20.6663C8.95499 20.5275 8.89499 20.3813 8.85749 20.2238L8.50874 18.78C8.45624 18.5625 8.08874 18.3488 7.87499 18.4125L6.44999 18.8325C6.29999 18.8775 6.14624 18.9 5.99249 18.9038C5.38874 18.9225 4.97999 18.5513 4.78124 18.3263C3.95624 17.385 3.31499 16.2788 2.90999 15.09C2.81249 14.805 2.69999 14.2725 3.01124 13.7625C3.09374 13.6275 3.19499 13.5 3.31124 13.3875L4.38749 12.3638C4.54499 12.2138 4.54499 11.7825 4.38749 11.6325L3.30749 10.6088C3.19124 10.4963 3.08999 10.3688 3.00749 10.2338C2.69999 9.72377 2.81249 9.19128 2.90999 8.91003C3.31499 7.72127 3.95249 6.61877 4.78124 5.67377C4.97999 5.44877 5.39249 5.07752 5.99249 5.09627C6.14624 5.10002 6.29999 5.12627 6.44999 5.16752L7.87499 5.58752C8.08874 5.65127 8.45624 5.43752 8.50874 5.22002L8.85749 3.77627C8.89499 3.61877 8.95499 3.46877 9.02999 3.33377C9.31874 2.80877 9.83999 2.64002 10.1325 2.58002C10.74 2.46377 11.3625 2.40002 12 2.40002ZM10.5787 4.32752L10.26 5.64377C9.96749 6.85502 8.56124 7.66502 7.36499 7.31627L6.07124 6.93377C5.45249 7.65752 4.96499 8.49752 4.64624 9.39752L5.62874 10.3313C6.52874 11.1863 6.52874 12.8138 5.62874 13.6688L4.64624 14.6025C4.96499 15.5025 5.45249 16.3425 6.07124 17.0663L7.36874 16.6838C8.56124 16.3313 9.97124 17.145 10.2637 18.3563L10.5825 19.6725C11.505 19.8413 12.5062 19.8413 13.4287 19.6725L13.7475 18.3563C14.04 17.145 15.4462 16.335 16.6425 16.6838L17.94 17.0663C18.5587 16.3425 19.0462 15.5025 19.365 14.6025L18.3825 13.6688C17.4825 12.8138 17.4825 11.1863 18.3825 10.3313L19.365 9.39752C19.0462 8.49752 18.5587 7.65752 17.94 6.93377L16.6425 7.31627C15.45 7.66877 14.04 6.85502 13.7475 5.64377L13.4287 4.32752C12.5062 4.15877 11.505 4.15877 10.5825 4.32752H10.5787ZM10.2 12C10.2 12.4774 10.3896 12.9353 10.7272 13.2728C11.0648 13.6104 11.5226 13.8 12 13.8C12.4774 13.8 12.9352 13.6104 13.2728 13.2728C13.6104 12.9353 13.8 12.4774 13.8 12C13.8 11.5226 13.6104 11.0648 13.2728 10.7272C12.9352 10.3897 12.4774 10.2 12 10.2C11.5226 10.2 11.0648 10.3897 10.7272 10.7272C10.3896 11.0648 10.2 11.5226 10.2 12ZM12 15.6C11.0452 15.6 10.1295 15.2207 9.45441 14.5456C8.77928 13.8705 8.39999 12.9548 8.39999 12C8.39999 11.0452 8.77928 10.1296 9.45441 9.45444C10.1295 8.77931 11.0452 8.40002 12 8.40002C12.9548 8.40002 13.8704 8.77931 14.5456 9.45444C15.2207 10.1296 15.6 11.0452 15.6 12C15.6 12.9548 15.2207 13.8705 14.5456 14.5456C13.8704 15.2207 12.9548 15.6 12 15.6Z" fill="black" fill-opacity="0.45"/>
</svg>
