<svg width="24" height="24" viewBox="0 0 24 24" fill="none" xmlns="http://www.w3.org/2000/svg">
<path d="M5.51626 4.37635L5.27251 5.2576C5.20876 5.4901 5.03626 5.6776 4.80751 5.76385C4.43251 5.9026 4.09126 6.10135 3.78751 6.3526C3.60001 6.50635 3.35251 6.5626 3.11626 6.5026L2.23126 6.2701C2.04376 6.52885 1.87876 6.8101 1.74751 7.10635L2.38876 7.75885C2.55751 7.93135 2.63626 8.1751 2.59501 8.41135C2.56126 8.6026 2.54626 8.7976 2.54626 9.0001C2.54626 9.2026 2.56501 9.3976 2.59501 9.58885C2.63626 9.82885 2.56126 10.0726 2.38876 10.2413L1.75126 10.8938C1.88251 11.1901 2.04751 11.4713 2.23501 11.7301L3.12001 11.4976C3.35626 11.4376 3.60376 11.4938 3.79126 11.6476C4.09126 11.8988 4.43626 12.0976 4.81126 12.2363C5.04001 12.3188 5.21251 12.5063 5.27626 12.7426L5.52001 13.6238C5.67751 13.6388 5.83876 13.6501 6.00376 13.6501C6.16876 13.6501 6.33001 13.6426 6.48751 13.6238L6.73126 12.7426C6.79501 12.5101 6.96751 12.3226 7.19626 12.2363C7.57126 12.0976 7.91251 11.8988 8.21626 11.6476C8.40376 11.4938 8.65126 11.4376 8.88751 11.4976L9.77251 11.7301C9.96001 11.4713 10.125 11.1901 10.2563 10.8938L9.61501 10.2413C9.44626 10.0688 9.36751 9.8251 9.40876 9.58885C9.44251 9.3976 9.45751 9.2026 9.45751 9.0001C9.45751 8.7976 9.43876 8.6026 9.40876 8.41135C9.36751 8.17135 9.44251 7.9276 9.61501 7.75885L10.2563 7.10635C10.125 6.8101 9.96001 6.52885 9.77251 6.2701L8.88751 6.5026C8.65126 6.5626 8.40376 6.50635 8.21626 6.3526C7.91626 6.10135 7.57126 5.9026 7.19626 5.76385C6.96751 5.68135 6.79501 5.49385 6.73126 5.2576L6.48751 4.37635C6.33001 4.36135 6.16876 4.3501 6.00376 4.3501C5.83876 4.3501 5.67751 4.3576 5.52001 4.37635H5.51626ZM4.77376 2.97385C5.17126 2.89135 5.58001 2.8501 6.00001 2.8501C6.42001 2.8501 6.82876 2.89135 7.22626 2.97385C7.50376 3.0301 7.72501 3.23635 7.80001 3.5101L8.07376 4.5076C8.34751 4.6351 8.61001 4.7851 8.85376 4.9576L9.85126 4.6951C10.125 4.62385 10.4138 4.7101 10.6013 4.92385C11.1413 5.5351 11.565 6.2551 11.8313 7.0501C11.9213 7.31635 11.8538 7.6126 11.655 7.8151L10.9313 8.5501C10.9463 8.7001 10.95 8.8501 10.95 9.0001C10.95 9.1501 10.9425 9.3001 10.9313 9.4501L11.6588 10.1851C11.8575 10.3876 11.925 10.6801 11.835 10.9501C11.5688 11.7451 11.1488 12.4651 10.605 13.0763C10.4175 13.2863 10.1288 13.3763 9.85501 13.3051L8.85751 13.0426C8.61376 13.2151 8.35126 13.3651 8.07751 13.4926L7.80001 14.4901C7.72501 14.7638 7.50376 14.9701 7.22626 15.0263C6.82876 15.1051 6.42001 15.1501 6.00001 15.1501C5.58001 15.1501 5.17126 15.1088 4.77376 15.0263C4.49626 14.9701 4.27501 14.7638 4.20001 14.4901L3.92626 13.4926C3.65251 13.3651 3.39001 13.2151 3.14626 13.0426L2.14876 13.3051C1.87501 13.3763 1.58626 13.2901 1.39876 13.0763C0.855008 12.4651 0.431258 11.7451 0.165008 10.9501C0.0750077 10.6838 0.142508 10.3876 0.341258 10.1851L1.06876 9.4501C1.05376 9.3001 1.05001 9.1501 1.05001 9.0001C1.05001 8.8501 1.05751 8.7001 1.06876 8.5501L0.345008 7.8151C0.146258 7.6126 0.0750077 7.31635 0.165008 7.0501C0.431258 6.2551 0.851258 5.5351 1.39501 4.92385C1.58251 4.71385 1.87126 4.62385 2.14501 4.6951L3.14251 4.9576C3.38626 4.7851 3.64876 4.6351 3.92251 4.5076L4.20001 3.5101C4.27501 3.23635 4.49626 3.0301 4.77376 2.97385ZM4.50001 9.0001C4.50001 8.60227 4.65804 8.22074 4.93935 7.93944C5.22065 7.65813 5.60218 7.5001 6.00001 7.5001C6.39783 7.5001 6.77936 7.65813 7.06067 7.93944C7.34197 8.22074 7.50001 8.60227 7.50001 9.0001C7.50001 9.39792 7.34197 9.77945 7.06067 10.0608C6.77936 10.3421 6.39783 10.5001 6.00001 10.5001C5.60218 10.5001 5.22065 10.3421 4.93935 10.0608C4.65804 9.77945 4.50001 9.39792 4.50001 9.0001ZM12.7763 16.0838L13.6575 16.3276C13.89 16.3913 14.0775 16.5638 14.1638 16.7926C14.3025 17.1676 14.5013 17.5088 14.7525 17.8126C14.9063 18.0001 14.9625 18.2476 14.9025 18.4838L14.67 19.3688C14.9288 19.5563 15.21 19.7213 15.5063 19.8526L16.1588 19.2113C16.3313 19.0426 16.575 18.9638 16.8113 19.0051C17.0025 19.0388 17.1975 19.0538 17.4 19.0538C17.6025 19.0538 17.7975 19.0351 17.9888 19.0051C18.2288 18.9638 18.4725 19.0388 18.6413 19.2113L19.2938 19.8526C19.59 19.7213 19.8713 19.5563 20.13 19.3688L19.8975 18.4838C19.8375 18.2513 19.8938 18.0001 20.0475 17.8126C20.2988 17.5126 20.4975 17.1676 20.6363 16.7926C20.7188 16.5638 20.9063 16.3913 21.1425 16.3276L22.0238 16.0838C22.0388 15.9263 22.05 15.7651 22.05 15.6001C22.05 15.4351 22.0425 15.2738 22.0238 15.1163L21.1425 14.8726C20.91 14.8088 20.7225 14.6363 20.6363 14.4076C20.4975 14.0326 20.2988 13.6913 20.0475 13.3876C19.8938 13.2001 19.8375 12.9526 19.8975 12.7163L20.13 11.8313C19.8713 11.6438 19.59 11.4788 19.2938 11.3476L18.6413 11.9888C18.4688 12.1576 18.225 12.2363 17.9888 12.1951C17.7975 12.1613 17.6025 12.1463 17.4 12.1463C17.1975 12.1463 17.0025 12.1651 16.8113 12.1951C16.5713 12.2363 16.3275 12.1613 16.1588 11.9888L15.5063 11.3476C15.21 11.4788 14.9288 11.6438 14.67 11.8313L14.9025 12.7163C14.9625 12.9526 14.9063 13.2001 14.7525 13.3876C14.5013 13.6876 14.3025 14.0326 14.1638 14.4076C14.0813 14.6363 13.8938 14.8088 13.6575 14.8726L12.7763 15.1163C12.7613 15.2738 12.75 15.4351 12.75 15.6001C12.75 15.7651 12.7575 15.9263 12.7763 16.0838ZM11.3738 16.8263C11.295 16.4288 11.25 16.0201 11.25 15.6001C11.25 15.1801 11.2913 14.7713 11.3738 14.3738C11.43 14.0963 11.6363 13.8751 11.91 13.8001L12.9075 13.5263C13.035 13.2526 13.185 12.9901 13.3575 12.7463L13.095 11.7488C13.0238 11.4751 13.11 11.1863 13.3238 10.9988C13.935 10.4588 14.655 10.0351 15.45 9.76885C15.7163 9.67885 16.0125 9.74635 16.215 9.9451L16.95 10.6688C17.1 10.6538 17.25 10.6501 17.4 10.6501C17.55 10.6501 17.7 10.6576 17.85 10.6688L18.585 9.94135C18.7875 9.7426 19.08 9.6751 19.35 9.7651C20.145 10.0313 20.865 10.4513 21.4763 10.9951C21.6863 11.1826 21.7763 11.4713 21.705 11.7451L21.4425 12.7426C21.615 12.9863 21.765 13.2488 21.8925 13.5226L22.89 13.7963C23.1638 13.8713 23.37 14.0926 23.4263 14.3701C23.505 14.7676 23.55 15.1763 23.55 15.5963C23.55 16.0163 23.5088 16.4251 23.4263 16.8226C23.37 17.1001 23.1638 17.3213 22.89 17.3963L21.8925 17.6701C21.765 17.9438 21.615 18.2063 21.4425 18.4501L21.705 19.4476C21.7763 19.7213 21.6863 20.0101 21.4763 20.1976C20.865 20.7376 20.145 21.1613 19.35 21.4276C19.0838 21.5176 18.7875 21.4501 18.585 21.2513L17.85 20.5313C17.7 20.5463 17.55 20.5501 17.4 20.5501C17.25 20.5501 17.1 20.5426 16.95 20.5313L16.215 21.2588C16.0125 21.4576 15.72 21.5251 15.45 21.4351C14.655 21.1688 13.935 20.7488 13.3238 20.2051C13.1138 20.0176 13.0238 19.7288 13.095 19.4551L13.3575 18.4576C13.185 18.2138 13.035 17.9513 12.9075 17.6776L11.91 17.4001C11.6363 17.3251 11.43 17.1038 11.3738 16.8263ZM17.4 17.1001C17.0022 17.1001 16.6207 16.9421 16.3393 16.6608C16.058 16.3795 15.9 15.9979 15.9 15.6001C15.9 15.2023 16.058 14.8207 16.3393 14.5394C16.6207 14.2581 17.0022 14.1001 17.4 14.1001C17.7978 14.1001 18.1794 14.2581 18.4607 14.5394C18.742 14.8207 18.9 15.2023 18.9 15.6001C18.9 15.9979 18.742 16.3795 18.4607 16.6608C18.1794 16.9421 17.7978 17.1001 17.4 17.1001Z" fill="black" fill-opacity="0.45"/>
</svg>
