<svg width="24" height="24" viewBox="0 0 24 24" fill="none" xmlns="http://www.w3.org/2000/svg">
<path d="M6.60002 9.60002V17.9813C7.58627 17.7975 8.64752 18.12 9.36002 18.9375L9.60002 19.2113L9.74252 19.05C10.9388 17.685 13.0613 17.685 14.2575 19.05L14.4 19.2113L14.64 18.9375C15.3563 18.12 16.4138 17.7975 17.4 17.9813V9.60002C17.4 6.61877 14.9813 4.20002 12 4.20002C9.01877 4.20002 6.60002 6.61877 6.60002 9.60002ZM14.4 21.6C14.2088 21.6 14.0288 21.5175 13.9013 21.375L12.9038 20.2313C12.4275 19.6838 11.5763 19.6838 11.0963 20.2313L10.0988 21.375C9.97502 21.5175 9.79127 21.6 9.60002 21.6C9.40877 21.6 9.22877 21.5175 9.10127 21.375L8.00627 20.1188C7.57127 19.62 6.80252 19.5938 6.33752 20.0625L6.25127 20.1488C6.09377 20.3063 5.87627 20.3963 5.65127 20.3963C5.17877 20.4 4.80002 20.0213 4.80002 19.5525V9.60002C4.80002 5.62502 8.02502 2.40002 12 2.40002C15.975 2.40002 19.2 5.62502 19.2 9.60002V19.5525C19.2 20.0213 18.8213 20.4 18.3525 20.4C18.1275 20.4 17.91 20.31 17.7525 20.1525L17.6663 20.0663C17.1975 19.5975 16.4325 19.6238 15.9975 20.1225L14.8988 21.375C14.775 21.5175 14.5913 21.6 14.4 21.6ZM8.40002 9.60002C8.40002 9.28176 8.52645 8.97654 8.75149 8.7515C8.97653 8.52645 9.28176 8.40002 9.60002 8.40002C9.91828 8.40002 10.2235 8.52645 10.4485 8.7515C10.6736 8.97654 10.8 9.28176 10.8 9.60002C10.8 9.91828 10.6736 10.2235 10.4485 10.4486C10.2235 10.6736 9.91828 10.8 9.60002 10.8C9.28176 10.8 8.97653 10.6736 8.75149 10.4486C8.52645 10.2235 8.40002 9.91828 8.40002 9.60002ZM13.2 9.60002C13.2 9.28176 13.3264 8.97654 13.5515 8.7515C13.7765 8.52645 14.0818 8.40002 14.4 8.40002C14.7183 8.40002 15.0235 8.52645 15.2485 8.7515C15.4736 8.97654 15.6 9.28176 15.6 9.60002C15.6 9.91828 15.4736 10.2235 15.2485 10.4486C15.0235 10.6736 14.7183 10.8 14.4 10.8C14.0818 10.8 13.7765 10.6736 13.5515 10.4486C13.3264 10.2235 13.2 9.91828 13.2 9.60002Z" fill="black" fill-opacity="0.45"/>
</svg>
