<svg width="24" height="24" viewBox="0 0 24 24" fill="none" xmlns="http://www.w3.org/2000/svg">
<path d="M11.0962 4.06502C10.4887 3.03377 9.37874 2.40002 8.18249 2.40002H8.09999C6.27749 2.40002 4.79999 3.87752 4.79999 5.70002C4.79999 6.24002 4.93124 6.75002 5.15999 7.20002H4.19999C3.20624 7.20002 2.39999 8.00627 2.39999 9.00002V11.4C2.39999 12.1838 2.90249 12.8513 3.59999 13.0988V13.2V19.2C3.59999 20.5238 4.67624 21.6 5.99999 21.6H18C19.3237 21.6 20.4 20.5238 20.4 19.2V13.2V13.0988C21.0975 12.8513 21.6 12.1838 21.6 11.4V9.00002C21.6 8.00627 20.7937 7.20002 19.8 7.20002H18.84C19.0687 6.75002 19.2 6.24002 19.2 5.70002C19.2 3.87752 17.7225 2.40002 15.9 2.40002H15.8175C14.6212 2.40002 13.5112 3.03377 12.9037 4.06502L12 5.60627L11.0962 4.06877V4.06502ZM19.8 9.00002V11.4H18.6H13.2V9.00002H15.9H19.8ZM10.8 9.00002V11.4H5.39999H4.19999V9.00002H8.09999H10.8ZM10.8 13.2V19.8H5.99999C5.66999 19.8 5.39999 19.53 5.39999 19.2V13.2H10.8ZM13.2 19.8V13.2H18.6V19.2C18.6 19.53 18.33 19.8 18 19.8H13.2ZM15.9 7.20002H13.2H13.1512L14.4562 4.98002C14.7412 4.49627 15.2587 4.20002 15.8175 4.20002H15.9C16.7287 4.20002 17.4 4.87127 17.4 5.70002C17.4 6.52877 16.7287 7.20002 15.9 7.20002ZM10.8 7.20002H8.09999C7.27124 7.20002 6.59999 6.52877 6.59999 5.70002C6.59999 4.87127 7.27124 4.20002 8.09999 4.20002H8.18249C8.74124 4.20002 9.26249 4.49627 9.54374 4.98002L10.8487 7.20002H10.8Z" fill="black" fill-opacity="0.45"/>
</svg>
