<svg width="24" height="24" viewBox="0 0 24 24" fill="none" xmlns="http://www.w3.org/2000/svg">
<path d="M12 19.7999C12.2775 19.7999 13.0125 19.5299 13.785 17.9849C14.115 17.3212 14.4 16.5149 14.61 15.5999H9.38999C9.59999 16.5149 9.88499 17.3212 10.215 17.9849C10.9875 19.5299 11.7225 19.7999 12 19.7999ZM9.09374 13.7999H14.9062C14.9662 13.2262 15 12.6224 15 11.9999C15 11.3774 14.9662 10.7737 14.9062 10.1999H9.09374C9.03374 10.7737 8.99999 11.3774 8.99999 11.9999C8.99999 12.6224 9.03374 13.2262 9.09374 13.7999ZM9.38999 8.3999H14.61C14.4 7.4849 14.115 6.67865 13.785 6.0149C13.0125 4.4699 12.2775 4.1999 12 4.1999C11.7225 4.1999 10.9875 4.4699 10.215 6.0149C9.88499 6.67865 9.59999 7.4849 9.38999 8.3999ZM16.7137 10.1999C16.77 10.7812 16.7962 11.3849 16.7962 11.9999C16.7962 12.6149 16.7662 13.2187 16.7137 13.7999H19.59C19.725 13.2224 19.8 12.6187 19.8 11.9999C19.8 11.3812 19.7287 10.7774 19.59 10.1999H16.7175H16.7137ZM18.9187 8.3999C18.1162 6.85865 16.815 5.62115 15.2287 4.8974C15.7575 5.8574 16.1775 7.05365 16.4512 8.3999H18.9225H18.9187ZM7.54499 8.3999C7.81874 7.05365 8.23874 5.86115 8.76749 4.8974C7.18124 5.62115 5.87999 6.85865 5.07749 8.3999H7.54874H7.54499ZM4.40999 10.1999C4.27499 10.7774 4.19999 11.3812 4.19999 11.9999C4.19999 12.6187 4.27124 13.2224 4.40999 13.7999H7.28624C7.22999 13.2187 7.20374 12.6149 7.20374 11.9999C7.20374 11.3849 7.23374 10.7812 7.28624 10.1999H4.40999ZM15.2287 19.1024C16.815 18.3787 18.1162 17.1412 18.9187 15.5999H16.4512C16.1775 16.9462 15.7575 18.1387 15.2287 19.1024ZM8.77124 19.1024C8.24249 18.1424 7.82249 16.9462 7.54874 15.5999H5.07749C5.87999 17.1412 7.18124 18.3787 8.76749 19.1024H8.77124ZM12 21.5999C9.45392 21.5999 7.01212 20.5885 5.21177 18.7881C3.41142 16.9878 2.39999 14.546 2.39999 11.9999C2.39999 9.45382 3.41142 7.01203 5.21177 5.21168C7.01212 3.41133 9.45392 2.3999 12 2.3999C14.5461 2.3999 16.9879 3.41133 18.7882 5.21168C20.5886 7.01203 21.6 9.45382 21.6 11.9999C21.6 14.546 20.5886 16.9878 18.7882 18.7881C16.9879 20.5885 14.5461 21.5999 12 21.5999Z" fill="black" fill-opacity="0.45"/>
</svg>
