<svg width="24" height="24" viewBox="0 0 24 24" fill="none" xmlns="http://www.w3.org/2000/svg">
<path d="M4.16249 16.1626C3.80999 16.5151 3.80999 17.0851 4.16249 17.4338C4.51499 17.7826 5.08499 17.7863 5.43374 17.4338L6.12749 16.7401C7.41374 17.7788 8.93624 18.3826 10.4962 18.5513V19.8001H6.89999C6.40124 19.8001 5.99999 20.2013 5.99999 20.7001C5.99999 21.1988 6.40124 21.6001 6.89999 21.6001H15.9C16.3987 21.6001 16.8 21.1988 16.8 20.7001C16.8 20.2013 16.3987 19.8001 15.9 19.8001H12.3V18.5513C14.1412 18.3526 15.93 17.5501 17.34 16.1401C20.4037 13.0763 20.6062 8.22759 17.9437 4.93134L18.6375 4.23759C18.99 3.88509 18.99 3.31509 18.6375 2.96634C18.285 2.61759 17.715 2.61384 17.3662 2.96634L16.0687 4.26009C15.7162 4.61259 15.7162 5.18259 16.0687 5.53134C18.645 8.10759 18.645 12.2888 16.0687 14.8651C13.4925 17.4413 9.31124 17.4413 6.73499 14.8651C6.38249 14.5126 5.81249 14.5126 5.46374 14.8651L4.16249 16.1626ZM7.79999 10.2001C7.79999 9.24531 8.17928 8.32964 8.85441 7.65451C9.52954 6.97937 10.4452 6.60009 11.4 6.60009C12.3548 6.60009 13.2704 6.97937 13.9456 7.65451C14.6207 8.32964 15 9.24531 15 10.2001C15 11.1549 14.6207 12.0705 13.9456 12.7457C13.2704 13.4208 12.3548 13.8001 11.4 13.8001C10.4452 13.8001 9.52954 13.4208 8.85441 12.7457C8.17928 12.0705 7.79999 11.1549 7.79999 10.2001ZM16.8 10.2001C16.8 9.49095 16.6603 8.78876 16.3889 8.1336C16.1176 7.47844 15.7198 6.88315 15.2184 6.38171C14.7169 5.88028 14.1216 5.48252 13.4665 5.21114C12.8113 4.93976 12.1091 4.80009 11.4 4.80009C10.6909 4.80009 9.98866 4.93976 9.3335 5.21114C8.67834 5.48252 8.08305 5.88028 7.58162 6.38171C7.08018 6.88315 6.68242 7.47844 6.41104 8.1336C6.13967 8.78876 5.99999 9.49095 5.99999 10.2001C5.99999 10.9092 6.13967 11.6114 6.41104 12.2666C6.68242 12.9217 7.08018 13.517 7.58162 14.0185C8.08305 14.5199 8.67834 14.9177 9.3335 15.189C9.98866 15.4604 10.6909 15.6001 11.4 15.6001C12.1091 15.6001 12.8113 15.4604 13.4665 15.189C14.1216 14.9177 14.7169 14.5199 15.2184 14.0185C15.7198 13.517 16.1176 12.9217 16.3889 12.2666C16.6603 11.6114 16.8 10.9092 16.8 10.2001Z" fill="black" fill-opacity="0.45"/>
</svg>
