<svg width="24" height="24" viewBox="0 0 24 24" fill="none" xmlns="http://www.w3.org/2000/svg">
<path d="M5.4 5.39998V8.99998H9V5.39998H5.4ZM3.6 5.39998C3.6 4.40623 4.40625 3.59998 5.4 3.59998H9C9.99375 3.59998 10.8 4.40623 10.8 5.39998V8.99998C10.8 9.99373 9.99375 10.8 9 10.8H5.4C4.40625 10.8 3.6 9.99373 3.6 8.99998V5.39998ZM5.4 15V18.6H9V15H5.4ZM3.6 15C3.6 14.0062 4.40625 13.2 5.4 13.2H9C9.99375 13.2 10.8 14.0062 10.8 15V18.6C10.8 19.5937 9.99375 20.4 9 20.4H5.4C4.40625 20.4 3.6 19.5937 3.6 18.6V15ZM18.6 5.39998H15V8.99998H18.6V5.39998ZM15 3.59998H18.6C19.5937 3.59998 20.4 4.40623 20.4 5.39998V8.99998C20.4 9.99373 19.5937 10.8 18.6 10.8H15C14.0062 10.8 13.2 9.99373 13.2 8.99998V5.39998C13.2 4.40623 14.0062 3.59998 15 3.59998ZM15 15V18.6H18.6V15H15ZM13.2 15C13.2 14.0062 14.0062 13.2 15 13.2H18.6C19.5937 13.2 20.4 14.0062 20.4 15V18.6C20.4 19.5937 19.5937 20.4 18.6 20.4H15C14.0062 20.4 13.2 19.5937 13.2 18.6V15Z" fill="black" fill-opacity="0.45"/>
</svg>
