<svg width="24" height="24" viewBox="0 0 24 24" fill="none" xmlns="http://www.w3.org/2000/svg">
<path d="M8.1 2.3999C7.60125 2.3999 7.2 2.80115 7.2 3.2999V3.3974C7.2 4.1999 7.60125 4.9499 8.26875 5.3924L8.73375 5.70365C8.9025 5.81615 9 6.00365 9 6.2024V6.2999C9 6.79865 9.40125 7.1999 9.9 7.1999C10.3987 7.1999 10.8 6.79865 10.8 6.2999V6.2024C10.8 5.3999 10.3987 4.6499 9.73125 4.2074L9.26625 3.89615C9.0975 3.78365 9 3.59615 9 3.3974V3.2999C9 2.80115 8.59875 2.3999 8.1 2.3999ZM5.43375 10.1999H18.5662C18.2662 12.8999 15.9787 14.9999 13.2 14.9999H10.8C8.02125 14.9999 5.73 12.8999 5.43375 10.1999ZM4.8 8.3999C4.13625 8.3999 3.6 8.93615 3.6 9.5999C3.6 12.5287 5.3475 15.0487 7.86 16.1737L7.57875 16.8299C7.455 16.8112 7.3275 16.7999 7.2 16.7999C5.87625 16.7999 4.8 17.8762 4.8 19.1999C4.8 20.5237 5.87625 21.5999 7.2 21.5999C8.20875 21.5999 9.07125 20.9812 9.42375 20.0999H15.8625L16.2712 21.0562C16.4662 21.5137 16.995 21.7237 17.4525 21.5287C17.91 21.3337 18.12 20.8049 17.925 20.3474L16.14 16.1737C18.6525 15.0487 20.4 12.5287 20.4 9.5999C20.4 8.93615 19.8637 8.3999 19.2 8.3999H4.8ZM9.13125 17.7749L9.5925 16.6987C9.98625 16.7662 10.3875 16.7999 10.8 16.7999H13.2C13.6125 16.7999 14.0137 16.7662 14.4075 16.6987L15.0937 18.2999H9.42375C9.34875 18.1124 9.2475 17.9362 9.13125 17.7749ZM6.3 19.1999C6.3 18.9612 6.39482 18.7323 6.5636 18.5635C6.73238 18.3947 6.9613 18.2999 7.2 18.2999C7.43869 18.2999 7.66761 18.3947 7.83639 18.5635C8.00518 18.7323 8.1 18.9612 8.1 19.1999C8.1 19.4386 8.00518 19.6675 7.83639 19.8363C7.66761 20.0051 7.43869 20.0999 7.2 20.0999C6.9613 20.0999 6.73238 20.0051 6.5636 19.8363C6.39482 19.6675 6.3 19.4386 6.3 19.1999ZM13.2 3.2999C13.2 2.80115 12.7987 2.3999 12.3 2.3999C11.8012 2.3999 11.4 2.80115 11.4 3.2999V3.3974C11.4 4.1999 11.8012 4.9499 12.4687 5.3924L12.9337 5.70365C13.1025 5.81615 13.2 6.00365 13.2 6.2024V6.2999C13.2 6.79865 13.6012 7.1999 14.1 7.1999C14.5987 7.1999 15 6.79865 15 6.2999V6.2024C15 5.3999 14.5987 4.6499 13.9312 4.2074L13.4662 3.89615C13.2975 3.78365 13.2 3.59615 13.2 3.3974V3.2999Z" fill="black" fill-opacity="0.45"/>
</svg>
