<svg width="24" height="24" viewBox="0 0 24 24" fill="none" xmlns="http://www.w3.org/2000/svg">
<path d="M9.59999 7.20005C9.91825 7.20005 10.2235 7.07362 10.4485 6.84858C10.6736 6.62353 10.8 6.31831 10.8 6.00005C10.8 5.68179 10.6736 5.37656 10.4485 5.15152C10.2235 4.92648 9.91825 4.80005 9.59999 4.80005C9.28173 4.80005 8.97651 4.92648 8.75147 5.15152C8.52642 5.37656 8.39999 5.68179 8.39999 6.00005C8.39999 6.31831 8.52642 6.62353 8.75147 6.84858C8.97651 7.07362 9.28173 7.20005 9.59999 7.20005ZM9.59999 13.2C9.91825 13.2 10.2235 13.0736 10.4485 12.8486C10.6736 12.6235 10.8 12.3183 10.8 12C10.8 11.6818 10.6736 11.3766 10.4485 11.1515C10.2235 10.9265 9.91825 10.8 9.59999 10.8C9.28173 10.8 8.97651 10.9265 8.75147 11.1515C8.52642 11.3766 8.39999 11.6818 8.39999 12C8.39999 12.3183 8.52642 12.6235 8.75147 12.8486C8.97651 13.0736 9.28173 13.2 9.59999 13.2ZM10.8 18C10.8 17.6818 10.6736 17.3766 10.4485 17.1515C10.2235 16.9265 9.91825 16.8 9.59999 16.8C9.28173 16.8 8.97651 16.9265 8.75147 17.1515C8.52642 17.3766 8.39999 17.6818 8.39999 18C8.39999 18.3183 8.52642 18.6235 8.75147 18.8486C8.97651 19.0736 9.28173 19.2 9.59999 19.2C9.91825 19.2 10.2235 19.0736 10.4485 18.8486C10.6736 18.6235 10.8 18.3183 10.8 18ZM14.4 7.20005C14.7183 7.20005 15.0235 7.07362 15.2485 6.84858C15.4736 6.62353 15.6 6.31831 15.6 6.00005C15.6 5.68179 15.4736 5.37656 15.2485 5.15152C15.0235 4.92648 14.7183 4.80005 14.4 4.80005C14.0817 4.80005 13.7765 4.92648 13.5515 5.15152C13.3264 5.37656 13.2 5.68179 13.2 6.00005C13.2 6.31831 13.3264 6.62353 13.5515 6.84858C13.7765 7.07362 14.0817 7.20005 14.4 7.20005ZM15.6 12C15.6 11.6818 15.4736 11.3766 15.2485 11.1515C15.0235 10.9265 14.7183 10.8 14.4 10.8C14.0817 10.8 13.7765 10.9265 13.5515 11.1515C13.3264 11.3766 13.2 11.6818 13.2 12C13.2 12.3183 13.3264 12.6235 13.5515 12.8486C13.7765 13.0736 14.0817 13.2 14.4 13.2C14.7183 13.2 15.0235 13.0736 15.2485 12.8486C15.4736 12.6235 15.6 12.3183 15.6 12ZM14.4 19.2C14.7183 19.2 15.0235 19.0736 15.2485 18.8486C15.4736 18.6235 15.6 18.3183 15.6 18C15.6 17.6818 15.4736 17.3766 15.2485 17.1515C15.0235 16.9265 14.7183 16.8 14.4 16.8C14.0817 16.8 13.7765 16.9265 13.5515 17.1515C13.3264 17.3766 13.2 17.6818 13.2 18C13.2 18.3183 13.3264 18.6235 13.5515 18.8486C13.7765 19.0736 14.0817 19.2 14.4 19.2Z" fill="black" fill-opacity="0.45"/>
</svg>
