<svg width="24" height="24" viewBox="0 0 24 24" fill="none" xmlns="http://www.w3.org/2000/svg">
<path d="M12 2.3999C11.0513 2.3999 10.23 2.95115 9.84001 3.7499C9.57751 3.6524 9.29626 3.5999 9.00001 3.5999C7.67626 3.5999 6.60001 4.67615 6.60001 5.9999V12.2062L6.49876 12.1049C5.56126 11.1674 4.04251 11.1674 3.10501 12.1049C2.16751 13.0424 2.16751 14.5612 3.10501 15.4987L6.39376 18.7874C8.19376 20.5874 10.635 21.5999 13.1813 21.5999H13.5H13.8C13.8563 21.5999 13.9125 21.5962 13.9688 21.5849C17.4075 21.3524 20.1563 18.6074 20.385 15.1687C20.3963 15.1124 20.4 15.0562 20.4 14.9999V8.3999C20.4 7.07615 19.3238 5.9999 18 5.9999C17.7938 5.9999 17.5913 6.02615 17.4 6.0749V5.9999C17.4 4.67615 16.3238 3.5999 15 3.5999C14.7038 3.5999 14.4225 3.6524 14.16 3.7499C13.77 2.95115 12.9488 2.3999 12 2.3999ZM11.4 6.00365V5.9999V4.7999C11.4 4.4699 11.67 4.1999 12 4.1999C12.33 4.1999 12.6 4.4699 12.6 4.7999V5.99615V5.9999V11.0999C12.6 11.5987 13.0013 11.9999 13.5 11.9999C13.9988 11.9999 14.4 11.5987 14.4 11.0999V5.9999C14.4 5.9999 14.4 5.9999 14.4 5.99615C14.4 5.66615 14.67 5.39615 15 5.39615C15.33 5.39615 15.6 5.66615 15.6 5.99615V8.0924V8.09615V11.0962C15.6 11.5949 16.0013 11.9962 16.5 11.9962C16.9988 11.9962 17.4 11.5949 17.4 11.0962V8.40365V8.3999C17.4 8.0699 17.67 7.7999 18 7.7999C18.33 7.7999 18.6 8.0699 18.6 8.3999V14.8837C18.5963 14.9062 18.5963 14.9324 18.5925 14.9549C18.465 17.5687 16.3688 19.6649 13.755 19.7924C13.7325 19.7924 13.7063 19.7962 13.6838 19.7999H13.5H13.1813C11.1113 19.7999 9.12751 18.9787 7.66501 17.5162L4.37626 14.2237C4.14376 13.9912 4.14376 13.6087 4.37626 13.3762C4.60876 13.1437 4.99126 13.1437 5.22376 13.3762L6.86251 15.0149C7.12126 15.2737 7.50751 15.3487 7.84501 15.2099C8.18251 15.0712 8.40001 14.7412 8.40001 14.3774V5.9999C8.40001 5.6699 8.67001 5.3999 9.00001 5.3999C9.33001 5.3999 9.60001 5.66615 9.60001 5.99615V11.0999C9.60001 11.5987 10.0013 11.9999 10.5 11.9999C10.9988 11.9999 11.4 11.5987 11.4 11.0999V6.00365Z" fill="black" fill-opacity="0.45"/>
</svg>
