<svg width="24" height="24" viewBox="0 0 24 24" fill="none" xmlns="http://www.w3.org/2000/svg">
<path d="M7.19999 4.7999V11.4599C7.39499 11.4224 7.59374 11.3999 7.79999 11.3999H8.39999V10.1999V4.7999C8.39999 4.4699 8.12999 4.1999 7.79999 4.1999C7.46999 4.1999 7.19999 4.4699 7.19999 4.7999ZM7.79999 13.1999C7.13624 13.1999 6.59999 13.7362 6.59999 14.3999V15.2999C6.59999 17.7862 8.61374 19.7999 11.1 19.7999H12.9C14.8687 19.7999 16.5412 18.5362 17.1525 16.7737C17.0362 16.7924 16.92 16.7999 16.8 16.7999C16.05 16.7999 15.3787 16.4549 14.9362 15.9149C14.5987 16.0987 14.2087 16.1999 13.8 16.1999C13.2337 16.1999 12.7125 16.0012 12.3 15.6749C11.8875 16.0049 11.3662 16.1999 10.8 16.1999H9.29999C8.80124 16.1999 8.39999 15.7987 8.39999 15.2999C8.39999 14.8012 8.80124 14.3999 9.29999 14.3999H10.8C11.13 14.3999 11.4 14.1299 11.4 13.7999C11.4 13.4699 11.13 13.1999 10.8 13.1999H9.29999H7.79999ZM4.79999 14.3999C4.79999 13.7249 5.02499 13.1024 5.39999 12.5999V4.7999C5.39999 3.47615 6.47624 2.3999 7.79999 2.3999C9.12374 2.3999 10.2 3.47615 10.2 4.7999V7.8749C10.3912 7.82615 10.5937 7.7999 10.8 7.7999C11.7487 7.7999 12.57 8.35115 12.96 9.1499C13.2225 9.0524 13.5037 8.9999 13.8 8.9999C14.55 8.9999 15.2212 9.3449 15.6637 9.8849C16.0012 9.70115 16.3912 9.5999 16.8 9.5999C18.1237 9.5999 19.2 10.6762 19.2 11.9999V14.3999V15.2999C19.2 18.7799 16.38 21.5999 12.9 21.5999H11.1C7.61999 21.5999 4.79999 18.7799 4.79999 15.2999V14.3999ZM17.4 11.9999C17.4 11.6699 17.13 11.3999 16.8 11.3999C16.47 11.3999 16.2 11.6699 16.2 11.9999V13.7999V14.3999C16.2 14.7299 16.47 14.9999 16.8 14.9999C17.13 14.9999 17.4 14.7299 17.4 14.3999V11.9999ZM10.8 11.3999C11.0062 11.3999 11.2087 11.4262 11.4 11.4749V11.3999V10.1999C11.4 9.8699 11.13 9.5999 10.8 9.5999C10.47 9.5999 10.2 9.8699 10.2 10.1999V11.3999H10.8ZM13.2 12.2999V13.7999C13.2 14.1299 13.47 14.3999 13.8 14.3999C14.13 14.3999 14.4 14.1299 14.4 13.7999V11.9999V11.3999C14.4 11.0699 14.13 10.7999 13.8 10.7999C13.47 10.7999 13.2 11.0699 13.2 11.3999V12.2999Z" fill="black" fill-opacity="0.45"/>
</svg>
