<svg width="24" height="24" viewBox="0 0 24 24" fill="none" xmlns="http://www.w3.org/2000/svg">
<path d="M7.34625 7.53363C6.24375 6.41613 6.24375 4.60113 7.34625 3.48363C8.44875 2.36613 10.2337 2.36613 11.3362 3.48363L12 4.15863L12.6637 3.48363C13.7662 2.36613 15.5512 2.36613 16.6537 3.48363C17.7562 4.60113 17.7562 6.41613 16.6537 7.53363L12.8437 11.4036C12.6112 11.6399 12.3075 11.7561 12 11.7561C11.6925 11.7561 11.3887 11.6399 11.1562 11.4036L7.34625 7.53363ZM8.2275 15.5999C7.93125 15.5999 7.6425 15.6861 7.395 15.8511L4.39875 17.8499C4.2525 17.9474 4.07625 17.9999 3.9 17.9999H2.1C1.60125 17.9999 1.2 17.5986 1.2 17.0999C1.2 16.6011 1.60125 16.1999 2.1 16.1999H3.62625L6.39375 14.3549C6.9375 13.9911 7.575 13.7999 8.2275 13.7999H14.1C15.4237 13.7999 16.5 14.8761 16.5 16.1999C16.5 16.2261 16.5 16.2486 16.5 16.2749L18.9337 14.7749C19.335 14.5274 19.7925 14.3999 20.265 14.3999H20.5425C21.7912 14.3999 22.8037 15.4124 22.8037 16.6611C22.8037 17.4261 22.4137 18.1424 21.7725 18.5586L18.1875 20.8799C17.46 21.3524 16.6087 21.6036 15.7425 21.6036H2.1C1.60125 21.6036 1.2 21.2024 1.2 20.7036C1.2 20.2049 1.60125 19.8036 2.1 19.8036H15.7387C16.26 19.8036 16.77 19.6536 17.205 19.3686L20.79 17.0474C20.9212 16.9611 21 16.8186 21 16.6611C21 16.4061 20.7937 16.1999 20.5387 16.1999H20.2612C20.1262 16.1999 19.9912 16.2374 19.875 16.3086L16.3687 18.4649C16.2262 18.5511 16.065 18.5999 15.8962 18.5999H14.1H13.2H10.8C10.3012 18.5999 9.9 18.1986 9.9 17.6999C9.9 17.2011 10.3012 16.7999 10.8 16.7999H13.2H14.1C14.43 16.7999 14.7 16.5299 14.7 16.1999C14.7 15.8699 14.43 15.5999 14.1 15.5999H8.2275Z" fill="black" fill-opacity="0.45"/>
</svg>
