<svg width="24" height="24" viewBox="0 0 24 24" fill="none" xmlns="http://www.w3.org/2000/svg">
<path d="M10.2075 4.82255L8.29125 6.7388C7.7175 6.8963 7.185 7.18505 6.735 7.58255L5.7375 8.4713C5.355 8.81255 4.85625 9.00005 4.3425 9.00005H3.6V13.8C4.365 13.8225 5.0925 14.1338 5.63625 14.6775L6.97125 16.0125L7.23375 16.275L8.24625 17.2875C8.47875 17.52 8.86125 17.52 9.09375 17.2875C9.1575 17.2238 9.20625 17.1488 9.2325 17.0701C9.3375 16.7813 9.58125 16.5638 9.88125 16.4963C10.1813 16.4288 10.4963 16.5188 10.7138 16.74L11.1188 17.1375C11.5538 17.5725 12.2587 17.5725 12.69 17.1375C12.8925 16.935 13.0013 16.6763 13.0125 16.41C13.0275 16.08 13.2225 15.7875 13.5225 15.6451C13.8225 15.5026 14.1713 15.5325 14.4375 15.7238C14.79 15.975 15.2812 15.9413 15.5963 15.6263C15.9488 15.2738 15.9488 14.7038 15.5963 14.355L12.7538 11.5125L11.4113 12.75C10.3875 13.695 8.81625 13.71 7.77375 12.7838C6.585 11.7263 6.55875 9.8813 7.71375 8.79005L10.3425 6.30755C11.37 5.34005 12.7275 4.80005 14.1413 4.80005C15.495 4.80005 16.8038 5.2988 17.8125 6.19505L18.9413 7.20005H20.4H21.9H23.4C23.73 7.20005 24 7.47005 24 7.80005V15.6C24 16.2638 23.4638 16.8 22.8 16.8H21.6C21.1575 16.8 20.7675 16.56 20.5613 16.2H17.3775C17.25 16.4513 17.0813 16.6913 16.8713 16.9013C16.23 17.5426 15.3413 17.7938 14.5087 17.655C14.3738 17.9288 14.19 18.1838 13.9613 18.4125C12.9375 19.4363 11.3363 19.5375 10.1962 18.7163C9.255 19.4963 7.8525 19.4475 6.97125 18.5625L5.9625 17.55L5.7 17.2875L4.365 15.9525C4.15875 15.7463 3.88875 15.6263 3.6 15.6038C3.6 16.2638 3.06 16.8 2.4 16.8H1.2C0.53625 16.8 0 16.2638 0 15.6V7.80005C0 7.47005 0.27 7.20005 0.6 7.20005H2.1H3.6H4.3425C4.4175 7.20005 4.48875 7.1738 4.54125 7.12505L5.535 6.24005C6.58125 5.3138 7.9275 4.80005 9.32625 4.80005H9.7125C9.8775 4.80005 10.0463 4.80755 10.2075 4.82255ZM20.4 14.4V9.00005H18.6C18.3787 9.00005 18.165 8.91755 18.0038 8.7713L16.62 7.5413C15.9375 6.9338 15.0563 6.60005 14.1413 6.60005C13.1888 6.60005 12.2738 6.9638 11.58 7.6163L8.95125 10.0988C8.565 10.4663 8.5725 11.085 8.97 11.4375C9.31875 11.7488 9.8475 11.7413 10.1888 11.4263L12.885 8.9363C13.2488 8.5988 13.8188 8.6213 14.1563 8.9888C14.4938 9.3563 14.4713 9.92255 14.1038 10.26L14.0738 10.29L16.8638 13.08C17.2388 13.455 17.4825 13.9163 17.5913 14.3963H20.4V14.4ZM2.4 15C2.4 14.8409 2.33679 14.6883 2.22426 14.5758C2.11174 14.4633 1.95913 14.4 1.8 14.4C1.64087 14.4 1.48826 14.4633 1.37574 14.5758C1.26321 14.6883 1.2 14.8409 1.2 15C1.2 15.1592 1.26321 15.3118 1.37574 15.4243C1.48826 15.5368 1.64087 15.6 1.8 15.6C1.95913 15.6 2.11174 15.5368 2.22426 15.4243C2.33679 15.3118 2.4 15.1592 2.4 15ZM22.2 15.6C22.3591 15.6 22.5117 15.5368 22.6243 15.4243C22.7368 15.3118 22.8 15.1592 22.8 15C22.8 14.8409 22.7368 14.6883 22.6243 14.5758C22.5117 14.4633 22.3591 14.4 22.2 14.4C22.0409 14.4 21.8883 14.4633 21.7757 14.5758C21.6632 14.6883 21.6 14.8409 21.6 15C21.6 15.1592 21.6632 15.3118 21.7757 15.4243C21.8883 15.5368 22.0409 15.6 22.2 15.6Z" fill="black" fill-opacity="0.45"/>
</svg>
