<svg width="24" height="24" viewBox="0 0 24 24" fill="none" xmlns="http://www.w3.org/2000/svg">
<g clip-path="url(#clip0_9_2150)">
<path d="M1.455 2.59136C1.065 2.28386 0.498747 2.35511 0.191247 2.74511C-0.116253 3.13511 -0.0450028 3.70136 0.344997 4.00886L22.545 21.4089C22.935 21.7164 23.5012 21.6451 23.8087 21.2551C24.1162 20.8651 24.045 20.2989 23.655 19.9914L18.8175 16.2001H20.5612C20.7675 16.5601 21.1575 16.8001 21.6 16.8001H22.8C23.4637 16.8001 24 16.2639 24 15.6001V7.80011C24 7.47011 23.73 7.20011 23.4 7.20011H21.9H20.4H18.9412L17.8125 6.19511C16.8 5.29886 15.495 4.80011 14.1412 4.80011C12.7312 4.80011 11.37 5.34011 10.3462 6.30761L8.4675 8.08511L7.2975 7.17011C7.60875 6.98261 7.9425 6.83636 8.29125 6.73886L10.2075 4.82261C10.0425 4.80761 9.8775 4.80011 9.7125 4.80011H9.32625C8.05125 4.80011 6.8175 5.22761 5.81625 6.00761L1.455 2.59136ZM9.89625 9.20636L11.58 7.61636C12.2737 6.96386 13.1887 6.60011 14.1412 6.60011C15.0562 6.60011 15.9375 6.93386 16.62 7.54136L18.0037 8.77136C18.1687 8.91761 18.3825 9.00011 18.6 9.00011H20.4V14.4001H17.1H16.5225L12.795 11.4789L14.1112 10.2639C14.475 9.92636 14.4975 9.35636 14.1637 8.99261C13.83 8.62886 13.2562 8.60636 12.8925 8.94011L11.3587 10.3539L9.89625 9.21011V9.20636ZM3.6 8.83511L1.5225 7.20011H0.599997C0.269997 7.20011 -2.83628e-06 7.47011 -2.83628e-06 7.80011V15.6001C-2.83628e-06 16.2639 0.536247 16.8001 1.2 16.8001H2.4C3.06 16.8001 3.6 16.2639 3.6 15.6039C3.88875 15.6226 4.15875 15.7464 4.365 15.9526L5.7 17.2876L5.9625 17.5501L6.97125 18.5626C7.85625 19.4476 9.255 19.4964 10.1962 18.7164C11.3362 19.5414 12.9337 19.4401 13.9612 18.4126C14.235 18.1389 14.4412 17.8276 14.5837 17.4939L13.0087 16.2526C13.0387 16.5714 12.93 16.8976 12.6862 17.1414C12.2512 17.5764 11.5462 17.5764 11.115 17.1414L10.7137 16.7401C10.4962 16.5226 10.1812 16.4326 9.88125 16.4964C9.58125 16.5601 9.33375 16.7776 9.2325 17.0701C9.2025 17.1489 9.1575 17.2239 9.09375 17.2876C8.86125 17.5201 8.47875 17.5201 8.24625 17.2876L7.2375 16.2789L6.975 16.0164L5.64 14.6814C5.0925 14.1376 4.365 13.8226 3.6 13.8001V10.8001V9.00011V8.83511ZM1.2 15.0001C1.2 14.841 1.26321 14.6884 1.37573 14.5758C1.48826 14.4633 1.64087 14.4001 1.8 14.4001C1.95913 14.4001 2.11174 14.4633 2.22426 14.5758C2.33678 14.6884 2.4 14.841 2.4 15.0001C2.4 15.1592 2.33678 15.3119 2.22426 15.4244C2.11174 15.5369 1.95913 15.6001 1.8 15.6001C1.64087 15.6001 1.48826 15.5369 1.37573 15.4244C1.26321 15.3119 1.2 15.1592 1.2 15.0001ZM22.2 14.4001C22.3591 14.4001 22.5117 14.4633 22.6243 14.5758C22.7368 14.6884 22.8 14.841 22.8 15.0001C22.8 15.1592 22.7368 15.3119 22.6243 15.4244C22.5117 15.5369 22.3591 15.6001 22.2 15.6001C22.0409 15.6001 21.8883 15.5369 21.7757 15.4244C21.6632 15.3119 21.6 15.1592 21.6 15.0001C21.6 14.841 21.6632 14.6884 21.7757 14.5758C21.8883 14.4633 22.0409 14.4001 22.2 14.4001Z" fill="black" fill-opacity="0.45"/>
</g>
<defs>
<clipPath id="clip0_9_2150">
<rect width="24" height="24" fill="white"/>
</clipPath>
</defs>
</svg>
