<svg width="24" height="24" viewBox="0 0 24 24" fill="none" xmlns="http://www.w3.org/2000/svg">
<path d="M10.6762 3.61878C11.1637 3.71628 11.4787 4.18878 11.3812 4.67628L10.8187 7.50003H14.9812L15.615 4.32378C15.7125 3.83628 16.185 3.52128 16.6725 3.61878C17.16 3.71628 17.475 4.18878 17.3775 4.67628L16.8187 7.50003H19.5C19.9987 7.50003 20.4 7.90128 20.4 8.40003C20.4 8.89878 19.9987 9.30003 19.5 9.30003H16.4587L15.3787 14.7H18.3C18.7987 14.7 19.2 15.1013 19.2 15.6C19.2 16.0988 18.7987 16.5 18.3 16.5H15.0187L14.385 19.6763C14.2875 20.1638 13.815 20.4788 13.3275 20.3813C12.84 20.2838 12.525 19.8113 12.6225 19.3238L13.1812 16.5H9.01875L8.385 19.6763C8.2875 20.1638 7.815 20.4788 7.3275 20.3813C6.84 20.2838 6.525 19.8113 6.6225 19.3238L7.18125 16.5H4.5C4.00125 16.5 3.6 16.0988 3.6 15.6C3.6 15.1013 4.00125 14.7 4.5 14.7H7.54125L8.62125 9.30003H5.7C5.20125 9.30003 4.8 8.89878 4.8 8.40003C4.8 7.90128 5.20125 7.50003 5.7 7.50003H8.98125L9.615 4.32378C9.7125 3.83628 10.185 3.52128 10.6725 3.61878H10.6762ZM10.4587 9.30003L9.37875 14.7H13.5413L14.6212 9.30003H10.4587Z" fill="black" fill-opacity="0.45"/>
</svg>
