<svg width="24" height="24" viewBox="0 0 24 24" fill="none" xmlns="http://www.w3.org/2000/svg">
<path d="M4.2 10.7999C4.2 7.1549 7.155 4.1999 10.8 4.1999H11.7C13.9538 4.1999 16.0388 5.57615 16.935 7.51115C17.0813 7.82615 17.2163 8.14865 17.3625 8.4824L17.4188 8.61365C17.58 8.9924 17.7525 9.3899 17.94 9.7799C18.3188 10.5599 18.7838 11.3549 19.4625 12.0337L19.6275 12.1987C19.7363 12.3074 19.8 12.4574 19.8 12.6112C19.8 12.9337 19.5375 13.1962 19.215 13.1962H18.3C17.8013 13.1962 17.4 13.5974 17.4 14.0962V16.7962C17.4 17.1262 17.13 17.3962 16.8 17.3962H13.5C13.0013 17.3962 12.6 17.7974 12.6 18.2962V20.6962C12.6 21.1949 13.0013 21.5962 13.5 21.5962C13.9988 21.5962 14.4 21.1949 14.4 20.6962V19.1999H16.8C18.1238 19.1999 19.2 18.1237 19.2 16.7999V14.9999H19.215C20.5313 14.9999 21.6 13.9312 21.6 12.6149C21.6 11.9812 21.3488 11.3774 20.9025 10.9274L20.7375 10.7624C20.2613 10.2862 19.8975 9.69365 19.56 8.99615C19.3913 8.6474 19.2338 8.2874 19.0725 7.90865L19.0163 7.7774C18.8738 7.44365 18.7238 7.0949 18.5663 6.75365C17.3775 4.1849 14.655 2.3999 11.7 2.3999H10.8C6.16125 2.3999 2.4 6.16115 2.4 10.7999C2.4 12.8099 3.10875 14.6587 4.28625 16.1062C4.62 16.5187 4.8 16.9462 4.8 17.3474V20.6999C4.8 21.1987 5.20125 21.5999 5.7 21.5999C6.19875 21.5999 6.6 21.1987 6.6 20.6999V17.3474C6.6 16.4137 6.19125 15.5924 5.68125 14.9699C4.755 13.8299 4.2 12.3824 4.2 10.7999ZM15 10.7999C15.3183 10.7999 15.6235 10.6735 15.8485 10.4484C16.0736 10.2234 16.2 9.91816 16.2 9.5999C16.2 9.28164 16.0736 8.97642 15.8485 8.75137C15.6235 8.52633 15.3183 8.3999 15 8.3999C14.6817 8.3999 14.3765 8.52633 14.1515 8.75137C13.9264 8.97642 13.8 9.28164 13.8 9.5999C13.8 9.91816 13.9264 10.2234 14.1515 10.4484C14.3765 10.6735 14.6817 10.7999 15 10.7999Z" fill="black" fill-opacity="0.45"/>
</svg>
