<svg width="24" height="24" viewBox="0 0 24 24" fill="none" xmlns="http://www.w3.org/2000/svg">
<path d="M4.26002 12.2251C4.74002 8.3776 8.02127 5.4001 12 5.4001C15.9788 5.4001 19.26 8.3776 19.74 12.2251C19.3875 12.0788 19.005 12.0001 18.6 12.0001C17.6063 12.0001 16.8 12.8063 16.8 13.8001V18.6001C16.8 19.5938 17.6063 20.4001 18.6 20.4001C20.2575 20.4001 21.6 19.0576 21.6 17.4001V16.2001V15.0001V13.2001C21.6 7.8976 17.3025 3.6001 12 3.6001C6.69753 3.6001 2.40002 7.8976 2.40002 13.2001V15.0001V16.2001V17.4001C2.40002 19.0576 3.74252 20.4001 5.40002 20.4001C6.39377 20.4001 7.20002 19.5938 7.20002 18.6001V13.8001C7.20002 12.8063 6.39377 12.0001 5.40002 12.0001C4.99502 12.0001 4.61252 12.0788 4.26002 12.2251ZM4.20002 15.0001C4.20002 14.3363 4.73627 13.8001 5.40002 13.8001V18.6001C4.73627 18.6001 4.20002 18.0638 4.20002 17.4001V16.2001V15.0001ZM19.8 15.0001V16.2001V17.4001C19.8 18.0638 19.2638 18.6001 18.6 18.6001V13.8001C19.2638 13.8001 19.8 14.3363 19.8 15.0001Z" fill="black" fill-opacity="0.45"/>
</svg>
