<svg width="24" height="24" viewBox="0 0 24 24" fill="none" xmlns="http://www.w3.org/2000/svg">
<path d="M10.8675 19.9576L10.7738 19.8713L4.20376 13.77C3.05251 12.7013 2.40001 11.2013 2.40001 9.63005V9.5063C2.40001 6.8663 4.27501 4.6013 6.87001 4.1063C8.34751 3.8213 9.85876 4.16255 11.0625 5.01005C11.4 5.25005 11.715 5.52755 12 5.8463C12.1575 5.6663 12.3263 5.5013 12.5063 5.34755C12.645 5.22755 12.7875 5.11505 12.9375 5.01005C14.1413 4.16255 15.6525 3.8213 17.13 4.10255C19.725 4.59755 21.6 6.8663 21.6 9.5063V9.63005C21.6 11.2013 20.9475 12.7013 19.7963 13.77L13.2263 19.8713L13.1325 19.9576C12.825 20.2425 12.42 20.4038 12 20.4038C11.58 20.4038 11.175 20.2463 10.8675 19.9576ZM11.3663 7.83755C11.3513 7.8263 11.34 7.8113 11.3288 7.7963L10.6613 7.0463L10.6575 7.04255C9.79126 6.0713 8.48251 5.6288 7.20751 5.87255C5.46001 6.2063 4.20001 7.7288 4.20001 9.5063V9.63005C4.20001 10.6988 4.64626 11.7225 5.43001 12.45L12 18.5513L18.57 12.45C19.3538 11.7225 19.8 10.6988 19.8 9.63005V9.5063C19.8 7.73255 18.54 6.2063 16.7963 5.87255C15.5213 5.6288 14.2088 6.07505 13.3463 7.04255C13.3463 7.04255 13.3463 7.04255 13.3425 7.0463C13.3388 7.05005 13.3425 7.0463 13.3388 7.05005L12.6713 7.80005C12.66 7.81505 12.645 7.8263 12.6338 7.8413C12.465 8.01005 12.2363 8.1038 12 8.1038C11.7638 8.1038 11.535 8.01005 11.3663 7.8413V7.83755Z" fill="black" fill-opacity="0.45"/>
</svg>
