<svg width="24" height="24" viewBox="0 0 24 24" fill="none" xmlns="http://www.w3.org/2000/svg">
<path d="M14.6625 3.86252C15.015 3.51002 15.585 3.51002 15.9337 3.86252L16.4662 4.39502C16.8562 4.27127 17.2687 4.20002 17.7 4.20002H18.9C19.4925 4.20002 20.055 4.33127 20.5575 4.56752L20.9625 4.16252C21.315 3.81002 21.885 3.81002 22.2337 4.16252C22.5825 4.51502 22.5862 5.08502 22.2337 5.43377L21.9712 5.69627C22.4887 6.36002 22.7962 7.19252 22.7962 8.09627C22.7962 8.10752 22.8 8.11877 22.8075 8.12252C23.535 8.78252 23.9962 9.73502 23.9962 10.7963C23.9962 11.8613 23.5312 12.8213 22.7962 13.4813V13.4963V14.6963C22.7962 15.195 22.395 15.5963 21.8962 15.5963H21.3C20.8012 15.5963 20.4 15.195 20.4 14.6963V14.3963H18V14.6963C18 15.195 17.5987 15.5963 17.1 15.5963H16.5C16.0012 15.5963 15.6 15.195 15.6 14.6963V14.1938C14.2012 13.6988 13.2 12.3675 13.2 10.8C13.2 10.1925 13.35 9.62252 13.6162 9.12002C13.725 8.91002 13.8 8.68127 13.8 8.44502V8.10002C13.8 7.76627 13.8412 7.44377 13.92 7.13252C12.96 6.78002 11.9437 6.60002 10.92 6.60002H9.59999H8.66999C5.53874 6.60002 2.99999 9.13877 2.99999 12.27C2.99999 13.0088 2.84624 13.74 2.54624 14.415L1.72124 16.2638C1.51874 16.7175 0.986243 16.9238 0.532493 16.7213C0.0787427 16.5188 -0.123757 15.99 0.0787427 15.5363L0.899993 13.6838C1.09874 13.2375 1.19999 12.7575 1.19999 12.27C1.19999 8.14502 4.54499 4.80002 8.66999 4.80002H9.59999H10.92C12.2362 4.80002 13.5412 5.04752 14.7675 5.53127C14.8125 5.47877 14.8575 5.43002 14.9062 5.38127L14.6625 5.13752C14.31 4.78502 14.31 4.21502 14.6625 3.86627V3.86252ZM17.7 6.00002C16.5412 6.00002 15.6 6.94127 15.6 8.10002V8.44502C15.6 9.06002 15.4087 9.58127 15.2062 9.96002C15.075 10.2075 15 10.4925 15 10.8C15 11.7938 15.8062 12.6 16.8 12.6H20.4C21.3937 12.6 22.2 11.7938 22.2 10.8C22.2 10.2713 21.975 9.79502 21.6075 9.46502C21.225 9.12002 21 8.62502 21 8.10002C21 6.94127 20.0587 6.00002 18.9 6.00002H17.7ZM15.3 16.56C15.5662 16.7138 15.8737 16.8 16.2 16.8H17.1V18.3C17.1 19.4588 16.1587 20.4 15 20.4H13.2C12.0412 20.4 11.1 19.4588 11.1 18.3V17.685C10.11 17.8875 9.08999 17.8875 8.09999 17.685V18.3C8.09999 19.4588 7.15874 20.4 5.99999 20.4H4.49999C3.34124 20.4 2.39999 19.4588 2.39999 18.3V16.5C2.39999 16.0013 2.80124 15.6 3.29999 15.6C3.79874 15.6 4.19999 16.0013 4.19999 16.5V18.3C4.19999 18.465 4.33499 18.6 4.49999 18.6H5.99999C6.16499 18.6 6.29999 18.465 6.29999 18.3V16.5C6.29999 16.215 6.43499 15.945 6.66749 15.7763C6.89999 15.6075 7.19624 15.5588 7.46999 15.6413L7.89374 15.7763C9.00374 16.125 10.1962 16.125 11.3062 15.7763L11.73 15.6413C12.0037 15.555 12.3 15.6038 12.5325 15.7763C12.765 15.9488 12.9 16.215 12.9 16.5V18.3C12.9 18.465 13.035 18.6 13.2 18.6H15C15.165 18.6 15.3 18.465 15.3 18.3V16.56ZM17.4 7.20002C17.5591 7.20002 17.7117 7.26323 17.8243 7.37576C17.9368 7.48828 18 7.64089 18 7.80002C18 7.95915 17.9368 8.11176 17.8243 8.22428C17.7117 8.33681 17.5591 8.40002 17.4 8.40002C17.2409 8.40002 17.0882 8.33681 16.9757 8.22428C16.8632 8.11176 16.8 7.95915 16.8 7.80002C16.8 7.64089 16.8632 7.48828 16.9757 7.37576C17.0882 7.26323 17.2409 7.20002 17.4 7.20002ZM19.2 7.80002C19.2 7.64089 19.2632 7.48828 19.3757 7.37576C19.4883 7.26323 19.6409 7.20002 19.8 7.20002C19.9591 7.20002 20.1117 7.26323 20.2243 7.37576C20.3368 7.48828 20.4 7.64089 20.4 7.80002C20.4 7.95915 20.3368 8.11176 20.2243 8.22428C20.1117 8.33681 19.9591 8.40002 19.8 8.40002C19.6409 8.40002 19.4883 8.33681 19.3757 8.22428C19.2632 8.11176 19.2 7.95915 19.2 7.80002ZM17.1 9.90002C17.3387 9.90002 17.5676 9.99484 17.7364 10.1636C17.9052 10.3324 18 10.5613 18 10.8C18 11.0387 17.9052 11.2676 17.7364 11.4364C17.5676 11.6052 17.3387 11.7 17.1 11.7C16.8613 11.7 16.6324 11.6052 16.4636 11.4364C16.2948 11.2676 16.2 11.0387 16.2 10.8C16.2 10.5613 16.2948 10.3324 16.4636 10.1636C16.6324 9.99484 16.8613 9.90002 17.1 9.90002ZM19.8 10.8C19.8 10.5613 19.8948 10.3324 20.0636 10.1636C20.2324 9.99484 20.4613 9.90002 20.7 9.90002C20.9387 9.90002 21.1676 9.99484 21.3364 10.1636C21.5052 10.3324 21.6 10.5613 21.6 10.8C21.6 11.0387 21.5052 11.2676 21.3364 11.4364C21.1676 11.6052 20.9387 11.7 20.7 11.7C20.4613 11.7 20.2324 11.6052 20.0636 11.4364C19.8948 11.2676 19.8 11.0387 19.8 10.8Z" fill="black" fill-opacity="0.45"/>
</svg>
