<svg width="24" height="24" viewBox="0 0 24 24" fill="none" xmlns="http://www.w3.org/2000/svg">
<path d="M6 19.25C6 19.6656 6.33437 20 6.75 20H17.25C17.6656 20 18 19.6656 18 19.25C18 18.8344 17.6656 18.5 17.25 18.5H17V17.9062C17 16.6469 16.5 15.4375 15.6094 14.5469L13.0594 12L15.6062 9.45312C16.5 8.5625 17 7.35313 17 6.09375V5.5H17.25C17.6656 5.5 18 5.16562 18 4.75C18 4.33437 17.6656 4 17.25 4H6.75C6.33437 4 6 4.33437 6 4.75C6 5.16562 6.33437 5.5 6.75 5.5H7V6.09375C7 7.35313 7.5 8.5625 8.39062 9.45312L10.9406 12L8.39062 14.5469C7.5 15.4375 7 16.6469 7 17.9062V18.5H6.75C6.33437 18.5 6 18.8344 6 19.25ZM8.62812 7C8.54375 6.70937 8.5 6.40313 8.5 6.09375V5.5H15.5V6.09375C15.5 6.40313 15.4562 6.70937 15.3719 7H8.62812ZM14.5469 15.6094C15.1562 16.2188 15.5 17.0437 15.5 17.9062V18.5H8.5V17.9062C8.5 17.0437 8.84375 16.2188 9.45312 15.6094L12 13.0594L14.5469 15.6062V15.6094Z" fill="black" fill-opacity="0.45"/>
</svg>
