<svg width="24" height="24" viewBox="0 0 24 24" fill="none" xmlns="http://www.w3.org/2000/svg">
<path d="M11.4187 2.61377C11.7562 2.32877 12.2475 2.32877 12.585 2.61377L22.485 11.0138C22.8637 11.3363 22.9125 11.9025 22.59 12.2813C22.2675 12.66 21.7012 12.705 21.3225 12.3863L20.4 11.6063V18.6C20.4 20.2575 19.0575 21.6 17.4 21.6H6.59999C4.94249 21.6 3.59999 20.2575 3.59999 18.6V11.6063L2.68124 12.3863C2.30249 12.7088 1.73249 12.66 1.41374 12.2813C1.09499 11.9025 1.13999 11.3325 1.51874 11.0138L11.4187 2.61377ZM12 4.48127L5.39999 10.08V18.6C5.39999 19.2638 5.93624 19.8 6.59999 19.8H8.39999V14.1C8.39999 13.2713 9.07124 12.6 9.89999 12.6H14.1C14.9287 12.6 15.6 13.2713 15.6 14.1V19.8H17.4C18.0637 19.8 18.6 19.2638 18.6 18.6V10.08L12 4.48127ZM10.2 19.8H13.8V14.4H10.2V19.8Z" fill="black" fill-opacity="0.45"/>
</svg>
