<svg width="24" height="24" viewBox="0 0 24 24" fill="none" xmlns="http://www.w3.org/2000/svg">
<path d="M19.2 5.39998C19.53 5.39998 19.8 5.66998 19.8 5.99998V17.9925L19.6125 17.7487L14.5125 11.1487C14.3437 10.9275 14.0775 10.8 13.8 10.8C13.5225 10.8 13.26 10.9275 13.0875 11.1487L9.97499 15.1762L8.83124 13.575C8.66249 13.3387 8.39249 13.2 8.09999 13.2C7.80749 13.2 7.53749 13.3387 7.36874 13.5787L4.36874 17.7787L4.19999 18.0112V18V5.99998C4.19999 5.66998 4.46999 5.39998 4.79999 5.39998H19.2ZM4.79999 3.59998C3.47624 3.59998 2.39999 4.67623 2.39999 5.99998V18C2.39999 19.3237 3.47624 20.4 4.79999 20.4H19.2C20.5237 20.4 21.6 19.3237 21.6 18V5.99998C21.6 4.67623 20.5237 3.59998 19.2 3.59998H4.79999ZM7.79999 10.8C8.03637 10.8 8.27044 10.7534 8.48882 10.663C8.70721 10.5725 8.90564 10.4399 9.07279 10.2728C9.23993 10.1056 9.37252 9.90719 9.46298 9.68881C9.55344 9.47042 9.59999 9.23635 9.59999 8.99998C9.59999 8.7636 9.55344 8.52953 9.46298 8.31115C9.37252 8.09276 9.23993 7.89433 9.07279 7.72718C8.90564 7.56004 8.70721 7.42745 8.48882 7.33699C8.27044 7.24653 8.03637 7.19998 7.79999 7.19998C7.56361 7.19998 7.32955 7.24653 7.11116 7.33699C6.89278 7.42745 6.69435 7.56004 6.5272 7.72718C6.36006 7.89433 6.22747 8.09276 6.13701 8.31115C6.04655 8.52953 5.99999 8.7636 5.99999 8.99998C5.99999 9.23635 6.04655 9.47042 6.13701 9.68881C6.22747 9.90719 6.36006 10.1056 6.5272 10.2728C6.69435 10.4399 6.89278 10.5725 7.11116 10.663C7.32955 10.7534 7.56361 10.8 7.79999 10.8Z" fill="black" fill-opacity="0.45"/>
</svg>
