<svg width="24" height="24" viewBox="0 0 24 24" fill="none" xmlns="http://www.w3.org/2000/svg">
<path d="M4.20001 15H7.24501L8.02876 16.5712C8.28376 17.0812 8.80126 17.4 9.37126 17.4H14.6288C15.195 17.4 15.7163 17.0775 15.9713 16.5712L16.755 15H19.8V18C19.8 18.33 19.53 18.6 19.2 18.6H4.80001C4.47001 18.6 4.20001 18.33 4.20001 18V15ZM19.4438 13.2H16.5713C16.005 13.2 15.4838 13.5225 15.2288 14.0287L14.445 15.6H9.55501L8.77126 14.0287C8.51626 13.5187 7.99876 13.2 7.42876 13.2H4.55626L6.39376 5.85373C6.45751 5.58748 6.69751 5.39998 6.97501 5.39998H17.025C17.2988 5.39998 17.5388 5.58748 17.6063 5.85373L19.4438 13.2ZM2.40001 14.6962V18C2.40001 19.3237 3.47626 20.4 4.80001 20.4H19.2C20.5238 20.4 21.6 19.3237 21.6 18V14.6962C21.6 14.5012 21.5775 14.3062 21.5288 14.115L19.3538 5.41873C19.0875 4.34998 18.1275 3.59998 17.025 3.59998H6.97501C5.87251 3.59998 4.91251 4.34998 4.64626 5.41873L2.47126 14.115C2.42251 14.3025 2.40001 14.4975 2.40001 14.6962Z" fill="black" fill-opacity="0.45"/>
</svg>
