<svg width="24" height="24" viewBox="0 0 24 24" fill="none" xmlns="http://www.w3.org/2000/svg">
<path d="M12 4.1999C12.6365 4.1999 13.247 4.45276 13.6971 4.90285C14.1471 5.35293 14.4 5.96338 14.4 6.5999C14.4 7.23642 14.1471 7.84687 13.6971 8.29696C13.247 8.74705 12.6365 8.9999 12 8.9999C11.3635 8.9999 10.753 8.74705 10.3029 8.29696C9.85286 7.84687 9.60001 7.23642 9.60001 6.5999C9.60001 5.96338 9.85286 5.35293 10.3029 4.90285C10.753 4.45276 11.3635 4.1999 12 4.1999ZM12.9 10.7024C14.7863 10.2899 16.2 8.6099 16.2 6.5999C16.2 4.27865 14.3213 2.3999 12 2.3999C9.67876 2.3999 7.80001 4.27865 7.80001 6.5999C7.80001 8.6099 9.21376 10.2899 11.1 10.7024V14.3999H12.9V10.7024ZM7.20001 14.3999C6.53626 14.3999 6.00001 14.9362 6.00001 15.5999C4.67626 15.5999 3.60001 16.6762 3.60001 17.9999V19.1999C3.60001 20.5237 4.67626 21.5999 6.00001 21.5999H18C19.3238 21.5999 20.4 20.5237 20.4 19.1999V17.9999C20.4 16.6762 19.3238 15.5999 18 15.5999H8.40001C8.40001 14.9362 7.86376 14.3999 7.20001 14.3999ZM7.20001 17.3999H18C18.33 17.3999 18.6 17.6699 18.6 17.9999V19.1999C18.6 19.5299 18.33 19.7999 18 19.7999H6.00001C5.67001 19.7999 5.40001 19.5299 5.40001 19.1999V17.9999C5.40001 17.6699 5.67001 17.3999 6.00001 17.3999H7.20001Z" fill="black" fill-opacity="0.45"/>
</svg>
