<svg width="24" height="24" viewBox="0 0 24 24" fill="none" xmlns="http://www.w3.org/2000/svg">
<path d="M10.2 8.9999C10.2 6.34865 12.3488 4.1999 15 4.1999C17.6513 4.1999 19.8 6.34865 19.8 8.9999C19.8 11.6512 17.6513 13.7999 15 13.7999C14.61 13.7999 14.2313 13.7549 13.8713 13.6649C13.5675 13.5899 13.245 13.6799 13.0238 13.9049L11.9288 14.9999H9.9C9.40125 14.9999 9 15.4012 9 15.8999V17.3999H7.5C7.00125 17.3999 6.6 17.8012 6.6 18.2999V19.7999H4.2V16.8712L10.095 10.9762C10.3163 10.7549 10.4063 10.4324 10.335 10.1287C10.2488 9.76865 10.2 9.3899 10.2 8.9999ZM15 2.3999C11.355 2.3999 8.4 5.3549 8.4 8.9999C8.4 9.35615 8.42625 9.7049 8.4825 10.0462L2.6625 15.8624C2.49375 16.0312 2.4 16.2599 2.4 16.4999V20.6999C2.4 21.1987 2.80125 21.5999 3.3 21.5999H7.5C7.99875 21.5999 8.4 21.1987 8.4 20.6999V19.1999H9.9C10.3988 19.1999 10.8 18.7987 10.8 18.2999V16.7999H12.3C12.54 16.7999 12.7688 16.7062 12.9375 16.5374L13.9575 15.5174C14.2988 15.5699 14.6475 15.5999 15.0038 15.5999C18.6488 15.5999 21.6038 12.6449 21.6038 8.9999C21.6038 5.3549 18.645 2.3999 15 2.3999ZM16.2 8.9999C16.5183 8.9999 16.8235 8.87347 17.0485 8.64843C17.2736 8.42339 17.4 8.11816 17.4 7.7999C17.4 7.48164 17.2736 7.17642 17.0485 6.95137C16.8235 6.72633 16.5183 6.5999 16.2 6.5999C15.8817 6.5999 15.5765 6.72633 15.3515 6.95137C15.1264 7.17642 15 7.48164 15 7.7999C15 8.11816 15.1264 8.42339 15.3515 8.64843C15.5765 8.87347 15.8817 8.9999 16.2 8.9999Z" fill="black" fill-opacity="0.45"/>
</svg>
