<svg width="24" height="24" viewBox="0 0 24 24" fill="none" xmlns="http://www.w3.org/2000/svg">
<path d="M12.435 2.5124C12.165 2.3624 11.835 2.3624 11.565 2.5124L3.06 7.20365C2.65125 7.42865 2.4 7.85615 2.4 8.32115C2.4 9.0299 2.97 9.5999 3.67875 9.5999H20.3213C21.0263 9.5999 21.6 9.0299 21.6 8.32115C21.6 7.85615 21.3488 7.42865 20.94 7.20365L12.435 2.5124ZM12 4.3274L18.2925 7.7999H5.7075L12 4.3274ZM6.6 10.7999H4.8V16.7999H4.5C4.00125 16.7999 3.6 17.2012 3.6 17.6999C3.6 18.1987 4.00125 18.5999 4.5 18.5999H19.5C19.9988 18.5999 20.4 18.1987 20.4 17.6999C20.4 17.2012 19.9988 16.7999 19.5 16.7999H19.2V10.7999H17.4V16.7999H15V10.7999H13.2V16.7999H10.8V10.7999H9V16.7999H6.6V10.7999ZM2.4 20.6999C2.4 21.1987 2.80125 21.5999 3.3 21.5999H20.7C21.1988 21.5999 21.6 21.1987 21.6 20.6999C21.6 20.2012 21.1988 19.7999 20.7 19.7999H3.3C2.80125 19.7999 2.4 20.2012 2.4 20.6999Z" fill="black" fill-opacity="0.45"/>
</svg>
