<svg width="24" height="24" viewBox="0 0 24 24" fill="none" xmlns="http://www.w3.org/2000/svg">
<path d="M12 2.3999C11.6813 2.3999 11.3625 2.46365 11.07 2.59115L3.22125 5.9549C2.7225 6.16865 2.4 6.65615 2.4 7.1999C2.4 7.74365 2.7225 8.23115 3.22125 8.4449L11.07 11.8087C11.3625 11.9362 11.6813 11.9999 12 11.9999C12.3188 11.9999 12.6375 11.9362 12.93 11.8087L20.7788 8.4449C21.2775 8.23115 21.6 7.7399 21.6 7.1999C21.6 6.6599 21.2775 6.16865 20.7788 5.9549L12.93 2.59115C12.6375 2.46365 12.3188 2.3999 12 2.3999ZM11.7788 4.2449C11.85 4.2149 11.925 4.1999 12 4.1999C12.075 4.1999 12.15 4.2149 12.2213 4.2449L19.1138 7.1999L12.2213 10.1549C12.15 10.1849 12.075 10.1999 12 10.1999C11.925 10.1999 11.85 10.1849 11.7788 10.1549L4.88625 7.1999L11.7788 4.2449ZM3.22125 10.7549C2.7225 10.9687 2.4 11.4562 2.4 11.9999C2.4 12.5437 2.7225 13.0312 3.22125 13.2449L11.07 16.6087C11.3625 16.7362 11.6813 16.7999 12 16.7999C12.3188 16.7999 12.6375 16.7362 12.93 16.6087L20.7788 13.2449C21.2775 13.0312 21.6 12.5399 21.6 11.9999C21.6 11.4599 21.2775 10.9687 20.7788 10.7549L19.6088 10.2524L17.325 11.2312L19.1138 11.9999L12.2213 14.9549C12.15 14.9849 12.075 14.9999 12 14.9999C11.925 14.9999 11.85 14.9849 11.7788 14.9549L4.88625 11.9999L6.675 11.2312L4.39125 10.2524L3.22125 10.7549ZM3.22125 15.5549C2.7225 15.7687 2.4 16.2562 2.4 16.7999C2.4 17.3437 2.7225 17.8312 3.22125 18.0449L11.07 21.4087C11.3625 21.5362 11.6813 21.5999 12 21.5999C12.3188 21.5999 12.6375 21.5362 12.93 21.4087L20.7788 18.0449C21.2775 17.8312 21.6 17.3399 21.6 16.7999C21.6 16.2599 21.2775 15.7687 20.7788 15.5549L19.6088 15.0524L17.325 16.0312L19.1138 16.7999L12.2213 19.7549C12.15 19.7849 12.075 19.7999 12 19.7999C11.925 19.7999 11.85 19.7849 11.7788 19.7549L4.88625 16.7999L6.675 16.0312L4.39125 15.0524L3.22125 15.5549Z" fill="black" fill-opacity="0.45"/>
</svg>
