<svg width="24" height="24" viewBox="0 0 24 24" fill="none" xmlns="http://www.w3.org/2000/svg">
<path d="M17.4 5.4001C17.28 5.4001 17.1675 5.4151 17.0663 5.44885C16.35 5.6551 15.3375 5.84635 14.28 5.5726C12.1275 5.01385 9.6075 5.8501 7.72875 7.72885C5.85 9.6076 5.01375 12.1276 5.5725 14.2801C5.84625 15.3376 5.655 16.3501 5.44875 17.0663C5.41875 17.1713 5.4 17.2838 5.4 17.4001C5.4 18.0638 5.93625 18.6001 6.6 18.6001C6.72 18.6001 6.8325 18.5851 6.93375 18.5513C7.65 18.3451 8.6625 18.1501 9.72 18.4276C11.8725 18.9863 14.3925 18.1501 16.2713 16.2713C18.15 14.3926 18.9863 11.8726 18.4275 9.7201C18.1538 8.6626 18.345 7.6501 18.5513 6.93385C18.5813 6.82885 18.6 6.71635 18.6 6.6001C18.6 5.93635 18.0638 5.4001 17.4 5.4001ZM17.4 3.6001C19.0575 3.6001 20.4 4.9426 20.4 6.6001C20.4 6.88885 20.3588 7.1701 20.2838 7.43635C20.1113 8.02885 20.0175 8.6701 20.1713 9.2701C20.925 12.1801 19.7625 15.3263 17.5463 17.5463C15.33 19.7663 12.18 20.9288 9.27 20.1713C8.67 20.0176 8.0325 20.1113 7.43625 20.2838C7.17 20.3588 6.88875 20.4001 6.6 20.4001C4.9425 20.4001 3.6 19.0576 3.6 17.4001C3.6 17.1113 3.64125 16.8301 3.71625 16.5638C3.88875 15.9713 3.9825 15.3301 3.82875 14.7301C3.075 11.8238 4.2375 8.67385 6.4575 6.4576C8.6775 4.24135 11.8237 3.07509 14.73 3.82885C15.33 3.9826 15.9675 3.88885 16.5638 3.71635C16.83 3.64135 17.1113 3.6001 17.4 3.6001ZM12.8513 8.6626C10.9013 9.2326 9.2325 10.9013 8.6625 12.8513C8.52375 13.3276 8.02125 13.6013 7.545 13.4626C7.06875 13.3238 6.795 12.8213 6.93375 12.3451C7.67625 9.80635 9.80625 7.67635 12.345 6.93385C12.8213 6.7951 13.3238 7.06885 13.4625 7.5451C13.6013 8.02135 13.3275 8.52385 12.8513 8.6626Z" fill="black" fill-opacity="0.45"/>
</svg>
