<svg width="24" height="24" viewBox="0 0 24 24" fill="none" xmlns="http://www.w3.org/2000/svg">
<path d="M16.8412 18.1162C15.5137 19.1699 13.83 19.7999 12 19.7999C10.17 19.7999 8.48624 19.1699 7.15874 18.1162L10.1737 15.1012C10.71 15.4162 11.3362 15.5999 12.0037 15.5999C12.6712 15.5999 13.2975 15.4199 13.8337 15.1012L16.8487 18.1162H16.8412ZM19.395 18.1237C20.7712 16.4587 21.6 14.3287 21.6 11.9999C21.6 9.67115 20.7712 7.54115 19.395 5.87615L19.8375 5.4374C20.19 5.0849 20.19 4.5149 19.8375 4.16615C19.485 3.8174 18.915 3.81365 18.5662 4.16615L18.1237 4.6049C16.4587 3.22865 14.3287 2.3999 12 2.3999C9.67124 2.3999 7.54124 3.22865 5.87624 4.6049L5.43749 4.1624C5.08499 3.8099 4.51499 3.8099 4.16624 4.1624C3.81749 4.5149 3.81374 5.0849 4.16624 5.43365L4.60499 5.87615C3.22874 7.54115 2.39999 9.67115 2.39999 11.9999C2.39999 14.3287 3.22874 16.4587 4.60499 18.1237L4.16249 18.5624C3.80999 18.9149 3.80999 19.4849 4.16249 19.8337C4.51499 20.1824 5.08499 20.1862 5.43374 19.8337L5.87624 19.3912C7.54124 20.7712 9.67124 21.5999 12 21.5999C14.3287 21.5999 16.4587 20.7712 18.1237 19.3949L18.5625 19.8374C18.915 20.1899 19.485 20.1899 19.8337 19.8374C20.1825 19.4849 20.1862 18.9149 19.8337 18.5662L19.3912 18.1237H19.395ZM18.1162 16.8449L15.1012 13.8299C15.4162 13.2937 15.6 12.6674 15.6 11.9999C15.6 11.3324 15.42 10.7062 15.1012 10.1699L18.1162 7.1549C19.17 8.48615 19.8 10.1699 19.8 11.9999C19.8 13.8299 19.17 15.5137 18.1162 16.8412V16.8449ZM16.8412 5.88365L13.8262 8.89865C13.29 8.58365 12.6637 8.3999 11.9962 8.3999C11.3287 8.3999 10.7025 8.5799 10.1662 8.89865L7.15874 5.88365C8.48624 4.8299 10.17 4.1999 12 4.1999C13.83 4.1999 15.5137 4.8299 16.8412 5.88365ZM8.89874 13.8299L5.88374 16.8412C4.82999 15.5137 4.19999 13.8299 4.19999 11.9999C4.19999 10.1699 4.82999 8.48615 5.88374 7.15865L8.89874 10.1737C8.58374 10.7099 8.39999 11.3362 8.39999 12.0037C8.39999 12.6712 8.57999 13.2974 8.89874 13.8337V13.8299ZM10.2 11.9999C10.2 11.5225 10.3896 11.0647 10.7272 10.7271C11.0648 10.3895 11.5226 10.1999 12 10.1999C12.4774 10.1999 12.9352 10.3895 13.2728 10.7271C13.6104 11.0647 13.8 11.5225 13.8 11.9999C13.8 12.4773 13.6104 12.9351 13.2728 13.2727C12.9352 13.6103 12.4774 13.7999 12 13.7999C11.5226 13.7999 11.0648 13.6103 10.7272 13.2727C10.3896 12.9351 10.2 12.4773 10.2 11.9999Z" fill="black" fill-opacity="0.45"/>
</svg>
