<svg width="24" height="24" viewBox="0 0 24 24" fill="none" xmlns="http://www.w3.org/2000/svg">
<path d="M21.7612 12.4199C23.8687 10.3124 23.8687 6.89616 21.7612 4.78866C19.755 2.78241 16.5337 2.67366 14.3962 4.54491L14.1675 4.74741C13.7925 5.07366 13.755 5.64366 14.0812 6.01866C14.4075 6.39366 14.9775 6.43116 15.3525 6.10491L15.5812 5.90241C17.0062 4.65741 19.1513 4.72866 20.49 6.06741C21.8925 7.46991 21.8925 9.74616 20.49 11.1524L16.2413 15.3974C14.8387 16.7999 12.5588 16.7999 11.1562 15.3974C9.8175 14.0587 9.74625 11.9137 10.9913 10.4887L11.1675 10.2862C11.4937 9.91116 11.4563 9.34491 11.0813 9.01491C10.7063 8.68491 10.14 8.72616 9.81 9.10116L9.63375 9.30366C7.76625 11.4412 7.875 14.6624 9.88125 16.6687C11.9887 18.7762 15.405 18.7762 17.5125 16.6687L21.7612 12.4199ZM2.23875 11.5799C0.13125 13.6874 0.13125 17.1037 2.23875 19.2074C4.24875 21.2174 7.47 21.3224 9.6075 19.4512L9.83625 19.2487C10.2112 18.9224 10.2487 18.3524 9.9225 17.9774C9.59625 17.6024 9.02625 17.5649 8.65125 17.8912L8.4225 18.0937C6.9975 19.3387 4.8525 19.2674 3.51375 17.9287C2.11125 16.5262 2.11125 14.2499 3.51375 12.8437L7.7625 8.60241C9.165 7.19991 11.4412 7.19991 12.8475 8.60241C14.1862 9.94116 14.2575 12.0862 13.0125 13.5112L12.81 13.7399C12.4838 14.1149 12.5212 14.6812 12.8962 15.0112C13.2712 15.3412 13.8375 15.2999 14.1675 14.9249L14.37 14.6962C16.2413 12.5587 16.1325 9.33741 14.1263 7.32741C12.0188 5.21991 8.6025 5.21991 6.495 7.32741L2.23875 11.5799Z" fill="black" fill-opacity="0.45"/>
</svg>
