<svg width="24" height="24" viewBox="0 0 24 24" fill="none" xmlns="http://www.w3.org/2000/svg">
<path d="M3.9 4.19995C3.40125 4.19995 3 4.6012 3 5.09995V6.89995C3 7.3987 3.40125 7.79995 3.9 7.79995H5.7C6.19875 7.79995 6.6 7.3987 6.6 6.89995V5.09995C6.6 4.6012 6.19875 4.19995 5.7 4.19995H3.9ZM9.3 5.09995C8.80125 5.09995 8.4 5.5012 8.4 5.99995C8.4 6.4987 8.80125 6.89995 9.3 6.89995H20.7C21.1988 6.89995 21.6 6.4987 21.6 5.99995C21.6 5.5012 21.1988 5.09995 20.7 5.09995H9.3ZM9.3 11.1C8.80125 11.1 8.4 11.5012 8.4 12C8.4 12.4987 8.80125 12.9 9.3 12.9H20.7C21.1988 12.9 21.6 12.4987 21.6 12C21.6 11.5012 21.1988 11.1 20.7 11.1H9.3ZM9.3 17.1C8.80125 17.1 8.4 17.5012 8.4 18C8.4 18.4987 8.80125 18.9 9.3 18.9H20.7C21.1988 18.9 21.6 18.4987 21.6 18C21.6 17.5012 21.1988 17.1 20.7 17.1H9.3ZM3 11.1V12.9C3 13.3987 3.40125 13.8 3.9 13.8H5.7C6.19875 13.8 6.6 13.3987 6.6 12.9V11.1C6.6 10.6012 6.19875 10.2 5.7 10.2H3.9C3.40125 10.2 3 10.6012 3 11.1ZM3.9 16.2C3.40125 16.2 3 16.6012 3 17.1V18.9C3 19.3987 3.40125 19.8 3.9 19.8H5.7C6.19875 19.8 6.6 19.3987 6.6 18.9V17.1C6.6 16.6012 6.19875 16.2 5.7 16.2H3.9Z" fill="black" fill-opacity="0.45"/>
</svg>
