<svg width="24" height="24" viewBox="0 0 24 24" fill="none" xmlns="http://www.w3.org/2000/svg">
<path d="M17.4 9.60002C17.4 6.61877 14.9812 4.20002 12 4.20002C9.01875 4.20002 6.6 6.61877 6.6 9.60002C6.6 10.065 6.76875 10.785 7.17375 11.745C7.5675 12.675 8.12625 13.7025 8.7675 14.7413C9.83625 16.4738 11.0737 18.1463 12 19.3388C12.93 18.1463 14.1675 16.4738 15.2325 14.7413C15.8737 13.7025 16.4325 12.675 16.8262 11.745C17.2312 10.785 17.4 10.065 17.4 9.60002ZM19.2 9.60002C19.2 12.8775 14.8125 18.7125 12.8887 21.12C12.4275 21.6938 11.5725 21.6938 11.1112 21.12C9.1875 18.7125 4.8 12.8775 4.8 9.60002C4.8 5.62502 8.025 2.40002 12 2.40002C15.975 2.40002 19.2 5.62502 19.2 9.60002ZM13.2 9.60002C13.2 9.28176 13.0736 8.97654 12.8485 8.7515C12.6235 8.52645 12.3183 8.40002 12 8.40002C11.6817 8.40002 11.3765 8.52645 11.1515 8.7515C10.9264 8.97654 10.8 9.28176 10.8 9.60002C10.8 9.91828 10.9264 10.2235 11.1515 10.4486C11.3765 10.6736 11.6817 10.8 12 10.8C12.3183 10.8 12.6235 10.6736 12.8485 10.4486C13.0736 10.2235 13.2 9.91828 13.2 9.60002ZM9 9.60002C9 8.80437 9.31607 8.04131 9.87868 7.4787C10.4413 6.91609 11.2043 6.60002 12 6.60002C12.7956 6.60002 13.5587 6.91609 14.1213 7.4787C14.6839 8.04131 15 8.80437 15 9.60002C15 10.3957 14.6839 11.1587 14.1213 11.7213C13.5587 12.284 12.7956 12.6 12 12.6C11.2043 12.6 10.4413 12.284 9.87868 11.7213C9.31607 11.1587 9 10.3957 9 9.60002Z" fill="black" fill-opacity="0.45"/>
</svg>
