<svg width="24" height="24" viewBox="0 0 24 24" fill="none" xmlns="http://www.w3.org/2000/svg">
<path d="M16.8262 11.7449C16.4325 12.6749 15.8737 13.7024 15.2325 14.7412C14.1675 16.4737 12.93 18.1499 12 19.3387C11.07 18.1462 9.8325 16.4737 8.7675 14.7412C8.12625 13.7024 7.5675 12.6749 7.17375 11.7449C6.76875 10.7849 6.6 10.0649 6.6 9.5999C6.6 6.61865 9.01875 4.1999 12 4.1999C14.9812 4.1999 17.4 6.61865 17.4 9.5999C17.4 10.0649 17.2312 10.7849 16.8262 11.7449ZM12.8887 21.1199C14.8125 18.7124 19.2 12.8774 19.2 9.5999C19.2 5.6249 15.975 2.3999 12 2.3999C8.025 2.3999 4.8 5.6249 4.8 9.5999C4.8 12.8774 9.1875 18.7124 11.1112 21.1199C11.5725 21.6937 12.4275 21.6937 12.8887 21.1199Z" fill="black" fill-opacity="0.45"/>
</svg>
