<svg width="24" height="24" viewBox="0 0 24 24" fill="none" xmlns="http://www.w3.org/2000/svg">
<path d="M9.00001 7.20002V9.60002H15V7.20002C15 5.54252 13.6575 4.20002 12 4.20002C10.3425 4.20002 9.00001 5.54252 9.00001 7.20002ZM7.20001 9.60002V7.20002C7.20001 4.54877 9.34876 2.40002 12 2.40002C14.6513 2.40002 16.8 4.54877 16.8 7.20002V9.60002H18C19.3238 9.60002 20.4 10.6763 20.4 12V19.2C20.4 20.5238 19.3238 21.6 18 21.6H6.00001C4.67626 21.6 3.60001 20.5238 3.60001 19.2V12C3.60001 10.6763 4.67626 9.60002 6.00001 9.60002H7.20001ZM5.40001 12V19.2C5.40001 19.53 5.67001 19.8 6.00001 19.8H18C18.33 19.8 18.6 19.53 18.6 19.2V12C18.6 11.67 18.33 11.4 18 11.4H6.00001C5.67001 11.4 5.40001 11.67 5.40001 12Z" fill="black" fill-opacity="0.45"/>
</svg>
