<svg width="24" height="24" viewBox="0 0 24 24" fill="none" xmlns="http://www.w3.org/2000/svg">
<path d="M5.40001 12.0001C5.40001 15.6451 8.35501 18.6001 12 18.6001C15.645 18.6001 18.6 15.6451 18.6 12.0001V9.6001H16.2V12.0001C16.2 14.3213 14.3213 16.2001 12 16.2001C9.67876 16.2001 7.80001 14.3213 7.80001 12.0001V9.6001H5.40001V12.0001ZM3.60001 5.7001C3.60001 4.54135 4.54126 3.6001 5.70001 3.6001H7.50001C8.65876 3.6001 9.60001 4.54135 9.60001 5.7001V12.0001C9.60001 13.3238 10.6763 14.4001 12 14.4001C13.3238 14.4001 14.4 13.3238 14.4 12.0001V5.7001C14.4 4.54135 15.3413 3.6001 16.5 3.6001H18.3C19.4588 3.6001 20.4 4.54135 20.4 5.7001V12.0001C20.4 16.6388 16.6388 20.4001 12 20.4001C7.36126 20.4001 3.60001 16.6388 3.60001 12.0001V5.7001Z" fill="black" fill-opacity="0.45"/>
</svg>
