<svg width="24" height="24" viewBox="0 0 24 24" fill="none" xmlns="http://www.w3.org/2000/svg">
<path d="M16.2 10.2C16.2 8.60873 15.5679 7.0826 14.4426 5.95738C13.3174 4.83217 11.7913 4.20002 10.2 4.20002C8.6087 4.20002 7.08257 4.83217 5.95735 5.95738C4.83213 7.0826 4.19999 8.60873 4.19999 10.2C4.19999 11.7913 4.83213 13.3174 5.95735 14.4427C7.08257 15.5679 8.6087 16.2 10.2 16.2C11.7913 16.2 13.3174 15.5679 14.4426 14.4427C15.5679 13.3174 16.2 11.7913 16.2 10.2ZM15.0412 16.3163C13.7137 17.37 12.03 18 10.2 18C5.89124 18 2.39999 14.5088 2.39999 10.2C2.39999 5.89127 5.89124 2.40002 10.2 2.40002C14.5087 2.40002 18 5.89127 18 10.2C18 12.03 17.37 13.7138 16.3162 15.0413L21.3375 20.0625C21.69 20.415 21.69 20.985 21.3375 21.3338C20.985 21.6825 20.415 21.6863 20.0662 21.3338L15.0412 16.3163Z" fill="black" fill-opacity="0.45"/>
</svg>
