<svg width="24" height="24" viewBox="0 0 24 24" fill="none" xmlns="http://www.w3.org/2000/svg">
<path d="M21.9 3.6001C21.4013 3.6001 21 4.00135 21 4.5001V4.71385L3 9.6226V9.3001C3 8.80135 2.59875 8.4001 2.1 8.4001C1.60125 8.4001 1.2 8.80135 1.2 9.3001V10.1138V10.8001V13.2001V13.8863V14.7001C1.2 15.1988 1.60125 15.6001 2.1 15.6001C2.59875 15.6001 3 15.1988 3 14.7001V14.3776L7.41001 15.5813C7.275 15.9638 7.2 16.3726 7.2 16.8001C7.2 18.7876 8.8125 20.4001 10.8 20.4001C12.5588 20.4001 14.025 19.1401 14.3363 17.4713L21 19.2863V19.5001C21 19.9988 21.4013 20.4001 21.9 20.4001C22.3988 20.4001 22.8 19.9988 22.8 19.5001V18.6001V5.4001V4.5001C22.8 4.00135 22.3988 3.6001 21.9 3.6001ZM21 17.4226L3 12.5138V11.4863L21 6.5776V17.4226ZM9 16.8001C9 16.5338 9.05625 16.2826 9.16125 16.0576L12.5925 16.9913C12.495 17.8951 11.73 18.5963 10.8038 18.5963C9.81001 18.5963 9.00376 17.7901 9.00376 16.7963L9 16.8001Z" fill="black" fill-opacity="0.45"/>
</svg>
