<svg width="24" height="24" viewBox="0 0 24 24" fill="none" xmlns="http://www.w3.org/2000/svg">
<path d="M13.875 6.375V12C13.875 12.9316 13.1191 13.6875 12.1875 13.6875C11.2559 13.6875 10.5 12.9316 10.5 12V6.375C10.5 5.44336 11.2559 4.6875 12.1875 4.6875C13.1191 4.6875 13.875 5.44336 13.875 6.375ZM8.8125 6.375V12C8.8125 13.8633 10.3242 15.375 12.1875 15.375C14.0508 15.375 15.5625 13.8633 15.5625 12V6.375C15.5625 4.51172 14.0508 3 12.1875 3C10.3242 3 8.8125 4.51172 8.8125 6.375ZM7.6875 10.5938C7.6875 10.1262 7.31133 9.75 6.84375 9.75C6.37617 9.75 6 10.1262 6 10.5938V12C6 15.1324 8.32734 17.7199 11.3438 18.1312V19.3125H9.65625C9.18867 19.3125 8.8125 19.6887 8.8125 20.1562C8.8125 20.6238 9.18867 21 9.65625 21H12.1875H14.7188C15.1863 21 15.5625 20.6238 15.5625 20.1562C15.5625 19.6887 15.1863 19.3125 14.7188 19.3125H13.0312V18.1312C16.0477 17.7199 18.375 15.1324 18.375 12V10.5938C18.375 10.1262 17.9988 9.75 17.5312 9.75C17.0637 9.75 16.6875 10.1262 16.6875 10.5938V12C16.6875 14.4855 14.673 16.5 12.1875 16.5C9.70195 16.5 7.6875 14.4855 7.6875 12V10.5938Z" fill="black" fill-opacity="0.45"/>
</svg>
