<svg width="24" height="24" viewBox="0 0 24 24" fill="none" xmlns="http://www.w3.org/2000/svg">
<path d="M7.79999 4.1999C7.46999 4.1999 7.19999 4.4699 7.19999 4.7999V19.1999C7.19999 19.5299 7.46999 19.7999 7.79999 19.7999H16.2C16.53 19.7999 16.8 19.5299 16.8 19.1999V4.7999C16.8 4.4699 16.53 4.1999 16.2 4.1999H7.79999ZM5.39999 4.7999C5.39999 3.47615 6.47624 2.3999 7.79999 2.3999H16.2C17.5237 2.3999 18.6 3.47615 18.6 4.7999V19.1999C18.6 20.5237 17.5237 21.5999 16.2 21.5999H7.79999C6.47624 21.5999 5.39999 20.5237 5.39999 19.1999V4.7999ZM10.8 17.3999H13.2C13.53 17.3999 13.8 17.6699 13.8 17.9999C13.8 18.3299 13.53 18.5999 13.2 18.5999H10.8C10.47 18.5999 10.2 18.3299 10.2 17.9999C10.2 17.6699 10.47 17.3999 10.8 17.3999Z" fill="black" fill-opacity="0.45"/>
</svg>
