<svg width="24" height="24" viewBox="0 0 24 24" fill="none" xmlns="http://www.w3.org/2000/svg">
<path fill-rule="evenodd" clip-rule="evenodd" d="M3.66667 7.22222C3.66667 6.91667 3.91667 6.66667 4.22222 6.66667H19.7778C20.0833 6.66667 20.3333 6.91667 20.3333 7.22222V16.1111C20.3333 16.4167 20.0833 16.6667 19.7778 16.6667H4.22222C3.91667 16.6667 3.66667 16.4167 3.66667 16.1111V7.22222ZM4.22222 5C2.99653 5 2 5.99653 2 7.22222V16.1111C2 17.3368 2.99653 18.3333 4.22222 18.3333H19.7778C21.0035 18.3333 22 17.3368 22 16.1111V7.22222C22 5.99653 21.0035 5 19.7778 5H4.22222ZM14.357 9.30964C13.7319 8.68452 12.8841 8.33333 12 8.33333C11.1159 8.33333 10.2681 8.68452 9.64298 9.30964C9.01786 9.93477 8.66667 10.7826 8.66667 11.6667C8.66667 12.5507 9.01786 13.3986 9.64298 14.0237C10.2681 14.6488 11.1159 15 12 15C12.8841 15 13.7319 14.6488 14.357 14.0237C14.9821 13.3986 15.3333 12.5507 15.3333 11.6667C15.3333 10.7826 14.9821 9.93477 14.357 9.30964ZM12.3558 9.93085C12.3558 9.74893 12.207 9.6001 12.0251 9.6001C11.8432 9.6001 11.6943 9.74893 11.6943 9.93085V10.1624C11.5686 10.1905 11.443 10.2351 11.3272 10.3029C11.0973 10.4402 10.8989 10.68 10.9005 11.0289C10.9022 11.3646 11.099 11.5763 11.309 11.702C11.4909 11.8112 11.7175 11.8806 11.8977 11.9335L11.9258 11.9418C12.1342 12.0046 12.2864 12.0543 12.3889 12.1187C12.4732 12.1717 12.4848 12.208 12.4865 12.2544C12.4881 12.337 12.4567 12.3867 12.3889 12.428C12.3062 12.4793 12.1756 12.5107 12.035 12.5057C11.8514 12.4991 11.6794 12.4412 11.4545 12.3652C11.4165 12.3519 11.3768 12.3387 11.3355 12.3255C11.1618 12.2676 10.9749 12.3618 10.9171 12.5338C10.8592 12.7058 10.9534 12.8944 11.1254 12.9522C11.1569 12.9622 11.1916 12.9737 11.2263 12.987C11.3636 13.0349 11.5223 13.0895 11.6927 13.1259V13.3673C11.6927 13.5492 11.8415 13.6981 12.0234 13.6981C12.2053 13.6981 12.3542 13.5492 12.3542 13.3673V13.1391C12.4865 13.111 12.6188 13.0647 12.7378 12.9903C12.9743 12.8431 13.1529 12.5917 13.148 12.2461C13.143 11.9104 12.9545 11.6937 12.7411 11.5581C12.551 11.4391 12.3128 11.3663 12.1276 11.3101L12.116 11.3068C11.9043 11.2423 11.7539 11.196 11.648 11.1331C11.562 11.0819 11.5604 11.0521 11.5604 11.0223C11.5604 10.9611 11.5835 10.9148 11.6629 10.8685C11.7522 10.8156 11.8878 10.7842 12.0185 10.7858C12.1772 10.7875 12.3525 10.8222 12.5344 10.8718C12.7114 10.9181 12.8916 10.8139 12.9396 10.637C12.9875 10.46 12.8817 10.2798 12.7048 10.2318C12.5973 10.2037 12.4782 10.1756 12.3558 10.1541V9.93085Z" fill="black" fill-opacity="0.45"/>
</svg>
