<svg width="24" height="24" viewBox="0 0 24 24" fill="none" xmlns="http://www.w3.org/2000/svg">
<path d="M12.3 4.5001C12.3 4.00135 12.7012 3.6001 13.2 3.6001H14.7487C15.6412 3.6001 16.44 4.16635 16.7325 5.0101L17.0362 5.88385L18.9487 4.9276C19.1137 4.8451 19.2975 4.8001 19.485 4.8001H19.8C20.13 4.8001 20.4 5.0701 20.4 5.4001V7.8001C20.4 8.1301 20.13 8.4001 19.8 8.4001H19.485C19.2975 8.4001 19.1137 8.3551 18.9487 8.2726L17.64 7.61635L18.75 10.8151C18.9 10.8038 19.05 10.8001 19.2 10.8001C20.8387 10.8001 22.3237 11.4563 23.4037 12.5176C23.76 12.8663 23.7638 13.4363 23.415 13.7888C23.0662 14.1413 22.4962 14.1488 22.1437 13.8001C21.3825 13.0576 20.3475 12.6001 19.2 12.6001C17.1337 12.6001 15.4125 14.0926 15.0637 16.0613C14.9887 16.4926 14.6137 16.8038 14.1787 16.8038H12.6C12.5662 16.8038 12.5362 16.8038 12.5025 16.8001H10.8H9.6C9.6 18.7876 7.9875 20.4001 6 20.4001C4.0125 20.4001 2.4 18.7876 2.4 16.8001H1.2C0.53625 16.8001 0 16.2638 0 15.6001V14.4001C0 11.7488 2.14875 9.6001 4.8 9.6001H8.4C9.06375 9.6001 9.6 10.1363 9.6 10.8001V13.8001C9.6 14.4638 10.1362 15.0001 10.8 15.0001H12.3H13.4737C14.0175 13.2751 15.315 11.8838 16.9837 11.2238L15.03 5.6026C14.9887 5.4826 14.8725 5.4001 14.745 5.4001H13.2C12.7012 5.4001 12.3 4.99885 12.3 4.5001ZM4.5 6.6001H8.7C9.19875 6.6001 9.6 7.00135 9.6 7.5001C9.6 7.99885 9.19875 8.4001 8.7 8.4001H4.5C4.00125 8.4001 3.6 7.99885 3.6 7.5001C3.6 7.00135 4.00125 6.6001 4.5 6.6001ZM7.8 11.4001H4.8C3.1425 11.4001 1.8 12.7426 1.8 14.4001V15.0001H8.05125C7.89 14.6326 7.8 14.2276 7.8 13.8001V11.4001ZM6 18.6001C6.99375 18.6001 7.8 17.7938 7.8 16.8001H4.2C4.2 17.7938 5.00625 18.6001 6 18.6001ZM19.2 18.6001C19.6774 18.6001 20.1352 18.4105 20.4728 18.0729C20.8104 17.7353 21 17.2775 21 16.8001C21 16.3227 20.8104 15.8649 20.4728 15.5273C20.1352 15.1897 19.6774 15.0001 19.2 15.0001C18.7226 15.0001 18.2648 15.1897 17.9272 15.5273C17.5896 15.8649 17.4 16.3227 17.4 16.8001C17.4 17.2775 17.5896 17.7353 17.9272 18.0729C18.2648 18.4105 18.7226 18.6001 19.2 18.6001ZM19.2 13.2001C20.1548 13.2001 21.0705 13.5794 21.7456 14.2545C22.4207 14.9296 22.8 15.8453 22.8 16.8001C22.8 17.7549 22.4207 18.6706 21.7456 19.3457C21.0705 20.0208 20.1548 20.4001 19.2 20.4001C18.2452 20.4001 17.3295 20.0208 16.6544 19.3457C15.9793 18.6706 15.6 17.7549 15.6 16.8001C15.6 15.8453 15.9793 14.9296 16.6544 14.2545C17.3295 13.5794 18.2452 13.2001 19.2 13.2001Z" fill="black" fill-opacity="0.45"/>
</svg>
