<svg width="24" height="24" viewBox="0 0 24 24" fill="none" xmlns="http://www.w3.org/2000/svg">
<path d="M18 5.3999C18 4.60425 18.3161 3.84119 18.8787 3.27858C19.4413 2.71597 20.2044 2.3999 21 2.3999C21.7957 2.3999 22.5587 2.71597 23.1213 3.27858C23.6839 3.84119 24 4.60425 24 5.3999C24 6.19555 23.6839 6.95861 23.1213 7.52122C22.5587 8.08383 21.7957 8.3999 21 8.3999C20.2044 8.3999 19.4413 8.08383 18.8787 7.52122C18.3161 6.95861 18 6.19555 18 5.3999ZM15.4763 12.9637L17.2838 10.0012C17.4375 9.75365 17.7075 9.5999 18 9.5999C18.2925 9.5999 18.5625 9.75365 18.7163 10.0012L23.6663 18.1124C23.8838 18.4724 24 18.8849 24 19.3049C24 20.5724 22.9725 21.5962 21.7088 21.5962H17.1038H2.09625C0.9375 21.5999 0 20.6624 0 19.5037C0 19.1099 0.1125 18.7237 0.3225 18.3899L8.445 5.4374C8.6925 5.0399 9.13125 4.7999 9.6 4.7999C10.0688 4.7999 10.5037 5.0399 10.755 5.4374L15.48 12.9637H15.4763ZM16.545 14.6662L18.8775 18.3862C19.0875 18.7199 19.2 19.1062 19.2 19.4999C19.2 19.6012 19.1925 19.6987 19.1775 19.7962H21.705C21.975 19.7962 22.1963 19.5749 22.1963 19.3049C22.1963 19.2149 22.17 19.1249 22.125 19.0499L18 12.2849L16.545 14.6699V14.6662ZM17.1038 19.7999C17.2688 19.7999 17.4 19.6687 17.4 19.5037C17.4 19.4474 17.385 19.3949 17.355 19.3462L9.6 6.98615L1.845 19.3462C1.815 19.3949 1.8 19.4474 1.8 19.5037C1.8 19.6687 1.93125 19.7999 2.09625 19.7999H17.1038Z" fill="black" fill-opacity="0.45"/>
</svg>
