<svg width="24" height="24" viewBox="0 0 24 24" fill="none" xmlns="http://www.w3.org/2000/svg">
<path d="M5.69999 2.40002C6.19874 2.40002 6.59999 2.80127 6.59999 3.30002C6.59999 3.90377 6.88124 4.18877 7.49249 4.72127L7.53374 4.75877C8.12249 5.27252 8.99999 6.04127 8.99999 7.50002C8.99999 7.99877 8.59874 8.40002 8.09999 8.40002C7.60124 8.40002 7.19999 7.99877 7.19999 7.50002C7.19999 6.89627 6.91874 6.61127 6.30749 6.07877L6.26624 6.04127C5.67749 5.52752 4.79999 4.75877 4.79999 3.30002C4.79999 2.80127 5.20124 2.40002 5.69999 2.40002ZM4.19999 18C4.19999 18.9938 5.00624 19.8 5.99999 19.8H13.2C14.1937 19.8 15 18.9938 15 18V11.4H4.19999V18ZM2.39999 10.8C2.39999 10.1363 2.93624 9.60002 3.59999 9.60002H15.6H17.4C19.7212 9.60002 21.6 11.4788 21.6 13.8C21.6 16.1213 19.7212 18 17.4 18H16.8C16.8 19.9875 15.1875 21.6 13.2 21.6H5.99999C4.01249 21.6 2.39999 19.9875 2.39999 18V10.8ZM16.8 16.2H17.4C18.7237 16.2 19.8 15.1238 19.8 13.8C19.8 12.4763 18.7237 11.4 17.4 11.4H16.8V16.2ZM10.8 3.30002C10.8 3.90377 11.0812 4.18877 11.6925 4.72127L11.7337 4.75877C12.3225 5.27252 13.2 6.04127 13.2 7.50002C13.2 7.99877 12.7987 8.40002 12.3 8.40002C11.8012 8.40002 11.4 7.99877 11.4 7.50002C11.4 6.89627 11.1187 6.61127 10.5075 6.07877L10.4662 6.04127C9.87749 5.52752 8.99999 4.75877 8.99999 3.30002C8.99999 2.80127 9.40124 2.40002 9.89999 2.40002C10.3987 2.40002 10.8 2.80127 10.8 3.30002Z" fill="black" fill-opacity="0.45"/>
</svg>
