<svg width="24" height="24" viewBox="0 0 24 24" fill="none" xmlns="http://www.w3.org/2000/svg">
<path d="M5.4 5.4001H16.2V13.2001C16.2 14.1938 15.3938 15.0001 14.4 15.0001H7.2C6.20625 15.0001 5.4 14.1938 5.4 13.2001V5.4001ZM4.8 3.6001C4.13625 3.6001 3.6 4.13635 3.6 4.8001V13.2001C3.6 15.1876 5.2125 16.8001 7.2 16.8001H14.4C16.3875 16.8001 18 15.1876 18 13.2001H19.2C21.8513 13.2001 24 11.0513 24 8.4001C24 5.74885 21.8513 3.6001 19.2 3.6001H16.8H4.8ZM19.2 11.4001H18V5.4001H19.2C20.8575 5.4001 22.2 6.7426 22.2 8.4001C22.2 10.0576 20.8575 11.4001 19.2 11.4001ZM0.9 18.6001C0.40125 18.6001 0 19.0013 0 19.5001C0 19.9988 0.40125 20.4001 0.9 20.4001H20.7C21.1988 20.4001 21.6 19.9988 21.6 19.5001C21.6 19.0013 21.1988 18.6001 20.7 18.6001H0.9Z" fill="black" fill-opacity="0.45"/>
</svg>
