<svg width="24" height="24" viewBox="0 0 24 24" fill="none" xmlns="http://www.w3.org/2000/svg">
<path d="M21.6 3.56252C21.6 2.92127 21.0787 2.40002 20.4375 2.40002C20.3212 2.40002 20.205 2.41877 20.0962 2.45252L8.43375 6.04127C8.05875 6.15752 7.8 6.50627 7.8 6.90002V11.4V16.0013C7.27125 15.7463 6.65625 15.6 6 15.6C4.0125 15.6 2.4 16.9425 2.4 18.6C2.4 20.2575 4.0125 21.6 6 21.6C7.9875 21.6 9.6 20.2575 9.6 18.6V12.1575L19.8 9.01877V13.6013C19.2712 13.3463 18.6562 13.2 18 13.2C16.0125 13.2 14.4 14.5425 14.4 16.2C14.4 17.8575 16.0125 19.2 18 19.2C19.9875 19.2 21.6 17.8575 21.6 16.2V7.82253C21.6 7.80752 21.6 7.79627 21.6 7.78127V3.56252ZM19.8 16.2C19.8 16.5675 19.3162 17.4 18 17.4C16.6837 17.4 16.2 16.5675 16.2 16.2C16.2 15.8325 16.6837 15 18 15C19.3162 15 19.8 15.8325 19.8 16.2ZM7.8 18.6C7.8 18.9675 7.31625 19.8 6 19.8C4.68375 19.8 4.2 18.9675 4.2 18.6C4.2 18.2325 4.68375 17.4 6 17.4C7.31625 17.4 7.8 18.2325 7.8 18.6ZM19.8 7.13627L9.6 10.275V7.56377L19.8 4.42502V7.13252V7.13627Z" fill="black" fill-opacity="0.45"/>
</svg>
