<svg width="24" height="24" viewBox="0 0 24 24" fill="none" xmlns="http://www.w3.org/2000/svg">
<path d="M15 4.1999V7.7999H9V4.1999H15ZM9 2.3999C8.00625 2.3999 7.2 3.20615 7.2 4.1999V7.7999C7.2 8.79365 8.00625 9.5999 9 9.5999H11.1V11.0999H0.9C0.40125 11.0999 0 11.5012 0 11.9999C0 12.4987 0.40125 12.8999 0.9 12.8999H5.1V14.3999H3C2.00625 14.3999 1.2 15.2062 1.2 16.1999V19.7999C1.2 20.7937 2.00625 21.5999 3 21.5999H9C9.99375 21.5999 10.8 20.7937 10.8 19.7999V16.1999C10.8 15.2062 9.99375 14.3999 9 14.3999H6.9V12.8999H17.1V14.3999H15C14.0063 14.3999 13.2 15.2062 13.2 16.1999V19.7999C13.2 20.7937 14.0063 21.5999 15 21.5999H21C21.9938 21.5999 22.8 20.7937 22.8 19.7999V16.1999C22.8 15.2062 21.9938 14.3999 21 14.3999H18.9V12.8999H23.1C23.5988 12.8999 24 12.4987 24 11.9999C24 11.5012 23.5988 11.0999 23.1 11.0999H12.9V9.5999H15C15.9938 9.5999 16.8 8.79365 16.8 7.7999V4.1999C16.8 3.20615 15.9938 2.3999 15 2.3999H9ZM3 16.1999H9V19.7999H3V16.1999ZM21 16.1999V19.7999H15V16.1999H21Z" fill="black" fill-opacity="0.45"/>
</svg>
