<svg width="24" height="24" viewBox="0 0 24 24" fill="none" xmlns="http://www.w3.org/2000/svg">
<path d="M8.69999 5.4001C8.20124 5.4001 7.79999 5.80135 7.79999 6.3001V17.7001C7.79999 18.0151 7.74749 18.3188 7.64624 18.6001H18.9C19.3987 18.6001 19.8 18.1988 19.8 17.7001V6.3001C19.8 5.80135 19.3987 5.4001 18.9 5.4001H8.69999ZM5.09999 20.4001C3.60749 20.4001 2.39999 19.1926 2.39999 17.7001V6.6001C2.39999 6.10135 2.80124 5.7001 3.29999 5.7001C3.79874 5.7001 4.19999 6.10135 4.19999 6.6001V17.7001C4.19999 18.1988 4.60124 18.6001 5.09999 18.6001C5.59874 18.6001 5.99999 18.1988 5.99999 17.7001V6.3001C5.99999 4.8076 7.20749 3.6001 8.69999 3.6001H18.9C20.3925 3.6001 21.6 4.8076 21.6 6.3001V17.7001C21.6 19.1926 20.3925 20.4001 18.9 20.4001H5.09999ZM8.99999 7.5001C8.99999 7.00135 9.40124 6.6001 9.89999 6.6001H13.5C13.9987 6.6001 14.4 7.00135 14.4 7.5001V10.5001C14.4 10.9988 13.9987 11.4001 13.5 11.4001H9.89999C9.40124 11.4001 8.99999 10.9988 8.99999 10.5001V7.5001ZM16.5 6.6001H17.7C18.1987 6.6001 18.6 7.00135 18.6 7.5001C18.6 7.99885 18.1987 8.4001 17.7 8.4001H16.5C16.0012 8.4001 15.6 7.99885 15.6 7.5001C15.6 7.00135 16.0012 6.6001 16.5 6.6001ZM16.5 9.6001H17.7C18.1987 9.6001 18.6 10.0013 18.6 10.5001C18.6 10.9988 18.1987 11.4001 17.7 11.4001H16.5C16.0012 11.4001 15.6 10.9988 15.6 10.5001C15.6 10.0013 16.0012 9.6001 16.5 9.6001ZM9.89999 12.6001H17.7C18.1987 12.6001 18.6 13.0013 18.6 13.5001C18.6 13.9988 18.1987 14.4001 17.7 14.4001H9.89999C9.40124 14.4001 8.99999 13.9988 8.99999 13.5001C8.99999 13.0013 9.40124 12.6001 9.89999 12.6001ZM9.89999 15.6001H17.7C18.1987 15.6001 18.6 16.0013 18.6 16.5001C18.6 16.9988 18.1987 17.4001 17.7 17.4001H9.89999C9.40124 17.4001 8.99999 16.9988 8.99999 16.5001C8.99999 16.0013 9.40124 15.6001 9.89999 15.6001Z" fill="black" fill-opacity="0.45"/>
</svg>
