<svg width="24" height="24" viewBox="0 0 24 24" fill="none" xmlns="http://www.w3.org/2000/svg">
<path d="M7.79999 6.0001C7.79999 5.6701 8.06999 5.4001 8.39999 5.4001H18C18.33 5.4001 18.6 5.6701 18.6 6.0001V13.4063C18.6 13.5638 18.5362 13.7176 18.4237 13.8301L16.23 16.0238C16.1175 16.1363 15.9637 16.2001 15.8062 16.2001H8.39999C8.06999 16.2001 7.79999 15.9301 7.79999 15.6001V6.0001ZM5.99999 6.0001V15.6001C5.99999 16.9238 7.07624 18.0001 8.39999 18.0001H15.8062C16.4437 18.0001 17.055 17.7488 17.505 17.2988L19.6987 15.1051C20.1487 14.6551 20.4 14.0438 20.4 13.4063V6.0001C20.4 4.67635 19.3237 3.6001 18 3.6001H8.39999C7.07624 3.6001 5.99999 4.67635 5.99999 6.0001ZM12.6 7.2001C12.27 7.2001 12 7.4701 12 7.8001V9.6001H10.2C9.86999 9.6001 9.59999 9.8701 9.59999 10.2001V11.4001C9.59999 11.7301 9.86999 12.0001 10.2 12.0001H12V13.8001C12 14.1301 12.27 14.4001 12.6 14.4001H13.8C14.13 14.4001 14.4 14.1301 14.4 13.8001V12.0001H16.2C16.53 12.0001 16.8 11.7301 16.8 11.4001V10.2001C16.8 9.8701 16.53 9.6001 16.2 9.6001H14.4V7.8001C14.4 7.4701 14.13 7.2001 13.8 7.2001H12.6ZM13.5 19.8001H7.49999C5.67749 19.8001 4.19999 18.3226 4.19999 16.5001V8.1001C4.19999 7.60135 3.79874 7.2001 3.29999 7.2001C2.80124 7.2001 2.39999 7.60135 2.39999 8.1001V16.5001C2.39999 19.3163 4.68374 21.6001 7.49999 21.6001H13.5C13.9987 21.6001 14.4 21.1988 14.4 20.7001C14.4 20.2013 13.9987 19.8001 13.5 19.8001Z" fill="black" fill-opacity="0.45"/>
</svg>
