<svg width="24" height="24" viewBox="0 0 24 24" fill="none" xmlns="http://www.w3.org/2000/svg">
<path d="M4.125 5.6875V10.1102C4.63477 9.83945 5.20781 9.67422 5.8125 9.63203V9.62148V8.49648C5.8125 7.87422 6.31523 7.37148 6.9375 7.37148H10.3125C10.9348 7.37148 11.4375 7.87422 11.4375 8.49648V9.62148H12.5625V8.49648C12.5625 7.87422 13.0652 7.37148 13.6875 7.37148H17.0625C17.6848 7.37148 18.1875 7.87422 18.1875 8.49648V9.62148V9.63203C18.7922 9.6707 19.3652 9.83945 19.875 10.1102V5.6875C19.875 4.75586 19.1191 4 18.1875 4H5.8125C4.88086 4 4.125 4.75586 4.125 5.6875ZM6.09375 10.75C4.38516 10.75 3 12.1352 3 13.8438V16.6562V18.9062C3 19.3738 3.37617 19.75 3.84375 19.75C4.31133 19.75 4.6875 19.3738 4.6875 18.9062V17.5H19.3125V18.9062C19.3125 19.3738 19.6887 19.75 20.1562 19.75C20.6238 19.75 21 19.3738 21 18.9062V16.6562V13.8438C21 12.1352 19.6148 10.75 17.9062 10.75H6.09375ZM19.3125 15.8125H4.6875V13.8438C4.6875 13.0668 5.3168 12.4375 6.09375 12.4375H17.9062C18.6832 12.4375 19.3125 13.0668 19.3125 13.8438V15.8125Z" fill="black" fill-opacity="0.45"/>
</svg>
