<svg width="24" height="24" viewBox="0 0 24 24" fill="none" xmlns="http://www.w3.org/2000/svg">
<path d="M12 19.3125C13.9394 19.3125 15.7994 18.5421 17.1707 17.1707C18.5421 15.7994 19.3125 13.9394 19.3125 12C19.3125 10.0606 18.5421 8.20064 17.1707 6.82928C15.7994 5.45792 13.9394 4.6875 12 4.6875C10.0606 4.6875 8.20064 5.45792 6.82928 6.82928C5.45792 8.20064 4.6875 10.0606 4.6875 12C4.6875 13.9394 5.45792 15.7994 6.82928 17.1707C8.20064 18.5421 10.0606 19.3125 12 19.3125ZM12 3C14.3869 3 16.6761 3.94821 18.364 5.63604C20.0518 7.32387 21 9.61305 21 12C21 14.3869 20.0518 16.6761 18.364 18.364C16.6761 20.0518 14.3869 21 12 21C9.61305 21 7.32387 20.0518 5.63604 18.364C3.94821 16.6761 3 14.3869 3 12C3 9.61305 3.94821 7.32387 5.63604 5.63604C7.32387 3.94821 9.61305 3 12 3ZM13.125 12C13.125 12.2984 13.0065 12.5845 12.7955 12.7955C12.5845 13.0065 12.2984 13.125 12 13.125C11.7016 13.125 11.4155 13.0065 11.2045 12.7955C10.9935 12.5845 10.875 12.2984 10.875 12C10.875 11.7016 10.9935 11.4155 11.2045 11.2045C11.4155 10.9935 11.7016 10.875 12 10.875C12.2984 10.875 12.5845 10.9935 12.7955 11.2045C13.0065 11.4155 13.125 11.7016 13.125 12ZM15.375 10.875C15.6734 10.875 15.9595 10.9935 16.1705 11.2045C16.3815 11.4155 16.5 11.7016 16.5 12C16.5 12.2984 16.3815 12.5845 16.1705 12.7955C15.9595 13.0065 15.6734 13.125 15.375 13.125C15.0766 13.125 14.7905 13.0065 14.5795 12.7955C14.3685 12.5845 14.25 12.2984 14.25 12C14.25 11.7016 14.3685 11.4155 14.5795 11.2045C14.7905 10.9935 15.0766 10.875 15.375 10.875ZM9.75 12C9.75 12.2984 9.63147 12.5845 9.4205 12.7955C9.20952 13.0065 8.92337 13.125 8.625 13.125C8.32663 13.125 8.04048 13.0065 7.8295 12.7955C7.61853 12.5845 7.5 12.2984 7.5 12C7.5 11.7016 7.61853 11.4155 7.8295 11.2045C8.04048 10.9935 8.32663 10.875 8.625 10.875C8.92337 10.875 9.20952 10.9935 9.4205 11.2045C9.63147 11.4155 9.75 11.7016 9.75 12Z" fill="black" fill-opacity="0.45"/>
</svg>
