<svg width="24" height="24" viewBox="0 0 24 24" fill="none" xmlns="http://www.w3.org/2000/svg">
<path d="M15.6 4.1999H4.79999C4.46999 4.1999 4.19999 4.4699 4.19999 4.7999V7.1999C4.19999 7.5299 4.46999 7.7999 4.79999 7.7999H15.6C15.93 7.7999 16.2 7.5299 16.2 7.1999V4.7999C16.2 4.4699 15.93 4.1999 15.6 4.1999ZM4.79999 2.3999H15.6C16.9237 2.3999 18 3.47615 18 4.7999V5.0999V6.8999V7.1999C18 8.52365 16.9237 9.5999 15.6 9.5999H4.79999C3.47624 9.5999 2.39999 8.52365 2.39999 7.1999V4.7999C2.39999 3.47615 3.47624 2.3999 4.79999 2.3999ZM8.39999 15.5999C8.39999 14.9362 8.93624 14.3999 9.59999 14.3999H9.89999V13.7999C9.89999 12.3074 11.1075 11.0999 12.6 11.0999H18.3C19.1287 11.0999 19.8 10.4287 19.8 9.5999V7.7999C19.8 7.4099 19.5487 7.07615 19.2 6.9524V5.1149C20.55 5.2649 21.6 6.40865 21.6 7.7999V9.5999C21.6 11.4224 20.1225 12.8999 18.3 12.8999H12.6C12.1012 12.8999 11.7 13.3012 11.7 13.7999V14.3999H12C12.6637 14.3999 13.2 14.9362 13.2 15.5999V20.3999C13.2 21.0637 12.6637 21.5999 12 21.5999H9.59999C8.93624 21.5999 8.39999 21.0637 8.39999 20.3999V15.5999Z" fill="black" fill-opacity="0.45"/>
</svg>
