<svg width="24" height="24" viewBox="0 0 24 24" fill="none" xmlns="http://www.w3.org/2000/svg">
<path d="M19.8 12.0824C19.8 12.1837 19.7625 12.2774 19.6425 12.3824C19.5 12.4987 19.2638 12.5999 18.975 12.5999H15.3C13.3125 12.5999 11.7 14.2124 11.7 16.1999C11.7 16.4549 11.7263 16.7024 11.7788 16.9424C11.9025 17.5312 12.1613 18.1087 12.3188 18.4649C12.345 18.5249 12.3713 18.5774 12.39 18.6262C12.5775 19.0574 12.6 19.2037 12.6 19.2674C12.6 19.4662 12.5288 19.6237 12.4575 19.7099C12.4238 19.7512 12.3975 19.7699 12.3825 19.7774C12.3713 19.7849 12.3525 19.7887 12.3225 19.7924C12.2138 19.7962 12.1088 19.7999 12 19.7999C7.69125 19.7999 4.2 16.3087 4.2 11.9999C4.2 7.69115 7.69125 4.1999 12 4.1999C16.3088 4.1999 19.8 7.69115 19.8 11.9999C19.8 12.0262 19.8 12.0524 19.8 12.0824ZM21.6 12.1012C21.6 12.0674 21.6 12.0337 21.6 11.9999C21.6 6.6974 17.3025 2.3999 12 2.3999C6.6975 2.3999 2.4 6.6974 2.4 11.9999C2.4 17.3024 6.6975 21.5999 12 21.5999C12.1313 21.5999 12.2663 21.5962 12.3975 21.5924C13.59 21.5437 14.4 20.4637 14.4 19.2674C14.4 18.7237 14.1713 18.2062 13.9463 17.6924C13.785 17.3249 13.62 16.9537 13.5413 16.5712C13.515 16.4512 13.5038 16.3274 13.5038 16.1999C13.5038 15.2062 14.31 14.3999 15.3038 14.3999H18.975C20.3438 14.3999 21.5888 13.4699 21.6038 12.1012H21.6ZM8.4 11.9999C8.4 11.6816 8.27357 11.3764 8.04853 11.1514C7.82349 10.9263 7.51826 10.7999 7.2 10.7999C6.88174 10.7999 6.57652 10.9263 6.35147 11.1514C6.12643 11.3764 6 11.6816 6 11.9999C6 12.3182 6.12643 12.6234 6.35147 12.8484C6.57652 13.0735 6.88174 13.1999 7.2 13.1999C7.51826 13.1999 7.82349 13.0735 8.04853 12.8484C8.27357 12.6234 8.4 12.3182 8.4 11.9999ZM8.4 9.5999C8.71826 9.5999 9.02349 9.47347 9.24853 9.24843C9.47357 9.02339 9.6 8.71816 9.6 8.3999C9.6 8.08164 9.47357 7.77642 9.24853 7.55137C9.02349 7.32633 8.71826 7.1999 8.4 7.1999C8.08174 7.1999 7.77652 7.32633 7.55147 7.55137C7.32643 7.77642 7.2 8.08164 7.2 8.3999C7.2 8.71816 7.32643 9.02339 7.55147 9.24843C7.77652 9.47347 8.08174 9.5999 8.4 9.5999ZM13.2 7.1999C13.2 6.88164 13.0736 6.57642 12.8485 6.35137C12.6235 6.12633 12.3183 5.9999 12 5.9999C11.6817 5.9999 11.3765 6.12633 11.1515 6.35137C10.9264 6.57642 10.8 6.88164 10.8 7.1999C10.8 7.51816 10.9264 7.82339 11.1515 8.04843C11.3765 8.27347 11.6817 8.3999 12 8.3999C12.3183 8.3999 12.6235 8.27347 12.8485 8.04843C13.0736 7.82339 13.2 7.51816 13.2 7.1999ZM15.6 9.5999C15.9183 9.5999 16.2235 9.47347 16.4485 9.24843C16.6736 9.02339 16.8 8.71816 16.8 8.3999C16.8 8.08164 16.6736 7.77642 16.4485 7.55137C16.2235 7.32633 15.9183 7.1999 15.6 7.1999C15.2817 7.1999 14.9765 7.32633 14.7515 7.55137C14.5264 7.77642 14.4 8.08164 14.4 8.3999C14.4 8.71816 14.5264 9.02339 14.7515 9.24843C14.9765 9.47347 15.2817 9.5999 15.6 9.5999Z" fill="black" fill-opacity="0.45"/>
</svg>
