<svg width="24" height="24" viewBox="0 0 24 24" fill="none" xmlns="http://www.w3.org/2000/svg">
<path d="M3.00376 12.1575C2.15626 12.6413 2.23501 13.9313 3.13876 14.3063L8.40001 16.5V20.3738C8.40001 21.0525 8.94751 21.6 9.62626 21.6C9.99001 21.6 10.335 21.4388 10.5675 21.1575L12.8925 18.3713L17.5388 20.3063C18.2475 20.6025 19.0688 20.1375 19.185 19.38L21.585 3.78005C21.6563 3.3263 21.4575 2.8688 21.0788 2.61005C20.7 2.3513 20.205 2.3288 19.8038 2.55755L3.00376 12.1575ZM4.95751 13.1138L17.7638 5.79755L9.52876 15L9.57376 15.0375L4.95751 13.1138ZM17.5238 18.3525L11.2763 15.7463L19.305 6.77255L17.5238 18.3525Z" fill="black" fill-opacity="0.45"/>
</svg>
