<svg width="24" height="24" viewBox="0 0 24 24" fill="none" xmlns="http://www.w3.org/2000/svg">
<path d="M17.6625 5.13753C16.6875 4.16253 15.1087 4.16253 14.1337 5.13753L6.9375 12.3375C5.29875 13.9725 5.29875 16.6275 6.9375 18.2625C8.57625 19.8975 11.2275 19.8975 12.8662 18.2625L18.5625 12.5625C18.915 12.21 19.485 12.21 19.8337 12.5625C20.1825 12.915 20.1862 13.485 19.8337 13.8338L14.1375 19.5375C11.7975 21.8775 8.00625 21.8775 5.66625 19.5375C3.32625 17.1975 3.3225 13.4025 5.6625 11.0625L12.8625 3.86253C14.5387 2.18628 17.2575 2.18628 18.9375 3.86253C20.6175 5.53878 20.6137 8.25753 18.9375 9.93378L12.045 16.8263C10.86 18.0113 8.91 17.9025 7.86375 16.5938C6.97125 15.4763 7.0575 13.8638 8.07 12.8513L13.7625 7.16253C14.115 6.81003 14.685 6.81003 15.0337 7.16253C15.3825 7.51503 15.3862 8.08503 15.0337 8.43378L9.345 14.1263C8.98125 14.49 8.9475 15.0675 9.27 15.4688C9.645 15.9375 10.3462 15.9788 10.77 15.5513L17.6625 8.66253C18.6375 7.68753 18.6375 6.10878 17.6625 5.13378V5.13753Z" fill="black" fill-opacity="0.45"/>
</svg>
