<svg width="24" height="24" viewBox="0 0 24 24" fill="none" xmlns="http://www.w3.org/2000/svg">
<path d="M18 4.1999C18.33 4.1999 18.6 4.4699 18.6 4.7999V19.1999C18.6 19.5299 18.33 19.7999 18 19.7999H6.00001C5.67001 19.7999 5.40001 19.5299 5.40001 19.1999V4.7999C5.40001 4.4699 5.67001 4.1999 6.00001 4.1999H18ZM6.00001 2.3999C4.67626 2.3999 3.60001 3.47615 3.60001 4.7999V19.1999C3.60001 20.5237 4.67626 21.5999 6.00001 21.5999H18C19.3238 21.5999 20.4 20.5237 20.4 19.1999V4.7999C20.4 3.47615 19.3238 2.3999 18 2.3999H6.00001ZM7.20001 17.3999C7.20001 17.7299 7.47001 17.9999 7.80001 17.9999H16.2C16.53 17.9999 16.8 17.7299 16.8 17.3999C16.8 17.0699 16.53 16.7999 16.2 16.7999H7.80001C7.47001 16.7999 7.20001 17.0699 7.20001 17.3999ZM8.44876 10.7999H9.91501C9.97501 11.9399 10.2038 12.8174 10.4625 13.4549C9.41626 12.9599 8.64751 11.9774 8.44876 10.7999ZM12 13.7999H11.9888C11.8988 13.6687 11.775 13.4662 11.6475 13.1812C11.4225 12.6712 11.1825 11.8949 11.115 10.7999H12.8813C12.8138 11.8949 12.5775 12.6712 12.3488 13.1812C12.2213 13.4662 12.0975 13.6687 12.0075 13.7999H11.9963H12ZM15.5513 10.7999C15.3525 11.9774 14.5838 12.9599 13.5375 13.4549C13.7925 12.8137 14.0213 11.9399 14.085 10.7999H15.5513ZM15.5513 9.5999H14.085C14.025 8.4599 13.7963 7.5824 13.5375 6.9449C14.5838 7.4399 15.3525 8.4224 15.5513 9.5999ZM12 6.5999H12.0113C12.1013 6.73115 12.225 6.93365 12.3525 7.21865C12.5775 7.72865 12.8175 8.5049 12.885 9.5999H11.1188C11.1863 8.5049 11.4225 7.72865 11.6513 7.21865C11.7788 6.93365 11.9025 6.73115 11.9925 6.5999H12.0038H12ZM8.44876 9.5999C8.64751 8.4224 9.41626 7.4399 10.4625 6.9449C10.2075 7.58615 9.97876 8.4599 9.91501 9.5999H8.44876ZM12 14.9999C13.273 14.9999 14.4939 14.4942 15.3941 13.594C16.2943 12.6938 16.8 11.4729 16.8 10.1999C16.8 8.92686 16.2943 7.70596 15.3941 6.80579C14.4939 5.90562 13.273 5.3999 12 5.3999C10.727 5.3999 9.50607 5.90562 8.60589 6.80579C7.70572 7.70596 7.20001 8.92686 7.20001 10.1999C7.20001 11.4729 7.70572 12.6938 8.60589 13.594C9.50607 14.4942 10.727 14.9999 12 14.9999Z" fill="black" fill-opacity="0.45"/>
</svg>
