<svg width="24" height="24" viewBox="0 0 24 24" fill="none" xmlns="http://www.w3.org/2000/svg">
<path d="M10.8 5.4001C10.8 4.92271 10.6104 4.46487 10.2728 4.12731C9.93523 3.78974 9.4774 3.6001 9.00001 3.6001C8.52262 3.6001 8.06478 3.78974 7.72721 4.12731C7.38965 4.46487 7.20001 4.92271 7.20001 5.4001C7.20001 5.87749 7.38965 6.33532 7.72721 6.67289C8.06478 7.01046 8.52262 7.2001 9.00001 7.2001C9.4774 7.2001 9.93523 7.01046 10.2728 6.67289C10.6104 6.33532 10.8 5.87749 10.8 5.4001ZM10.7738 10.8788C11.04 10.4551 11.5013 10.2001 12 10.2001C12.4988 10.2001 12.9638 10.4588 13.2263 10.8788L15.0713 13.8263C15.3975 14.3513 15.855 14.6813 16.2788 14.8801C16.9463 15.1951 17.4038 15.8701 17.4038 16.6463C17.4038 17.7226 16.53 18.5963 15.4538 18.5963C15.0375 18.5963 14.6588 18.4688 14.3438 18.2513C13.6088 17.7413 12.7013 17.5913 12.0038 17.5913C11.3063 17.5913 10.3988 17.7413 9.66376 18.2513C9.34876 18.4688 8.97001 18.5963 8.55376 18.5963C7.47751 18.5963 6.60376 17.7226 6.60376 16.6463C6.60376 15.8663 7.06126 15.1913 7.72876 14.8801C8.14876 14.6813 8.60626 14.3513 8.93626 13.8263L10.7813 10.8788H10.7738ZM7.40251 12.8738C7.29751 13.0426 7.13626 13.1663 6.96001 13.2526C5.68501 13.8526 4.80001 15.1463 4.80001 16.6501C4.80001 18.7201 6.48001 20.4001 8.55001 20.4001C9.34501 20.4001 10.08 20.1526 10.6838 19.7326C11.3363 19.2826 12.6638 19.2826 13.3125 19.7326C13.92 20.1526 14.655 20.4001 15.45 20.4001C17.52 20.4001 19.2 18.7201 19.2 16.6501C19.2 15.1463 18.315 13.8526 17.04 13.2526C16.86 13.1701 16.7025 13.0426 16.5975 12.8738L14.7563 9.92635C14.16 8.9776 13.1213 8.4001 12 8.4001C10.8788 8.4001 9.84001 8.9776 9.24751 9.92635L7.40251 12.8738ZM15 7.2001C15.4774 7.2001 15.9352 7.01046 16.2728 6.67289C16.6104 6.33532 16.8 5.87749 16.8 5.4001C16.8 4.92271 16.6104 4.46487 16.2728 4.12731C15.9352 3.78974 15.4774 3.6001 15 3.6001C14.5226 3.6001 14.0648 3.78974 13.7272 4.12731C13.3896 4.46487 13.2 4.92271 13.2 5.4001C13.2 5.87749 13.3896 6.33532 13.7272 6.67289C14.0648 7.01046 14.5226 7.2001 15 7.2001ZM20.4 9.6001C20.4 9.36372 20.3534 9.12965 20.263 8.91127C20.1725 8.69288 20.0399 8.49445 19.8728 8.3273C19.7057 8.16016 19.5072 8.02757 19.2888 7.93711C19.0704 7.84666 18.8364 7.8001 18.6 7.8001C18.3636 7.8001 18.1296 7.84666 17.9112 7.93711C17.6928 8.02757 17.4944 8.16016 17.3272 8.3273C17.1601 8.49445 17.0275 8.69288 16.937 8.91127C16.8466 9.12965 16.8 9.36372 16.8 9.6001C16.8 9.83648 16.8466 10.0705 16.937 10.2889C17.0275 10.5073 17.1601 10.7057 17.3272 10.8729C17.4944 11.04 17.6928 11.1726 17.9112 11.2631C18.1296 11.3535 18.3636 11.4001 18.6 11.4001C18.8364 11.4001 19.0704 11.3535 19.2888 11.2631C19.5072 11.1726 19.7057 11.04 19.8728 10.8729C20.0399 10.7057 20.1725 10.5073 20.263 10.2889C20.3534 10.0705 20.4 9.83648 20.4 9.6001ZM5.40001 11.4001C5.8774 11.4001 6.33523 11.2105 6.6728 10.8729C7.01036 10.5353 7.20001 10.0775 7.20001 9.6001C7.20001 9.12271 7.01036 8.66487 6.6728 8.3273C6.33523 7.98974 5.8774 7.8001 5.40001 7.8001C4.92262 7.8001 4.46478 7.98974 4.12721 8.3273C3.78965 8.66487 3.60001 9.12271 3.60001 9.6001C3.60001 10.0775 3.78965 10.5353 4.12721 10.8729C4.46478 11.2105 4.92262 11.4001 5.40001 11.4001Z" fill="black" fill-opacity="0.45"/>
</svg>
