<svg width="24" height="24" viewBox="0 0 24 24" fill="none" xmlns="http://www.w3.org/2000/svg">
<path d="M17.3775 4.64615C17.6437 4.36115 18.015 4.1999 18.4012 4.1999C19.1737 4.1999 19.8 4.82615 19.8 5.59865C19.8 5.98865 19.6387 6.35615 19.3537 6.6224L12.0225 13.4474L10.5525 11.9774L17.3775 4.64615ZM18.4012 2.3999C17.5125 2.3999 16.665 2.7674 16.0575 3.4199L8.805 11.2087L6.045 12.0599C5.19 12.3224 4.5225 12.9937 4.26 13.8449L2.47125 19.6537C2.11875 20.8049 3.195 21.8812 4.34625 21.5287L10.1512 19.7437C11.0062 19.4811 11.6737 18.8099 11.9362 17.9587L12.7837 15.1987L20.58 7.9424C21.2325 7.3349 21.6 6.4874 21.6 5.59865C21.6 3.8324 20.1675 2.3999 18.4012 2.3999ZM10.98 14.9549L10.2187 17.4262C10.1325 17.7112 9.9075 17.9324 9.6225 18.0224L5.5875 19.2637L7.45125 17.3999C7.46625 17.3999 7.485 17.3999 7.5 17.3999C7.99875 17.3999 8.4 16.9987 8.4 16.4999C8.4 16.0012 7.99875 15.5999 7.5 15.5999C7.00125 15.5999 6.6 16.0012 6.6 16.4999C6.6 16.5149 6.6 16.5337 6.6 16.5487L4.73625 18.4124L5.98125 14.3737C6.0675 14.0887 6.2925 13.8674 6.5775 13.7774L9.04875 13.0162L10.9837 14.9512L10.98 14.9549Z" fill="black" fill-opacity="0.45"/>
</svg>
