<svg width="24" height="24" viewBox="0 0 24 24" fill="none" xmlns="http://www.w3.org/2000/svg">
<path d="M3.4064 17.3215L4.10521 14.9486C4.23282 14.5202 4.46373 14.1282 4.77972 13.8123L14.0193 4.56969C14.7788 3.8101 16.0094 3.8101 16.7689 4.56969L17.966 5.76678C18.0602 5.86097 18.1453 5.96428 18.2152 6.07062C18.7135 6.82412 18.6314 7.85107 17.966 8.51647L8.7265 17.759C8.687 17.7985 8.6475 17.838 8.60497 17.8745C8.31329 18.1328 7.96692 18.3242 7.59017 18.4336L5.21724 19.1324L3.93507 19.5091C3.67985 19.5851 3.40336 19.5152 3.21498 19.3238C3.02661 19.1324 2.95369 18.862 3.02965 18.6037L3.4064 17.3215ZM5.29623 16.0697L4.80403 17.7347L6.46903 17.2456L7.17999 17.0359C7.37445 16.9782 7.55371 16.8719 7.69651 16.7291L14.636 9.78648L12.7523 7.90272L5.80971 14.8423C5.79148 14.8605 5.77325 14.8787 5.75806 14.8969C5.63956 15.0306 5.55449 15.1886 5.50284 15.3588L5.2932 16.0697H5.29623ZM10.5343 18.0811H19.7708C20.1749 18.0811 20.5 18.4062 20.5 18.8103C20.5 19.2144 20.1749 19.5395 19.7708 19.5395H10.5343C10.1302 19.5395 9.8051 19.2144 9.8051 18.8103C9.8051 18.4062 10.1302 18.0811 10.5343 18.0811Z" fill="black" fill-opacity="0.45"/>
</svg>
