<svg width="24" height="24" viewBox="0 0 24 24" fill="none" xmlns="http://www.w3.org/2000/svg">
<path d="M18.9375 4.60868L19.3913 5.06243C19.7438 5.41493 19.7438 5.98493 19.3913 6.33368L18.3 7.42868L16.5713 5.69993L17.6625 4.60868C18.015 4.25618 18.585 4.25618 18.9338 4.60868H18.9375ZM10.2675 12.0074L15.3 6.97118L17.0288 8.69993L11.9925 13.7324C11.8838 13.8412 11.7488 13.9199 11.6025 13.9612L9.40875 14.5874L10.035 12.3937C10.0763 12.2474 10.155 12.1124 10.2638 12.0037L10.2675 12.0074ZM16.3913 3.33743L8.9925 10.7324C8.66625 11.0587 8.43 11.4599 8.30625 11.8987L7.23375 15.6487C7.14375 15.9637 7.23 16.3012 7.4625 16.5337C7.695 16.7662 8.0325 16.8524 8.3475 16.7624L12.0975 15.6899C12.54 15.5624 12.9413 15.3262 13.2638 15.0037L20.6625 7.60868C21.7162 6.55493 21.7162 4.84493 20.6625 3.79118L20.2087 3.33743C19.155 2.28368 17.445 2.28368 16.3913 3.33743ZM5.7 4.79993C3.8775 4.79993 2.4 6.27743 2.4 8.09993V18.2999C2.4 20.1224 3.8775 21.5999 5.7 21.5999H15.9C17.7225 21.5999 19.2 20.1224 19.2 18.2999V14.0999C19.2 13.6012 18.7987 13.1999 18.3 13.1999C17.8013 13.1999 17.4 13.6012 17.4 14.0999V18.2999C17.4 19.1287 16.7288 19.7999 15.9 19.7999H5.7C4.87125 19.7999 4.2 19.1287 4.2 18.2999V8.09993C4.2 7.27118 4.87125 6.59993 5.7 6.59993H9.9C10.3988 6.59993 10.8 6.19868 10.8 5.69993C10.8 5.20118 10.3988 4.79993 9.9 4.79993H5.7Z" fill="black" fill-opacity="0.45"/>
</svg>
