<svg width="24" height="24" viewBox="0 0 24 24" fill="none" xmlns="http://www.w3.org/2000/svg">
<path d="M16.215 3.08627C17.0363 2.26502 18.3638 2.26502 19.185 3.08627L20.9138 4.81502C21.735 5.63627 21.735 6.96377 20.9138 7.78502L18.2513 10.4475L17.8575 10.8375L16.335 16.4288C16.155 17.0963 15.6563 17.6288 15.0038 17.8575L5.10001 21.3375C4.40626 21.5813 3.63376 21.405 3.11626 20.8875C2.59876 20.37 2.41876 19.5938 2.66251 18.9L6.14251 8.99627C6.37126 8.34377 6.90376 7.84877 7.57126 7.66502L13.1625 6.14252L13.5525 5.75252L16.215 3.09002V3.08627ZM13.5338 7.90502L8.04376 9.40127C7.95001 9.42752 7.87126 9.49877 7.84126 9.59252L4.74376 18.4088L8.57626 14.5763C8.46376 14.34 8.40001 14.0775 8.40001 13.8C8.40001 12.8063 9.20626 12 10.2 12C11.1938 12 12 12.8063 12 13.8C12 14.7938 11.1938 15.6 10.2 15.6C9.92251 15.6 9.66001 15.5363 9.42376 15.4238L5.59126 19.2563L14.4075 16.1588C14.5013 16.125 14.5725 16.05 14.5988 15.9563L16.095 10.4663L13.5338 7.90502Z" fill="black" fill-opacity="0.45"/>
</svg>
