<svg width="24" height="24" viewBox="0 0 24 24" fill="none" xmlns="http://www.w3.org/2000/svg">
<path d="M3.76501 15.9338L2.90251 18.8625L2.43751 20.445C2.34376 20.7638 2.43001 21.105 2.66251 21.3375C2.89501 21.57 3.23626 21.6563 3.55126 21.5663L5.13751 21.0975L8.06626 20.235C8.53126 20.1 8.95501 19.8638 9.31876 19.545C9.37126 19.5 9.42001 19.4513 9.46876 19.4025L20.8763 7.99878C21.6975 7.17753 21.7988 5.91378 21.1838 4.98003C21.0975 4.84878 20.9925 4.72128 20.8763 4.60503L19.3988 3.12378C18.4613 2.18628 16.9425 2.18628 16.005 3.12378L4.59751 14.5313C4.20751 14.9213 3.92251 15.405 3.76501 15.9338ZM5.49001 16.44C5.55376 16.23 5.65876 16.035 5.80501 15.87C5.82751 15.8475 5.84626 15.825 5.86876 15.8025L14.4375 7.23753L16.7625 9.56253L8.19751 18.1313C8.02126 18.3075 7.80001 18.4388 7.56001 18.51L6.68251 18.7688L4.62751 19.3725L5.23126 17.3175L5.49001 16.44Z" fill="black" fill-opacity="0.45"/>
</svg>
