<svg width="24" height="24" viewBox="0 0 24 24" fill="none" xmlns="http://www.w3.org/2000/svg">
<path d="M3.76501 15.9338L2.90251 18.8625L2.43751 20.445C2.34376 20.7638 2.43001 21.105 2.66251 21.3375C2.89501 21.57 3.23626 21.6563 3.55126 21.5663L5.13751 21.0975L8.06626 20.235C8.45626 20.1225 8.82001 19.935 9.13876 19.6913L9.15001 19.6988L9.16876 19.6688C9.22126 19.6275 9.27001 19.5863 9.31876 19.545C9.37126 19.5 9.42001 19.4513 9.46876 19.4025L20.8763 7.99878C21.6975 7.17753 21.7988 5.91378 21.1838 4.98003C21.0975 4.84878 20.9925 4.72128 20.8763 4.60503L19.3988 3.12378C18.4613 2.18628 16.9425 2.18628 16.005 3.12378L4.59751 14.5313C4.50376 14.625 4.41376 14.7263 4.33126 14.8313L4.30126 14.85L4.30876 14.8613C4.06501 15.18 3.88126 15.5438 3.76501 15.9338ZM16.7625 9.56253L9.80251 16.5225L7.94251 16.0575L7.47751 14.1975L14.4375 7.23753L16.7625 9.56253ZM6.03751 15.8588L6.32626 17.0213C6.40501 17.3438 6.66001 17.595 6.98251 17.6775L8.14501 17.9663L7.86751 18.3863C7.77001 18.4388 7.66876 18.4838 7.56376 18.5138L6.68626 18.7725L4.62751 19.3725L5.23126 17.3175L5.49001 16.44C5.52001 16.335 5.56501 16.23 5.61751 16.1363L6.03751 15.8588ZM14.2238 10.6013C14.4563 10.3688 14.4563 9.98628 14.2238 9.75378C13.9913 9.52128 13.6088 9.52128 13.3763 9.75378L9.77626 13.3538C9.54376 13.5863 9.54376 13.9688 9.77626 14.2013C10.0088 14.4338 10.3913 14.4338 10.6238 14.2013L14.2238 10.6013Z" fill="black" fill-opacity="0.45"/>
</svg>
