<svg width="24" height="24" viewBox="0 0 24 24" fill="none" xmlns="http://www.w3.org/2000/svg">
<path d="M9.59999 4.7999C9.59999 4.16338 9.34713 3.55293 8.89705 3.10285C8.44696 2.65276 7.83651 2.3999 7.19999 2.3999C6.56347 2.3999 5.95302 2.65276 5.50293 3.10285C5.05285 3.55293 4.79999 4.16338 4.79999 4.7999C4.79999 5.43642 5.05285 6.04687 5.50293 6.49696C5.95302 6.94705 6.56347 7.1999 7.19999 7.1999C7.83651 7.1999 8.44696 6.94705 8.89705 6.49696C9.34713 6.04687 9.59999 5.43642 9.59999 4.7999ZM6.35999 10.1999H8.03999C8.66249 10.1999 9.18374 10.6799 9.23624 11.2987L9.38999 13.1474C9.41999 13.4962 9.14249 13.7962 8.79374 13.7962H8.69999H5.69999H5.60999C5.25749 13.7962 4.98374 13.4962 5.01374 13.1474L5.16749 11.2987C5.21624 10.6799 5.73749 10.1999 6.35999 10.1999ZM7.79999 15.5999V20.6999C7.79999 21.1987 8.20124 21.5999 8.69999 21.5999C9.19874 21.5999 9.59999 21.1987 9.59999 20.6999V15.4612C10.5937 15.1049 11.2762 14.1187 11.1825 13.0012L11.0287 11.1524C10.9012 9.59615 9.59999 8.3999 8.03999 8.3999H6.35999C4.79999 8.3999 3.49874 9.59615 3.37124 11.1524L3.21749 13.0012C3.12374 14.1187 3.80624 15.1049 4.79999 15.4612V20.6999C4.79999 21.1987 5.20124 21.5999 5.69999 21.5999C6.19874 21.5999 6.59999 21.1987 6.59999 20.6999V15.5999H7.79999ZM19.2 4.7999C19.2 4.16338 18.9471 3.55293 18.497 3.10285C18.047 2.65276 17.4365 2.3999 16.8 2.3999C16.1635 2.3999 15.553 2.65276 15.1029 3.10285C14.6528 3.55293 14.4 4.16338 14.4 4.7999C14.4 5.43642 14.6528 6.04687 15.1029 6.49696C15.553 6.94705 16.1635 7.1999 16.8 7.1999C17.4365 7.1999 18.047 6.94705 18.497 6.49696C18.9471 6.04687 19.2 5.43642 19.2 4.7999ZM16.2112 10.1999H17.3887C17.655 10.1999 17.8912 10.3762 17.9662 10.6349L19.215 14.9999H14.385L15.6337 10.6349C15.7087 10.3762 15.9412 10.1999 16.2112 10.1999ZM16.2112 8.3999C15.1387 8.3999 14.1975 9.10865 13.905 10.1399L12.4387 15.2699C12.2212 16.0349 12.795 16.7999 13.5937 16.7999H14.4V20.6999C14.4 21.1987 14.8012 21.5999 15.3 21.5999C15.7987 21.5999 16.2 21.1987 16.2 20.6999V16.7999H17.4V20.6999C17.4 21.1987 17.8012 21.5999 18.3 21.5999C18.7987 21.5999 19.2 21.1987 19.2 20.6999V16.7999H20.01C20.8087 16.7999 21.3825 16.0387 21.165 15.2699L19.6987 10.1399C19.4062 9.10865 18.4612 8.3999 17.3925 8.3999H16.2112Z" fill="black" fill-opacity="0.45"/>
</svg>
