<svg width="24" height="24" viewBox="0 0 24 24" fill="none" xmlns="http://www.w3.org/2000/svg">
<path d="M18.8288 3.60742C18.9975 3.13867 18.7575 2.62492 18.2925 2.45242C17.8275 2.27992 17.3063 2.52367 17.1375 2.99242L16.965 3.46867L14.7263 2.65117C14.2575 2.48242 13.7438 2.72242 13.5713 3.18742L12.135 7.13617C11.9663 7.60492 12.2063 8.11867 12.6713 8.29117L14.91 9.10492L14.2688 10.8749L13.545 10.6049C13.0913 10.4324 12.69 10.1437 12.3863 9.76492L11.325 8.43742C10.6988 7.65367 9.75 7.19992 8.74875 7.19992H7.26C5.955 7.19992 4.77375 7.96867 4.245 9.16117L2.47875 13.1362C2.27625 13.5899 2.4825 14.1224 2.93625 14.3249C3.39 14.5274 3.9225 14.3212 4.125 13.8674L5.4 10.9912V20.6999C5.4 21.1987 5.80125 21.5999 6.3 21.5999C6.79875 21.5999 7.2 21.1987 7.2 20.6999V15.5999H9.1575L10.1738 17.8349C10.1925 17.8724 10.2 17.9174 10.2 17.9587V20.6999C10.2 21.1987 10.6013 21.5999 11.1 21.5999C11.5988 21.5999 12 21.1987 12 20.6999V17.9587C12 17.6587 11.9363 17.3624 11.8125 17.0887L10.5 14.2012V10.2899L10.9763 10.8862C11.4825 11.5199 12.15 12.0037 12.9113 12.2887L13.65 12.5662L13.2375 13.7024C13.0688 14.1712 13.3088 14.6849 13.7738 14.8574C14.2388 15.0299 14.7563 14.7862 14.9288 14.3212L16.6013 9.72367L18.8738 10.5487C19.3425 10.7174 19.8563 10.4774 20.0288 10.0124L21.465 6.06367C21.6338 5.59492 21.3938 5.08117 20.9288 4.90867L18.6563 4.08367L18.8288 3.60742ZM14.955 4.64992L19.4663 6.29242L18.645 8.54992L14.1338 6.90742L14.955 4.64992ZM7.8 5.99992C8.27739 5.99992 8.73523 5.81028 9.0728 5.47272C9.41036 5.13515 9.6 4.67731 9.6 4.19992C9.6 3.72253 9.41036 3.2647 9.0728 2.92713C8.73523 2.58957 8.27739 2.39992 7.8 2.39992C7.32261 2.39992 6.86478 2.58957 6.52721 2.92713C6.18965 3.2647 6 3.72253 6 4.19992C6 4.67731 6.18965 5.13515 6.52721 5.47272C6.86478 5.81028 7.32261 5.99992 7.8 5.99992ZM7.26 8.99992H8.7V13.7999H7.2V8.99992C7.21875 8.99992 7.24125 8.99992 7.26 8.99992Z" fill="black" fill-opacity="0.45"/>
</svg>
