<svg width="24" height="24" viewBox="0 0 24 24" fill="none" xmlns="http://www.w3.org/2000/svg">
<path d="M10.2 4.1999C10.2 3.72251 10.3896 3.26468 10.7272 2.92711C11.0648 2.58954 11.5226 2.3999 12 2.3999C12.4774 2.3999 12.9352 2.58954 13.2728 2.92711C13.6103 3.26468 13.8 3.72251 13.8 4.1999C13.8 4.67729 13.6103 5.13513 13.2728 5.47269C12.9352 5.81026 12.4774 5.9999 12 5.9999C11.5226 5.9999 11.0648 5.81026 10.7272 5.47269C10.3896 5.13513 10.2 4.67729 10.2 4.1999ZM11.4 9.00365V13.7999H12.6V9.00365C12.5737 9.00365 12.5437 8.9999 12.5137 8.9999H11.4862C11.4562 8.9999 11.43 8.9999 11.4 9.00365ZM11.4 15.5999V20.6999C11.4 21.1987 10.9987 21.5999 10.5 21.5999C10.0012 21.5999 9.59999 21.1987 9.59999 20.6999V10.7849L7.98374 13.6424C7.73999 14.0737 7.18874 14.2274 6.75749 13.9837C6.32624 13.7399 6.17249 13.1887 6.41624 12.7574L8.61374 8.87615C9.19874 7.84115 10.2975 7.1999 11.4862 7.1999H12.5175C13.7062 7.1999 14.805 7.84115 15.39 8.87615L17.5837 12.7574C17.8275 13.1887 17.6775 13.7399 17.2425 13.9837C16.8075 14.2274 16.26 14.0774 16.0162 13.6424L14.4 10.7849V20.6999C14.4 21.1987 13.9987 21.5999 13.5 21.5999C13.0012 21.5999 12.6 21.1987 12.6 20.6999V15.5999H11.4Z" fill="black" fill-opacity="0.45"/>
</svg>
