<svg width="24" height="24" viewBox="0 0 24 24" fill="none" xmlns="http://www.w3.org/2000/svg">
<path d="M13.8 4.1999C13.8 3.72251 13.6104 3.26468 13.2728 2.92711C12.9352 2.58954 12.4774 2.3999 12 2.3999C11.5226 2.3999 11.0648 2.58954 10.7272 2.92711C10.3896 3.26468 10.2 3.72251 10.2 4.1999C10.2 4.67729 10.3896 5.13513 10.7272 5.47269C11.0648 5.81026 11.5226 5.9999 12 5.9999C12.4774 5.9999 12.9352 5.81026 13.2728 5.47269C13.6104 5.13513 13.8 4.67729 13.8 4.1999ZM14.6137 11.1637L16.0162 13.6424C16.26 14.0737 16.8112 14.2274 17.2425 13.9837C17.6737 13.7399 17.8275 13.1887 17.5837 12.7574L15.6412 9.32615C14.8987 8.01365 13.5075 7.20365 12 7.20365C10.4925 7.20365 9.10124 8.01365 8.35874 9.32615L6.41624 12.7574C6.17249 13.1887 6.32249 13.7399 6.75749 13.9837C7.19249 14.2274 7.73999 14.0774 7.98374 13.6424L9.38624 11.1637L8.01374 16.0387C7.90499 16.4212 8.19374 16.7999 8.59124 16.7999H9.59999V20.6999C9.59999 21.1987 10.0012 21.5999 10.5 21.5999C10.9987 21.5999 11.4 21.1987 11.4 20.6999V16.7999H12.6V20.6999C12.6 21.1987 13.0012 21.5999 13.5 21.5999C13.9987 21.5999 14.4 21.1987 14.4 20.6999V16.7999H15.4087C15.8062 16.7999 16.095 16.4212 15.9862 16.0387L14.6137 11.1637ZM12 8.9999C12.0825 8.9999 12.15 9.0524 12.1725 9.13115L13.8225 14.9999H10.1775L11.8275 9.13115C11.85 9.0524 11.9212 8.9999 12 8.9999Z" fill="black" fill-opacity="0.45"/>
</svg>
