<svg width="24" height="24" viewBox="0 0 24 24" fill="none" xmlns="http://www.w3.org/2000/svg">
<path d="M16.4925 12.72C15.8775 12.4575 15.165 12.63 14.7412 13.1475L13.4962 14.67C11.7712 13.6687 10.3312 12.2287 9.32999 10.5037L10.8487 9.26247C11.3662 8.83872 11.5425 8.12622 11.2762 7.51122L9.47624 3.31122C9.19499 2.65122 8.48624 2.28372 7.78499 2.43372L3.58499 3.33372C2.89499 3.47997 2.39999 4.09122 2.39999 4.79997C2.39999 13.47 8.96999 20.61 17.4037 21.5062C17.7712 21.5437 18.1387 21.5737 18.5137 21.5887H18.5175C18.7462 21.5962 18.9712 21.6037 19.2 21.6037C19.9087 21.6037 20.52 21.1087 20.6662 20.4187L21.5662 16.2187C21.7162 15.5175 21.3487 14.8087 20.6887 14.5275L16.4887 12.7275L16.4925 12.72ZM18.9562 19.8C10.8675 19.6687 4.33124 13.1325 4.20374 5.04372L7.92374 4.24497L9.53624 8.00997L8.18999 9.11247C7.50749 9.67122 7.33124 10.6425 7.77374 11.4075C8.93249 13.4062 10.5975 15.0712 12.5962 16.23C13.3612 16.6725 14.3325 16.4962 14.8912 15.8137L15.9937 14.4675L19.7587 16.08L18.9562 19.8Z" fill="black" fill-opacity="0.45"/>
</svg>
