<svg width="24" height="24" viewBox="0 0 24 24" fill="none" xmlns="http://www.w3.org/2000/svg">
<path d="M12.9 2.3999C17.7037 2.3999 21.6 6.29615 21.6 11.0999C21.6 11.5987 21.1987 11.9999 20.7 11.9999C20.2012 11.9999 19.8 11.5987 19.8 11.0999C19.8 7.2899 16.71 4.1999 12.9 4.1999C12.4012 4.1999 12 3.79865 12 3.2999C12 2.80115 12.4012 2.3999 12.9 2.3999ZM13.2 9.5999C13.5183 9.5999 13.8235 9.72633 14.0485 9.95137C14.2736 10.1764 14.4 10.4816 14.4 10.7999C14.4 11.1182 14.2736 11.4234 14.0485 11.6484C13.8235 11.8735 13.5183 11.9999 13.2 11.9999C12.8817 11.9999 12.5765 11.8735 12.3515 11.6484C12.1264 11.4234 12 11.1182 12 10.7999C12 10.4816 12.1264 10.1764 12.3515 9.95137C12.5765 9.72633 12.8817 9.5999 13.2 9.5999ZM12 6.8999C12 6.40115 12.4012 5.9999 12.9 5.9999C15.7162 5.9999 18 8.28365 18 11.0999C18 11.5987 17.5987 11.9999 17.1 11.9999C16.6012 11.9999 16.2 11.5987 16.2 11.0999C16.2 9.2774 14.7225 7.7999 12.9 7.7999C12.4012 7.7999 12 7.39865 12 6.8999ZM14.7375 13.1512C15.1612 12.6337 15.8737 12.4574 16.4887 12.7237L20.6887 14.5237C21.3487 14.8049 21.7162 15.5174 21.5662 16.2149L20.6662 20.4149C20.5162 21.1049 19.905 21.5999 19.2 21.5999C18.9712 21.5999 18.7425 21.5962 18.5175 21.5849H18.5137C18.1387 21.5699 17.7712 21.5437 17.4037 21.5024C8.96999 20.6099 2.39999 13.4699 2.39999 4.7999C2.39999 4.09115 2.89499 3.4799 3.58499 3.33365L7.78499 2.43365C8.48624 2.28365 9.19499 2.65115 9.47624 3.31115L11.2762 7.51115C11.5387 8.12615 11.3662 8.83865 10.8487 9.2624L9.32624 10.5074C10.3275 12.2324 11.7675 13.6724 13.4925 14.6737L14.7375 13.1512ZM19.755 16.0799L15.99 14.4674L14.8875 15.8099C14.3287 16.4924 13.3575 16.6687 12.5925 16.2262C10.5937 15.0674 8.92874 13.4024 7.76999 11.4037C7.32749 10.6387 7.50374 9.6674 8.18624 9.10865L9.53249 8.00615L7.91999 4.24115L4.20374 5.04365C4.33124 13.1324 10.8675 19.6687 18.9562 19.7999L19.755 16.0799Z" fill="black" fill-opacity="0.45"/>
</svg>
