<svg width="24" height="24" viewBox="0 0 24 24" fill="none" xmlns="http://www.w3.org/2000/svg">
<path d="M22.0987 10.4737C22.47 10.8374 22.8 11.3474 22.8 11.9999C22.8 12.6524 22.4775 13.1699 22.0987 13.5412C21.7275 13.9049 21.2512 14.1787 20.79 14.3812C19.8675 14.7824 18.7725 14.9999 18 14.9999H15.5175L11.9137 20.6324C11.5275 21.2362 10.86 21.5999 10.1437 21.5999H8.62123C7.60498 21.5999 6.88123 20.6099 7.19248 19.6424L8.67748 14.9999H6.74998L5.39998 16.7999C5.11498 17.1787 4.67248 17.3999 4.19998 17.3999H2.62123C1.83748 17.3999 1.19998 16.7624 1.19998 15.9787C1.19998 15.8362 1.22248 15.6974 1.26373 15.5624L2.35873 11.9999L1.26373 8.44115C1.22248 8.3024 1.19998 8.16365 1.19998 8.02115C1.19998 7.2374 1.83748 6.5999 2.62123 6.5999H4.19998C4.67248 6.5999 5.11498 6.82115 5.39998 7.1999L6.74998 8.9999H8.67748L7.19248 4.3574C6.88498 3.3899 7.60498 2.3999 8.62123 2.3999H10.1437C10.86 2.3999 11.5275 2.76365 11.9137 3.3674L15.5175 8.9999H18C18.7762 8.9999 19.875 9.22865 20.7937 9.63365C21.255 9.8399 21.7275 10.1137 22.0987 10.4737ZM20.0662 11.2799C19.3537 10.9649 18.5025 10.7999 18 10.7999H15.0225C14.715 10.7999 14.43 10.6424 14.265 10.3837L10.395 4.33865C10.3387 4.2524 10.245 4.1999 10.1437 4.1999H9.03373L10.77 9.62615C10.8562 9.8999 10.8075 10.1999 10.6387 10.4324C10.47 10.6649 10.2 10.7999 9.91123 10.7999H6.29998C6.01498 10.7999 5.74873 10.6649 5.57998 10.4399L4.04998 8.3999H3.13498L4.16248 11.7337C4.21498 11.9062 4.21498 12.0899 4.16248 12.2624L3.13498 15.5999H4.04998L5.57998 13.5599C5.74873 13.3349 6.01498 13.1999 6.29998 13.1999H9.91123C10.2 13.1999 10.47 13.3387 10.6387 13.5674C10.8075 13.7962 10.8562 14.0999 10.77 14.3737L9.03373 19.7999H10.1437C10.245 19.7999 10.3425 19.7474 10.395 19.6612L14.265 13.6162C14.43 13.3574 14.715 13.1999 15.0225 13.1999H18C18.51 13.1999 19.3612 13.0424 20.07 12.7312C20.4225 12.5774 20.6812 12.4124 20.8425 12.2549C20.9962 12.1049 21 12.0224 21 11.9999C21 11.9924 21 11.9174 20.8425 11.7637C20.6812 11.6062 20.4187 11.4374 20.0662 11.2799Z" fill="black" fill-opacity="0.45"/>
</svg>
