<svg width="24" height="24" viewBox="0 0 24 24" fill="none" xmlns="http://www.w3.org/2000/svg">
<path d="M19.8 3.56617C19.8004 3.56069 19.7994 3.55519 19.7972 3.55017C19.795 3.54514 19.7916 3.54074 19.7873 3.53733C19.783 3.53392 19.7779 3.53162 19.7725 3.53062C19.7671 3.52962 19.7615 3.52995 19.7563 3.53159C19.751 3.53323 19.7463 3.53612 19.7424 3.54002C19.7385 3.54392 19.7357 3.5487 19.7341 3.55396C19.7325 3.55921 19.7322 3.56478 19.7332 3.57017C19.7342 3.57557 19.7366 3.58063 19.74 3.58492C19.7396 3.5904 19.7406 3.59589 19.7428 3.60091C19.745 3.60594 19.7484 3.61035 19.7527 3.61375C19.757 3.61716 19.7621 3.61946 19.7675 3.62046C19.7729 3.62146 19.7785 3.62113 19.7837 3.61949C19.789 3.61785 19.7937 3.61496 19.7976 3.61106C19.8015 3.60716 19.8043 3.60238 19.806 3.59712C19.8076 3.59187 19.8078 3.5863 19.8068 3.58091C19.8058 3.57551 19.8034 3.57045 19.8 3.56617ZM19.605 4.39492C19.1588 4.55992 18.5925 4.82617 17.9175 5.21617C17.415 4.77367 16.8713 4.39867 16.305 4.09117C18.6975 2.57242 20.5763 1.98367 21.2963 2.70367C22.125 3.53242 21.21 5.91367 19.1363 8.84242C19.5638 9.80992 19.8 10.8749 19.8 11.9999C19.8 16.3087 16.3088 19.7999 12 19.7999C10.875 19.7999 9.81 19.5637 8.8425 19.1362C5.91375 21.2099 3.53625 22.1249 2.70375 21.2962C1.98375 20.5762 2.57625 18.6974 4.09125 16.3049C4.4025 16.8712 4.7775 17.4149 5.21625 17.9174C4.82625 18.5924 4.55625 19.1549 4.395 19.6049C4.8675 19.4324 5.47125 19.1437 6.19875 18.7124C6.50625 18.5324 6.825 18.3299 7.15125 18.1124C5.355 16.6837 4.2 14.4749 4.2 11.9999C4.2 7.69117 7.69125 4.19992 12 4.19992C14.475 4.19992 16.6838 5.35492 18.1125 7.15492C18.33 6.82492 18.5325 6.50617 18.7125 6.20242C19.14 5.47492 19.4325 4.87117 19.605 4.39867V4.39492ZM17.01 8.69617C15.9375 7.07242 14.0925 5.99992 12 5.99992C8.685 5.99992 6 8.68492 6 11.9999C6 14.0924 7.0725 15.9374 8.69625 17.0099C10.0875 15.9524 11.5988 14.6324 13.1138 13.1174C14.6288 11.6024 15.9488 10.0874 17.0063 8.69992L17.01 8.69617ZM10.5713 17.8274C11.0288 17.9399 11.5088 17.9999 12 17.9999C15.315 17.9999 18 15.3149 18 11.9999C18 11.5087 17.94 11.0287 17.8275 10.5712C16.8338 11.8087 15.675 13.1024 14.3888 14.3887C13.1025 15.6749 11.8088 16.8337 10.5713 17.8274ZM3.56625 19.7999C3.57054 19.8034 3.5756 19.8057 3.58099 19.8067C3.58639 19.8078 3.59195 19.8075 3.59721 19.8059C3.60246 19.8043 3.60725 19.8014 3.61115 19.7975C3.61504 19.7937 3.61794 19.7889 3.61958 19.7837C3.62121 19.7784 3.62155 19.7728 3.62055 19.7674C3.61955 19.762 3.61724 19.757 3.61384 19.7527C3.61043 19.7483 3.60602 19.7449 3.601 19.7427C3.59597 19.7405 3.59048 19.7395 3.585 19.7399C3.58072 19.7365 3.57566 19.7341 3.57026 19.7331C3.56487 19.7321 3.5593 19.7324 3.55404 19.734C3.54879 19.7356 3.54401 19.7384 3.54011 19.7423C3.53621 19.7462 3.53332 19.7509 3.53168 19.7562C3.53004 19.7614 3.52971 19.767 3.5307 19.7724C3.5317 19.7778 3.53401 19.7829 3.53742 19.7872C3.54082 19.7915 3.54523 19.7949 3.55026 19.7971C3.55528 19.7993 3.56077 19.8003 3.56625 19.7999ZM4.19625 20.3999C4.19149 20.4042 4.18779 20.4096 4.18546 20.4156C4.18313 20.4215 4.18223 20.428 4.18282 20.4344C4.18342 20.4408 4.1855 20.4469 4.18889 20.4524C4.19229 20.4578 4.19691 20.4624 4.20239 20.4657C4.20786 20.4691 4.21404 20.4711 4.22044 20.4716C4.22683 20.4722 4.23327 20.4712 4.23923 20.4688C4.24518 20.4664 4.2505 20.4627 4.25476 20.4579C4.25902 20.4531 4.2621 20.4474 4.26375 20.4412C4.26852 20.4369 4.27221 20.4315 4.27454 20.4255C4.27687 20.4196 4.27778 20.4131 4.27718 20.4067C4.27658 20.4003 4.27451 20.3942 4.27111 20.3887C4.26771 20.3833 4.26309 20.3787 4.25762 20.3754C4.25214 20.372 4.24596 20.37 4.23956 20.3694C4.23317 20.3689 4.22674 20.3699 4.22078 20.3723C4.21482 20.3746 4.2095 20.3784 4.20524 20.3832C4.20098 20.388 4.19791 20.3937 4.19625 20.3999ZM20.4 4.19617C20.3938 4.19782 20.3881 4.2009 20.3833 4.20516C20.3785 4.20941 20.3747 4.21473 20.3723 4.22069C20.37 4.22665 20.369 4.23308 20.3695 4.23948C20.3701 4.24587 20.3721 4.25206 20.3754 4.25753C20.3788 4.26301 20.3834 4.26763 20.3888 4.27102C20.3943 4.27442 20.4004 4.2765 20.4068 4.27709C20.4132 4.27769 20.4196 4.27679 20.4256 4.27445C20.4316 4.27212 20.437 4.26843 20.4413 4.26367C20.4475 4.26201 20.4532 4.25893 20.458 4.25468C20.4628 4.25042 20.4665 4.2451 20.4689 4.23914C20.4713 4.23318 20.4723 4.22675 20.4717 4.22035C20.4712 4.21396 20.4692 4.20778 20.4658 4.2023C20.4625 4.19682 20.4579 4.1922 20.4524 4.18881C20.447 4.18541 20.4408 4.18333 20.4344 4.18274C20.4281 4.18214 20.4216 4.18305 20.4156 4.18538C20.4097 4.18771 20.4043 4.1914 20.4 4.19617Z" fill="black" fill-opacity="0.45"/>
</svg>
