<svg width="24" height="24" viewBox="0 0 24 24" fill="none" xmlns="http://www.w3.org/2000/svg">
<path d="M16.2 5.70012C16.2 5.20137 15.7987 4.80012 15.3 4.80012C14.8012 4.80012 14.4 5.20137 14.4 5.70012V18.3001C14.4 18.7989 14.8012 19.2001 15.3 19.2001C15.7987 19.2001 16.2 18.7989 16.2 18.3001V5.70012ZM21.6 5.70012C21.6 5.20137 21.1987 4.80012 20.7 4.80012C20.2012 4.80012 19.8 5.20137 19.8 5.70012V18.3001C19.8 18.7989 20.2012 19.2001 20.7 19.2001C21.1987 19.2001 21.6 18.7989 21.6 18.3001V5.70012ZM4.19999 16.7176V7.28262L9.86249 12.0001L4.19999 16.7176ZM4.36874 5.07762C4.01249 4.78137 3.51374 4.71387 3.08999 4.91262C2.66624 5.11137 2.39999 5.53512 2.39999 6.00012V18.0001C2.39999 18.4651 2.66999 18.8889 3.08999 19.0876C3.50999 19.2864 4.00874 19.2226 4.36874 18.9226L11.5687 12.9226C11.8425 12.6939 12 12.3564 12 12.0001C12 11.6439 11.8425 11.3064 11.5687 11.0776L4.36874 5.07762Z" fill="black" fill-opacity="0.45"/>
</svg>
