<svg width="24" height="24" viewBox="0 0 24 24" fill="none" xmlns="http://www.w3.org/2000/svg">
<path d="M10.1738 2.77865C10.3425 2.5424 10.6125 2.3999 10.905 2.3999C13.11 2.3999 15.8738 3.9674 16.1738 6.9449C17.2575 7.48865 18 8.60615 18 9.8999C18 9.9824 17.9963 10.0649 17.9925 10.1474C19.3988 10.6874 20.4 12.0524 20.4 13.6499C20.4 15.7199 18.72 17.3999 16.65 17.3999H16.3425C16.7738 16.9162 16.92 16.2299 16.6988 15.6037V15.5999C17.7525 15.5737 18.6 14.7112 18.6 13.6499C18.6 12.6374 17.8238 11.8012 16.8375 11.7074C16.5525 11.6812 16.2975 11.5199 16.1513 11.2762C16.005 11.0324 15.9825 10.7324 16.0875 10.4699C16.1588 10.2937 16.2 10.1024 16.2 9.8999C16.2 9.2024 15.7238 8.61365 15.075 8.44865C14.6663 8.34365 14.385 7.96865 14.4 7.5449C14.4 7.52615 14.4 7.5074 14.4 7.48865C14.4 5.98115 13.3988 4.90865 12.21 4.45115C12.2588 4.66115 12.3 4.88615 12.3 5.08115C12.3 6.50615 11.565 7.36865 10.8375 7.84115C10.4888 8.06615 10.1438 8.20115 9.89251 8.2799C9.76501 8.32115 9.65626 8.3474 9.57751 8.3624L9.56251 8.36615C9.48001 8.3924 9.39376 8.40365 9.30376 8.40365H9.30001C8.47126 8.40365 7.80001 9.0749 7.80001 9.90365C7.80001 10.1062 7.84126 10.2974 7.91251 10.4737C8.02126 10.7362 7.99876 11.0362 7.84876 11.2799C7.69876 11.5237 7.44751 11.6849 7.16251 11.7112C6.17626 11.8012 5.40001 12.6374 5.40001 13.6499C5.40001 14.3249 5.74126 14.9174 6.25876 15.2662C5.98501 15.7162 5.91751 16.2787 6.10126 16.7962C6.16126 16.9687 6.24376 17.1262 6.34876 17.2649C4.76251 16.8262 3.60001 15.3749 3.60001 13.6499C3.60001 12.0524 4.60126 10.6874 6.00751 10.1474C6.00001 10.0649 6.00001 9.9824 6.00001 9.8999C6.00001 8.1149 7.41751 6.66365 9.18376 6.60365L9.20251 6.5999C9.23626 6.5924 9.29251 6.5774 9.36376 6.55865C9.50626 6.51365 9.68626 6.4424 9.86251 6.3299C10.185 6.12365 10.5 5.77865 10.5 5.08115C10.5 5.0699 10.4925 5.0249 10.4738 4.93115C10.4513 4.82615 10.4175 4.7024 10.3763 4.5599C10.2938 4.27865 10.1888 3.98615 10.11 3.76115V3.7574C10.0913 3.6974 10.0688 3.64115 10.0538 3.59615C9.96001 3.3224 10.005 3.01865 10.1738 2.7824V2.77865ZM14.1788 10.9349C14.3963 11.1112 14.4638 11.4187 14.34 11.6699L12.3713 15.5999H15C15.255 15.5999 15.48 15.7612 15.5663 16.0012C15.6525 16.2412 15.5738 16.5074 15.375 16.6687L9.37501 21.4687C9.15376 21.6449 8.84251 21.6449 8.62126 21.4649C8.40001 21.2849 8.33626 20.9812 8.46001 20.7299L10.4288 16.7999H7.80001C7.54501 16.7999 7.32001 16.6387 7.23376 16.3987C7.14751 16.1587 7.22626 15.8924 7.42501 15.7312L13.425 10.9312C13.6463 10.7549 13.9575 10.7549 14.1788 10.9349Z" fill="black" fill-opacity="0.45"/>
</svg>
