<svg width="24" height="24" viewBox="0 0 24 24" fill="none" xmlns="http://www.w3.org/2000/svg">
<path d="M10.8 2.40002C10.4362 2.40002 10.1062 2.61752 9.96749 2.95502C9.82874 3.29252 9.90374 3.67877 10.1625 3.93752L10.44 4.21502C10.6687 4.44377 10.7962 4.75502 10.7962 5.07752V5.19752C10.7962 5.80502 10.305 6.29627 9.69749 6.29627H9.14999H9.03374C8.80499 6.29627 8.57999 6.32627 8.36624 6.37877C6.67124 6.74252 5.39999 8.24627 5.39999 10.05C5.39999 10.0913 5.39999 10.1325 5.40374 10.1738C4.16624 10.6988 3.29999 11.9213 3.29999 13.35C3.29999 13.8863 3.42374 14.3925 3.64124 14.8463C2.87999 15.5588 2.39999 16.5713 2.39999 17.7C2.39999 19.8525 4.14749 21.6 6.29999 21.6H17.7C19.8525 21.6 21.6 19.8525 21.6 17.7C21.6 16.5713 21.12 15.5588 20.3587 14.8463C20.5762 14.3925 20.7 13.8863 20.7 13.35C20.7 11.9213 19.8337 10.6988 18.5962 10.1738C18.5962 10.1325 18.6 10.0913 18.6 10.05C18.6 8.62502 17.805 7.38752 16.6387 6.75377C16.035 4.25627 13.785 2.40002 11.1 2.40002H10.8ZM12.6 5.07752C12.6 4.87127 12.5775 4.66877 12.54 4.47377C13.8075 4.97627 14.7487 6.12377 14.9587 7.51127C15.0075 7.83377 15.2287 8.10752 15.5325 8.22002C16.275 8.49752 16.8 9.21377 16.8 10.05C16.8 10.2338 16.7737 10.4138 16.7287 10.5788C16.6575 10.83 16.6987 11.1 16.8412 11.3175C16.9837 11.535 17.2162 11.6813 17.475 11.715C18.2812 11.8238 18.9 12.5138 18.9 13.35C18.9 13.7775 18.7387 14.1675 18.4725 14.46C18.285 14.6625 18.2062 14.9438 18.2512 15.2138C18.2962 15.4838 18.465 15.7238 18.7087 15.855C19.3612 16.2113 19.8037 16.905 19.8037 17.7C19.8037 18.8588 18.8625 19.8 17.7037 19.8H6.29999C5.14124 19.8 4.19999 18.8588 4.19999 17.7C4.19999 16.905 4.63874 16.2113 5.29499 15.855C5.53874 15.7238 5.70374 15.4875 5.75249 15.2138C5.80124 14.94 5.71499 14.6625 5.53124 14.46C5.26124 14.1675 5.09999 13.7775 5.09999 13.35C5.09999 12.5138 5.72249 11.8238 6.52499 11.715C6.78374 11.6813 7.01249 11.535 7.15874 11.3175C7.30499 11.1 7.34249 10.83 7.27124 10.5788C7.22249 10.41 7.19999 10.2338 7.19999 10.05C7.19999 9.10877 7.86749 8.32503 8.75249 8.14127C8.76749 8.13753 8.78249 8.13377 8.79749 8.13002C8.87249 8.11127 8.95124 8.10002 9.03374 8.10002H9.14999H9.70124C11.3025 8.10002 12.6 6.80252 12.6 5.20127V5.07752ZM9.59999 14.4C9.91825 14.4 10.2235 14.2736 10.4485 14.0486C10.6736 13.8235 10.8 13.5183 10.8 13.2C10.8 12.8818 10.6736 12.5765 10.4485 12.3515C10.2235 12.1265 9.91825 12 9.59999 12C9.28173 12 8.97651 12.1265 8.75147 12.3515C8.52642 12.5765 8.39999 12.8818 8.39999 13.2C8.39999 13.5183 8.52642 13.8235 8.75147 14.0486C8.97651 14.2736 9.28173 14.4 9.59999 14.4ZM14.4 14.4C14.7183 14.4 15.0235 14.2736 15.2485 14.0486C15.4736 13.8235 15.6 13.5183 15.6 13.2C15.6 12.8818 15.4736 12.5765 15.2485 12.3515C15.0235 12.1265 14.7183 12 14.4 12C14.0817 12 13.7765 12.1265 13.5515 12.3515C13.3264 12.5765 13.2 12.8818 13.2 13.2C13.2 13.5183 13.3264 13.8235 13.5515 14.0486C13.7765 14.2736 14.0817 14.4 14.4 14.4ZM8.86124 15.6C8.60624 15.6 8.39999 15.8063 8.39999 16.0613C8.39999 16.1513 8.42624 16.2413 8.48249 16.3125C8.78999 16.7063 9.96374 18 12 18C14.0362 18 15.21 16.7025 15.5175 16.3125C15.5737 16.2413 15.6 16.1513 15.6 16.0613C15.6 15.8063 15.3937 15.6 15.1387 15.6H8.86124Z" fill="black" fill-opacity="0.45"/>
</svg>
