<svg width="24" height="24" viewBox="0 0 24 24" fill="none" xmlns="http://www.w3.org/2000/svg">
<path d="M6.59999 8.3999V4.7999C6.59999 4.4699 6.86999 4.1999 7.19999 4.1999H15.8062C15.9637 4.1999 16.1175 4.26365 16.23 4.37615L17.2237 5.3699C17.3362 5.4824 17.4 5.63615 17.4 5.79365V8.3999H19.2V5.79365C19.2 5.15615 18.9487 4.5449 18.4987 4.0949L17.5012 3.10115C17.0512 2.65115 16.4437 2.3999 15.8062 2.3999H7.19999C5.87624 2.3999 4.79999 3.47615 4.79999 4.7999V8.3999H6.59999ZM7.19999 16.1999H16.8V19.7999H7.19999V16.1999ZM6.59999 14.3999C5.93624 14.3999 5.39999 14.9362 5.39999 15.5999H4.19999V11.9999C4.19999 11.6699 4.46999 11.3999 4.79999 11.3999H19.2C19.53 11.3999 19.8 11.6699 19.8 11.9999V15.5999H18.6C18.6 14.9362 18.0637 14.3999 17.4 14.3999H6.59999ZM18.6 17.3999H20.4C21.0637 17.3999 21.6 16.8637 21.6 16.1999V11.9999C21.6 10.6762 20.5237 9.5999 19.2 9.5999H4.79999C3.47624 9.5999 2.39999 10.6762 2.39999 11.9999V16.1999C2.39999 16.8637 2.93624 17.3999 3.59999 17.3999H5.39999V20.3999C5.39999 21.0637 5.93624 21.5999 6.59999 21.5999H17.4C18.0637 21.5999 18.6 21.0637 18.6 20.3999V17.3999Z" fill="black" fill-opacity="0.45"/>
</svg>
