<svg width="24" height="24" viewBox="0 0 24 24" fill="none" xmlns="http://www.w3.org/2000/svg">
<path d="M8.40001 8.4001C8.40001 6.7426 9.74251 5.4001 11.4 5.4001H12.6C14.2575 5.4001 15.6 6.7426 15.6 8.4001V8.5726C15.6 9.47635 15.15 10.3201 14.3963 10.8188L12.435 12.1276C11.6025 12.6826 11.1 13.6201 11.1 14.6251V14.7001C11.1 15.1988 11.5013 15.6001 12 15.6001C12.4988 15.6001 12.9 15.1988 12.9 14.7001V14.6251C12.9 14.2238 13.0988 13.8488 13.4325 13.6276L15.3938 12.3188C16.6463 11.4826 17.3963 10.0801 17.3963 8.57635V8.4001C17.3963 5.74885 15.2475 3.6001 12.5963 3.6001H11.4C8.74876 3.6001 6.60001 5.74885 6.60001 8.4001C6.60001 8.89885 7.00126 9.3001 7.50001 9.3001C7.99876 9.3001 8.40001 8.89885 8.40001 8.4001ZM12 20.4001C12.3183 20.4001 12.6235 20.2737 12.8485 20.0486C13.0736 19.8236 13.2 19.5184 13.2 19.2001C13.2 18.8818 13.0736 18.5766 12.8485 18.3516C12.6235 18.1265 12.3183 18.0001 12 18.0001C11.6817 18.0001 11.3765 18.1265 11.1515 18.3516C10.9264 18.5766 10.8 18.8818 10.8 19.2001C10.8 19.5184 10.9264 19.8236 11.1515 20.0486C11.3765 20.2737 11.6817 20.4001 12 20.4001Z" fill="black" fill-opacity="0.45"/>
</svg>
