<svg width="24" height="24" viewBox="0 0 24 24" fill="none" xmlns="http://www.w3.org/2000/svg">
<path d="M3.60001 10.5C3.60001 8.01375 5.61376 6 8.10001 6H8.70001C9.19876 6 9.60001 6.40125 9.60001 6.9C9.60001 7.39875 9.19876 7.8 8.70001 7.8H8.10001C6.60751 7.8 5.40001 9.0075 5.40001 10.5V10.875C5.59126 10.8263 5.79376 10.8 6.00001 10.8H8.40001C9.72376 10.8 10.8 11.8763 10.8 13.2V15.6C10.8 16.9238 9.72376 18 8.40001 18H6.00001C4.67626 18 3.60001 16.9238 3.60001 15.6V14.4V13.2V10.5ZM5.40001 13.2V14.4V15.6C5.40001 15.93 5.67001 16.2 6.00001 16.2H8.40001C8.73001 16.2 9.00001 15.93 9.00001 15.6V13.2C9.00001 12.87 8.73001 12.6 8.40001 12.6H6.00001C5.67001 12.6 5.40001 12.87 5.40001 13.2ZM18 12.6H15.6C15.27 12.6 15 12.87 15 13.2V14.4V15.6C15 15.93 15.27 16.2 15.6 16.2H18C18.33 16.2 18.6 15.93 18.6 15.6V13.2C18.6 12.87 18.33 12.6 18 12.6ZM13.2 14.4V13.2V10.5C13.2 8.01375 15.2138 6 17.7 6H18.3C18.7988 6 19.2 6.40125 19.2 6.9C19.2 7.39875 18.7988 7.8 18.3 7.8H17.7C16.2075 7.8 15 9.0075 15 10.5V10.875C15.1913 10.8263 15.3938 10.8 15.6 10.8H18C19.3238 10.8 20.4 11.8763 20.4 13.2V15.6C20.4 16.9238 19.3238 18 18 18H15.6C14.2763 18 13.2 16.9238 13.2 15.6V14.4Z" fill="black" fill-opacity="0.45"/>
</svg>
