<svg width="24" height="24" viewBox="0 0 24 24" fill="none" xmlns="http://www.w3.org/2000/svg">
<path d="M20.4 13.5C20.4 15.9863 18.3862 18 15.9 18H15.3C14.8012 18 14.4 17.5988 14.4 17.1C14.4 16.6013 14.8012 16.2 15.3 16.2H15.9C17.3925 16.2 18.6 14.9925 18.6 13.5V13.125C18.4087 13.1738 18.2062 13.2 18 13.2H15.6C14.2762 13.2 13.2 12.1238 13.2 10.8V8.4C13.2 7.07625 14.2762 6 15.6 6H18C19.3237 6 20.4 7.07625 20.4 8.4V9.6V10.8V13.5ZM18.6 10.8V9.6V8.4C18.6 8.07 18.33 7.8 18 7.8H15.6C15.27 7.8 15 8.07 15 8.4V10.8C15 11.13 15.27 11.4 15.6 11.4H18C18.33 11.4 18.6 11.13 18.6 10.8ZM5.99999 11.4H8.39999C8.72999 11.4 8.99999 11.13 8.99999 10.8V9.6V8.4C8.99999 8.07 8.72999 7.8 8.39999 7.8H5.99999C5.66999 7.8 5.39999 8.07 5.39999 8.4V10.8C5.39999 11.13 5.66999 11.4 5.99999 11.4ZM10.8 9.6V10.8V13.5C10.8 15.9863 8.78624 18 6.29999 18H5.69999C5.20124 18 4.79999 17.5988 4.79999 17.1C4.79999 16.6013 5.20124 16.2 5.69999 16.2H6.29999C7.79249 16.2 8.99999 14.9925 8.99999 13.5V13.125C8.80874 13.1738 8.60624 13.2 8.39999 13.2H5.99999C4.67624 13.2 3.59999 12.1238 3.59999 10.8V8.4C3.59999 7.07625 4.67624 6 5.99999 6H8.39999C9.72374 6 10.8 7.07625 10.8 8.4V9.6Z" fill="black" fill-opacity="0.45"/>
</svg>
