<svg width="24" height="24" viewBox="0 0 24 24" fill="none" xmlns="http://www.w3.org/2000/svg">
<path d="M12 4.80002H8.40001L5.03251 2.55377C4.88251 2.45252 4.70251 2.40002 4.52251 2.40002C4.01251 2.40002 3.60001 2.81252 3.60001 3.32252V5.20502C2.18251 5.88002 1.20001 7.32377 1.20001 9.00002C1.20001 11.2238 2.92876 13.0425 5.11501 13.1888L2.52751 18.36C2.23126 18.9525 2.47126 19.6725 3.06376 19.9688L6.06376 21.4688C6.65626 21.765 7.37626 21.525 7.67251 20.9325L11.535 13.2075L11.5425 13.1963H12V13.4963C12 13.995 12.4013 14.3963 12.9 14.3963C13.3988 14.3963 13.8 13.995 13.8 13.4963V13.1963V11.4V6.60002V4.80002V4.50002C13.8 4.00127 13.3988 3.60002 12.9 3.60002C12.4013 3.60002 12 4.00127 12 4.50002V4.80002ZM5.40001 6.60002H12V11.4H5.40001C4.07626 11.4 3.00001 10.3238 3.00001 9.00002C3.00001 7.67627 4.07626 6.60002 5.40001 6.60002ZM15.9 4.80002C15.4013 4.80002 15 5.20127 15 5.70002V12.3C15 12.7988 15.4013 13.2 15.9 13.2C16.3988 13.2 16.8 12.7988 16.8 12.3V10.2H19.0838L21.975 11.3588C22.1588 11.4338 22.3688 11.4113 22.5338 11.2988C22.6988 11.1863 22.7963 11.0025 22.7963 10.8038V7.20002C22.7963 7.00127 22.6988 6.81377 22.5338 6.70502C22.3688 6.59627 22.1588 6.57002 21.975 6.64502L19.0838 7.80002H16.8V5.70002C16.8 5.20127 16.3988 4.80002 15.9 4.80002ZM5.40001 9.90002C5.5182 9.90002 5.63523 9.87675 5.74443 9.83152C5.85362 9.78629 5.95284 9.71999 6.03641 9.63642C6.11998 9.55285 6.18627 9.45363 6.2315 9.34444C6.27673 9.23525 6.30001 9.11821 6.30001 9.00002C6.30001 8.88183 6.27673 8.7648 6.2315 8.65561C6.18627 8.54642 6.11998 8.4472 6.03641 8.36363C5.95284 8.28006 5.85362 8.21376 5.74443 8.16853C5.63523 8.1233 5.5182 8.10002 5.40001 8.10002C5.28182 8.10002 5.16479 8.1233 5.0556 8.16853C4.9464 8.21376 4.84719 8.28006 4.76362 8.36363C4.68004 8.4472 4.61375 8.54642 4.56852 8.65561C4.52329 8.7648 4.50001 8.88183 4.50001 9.00002C4.50001 9.11821 4.52329 9.23525 4.56852 9.34444C4.61375 9.45363 4.68004 9.55285 4.76362 9.63642C4.84719 9.71999 4.9464 9.78629 5.0556 9.83152C5.16479 9.87675 5.28182 9.90002 5.40001 9.90002ZM9.90001 9.00002C9.90001 8.76133 9.80519 8.53241 9.63641 8.36363C9.46763 8.19485 9.23871 8.10002 9.00001 8.10002C8.76132 8.10002 8.5324 8.19485 8.36362 8.36363C8.19483 8.53241 8.10001 8.76133 8.10001 9.00002C8.10001 9.23872 8.19483 9.46764 8.36362 9.63642C8.5324 9.8052 8.76132 9.90002 9.00001 9.90002C9.23871 9.90002 9.46763 9.8052 9.63641 9.63642C9.80519 9.46764 9.90001 9.23872 9.90001 9.00002ZM9.52501 13.2113L6.33001 19.5938L4.40626 18.63L7.11751 13.2113H9.52501Z" fill="black" fill-opacity="0.45"/>
</svg>
