<svg width="24" height="24" viewBox="0 0 24 24" fill="none" xmlns="http://www.w3.org/2000/svg">
<path d="M19.143 14.4852C19.6961 14.4852 20.143 14.9321 20.143 15.4852C20.143 16.0383 19.6961 16.4852 19.143 16.4852H9.14299V18.4852C9.14299 18.8883 8.89924 19.2539 8.52424 19.4102C8.14924 19.5664 7.72111 19.4789 7.43361 19.1946L4.43361 16.1946C4.24611 16.0071 4.13986 15.7539 4.13986 15.4883C4.13986 15.2227 4.24611 14.9696 4.43361 14.7821L7.43361 11.7821C7.72111 11.4946 8.14924 11.4102 8.52424 11.5664C8.89924 11.7227 9.14299 12.0852 9.14299 12.4914V14.4914H19.143V14.4852Z" fill="black" fill-opacity="0.45"/>
<path d="M5 10.0016C4.44688 10.0016 4 9.55475 4 9.00162C4 8.4485 4.44688 8.00162 5 8.00162H15V6.00162C15 5.5985 15.2438 5.23287 15.6188 5.07662C15.9938 4.92037 16.4219 5.00787 16.7094 5.29225L19.7094 8.29225C19.8969 8.47975 20.0031 8.73287 20.0031 8.9985C20.0031 9.26412 19.8969 9.51725 19.7094 9.70475L16.7094 12.7047C16.4219 12.9922 15.9938 13.0766 15.6188 12.9204C15.2438 12.7641 15 12.4016 15 11.9954V9.99537H5V10.0016Z" fill="black" fill-opacity="0.45"/>
</svg>
