<svg width="24" height="24" viewBox="0 0 24 24" fill="none" xmlns="http://www.w3.org/2000/svg">
<path d="M9.59999 16.1176L13.725 12.0001L9.59999 7.8826V9.9001C9.59999 10.3988 9.19874 10.8001 8.69999 10.8001H4.19999V13.2001H8.69999C9.19874 13.2001 9.59999 13.6013 9.59999 14.1001V16.1176ZM15.6 12.0001C15.6 12.4313 15.4275 12.8438 15.1237 13.1476L10.77 17.4901C10.4437 17.8163 10.0012 18.0001 9.53999 18.0001C8.57999 18.0001 7.79999 17.2201 7.79999 16.2601V15.0001H4.19999C3.20624 15.0001 2.39999 14.1938 2.39999 13.2001V10.8001C2.39999 9.80635 3.20624 9.0001 4.19999 9.0001H7.79999V7.7401C7.79999 6.7801 8.57999 6.0001 9.53999 6.0001C10.0012 6.0001 10.4437 6.18385 10.77 6.5101L15.1237 10.8526C15.4275 11.1563 15.6 11.5688 15.6 12.0001ZM15.3 18.6001H18.3C19.1287 18.6001 19.8 17.9288 19.8 17.1001V6.9001C19.8 6.07135 19.1287 5.4001 18.3 5.4001H15.3C14.8012 5.4001 14.4 4.99885 14.4 4.5001C14.4 4.00135 14.8012 3.6001 15.3 3.6001H18.3C20.1225 3.6001 21.6 5.0776 21.6 6.9001V17.1001C21.6 18.9226 20.1225 20.4001 18.3 20.4001H15.3C14.8012 20.4001 14.4 19.9988 14.4 19.5001C14.4 19.0013 14.8012 18.6001 15.3 18.6001Z" fill="black" fill-opacity="0.45"/>
</svg>
