<svg width="24" height="24" viewBox="0 0 24 24" fill="none" xmlns="http://www.w3.org/2000/svg">
<path d="M12 2.3999C9.34875 2.3999 7.2 4.54865 7.2 7.1999V7.7999H5.7C4.54125 7.7999 3.6 8.74115 3.6 9.8999V17.8087L2.47875 20.3362C2.355 20.6137 2.38125 20.9362 2.54625 21.1912C2.71125 21.4462 2.99625 21.5999 3.3 21.5999H7.5C7.99875 21.5999 8.4 21.1987 8.4 20.6999V17.9662L9.22875 18.8962C9.40125 19.0874 9.645 19.1999 9.9 19.1999H14.1C14.3588 19.1999 14.6025 19.0912 14.7713 18.8962L15.6 17.9662V20.6999C15.6 21.1987 16.0013 21.5999 16.5 21.5999H20.7C21.0038 21.5999 21.2888 21.4462 21.4538 21.1912C21.6188 20.9362 21.645 20.6137 21.5213 20.3362L20.4 17.8087V9.8999C20.4 8.74115 19.4588 7.7999 18.3 7.7999H16.8V7.1999C16.8 4.54865 14.6513 2.3999 12 2.3999ZM9.6 5.9999C9.6 5.68164 9.72643 5.37642 9.95148 5.15137C10.1765 4.92633 10.4817 4.7999 10.8 4.7999C11.1183 4.7999 11.4235 4.92633 11.6485 5.15137C11.8736 5.37642 12 5.68164 12 5.9999C12 6.31816 11.8736 6.62339 11.6485 6.84843C11.4235 7.07347 11.1183 7.1999 10.8 7.1999C10.4817 7.1999 10.1765 7.07347 9.95148 6.84843C9.72643 6.62339 9.6 6.31816 9.6 5.9999ZM13.8 5.9999C13.9591 5.9999 14.1117 6.06312 14.2243 6.17564C14.3368 6.28816 14.4 6.44077 14.4 6.5999C14.4 6.75903 14.3368 6.91164 14.2243 7.02417C14.1117 7.13669 13.9591 7.1999 13.8 7.1999C13.6409 7.1999 13.4883 7.13669 13.3757 7.02417C13.2632 6.91164 13.2 6.75903 13.2 6.5999C13.2 6.44077 13.2632 6.28816 13.3757 6.17564C13.4883 6.06312 13.6409 5.9999 13.8 5.9999ZM5.7 9.5999H6.6V15.5999V19.7999H4.68375L5.32125 18.3637C5.37375 18.2474 5.4 18.1237 5.4 17.9999V9.8999C5.4 9.7349 5.535 9.5999 5.7 9.5999ZM8.4 9.5999H15.6V15.2587L13.695 17.3999H10.305L8.4 15.2587V9.5999ZM17.4 9.5999H18.3C18.465 9.5999 18.6 9.7349 18.6 9.8999V17.9999C18.6 18.1274 18.6263 18.2512 18.6788 18.3637L19.3163 19.7999H17.4V15.5999V9.5999ZM10.2 10.7999C9.87 10.7999 9.6 11.0699 9.6 11.3999C9.6 11.7299 9.87 11.9999 10.2 11.9999H13.8C14.13 11.9999 14.4 11.7299 14.4 11.3999C14.4 11.0699 14.13 10.7999 13.8 10.7999H10.2ZM10.2 13.1999C9.87 13.1999 9.6 13.4699 9.6 13.7999C9.6 14.1299 9.87 14.3999 10.2 14.3999H13.8C14.13 14.3999 14.4 14.1299 14.4 13.7999C14.4 13.4699 14.13 13.1999 13.8 13.1999H10.2Z" fill="black" fill-opacity="0.45"/>
</svg>
