<svg width="24" height="24" viewBox="0 0 24 24" fill="none" xmlns="http://www.w3.org/2000/svg">
<path d="M16.2113 12.3375C14.5425 13.4662 11.3625 14.895 9.62251 15.6375L8.31001 14.325C9.07501 12.5962 10.53 9.44996 11.6588 7.78496C13.9913 4.34996 17.34 3.96746 19.7138 4.28621C20.0325 6.65996 19.65 10.0087 16.215 12.3375H16.2113ZM6.84376 13.2C6.70876 13.5 6.58876 13.77 6.49126 13.995C6.29626 14.4412 6.39751 14.9587 6.74251 15.3037L8.64376 17.205C8.98501 17.5462 9.49501 17.6512 9.93751 17.4637C10.1813 17.3625 10.4738 17.2387 10.8 17.0962V20.7037C10.8 21.0262 10.9725 21.3262 11.2538 21.4875C11.535 21.6487 11.88 21.645 12.1575 21.48L15.4763 19.5112C16.2975 19.0237 16.8 18.1425 16.8 17.19V14.1037C16.95 14.01 17.0888 13.92 17.2238 13.83C21.7538 10.7587 21.9038 6.18371 21.4013 3.45371C21.3225 3.01871 20.9813 2.68121 20.5463 2.59871C17.8163 2.09621 13.2413 2.24621 10.17 6.77621C10.08 6.91121 9.98626 7.04996 9.89626 7.19996H6.81751C5.86501 7.19996 4.98001 7.70246 4.49626 8.52371L2.5275 11.8425C2.3625 12.12 2.35875 12.465 2.52 12.7462C2.68125 13.0275 2.9775 13.2 3.30001 13.2H6.84376ZM17.7 7.79996C17.7 7.40214 17.542 7.02061 17.2607 6.7393C16.9794 6.458 16.5978 6.29996 16.2 6.29996C15.8022 6.29996 15.4206 6.458 15.1393 6.7393C14.858 7.02061 14.7 7.40214 14.7 7.79996C14.7 8.19779 14.858 8.57932 15.1393 8.86062C15.4206 9.14193 15.8022 9.29996 16.2 9.29996C16.5978 9.29996 16.9794 9.14193 17.2607 8.86062C17.542 8.57932 17.7 8.19779 17.7 7.79996Z" fill="black" fill-opacity="0.45"/>
</svg>
