<svg width="24" height="24" viewBox="0 0 24 24" fill="none" xmlns="http://www.w3.org/2000/svg">
<path d="M9.82124 11.9213C10.305 12.1613 10.7475 12.4763 11.1337 12.8663C11.52 13.2563 11.8387 13.6988 12.0787 14.1788C16.0462 13.0538 17.955 11.1976 18.885 9.45381C19.8225 7.69881 19.9087 5.79381 19.71 4.29006C18.2062 4.09131 16.3012 4.17756 14.5462 5.11506C12.8025 6.04506 10.9462 7.95756 9.82124 11.9213ZM16.8 14.1038V17.1863C16.8 18.1388 16.2975 19.0238 15.4762 19.5076L12.1575 21.4763C11.88 21.6413 11.535 21.6451 11.2537 21.4838C10.9725 21.3226 10.8 21.0263 10.8 20.7001V16.3988C10.8 15.5513 10.4625 14.7376 9.86249 14.1376C9.26249 13.5376 8.44874 13.2001 7.60124 13.2001H3.29999C2.97749 13.2001 2.67749 13.0276 2.51624 12.7463C2.35499 12.4651 2.35874 12.1201 2.52374 11.8426L4.49249 8.52381C4.97999 7.70256 5.86124 7.20006 6.81374 7.20006H9.89624C12.9637 2.25756 17.73 2.08131 20.5462 2.59881C20.9812 2.67756 21.3225 3.01881 21.4012 3.45381C21.9187 6.27006 21.7425 11.0363 16.8 14.1038ZM3.46124 21.5963C2.86124 21.6113 2.38874 21.1388 2.40374 20.5388C2.43749 19.1251 2.68874 16.6388 3.97499 15.3563C5.26499 14.0663 7.35374 14.0663 8.64374 15.3563C9.93374 16.6463 9.93374 18.7351 8.64374 20.0251C7.36124 21.3113 4.87499 21.5626 3.46124 21.5963ZM5.34374 19.1776C5.82374 19.1513 6.51374 19.0388 6.89249 18.6638C7.31999 18.2363 7.31999 17.5388 6.89249 17.1113C6.46499 16.6838 5.76749 16.6838 5.33999 17.1113C4.96124 17.4901 4.85249 18.1801 4.82624 18.6601C4.80749 18.9601 5.04749 19.1963 5.34749 19.1813L5.34374 19.1776ZM14.7 7.80006C14.7 7.40223 14.858 7.0207 15.1393 6.7394C15.4206 6.45809 15.8022 6.30006 16.2 6.30006C16.5978 6.30006 16.9794 6.45809 17.2607 6.7394C17.542 7.0207 17.7 7.40223 17.7 7.80006C17.7 8.19788 17.542 8.57941 17.2607 8.86072C16.9794 9.14202 16.5978 9.30006 16.2 9.30006C15.8022 9.30006 15.4206 9.14202 15.1393 8.86072C14.858 8.57941 14.7 8.19788 14.7 7.80006Z" fill="black" fill-opacity="0.45"/>
</svg>
