<svg width="24" height="24" viewBox="0 0 24 24" fill="none" xmlns="http://www.w3.org/2000/svg">
<path d="M16.32 7.00873C15.1613 6.00748 13.65 5.39998 12 5.39998C8.35501 5.39998 5.40001 8.35498 5.40001 12C5.40001 15.645 8.35501 18.6 12 18.6C13.4888 18.6 14.8575 18.1087 15.96 17.28C16.3575 16.98 16.92 17.0625 17.22 17.46C17.52 17.8575 17.4375 18.42 17.04 18.72C15.6375 19.7737 13.89 20.4 12 20.4C7.36126 20.4 3.60001 16.6387 3.60001 12C3.60001 7.36123 7.36126 3.59998 12 3.59998C14.1488 3.59998 16.11 4.40623 17.595 5.73373L18.7388 4.58998C18.9863 4.34248 19.3238 4.20373 19.6763 4.20373C20.4075 4.19998 21 4.79248 21 5.52373V9.89998C21 10.3987 20.5988 10.8 20.1 10.8H15.7238C14.9925 10.8 14.4 10.2075 14.4 9.47622C14.4 9.12372 14.5388 8.78998 14.7863 8.53873L16.3163 7.00873H16.32ZM19.2 6.67123L16.8713 8.99998H19.2V6.67123Z" fill="black" fill-opacity="0.45"/>
</svg>
