<svg width="24" height="24" viewBox="0 0 24 24" fill="none" xmlns="http://www.w3.org/2000/svg">
<path d="M11.5013 2.55007C11.805 2.34757 12.1988 2.34757 12.4987 2.55007L17.6737 6.00007H21.3C22.7925 6.00007 24 7.20757 24 8.70007V18.9001C24 20.3926 22.7925 21.6001 21.3 21.6001H14.4H9.6H2.7C1.2075 21.6001 0 20.3926 0 18.9001V8.70007C0 7.20757 1.2075 6.00007 2.7 6.00007H6.32625L11.5013 2.55007ZM21.3 19.8001C21.7987 19.8001 22.2 19.3988 22.2 18.9001V8.70007C22.2 8.20132 21.7987 7.80007 21.3 7.80007H17.4C17.2238 7.80007 17.0475 7.74757 16.9013 7.65007L12 4.38007L7.09875 7.65007C6.9525 7.74757 6.77625 7.80007 6.6 7.80007H2.7C2.20125 7.80007 1.8 8.20132 1.8 8.70007V18.9001C1.8 19.3988 2.20125 19.8001 2.7 19.8001H9.6V16.8001C9.6 15.4763 10.6763 14.4001 12 14.4001C13.3238 14.4001 14.4 15.4763 14.4 16.8001V19.8001H21.3ZM4.2 9.60007H5.4C5.73 9.60007 6 9.87007 6 10.2001V12.6001C6 12.9301 5.73 13.2001 5.4 13.2001H4.2C3.87 13.2001 3.6 12.9301 3.6 12.6001V10.2001C3.6 9.87007 3.87 9.60007 4.2 9.60007ZM18 10.2001C18 9.87007 18.27 9.60007 18.6 9.60007H19.8C20.13 9.60007 20.4 9.87007 20.4 10.2001V12.6001C20.4 12.9301 20.13 13.2001 19.8 13.2001H18.6C18.27 13.2001 18 12.9301 18 12.6001V10.2001ZM4.2 14.4001H5.4C5.73 14.4001 6 14.6701 6 15.0001V17.4001C6 17.7301 5.73 18.0001 5.4 18.0001H4.2C3.87 18.0001 3.6 17.7301 3.6 17.4001V15.0001C3.6 14.6701 3.87 14.4001 4.2 14.4001ZM18 15.0001C18 14.6701 18.27 14.4001 18.6 14.4001H19.8C20.13 14.4001 20.4 14.6701 20.4 15.0001V17.4001C20.4 17.7301 20.13 18.0001 19.8 18.0001H18.6C18.27 18.0001 18 17.7301 18 17.4001V15.0001ZM9 9.60007C9 8.80442 9.31607 8.04136 9.87868 7.47875C10.4413 6.91614 11.2044 6.60007 12 6.60007C12.7956 6.60007 13.5587 6.91614 14.1213 7.47875C14.6839 8.04136 15 8.80442 15 9.60007C15 10.3957 14.6839 11.1588 14.1213 11.7214C13.5587 12.284 12.7956 12.6001 12 12.6001C11.2044 12.6001 10.4413 12.284 9.87868 11.7214C9.31607 11.1588 9 10.3957 9 9.60007ZM12 7.80007C11.67 7.80007 11.4 8.07007 11.4 8.40007V9.60007C11.4 9.93007 11.67 10.2001 12 10.2001H12.9C13.23 10.2001 13.5 9.93007 13.5 9.60007C13.5 9.27007 13.23 9.00007 12.9 9.00007H12.6V8.40007C12.6 8.07007 12.33 7.80007 12 7.80007Z" fill="black" fill-opacity="0.45"/>
</svg>
