<svg width="24" height="24" viewBox="0 0 24 24" fill="none" xmlns="http://www.w3.org/2000/svg">
<path d="M4.79999 5.4001C4.46999 5.4001 4.19999 5.6701 4.19999 6.0001V8.4001C4.19999 8.7301 4.46999 9.0001 4.79999 9.0001H19.2C19.53 9.0001 19.8 8.7301 19.8 8.4001V6.0001C19.8 5.6701 19.53 5.4001 19.2 5.4001H4.79999ZM2.39999 6.0001C2.39999 4.67635 3.47624 3.6001 4.79999 3.6001H19.2C20.5237 3.6001 21.6 4.67635 21.6 6.0001V8.4001C21.6 9.72385 20.5237 10.8001 19.2 10.8001H4.79999C3.47624 10.8001 2.39999 9.72385 2.39999 8.4001V6.0001ZM4.79999 15.0001C4.46999 15.0001 4.19999 15.2701 4.19999 15.6001V18.0001C4.19999 18.3301 4.46999 18.6001 4.79999 18.6001H19.2C19.53 18.6001 19.8 18.3301 19.8 18.0001V15.6001C19.8 15.2701 19.53 15.0001 19.2 15.0001H4.79999ZM2.39999 15.6001C2.39999 14.2763 3.47624 13.2001 4.79999 13.2001H19.2C20.5237 13.2001 21.6 14.2763 21.6 15.6001V18.0001C21.6 19.3238 20.5237 20.4001 19.2 20.4001H4.79999C3.47624 20.4001 2.39999 19.3238 2.39999 18.0001V15.6001ZM17.1 16.8001C17.1 16.5614 17.1948 16.3325 17.3636 16.1637C17.5324 15.9949 17.7613 15.9001 18 15.9001C18.2387 15.9001 18.4676 15.9949 18.6364 16.1637C18.8052 16.3325 18.9 16.5614 18.9 16.8001C18.9 17.0388 18.8052 17.2677 18.6364 17.4365C18.4676 17.6053 18.2387 17.7001 18 17.7001C17.7613 17.7001 17.5324 17.6053 17.3636 17.4365C17.1948 17.2677 17.1 17.0388 17.1 16.8001ZM18 6.3001C18.2387 6.3001 18.4676 6.39492 18.6364 6.5637C18.8052 6.73248 18.9 6.9614 18.9 7.2001C18.9 7.43879 18.8052 7.66771 18.6364 7.83649C18.4676 8.00528 18.2387 8.1001 18 8.1001C17.7613 8.1001 17.5324 8.00528 17.3636 7.83649C17.1948 7.66771 17.1 7.43879 17.1 7.2001C17.1 6.9614 17.1948 6.73248 17.3636 6.5637C17.5324 6.39492 17.7613 6.3001 18 6.3001ZM14.7 16.8001C14.7 16.5614 14.7948 16.3325 14.9636 16.1637C15.1324 15.9949 15.3613 15.9001 15.6 15.9001C15.8387 15.9001 16.0676 15.9949 16.2364 16.1637C16.4052 16.3325 16.5 16.5614 16.5 16.8001C16.5 17.0388 16.4052 17.2677 16.2364 17.4365C16.0676 17.6053 15.8387 17.7001 15.6 17.7001C15.3613 17.7001 15.1324 17.6053 14.9636 17.4365C14.7948 17.2677 14.7 17.0388 14.7 16.8001ZM15.6 6.3001C15.8387 6.3001 16.0676 6.39492 16.2364 6.5637C16.4052 6.73248 16.5 6.9614 16.5 7.2001C16.5 7.43879 16.4052 7.66771 16.2364 7.83649C16.0676 8.00528 15.8387 8.1001 15.6 8.1001C15.3613 8.1001 15.1324 8.00528 14.9636 7.83649C14.7948 7.66771 14.7 7.43879 14.7 7.2001C14.7 6.9614 14.7948 6.73248 14.9636 6.5637C15.1324 6.39492 15.3613 6.3001 15.6 6.3001Z" fill="black" fill-opacity="0.45"/>
</svg>
