<svg width="24" height="24" viewBox="0 0 24 24" fill="none" xmlns="http://www.w3.org/2000/svg">
<path d="M13.2 11.3999H9.60001C7.11751 11.3999 5.02501 13.0761 4.39501 15.3561C4.27126 14.8911 4.20001 14.3736 4.20001 13.7999C4.20001 11.1486 6.34876 8.99988 9.00001 8.99988H13.2H14.1C14.5988 8.99988 15 8.59863 15 8.09988V7.19988V6.14613L19.5038 10.1999L15 14.2536V13.1999V12.2999C15 11.8011 14.5988 11.3999 14.1 11.3999H13.2ZM13.2 13.1999V14.9999V15.5999C13.2 16.0724 13.4775 16.5036 13.9125 16.6949C14.3475 16.8861 14.85 16.8074 15.2025 16.4924L21.2025 11.0924C21.4538 10.8636 21.6 10.5411 21.6 10.1999C21.6 9.85863 21.4575 9.53613 21.2025 9.30738L15.2025 3.90738C14.85 3.58863 14.3438 3.50988 13.9125 3.70488C13.4813 3.89988 13.2 4.32738 13.2 4.79988V5.39988V7.19988H11.4H9.00001C5.35501 7.19988 2.40001 10.1549 2.40001 13.7999C2.40001 16.7249 3.84751 18.5324 4.97626 19.5036C5.13001 19.6349 5.28001 19.7511 5.41501 19.8524C5.53501 19.9424 5.64751 20.0174 5.74876 20.0849C5.91751 20.1974 6.06001 20.2761 6.15376 20.3286C6.24751 20.3811 6.35251 20.3999 6.45751 20.3999C6.86626 20.3999 7.19626 20.0661 7.19626 19.6611C7.19626 19.4061 7.06126 19.1661 6.88501 18.9824C6.86626 18.9636 6.85126 18.9486 6.83251 18.9299C6.74251 18.8436 6.64126 18.7386 6.54376 18.6074C6.48001 18.5211 6.41626 18.4199 6.35626 18.3111C6.15751 17.9474 6.00001 17.4524 6.00001 16.8036C6.00001 14.8161 7.61251 13.2036 9.60001 13.2036H11.4H13.2V13.1999Z" fill="black" fill-opacity="0.45"/>
</svg>
