<svg width="24" height="24" viewBox="0 0 24 24" fill="none" xmlns="http://www.w3.org/2000/svg">
<path d="M16.0771 11.9782V11.4543V10.3658C16.0771 10.0664 15.8322 9.82147 15.5329 9.82147H14.4443H13.9H12.3182C10.5867 9.82147 9.12389 10.9611 8.63404 12.5293C8.52178 12.2095 8.45714 11.8557 8.45714 11.4543C8.45714 9.34862 10.1614 7.64432 12.2671 7.64432H13.9H14.4443H15.5329C15.8322 7.64432 16.0771 7.3994 16.0771 7.10004V6.01147V5.48759L19.683 8.7329L16.0771 11.9782ZM13.9 11.4543H14.4443V13.0872C14.4443 13.6893 14.9307 14.1758 15.5329 14.1758H15.6587C15.9275 14.1758 16.186 14.0771 16.3867 13.8968L21.1152 9.64117C21.3737 9.40985 21.52 9.07988 21.52 8.7329C21.52 8.38591 21.3737 8.05594 21.1152 7.82462L16.4139 3.5928C16.1962 3.3989 15.9173 3.29004 15.6247 3.29004C14.9716 3.29004 14.4443 3.81732 14.4443 4.47046V6.01147H13.9H12.8114H12.2671C9.25997 6.01147 6.82429 8.44715 6.82429 11.4543C6.82429 13.509 8.0013 14.8255 8.99803 15.5671C9.19873 15.7168 9.38923 15.8426 9.56613 15.9481C9.71581 16.0399 9.85528 16.1148 9.97094 16.1726C10.0866 16.2304 10.1818 16.2747 10.2499 16.3053C10.3247 16.3393 10.4064 16.3529 10.4914 16.3529H10.5765C10.9098 16.3529 11.182 16.0808 11.182 15.7474C11.182 15.482 11.0017 15.2473 10.7874 15.084C10.7738 15.0738 10.7636 15.067 10.7499 15.0568C10.6921 15.0194 10.6343 14.9718 10.5799 14.9173C10.5526 14.8901 10.522 14.8629 10.4948 14.8289C10.4676 14.7949 10.4404 14.7643 10.4132 14.7302C10.3519 14.6452 10.2941 14.5499 10.2431 14.4411C10.1546 14.237 10.0968 13.9887 10.0968 13.6791C10.0968 12.451 11.0935 11.4509 12.325 11.4509H12.8114H13.9V11.4543ZM4.91929 4.37861C3.56538 4.37861 2.47 5.47399 2.47 6.8279V18.2579C2.47 19.6118 3.56538 20.7072 4.91929 20.7072H16.3493C17.7032 20.7072 18.7986 19.6118 18.7986 18.2579V16.0808C18.7986 15.6283 18.4346 15.2643 17.9821 15.2643C17.5297 15.2643 17.1657 15.6283 17.1657 16.0808V18.2579C17.1657 18.7103 16.8017 19.0743 16.3493 19.0743H4.91929C4.46685 19.0743 4.10286 18.7103 4.10286 18.2579V6.8279C4.10286 6.37546 4.46685 6.01147 4.91929 6.01147H7.09643C7.54887 6.01147 7.91286 5.64748 7.91286 5.19504C7.91286 4.7426 7.54887 4.37861 7.09643 4.37861H4.91929Z" fill="black" fill-opacity="0.45"/>
</svg>
