<svg width="24" height="24" viewBox="0 0 24 24" fill="none" xmlns="http://www.w3.org/2000/svg">
<path d="M11.1 4.63502V19.2863C6.12 16.4888 4.815 10.9238 4.8 7.63877C4.8 7.45127 4.91625 7.25627 5.1375 7.15877L11.1 4.63502ZM12.9 19.29V4.63502L18.8625 7.16252C19.0838 7.25627 19.2038 7.45502 19.2 7.64252C19.185 10.9238 17.88 16.4925 12.9 19.29ZM19.5638 5.50502L12.5025 2.50877C12.345 2.43752 12.1763 2.40002 12 2.40002C11.8238 2.40002 11.655 2.43752 11.4975 2.50877L4.43625 5.50502C3.61125 5.85377 2.99625 6.66752 3 7.65002C3.01875 11.37 4.54875 18.1763 11.01 21.27C11.6363 21.57 12.3638 21.57 12.99 21.27C19.455 18.1763 20.9813 11.37 21 7.65002C21.0038 6.66752 20.3888 5.85377 19.5638 5.50502Z" fill="black" fill-opacity="0.45"/>
</svg>
