<svg width="24" height="24" viewBox="0 0 24 24" fill="none" xmlns="http://www.w3.org/2000/svg">
<path d="M12 4.2524L5.13746 7.1624C4.91621 7.25615 4.79621 7.4549 4.79996 7.6424C4.81871 11.0699 6.23996 16.9912 11.79 19.6462C11.925 19.7099 12.0825 19.7099 12.2137 19.6462C17.7637 16.9874 19.185 11.0699 19.2 7.63865C19.2 7.45115 19.0837 7.25615 18.8625 7.15865L12 4.2524ZM12.5025 2.50865L19.5637 5.5049C20.3887 5.85365 21.0037 6.6674 21 7.6499C20.9812 11.3699 19.4512 18.1762 12.99 21.2699C12.3637 21.5699 11.6362 21.5699 11.01 21.2699C4.54871 18.1762 3.01871 11.3699 2.99996 7.6499C2.99621 6.6674 3.61121 5.85365 4.43621 5.5049L11.5012 2.50865C11.655 2.4374 11.8275 2.3999 12 2.3999C12.1725 2.3999 12.345 2.4374 12.5025 2.50865Z" fill="black" fill-opacity="0.45"/>
</svg>
