<svg width="24" height="24" viewBox="0 0 24 24" fill="none" xmlns="http://www.w3.org/2000/svg">
<path d="M22.6687 8.0774L23.2425 7.3874L22.665 8.0774H22.6687ZM19.0312 12.3224L18.4575 13.0124L19.035 12.3224H19.0312ZM17.1 10.7137L17.6775 10.0237C17.4075 9.79865 17.0362 9.75365 16.7212 9.8999C16.4062 10.0462 16.2037 10.3649 16.2037 10.7137H17.1037H17.1ZM6.9 10.7137H7.8C7.8 10.3649 7.5975 10.0462 7.2825 9.8999C6.9675 9.75365 6.5925 9.79865 6.32625 10.0237L6.9 10.7137ZM3.29625 12.1912L2.62125 12.7837L3.3 12.1912H3.29625ZM9.645 3.46865C9.53625 2.9099 9.04875 2.3999 8.37 2.3999V4.1999C8.0775 4.1999 7.9125 3.98615 7.87875 3.81365L9.645 3.4649V3.46865ZM12 5.3999C10.8337 5.3999 9.8625 4.5674 9.645 3.46865L7.87875 3.8174C8.2575 5.7449 9.96 7.1999 12 7.1999V5.3999ZM14.355 3.46865C14.1375 4.5674 13.1662 5.3999 12 5.3999V7.1999C14.04 7.1999 15.7425 5.7449 16.1212 3.81365L14.355 3.4649V3.46865ZM15.63 2.3999C14.9475 2.3999 14.4637 2.9099 14.355 3.46865L16.1212 3.8174C16.0875 3.98615 15.9225 4.1999 15.63 4.1999V2.3999ZM18.51 3.4424C17.7037 2.7674 16.6837 2.3999 15.63 2.3999V4.1999C16.26 4.1999 16.875 4.42115 17.3587 4.82615L18.51 3.4424ZM23.2425 7.3874L18.5138 3.4424L17.3587 4.82615L22.0912 8.77115L23.2425 7.3874ZM23.9925 8.8349C23.9475 8.2724 23.6775 7.7474 23.2425 7.3874L22.0912 8.77115C22.155 8.82365 22.1925 8.89865 22.2 8.9774L23.9963 8.8349H23.9925ZM23.4787 10.3837C23.85 9.95615 24.0375 9.40115 23.9925 8.8349L22.2 8.9774C22.2075 9.05615 22.1812 9.13865 22.125 9.19865L23.4787 10.3837ZM21.3787 12.7837L23.4787 10.3837L22.125 9.19865L20.025 11.5987L21.3787 12.7837ZM18.4537 13.0124C19.3312 13.7437 20.6287 13.6387 21.3787 12.7837L20.025 11.5987C19.9162 11.7224 19.7325 11.7374 19.6087 11.6324L18.4575 13.0124H18.4537ZM16.5225 11.4037L18.4575 13.0124L19.6087 11.6287L17.6775 10.0199L16.5262 11.4037H16.5225ZM16.2 10.7137V19.1999H18V10.7137H16.2ZM16.2 19.1999C16.2 19.5299 15.93 19.7999 15.6 19.7999V21.5999C16.9237 21.5999 18 20.5237 18 19.1999H16.2ZM15.6 19.7999H8.4V21.5999H15.6V19.7999ZM8.4 19.7999C8.07 19.7999 7.8 19.5299 7.8 19.1999H6C6 20.5237 7.07625 21.5999 8.4 21.5999V19.7999ZM7.8 19.1999V10.7137H6V19.1999H7.8ZM5.54625 13.0124L7.4775 11.4037L6.32625 10.0199L4.395 11.6287L5.54625 13.0124ZM2.62125 12.7837C3.37125 13.6424 4.66875 13.7437 5.54625 13.0124L4.395 11.6287C4.27125 11.7337 4.08375 11.7187 3.97875 11.5949L2.62125 12.7837ZM0.521249 10.3837L2.62125 12.7837L3.975 11.5987L1.875 9.19865L0.521249 10.3837ZM0.00749944 8.8349C-0.0375006 9.3974 0.146249 9.95615 0.521249 10.3837L1.875 9.19865C1.8225 9.13865 1.79625 9.0599 1.8 8.9774L0.00749944 8.8349ZM0.757499 7.3874C0.322499 7.75115 0.0524994 8.2724 0.00749944 8.8349L1.8 8.9774C1.8075 8.89865 1.845 8.82365 1.90875 8.77115L0.753749 7.3874H0.757499ZM5.48625 3.4424L0.753749 7.3874L1.905 8.77115L6.64125 4.82615L5.48625 3.4424ZM8.37 2.3999C7.31625 2.3999 6.29625 2.7674 5.49 3.4424L6.64125 4.82615C7.125 4.42115 7.73625 4.1999 8.37 4.1999V2.3999Z" fill="black" fill-opacity="0.45"/>
</svg>
