<svg width="24" height="24" viewBox="0 0 24 24" fill="none" xmlns="http://www.w3.org/2000/svg">
<path d="M0 9.3674C0 9.1274 0.06 8.89115 0.17625 8.68115L3.09 3.3374C3.405 2.7599 4.00875 2.3999 4.66875 2.3999H19.3313C19.9913 2.3999 20.595 2.7599 20.91 3.3374L23.8237 8.6774C23.94 8.8874 24 9.12365 24 9.36365C24 10.1549 23.3588 10.7962 22.5675 10.7962H21.6V20.6999C21.6 21.1987 21.1988 21.5999 20.7 21.5999C20.2013 21.5999 19.8 21.1987 19.8 20.6999V10.7999H14.4V20.0999C14.4 20.9287 13.7288 21.5999 12.9 21.5999H3.9C3.07125 21.5999 2.4 20.9287 2.4 20.0999V10.7999H1.4325C0.64125 10.7999 0 10.1587 0 9.3674ZM4.2 10.7999V14.3999H12.6V10.7999H4.2ZM19.3313 4.1999H4.66875L2.05125 8.9999H21.9487L19.3313 4.1999ZM4.2 19.7999H12.6V16.1999H4.2V19.7999Z" fill="black" fill-opacity="0.45"/>
</svg>
