<svg width="24" height="24" viewBox="0 0 24 24" fill="none" xmlns="http://www.w3.org/2000/svg">
<path d="M12 9.6001C12.4987 9.6001 12.9 10.0013 12.9 10.5001V20.7001C12.9 21.1988 12.4987 21.6001 12 21.6001C11.5012 21.6001 11.1 21.1988 11.1 20.7001V10.5001C11.1 10.0013 11.5012 9.6001 12 9.6001ZM7.2 13.2001C7.69875 13.2001 8.1 13.6013 8.1 14.1001V20.7001C8.1 21.1988 7.69875 21.6001 7.2 21.6001C6.70125 21.6001 6.3 21.1988 6.3 20.7001V14.1001C6.3 13.6013 6.70125 13.2001 7.2 13.2001ZM2.4 16.8001C2.89875 16.8001 3.3 17.2013 3.3 17.7001V20.7001C3.3 21.1988 2.89875 21.6001 2.4 21.6001C1.90125 21.6001 1.5 21.1988 1.5 20.7001V17.7001C1.5 17.2013 1.90125 16.8001 2.4 16.8001Z" fill="black" fill-opacity="0.45"/>
</svg>
