<svg width="24" height="24" viewBox="0 0 24 24" fill="none" xmlns="http://www.w3.org/2000/svg">
<path d="M21.6 19.1999V4.7999C21.6 4.4699 21.33 4.1999 21 4.1999C20.67 4.1999 20.4 4.4699 20.4 4.7999V19.1999C20.4 19.5299 20.67 19.7999 21 19.7999C21.33 19.7999 21.6 19.5299 21.6 19.1999ZM18.6 4.7999C18.6 3.47615 19.6763 2.3999 21 2.3999C22.3238 2.3999 23.4 3.47615 23.4 4.7999V19.1999C23.4 20.5237 22.3238 21.5999 21 21.5999C19.6763 21.5999 18.6 20.5237 18.6 19.1999V4.7999ZM15.6 19.1999V9.5999C15.6 9.2699 15.33 8.9999 15 8.9999C14.67 8.9999 14.4 9.2699 14.4 9.5999V19.1999C14.4 19.5299 14.67 19.7999 15 19.7999C15.33 19.7999 15.6 19.5299 15.6 19.1999ZM12.6 9.5999C12.6 8.27615 13.6763 7.1999 15 7.1999C16.3238 7.1999 17.4 8.27615 17.4 9.5999V19.1999C17.4 20.5237 16.3238 21.5999 15 21.5999C13.6763 21.5999 12.6 20.5237 12.6 19.1999V9.5999ZM9.00001 19.7999C9.33001 19.7999 9.60001 19.5299 9.60001 19.1999V14.3999C9.60001 14.0699 9.33001 13.7999 9.00001 13.7999C8.67001 13.7999 8.40001 14.0699 8.40001 14.3999V19.1999C8.40001 19.5299 8.67001 19.7999 9.00001 19.7999ZM9.00001 11.9999C10.3238 11.9999 11.4 13.0762 11.4 14.3999V19.1999C11.4 20.5237 10.3238 21.5999 9.00001 21.5999C7.67626 21.5999 6.60001 20.5237 6.60001 19.1999V14.3999C6.60001 13.0762 7.67626 11.9999 9.00001 11.9999ZM3.00001 19.7999C3.15914 19.7999 3.31175 19.7367 3.42427 19.6242C3.53679 19.5116 3.60001 19.359 3.60001 19.1999C3.60001 19.0408 3.53679 18.8882 3.42427 18.7756C3.31175 18.6631 3.15914 18.5999 3.00001 18.5999C2.84088 18.5999 2.68826 18.6631 2.57574 18.7756C2.46322 18.8882 2.40001 19.0408 2.40001 19.1999C2.40001 19.359 2.46322 19.5116 2.57574 19.6242C2.68826 19.7367 2.84088 19.7999 3.00001 19.7999ZM5.40001 19.1999C5.40001 19.8364 5.14715 20.4469 4.69706 20.897C4.24697 21.347 3.63653 21.5999 3.00001 21.5999C2.36349 21.5999 1.75304 21.347 1.30295 20.897C0.852863 20.4469 0.600006 19.8364 0.600006 19.1999C0.600006 18.5634 0.852863 17.9529 1.30295 17.5028C1.75304 17.0528 2.36349 16.7999 3.00001 16.7999C3.63653 16.7999 4.24697 17.0528 4.69706 17.5028C5.14715 17.9529 5.40001 18.5634 5.40001 19.1999Z" fill="black" fill-opacity="0.45"/>
</svg>
