<svg width="24" height="24" viewBox="0 0 24 24" fill="none" xmlns="http://www.w3.org/2000/svg">
<path d="M21.6 2.3999C22.0988 2.3999 22.5 2.80115 22.5 3.2999V20.6999C22.5 21.1987 22.0988 21.5999 21.6 21.5999C21.1013 21.5999 20.7 21.1987 20.7 20.6999V3.2999C20.7 2.80115 21.1013 2.3999 21.6 2.3999ZM16.8 5.9999C17.2988 5.9999 17.7 6.40115 17.7 6.8999V20.6999C17.7 21.1987 17.2988 21.5999 16.8 21.5999C16.3013 21.5999 15.9 21.1987 15.9 20.6999V6.8999C15.9 6.40115 16.3013 5.9999 16.8 5.9999ZM12 9.5999C12.4988 9.5999 12.9 10.0012 12.9 10.4999V20.6999C12.9 21.1987 12.4988 21.5999 12 21.5999C11.5013 21.5999 11.1 21.1987 11.1 20.6999V10.4999C11.1 10.0012 11.5013 9.5999 12 9.5999ZM7.2 13.1999C7.69875 13.1999 8.1 13.6012 8.1 14.0999V20.6999C8.1 21.1987 7.69875 21.5999 7.2 21.5999C6.70125 21.5999 6.3 21.1987 6.3 20.6999V14.0999C6.3 13.6012 6.70125 13.1999 7.2 13.1999ZM2.4 16.7999C2.89875 16.7999 3.3 17.2012 3.3 17.6999V20.6999C3.3 21.1987 2.89875 21.5999 2.4 21.5999C1.90125 21.5999 1.5 21.1987 1.5 20.6999V17.6999C1.5 17.2012 1.90125 16.7999 2.4 16.7999Z" fill="black" fill-opacity="0.45"/>
</svg>
