<svg width="24" height="24" viewBox="0 0 24 24" fill="none" xmlns="http://www.w3.org/2000/svg">
<g clip-path="url(#clip0_9_2054)">
<path d="M1.45501 2.59136C1.06501 2.28386 0.498762 2.35511 0.191262 2.74511C-0.116238 3.13511 -0.0449876 3.70136 0.345012 4.00886L22.545 21.4089C22.935 21.7164 23.5013 21.6451 23.8088 21.2551C24.1163 20.8651 24.045 20.2989 23.655 19.9914L22.5 19.0876V3.30011C22.5 2.80136 22.0988 2.40011 21.6 2.40011C21.1013 2.40011 20.7 2.80136 20.7 3.30011V17.6739L17.7 15.3226V6.90011C17.7 6.40136 17.2988 6.00011 16.8 6.00011C16.3013 6.00011 15.9 6.40136 15.9 6.90011V13.9126L12.9 11.5614V10.5001C12.9 10.0014 12.4988 9.60011 12 9.60011C11.61 9.60011 11.28 9.84761 11.1525 10.1926L1.45501 2.59136ZM21.6 21.6001H21.5925H21.6113H21.6038H21.6ZM17.7 20.7001V19.9464L15.9 18.5289V20.7001C15.9 21.1989 16.3013 21.6001 16.8 21.6001C17.2988 21.6001 17.7 21.1989 17.7 20.7001ZM12.9 16.1626L11.1 14.7451V20.7001C11.1 21.1989 11.5013 21.6001 12 21.6001C12.4988 21.6001 12.9 21.1989 12.9 20.7001V16.1626ZM7.20001 13.2001C6.70126 13.2001 6.30001 13.6014 6.30001 14.1001V20.7001C6.30001 21.1989 6.70126 21.6001 7.20001 21.6001C7.69876 21.6001 8.10001 21.1989 8.10001 20.7001V14.1001C8.10001 13.6014 7.69876 13.2001 7.20001 13.2001ZM2.40001 16.8001C1.90126 16.8001 1.50001 17.2014 1.50001 17.7001V20.7001C1.50001 21.1989 1.90126 21.6001 2.40001 21.6001C2.89876 21.6001 3.30001 21.1989 3.30001 20.7001V17.7001C3.30001 17.2014 2.89876 16.8001 2.40001 16.8001Z" fill="black" fill-opacity="0.45"/>
</g>
<defs>
<clipPath id="clip0_9_2054">
<rect width="24" height="24" fill="white"/>
</clipPath>
</defs>
</svg>
