<svg width="24" height="24" viewBox="0 0 24 24" fill="none" xmlns="http://www.w3.org/2000/svg">
<path d="M16.8 6C17.2988 6 17.7 6.40125 17.7 6.9V20.7C17.7 21.1988 17.2988 21.6 16.8 21.6C16.3013 21.6 15.9 21.1988 15.9 20.7V6.9C15.9 6.40125 16.3013 6 16.8 6ZM12 9.6C12.4988 9.6 12.9 10.0013 12.9 10.5V20.7C12.9 21.1988 12.4988 21.6 12 21.6C11.5013 21.6 11.1 21.1988 11.1 20.7V10.5C11.1 10.0013 11.5013 9.6 12 9.6ZM7.2 13.2C7.69875 13.2 8.1 13.6013 8.1 14.1V20.7C8.1 21.1988 7.69875 21.6 7.2 21.6C6.70125 21.6 6.3 21.1988 6.3 20.7V14.1C6.3 13.6013 6.70125 13.2 7.2 13.2ZM2.4 16.8C2.89875 16.8 3.3 17.2013 3.3 17.7V20.7C3.3 21.1988 2.89875 21.6 2.4 21.6C1.90125 21.6 1.5 21.1988 1.5 20.7V17.7C1.5 17.2013 1.90125 16.8 2.4 16.8Z" fill="black" fill-opacity="0.45"/>
</svg>
