<svg width="24" height="24" viewBox="0 0 24 24" fill="none" xmlns="http://www.w3.org/2000/svg">
<path d="M2.4 18C2.4 18.4988 2.80125 18.9 3.3 18.9H5.53875C5.92125 20.1188 7.0575 21 8.4 21C9.7425 21 10.8788 20.1188 11.2613 18.9H20.7C21.1988 18.9 21.6 18.4988 21.6 18C21.6 17.5013 21.1988 17.1 20.7 17.1H11.2613C10.8788 15.8813 9.7425 15 8.4 15C7.0575 15 5.92125 15.8813 5.53875 17.1H3.3C2.80125 17.1 2.4 17.5013 2.4 18ZM7.2 18C7.2 17.6817 7.32643 17.3765 7.55147 17.1515C7.77652 16.9264 8.08174 16.8 8.4 16.8C8.71826 16.8 9.02349 16.9264 9.24853 17.1515C9.47357 17.3765 9.6 17.6817 9.6 18C9.6 18.3183 9.47357 18.6235 9.24853 18.8485C9.02349 19.0736 8.71826 19.2 8.4 19.2C8.08174 19.2 7.77652 19.0736 7.55147 18.8485C7.32643 18.6235 7.2 18.3183 7.2 18ZM14.4 12C14.4 11.6817 14.5264 11.3765 14.7515 11.1515C14.9765 10.9264 15.2817 10.8 15.6 10.8C15.9183 10.8 16.2235 10.9264 16.4485 11.1515C16.6736 11.3765 16.8 11.6817 16.8 12C16.8 12.3183 16.6736 12.6235 16.4485 12.8485C16.2235 13.0736 15.9183 13.2 15.6 13.2C15.2817 13.2 14.9765 13.0736 14.7515 12.8485C14.5264 12.6235 14.4 12.3183 14.4 12ZM15.6 9C14.2575 9 13.1213 9.88125 12.7388 11.1H3.3C2.80125 11.1 2.4 11.5013 2.4 12C2.4 12.4988 2.80125 12.9 3.3 12.9H12.7388C13.1213 14.1188 14.2575 15 15.6 15C16.9425 15 18.0788 14.1188 18.4613 12.9H20.7C21.1988 12.9 21.6 12.4988 21.6 12C21.6 11.5013 21.1988 11.1 20.7 11.1H18.4613C18.0788 9.88125 16.9425 9 15.6 9ZM9.6 7.2C9.28174 7.2 8.97652 7.07357 8.75147 6.84853C8.52643 6.62348 8.4 6.31826 8.4 6C8.4 5.68174 8.52643 5.37652 8.75147 5.15147C8.97652 4.92643 9.28174 4.8 9.6 4.8C9.91826 4.8 10.2235 4.92643 10.4485 5.15147C10.6736 5.37652 10.8 5.68174 10.8 6C10.8 6.31826 10.6736 6.62348 10.4485 6.84853C10.2235 7.07357 9.91826 7.2 9.6 7.2ZM12.4613 5.1C12.0788 3.88125 10.9425 3 9.6 3C8.2575 3 7.12125 3.88125 6.73875 5.1H3.3C2.80125 5.1 2.4 5.50125 2.4 6C2.4 6.49875 2.80125 6.9 3.3 6.9H6.73875C7.12125 8.11875 8.2575 9 9.6 9C10.9425 9 12.0788 8.11875 12.4613 6.9H20.7C21.1988 6.9 21.6 6.49875 21.6 6C21.6 5.50125 21.1988 5.1 20.7 5.1H12.4613Z" fill="black" fill-opacity="0.45"/>
</svg>
