<svg width="24" height="24" viewBox="0 0 24 24" fill="none" xmlns="http://www.w3.org/2000/svg">
<path d="M16.5 2.3999C16.9988 2.3999 17.4 2.80115 17.4 3.2999V4.0124C17.4 5.4449 17.97 6.8174 18.9825 7.8299L19.77 8.6174C20.5575 9.4049 21 10.4737 21 11.5874V12.2999C21 12.7987 20.5988 13.1999 20.1 13.1999C19.6013 13.1999 19.2 12.7987 19.2 12.2999V11.5874C19.2 10.9499 18.9487 10.3387 18.4988 9.88865L17.7113 9.10115C16.3575 7.75115 15.6 5.92115 15.6 4.0124V3.2999C15.6 2.80115 16.0013 2.3999 16.5 2.3999ZM23.1 13.1999C22.6013 13.1999 22.2 12.7987 22.2 12.2999V11.5874C22.2 10.1549 21.63 8.7824 20.6175 7.7699L19.83 6.9824C19.0425 6.1949 18.6 5.12615 18.6 4.0124V3.2999C18.6 2.80115 19.0013 2.3999 19.5 2.3999C19.9988 2.3999 20.4 2.80115 20.4 3.2999V4.0124C20.4 4.6499 20.6513 5.26115 21.1013 5.71115L21.8888 6.49865C23.2388 7.84865 23.9963 9.67865 23.9963 11.5912V12.3037C23.9963 12.8024 23.595 13.2037 23.0963 13.2037L23.1 13.1999ZM21 16.4999V20.6999C21 21.1987 20.5988 21.5999 20.1 21.5999C19.6013 21.5999 19.2 21.1987 19.2 20.6999V16.4999C19.2 16.0012 19.6013 15.5999 20.1 15.5999C20.5988 15.5999 21 16.0012 21 16.4999ZM24 16.4999V20.6999C24 21.1987 23.5988 21.5999 23.1 21.5999C22.6013 21.5999 22.2 21.1987 22.2 20.6999V16.4999C22.2 16.0012 22.6013 15.5999 23.1 15.5999C23.5988 15.5999 24 16.0012 24 16.4999ZM8.4 19.7999H16.2V17.3999H8.4V19.7999ZM0 17.9999C0 16.6762 1.07625 15.5999 2.4 15.5999H16.8C17.4638 15.5999 18 16.1362 18 16.7999V20.3999C18 21.0637 17.4638 21.5999 16.8 21.5999H2.4C1.07625 21.5999 0 20.5237 0 19.1999V17.9999Z" fill="black" fill-opacity="0.45"/>
</svg>
