<svg width="24" height="24" viewBox="0 0 24 24" fill="none" xmlns="http://www.w3.org/2000/svg">
<path d="M12 2.3999C12.4987 2.3999 12.9 2.80115 12.9 3.2999V5.02865L13.7625 4.16615C14.115 3.81365 14.685 3.81365 15.0337 4.16615C15.3825 4.51865 15.3862 5.08865 15.0337 5.4374L12.8962 7.5749V10.4437L15.3787 9.01115L16.1625 6.09365C16.29 5.61365 16.785 5.32865 17.265 5.45615C17.745 5.58365 18.03 6.07865 17.9025 6.55865L17.5875 7.7324L18.9787 6.9299C19.41 6.6824 19.9612 6.82865 20.2087 7.2599C20.4562 7.69115 20.31 8.2424 19.8787 8.4899L18.4875 9.2924L19.6687 9.6074C20.1487 9.7349 20.4337 10.2299 20.3062 10.7099C20.1787 11.1899 19.6837 11.4749 19.2037 11.3474L16.2862 10.5637L13.8 11.9999L16.2825 13.4324L19.2 12.6487C19.68 12.5212 20.175 12.8062 20.3025 13.2862C20.43 13.7662 20.145 14.2612 19.665 14.3887L18.4875 14.7074L19.8787 15.5099C20.31 15.7574 20.4562 16.3087 20.2087 16.7399C19.9612 17.1712 19.41 17.3174 18.9787 17.0699L17.5875 16.2674L17.9025 17.4487C18.03 17.9287 17.745 18.4237 17.265 18.5512C16.785 18.6787 16.29 18.3937 16.1625 17.9137L15.3787 14.9962L12.9 13.5599V16.4287L15.0375 18.5662C15.39 18.9187 15.39 19.4887 15.0375 19.8374C14.685 20.1862 14.115 20.1899 13.7662 19.8374L12.9037 18.9749V20.6999C12.9037 21.1987 12.5025 21.5999 12.0037 21.5999C11.505 21.5999 11.1037 21.1987 11.1037 20.6999V18.9712L10.2412 19.8337C9.88874 20.1862 9.31874 20.1862 8.96999 19.8337C8.62124 19.4812 8.61749 18.9112 8.96999 18.5624L11.1075 16.4249V13.5599L8.62499 14.9924L7.84124 17.9099C7.71374 18.3899 7.21874 18.6749 6.73874 18.5474C6.25874 18.4199 5.97374 17.9249 6.10124 17.4449L6.41249 16.2674L5.02124 17.0699C4.58999 17.3174 4.03874 17.1712 3.79124 16.7399C3.54374 16.3087 3.68999 15.7574 4.12124 15.5099L5.51249 14.7074L4.33124 14.3924C3.85124 14.2649 3.56624 13.7699 3.69374 13.2899C3.82124 12.8099 4.31624 12.5249 4.79624 12.6524L7.71374 13.4362L10.2 11.9999L7.71749 10.5674L4.79624 11.3474C4.31624 11.4749 3.82124 11.1899 3.69374 10.7099C3.56624 10.2299 3.85124 9.7349 4.33124 9.6074L5.51249 9.2924L4.12124 8.4899C3.68999 8.2424 3.54374 7.69115 3.79124 7.2599C4.03874 6.82865 4.58999 6.6824 5.02124 6.9299L6.41249 7.7324L6.09749 6.55115C5.96999 6.07115 6.25499 5.57615 6.73499 5.44865C7.21499 5.32115 7.70999 5.60615 7.83749 6.08615L8.62124 9.00365L11.1 10.4399V7.57115L8.96249 5.4374C8.60999 5.0849 8.60999 4.5149 8.96249 4.16615C9.31499 3.8174 9.88499 3.81365 10.2337 4.16615L11.0962 5.02865V3.2999C11.0962 2.80115 11.4975 2.3999 11.9962 2.3999H12Z" fill="black" fill-opacity="0.45"/>
</svg>
