<svg width="24" height="24" viewBox="0 0 24 24" fill="none" xmlns="http://www.w3.org/2000/svg">
<path d="M8.64749 8.99989H15.3525L12 5.64739L8.64749 8.99989ZM12.8475 3.95239L17.6475 8.75239C17.9925 9.09739 18.0937 9.61114 17.9062 10.0611C17.7187 10.5111 17.2837 10.8036 16.7962 10.8036H7.19999C6.71624 10.8036 6.27749 10.5111 6.08999 10.0611C5.90249 9.61114 6.00749 9.09739 6.34874 8.75239L11.1487 3.95239C11.6175 3.48364 12.3787 3.48364 12.8475 3.95239ZM8.64749 14.9999L12 18.3524L15.3525 14.9999H8.64749ZM12.8475 20.0474C12.3787 20.5161 11.6175 20.5161 11.1487 20.0474L6.34874 15.2474C6.00374 14.9024 5.90249 14.3886 6.08999 13.9386C6.27749 13.4886 6.71249 13.1961 7.19999 13.1961H16.8C17.2837 13.1961 17.7225 13.4886 17.91 13.9386C18.0975 14.3886 17.9925 14.9024 17.6512 15.2474L12.8512 20.0474H12.8475Z" fill="black" fill-opacity="0.45"/>
</svg>
