<svg width="24" height="24" viewBox="0 0 24 24" fill="none" xmlns="http://www.w3.org/2000/svg">
<path d="M14.6812 5.59502C14.5125 5.65877 14.4 5.82002 14.4 6.00002C14.4 6.18002 14.5125 6.34127 14.6812 6.40502L16.8 7.20002L17.595 9.31877C17.6587 9.48752 17.82 9.60002 18 9.60002C18.18 9.60002 18.3412 9.48752 18.405 9.31877L19.2 7.20002L21.3187 6.40502C21.4875 6.34127 21.6 6.18002 21.6 6.00002C21.6 5.82002 21.4875 5.65877 21.3187 5.59502L19.2 4.80002L18.405 2.68127C18.3412 2.51252 18.18 2.40002 18 2.40002C17.82 2.40002 17.6587 2.51252 17.595 2.68127L16.8 4.80002L14.6812 5.59502ZM2.74874 11.4C2.53499 11.4975 2.39999 11.7113 2.39999 11.9475C2.39999 12.1838 2.53499 12.3938 2.74874 12.4913L3.38624 12.7875L3.68999 12.9263L3.71249 12.9375L7.02374 14.4675L8.55374 17.775L8.56499 17.7975L8.70374 18.1013L8.99999 18.7425C9.09749 18.9563 9.31124 19.0913 9.54374 19.0913C9.77624 19.0913 9.98999 18.9563 10.0875 18.7425L10.3837 18.1013L10.5225 17.7975L10.5337 17.775L12.0637 14.4638L15.375 12.9375L15.3975 12.9263L15.7012 12.7875L16.3425 12.4913C16.5562 12.3938 16.6912 12.18 16.6912 11.9475C16.6912 11.715 16.5562 11.5013 16.3425 11.4038L15.7012 11.1075L15.3975 10.9688L15.375 10.9575L12.0637 9.42752L10.5375 6.11627L10.5262 6.09377L10.3875 5.78627L10.0912 5.14502C9.99374 4.93127 9.77999 4.79627 9.54749 4.79627C9.31499 4.79627 9.10124 4.93127 9.00374 5.14502L8.70749 5.78627L8.56874 6.09002L8.55749 6.11252L7.02749 9.42377L3.71624 10.9538L3.69374 10.965L3.38999 11.1038L2.74874 11.4ZM5.86124 11.9438L7.78124 11.0588C8.17124 10.8788 8.48249 10.5675 8.66249 10.1775L9.54749 8.25752L10.4325 10.1775C10.6125 10.5675 10.9237 10.8788 11.3137 11.0588L13.2337 11.9438L11.3137 12.8288C10.9237 13.0088 10.6125 13.32 10.4325 13.71L9.54749 15.63L8.66249 13.71C8.48249 13.32 8.17124 13.0088 7.78124 12.8288L5.86124 11.9475V11.9438ZM16.8 16.8L14.6812 17.595C14.5125 17.6588 14.4 17.82 14.4 18C14.4 18.18 14.5125 18.3413 14.6812 18.405L16.8 19.2L17.595 21.3188C17.6587 21.4875 17.82 21.6 18 21.6C18.18 21.6 18.3412 21.4875 18.405 21.3188L19.2 19.2L21.3187 18.405C21.4875 18.3413 21.6 18.18 21.6 18C21.6 17.82 21.4875 17.6588 21.3187 17.595L19.2 16.8L18.405 14.6813C18.3412 14.5125 18.18 14.4 18 14.4C17.82 14.4 17.6587 14.5125 17.595 14.6813L16.8 16.8Z" fill="black" fill-opacity="0.45"/>
</svg>
