<svg width="24" height="24" viewBox="0 0 24 24" fill="none" xmlns="http://www.w3.org/2000/svg">
<path d="M18 5.4001C18.33 5.4001 18.6 5.6701 18.6 6.0001V18.0001C18.6 18.3301 18.33 18.6001 18 18.6001H5.99998C5.66998 18.6001 5.39998 18.3301 5.39998 18.0001V6.0001C5.39998 5.6701 5.66998 5.4001 5.99998 5.4001H18ZM5.99998 3.6001C4.67623 3.6001 3.59998 4.67635 3.59998 6.0001V18.0001C3.59998 19.3238 4.67623 20.4001 5.99998 20.4001H18C19.3237 20.4001 20.4 19.3238 20.4 18.0001V6.0001C20.4 4.67635 19.3237 3.6001 18 3.6001H5.99998Z" fill="black" fill-opacity="0.45"/>
</svg>
