<svg width="24" height="24" viewBox="0 0 24 24" fill="none" xmlns="http://www.w3.org/2000/svg">
<path d="M6 5.4001C5.67 5.4001 5.4 5.6701 5.4 6.0001V18.0001C5.4 18.3301 5.67 18.6001 6 18.6001H18C18.33 18.6001 18.6 18.3301 18.6 18.0001V6.0001C18.6 5.6701 18.33 5.4001 18 5.4001H6ZM3.6 6.0001C3.6 4.67635 4.67625 3.6001 6 3.6001H18C19.3237 3.6001 20.4 4.67635 20.4 6.0001V18.0001C20.4 19.3238 19.3237 20.4001 18 20.4001H6C4.67625 20.4001 3.6 19.3238 3.6 18.0001V6.0001ZM11.1 15.3001V12.9001H8.7C8.20125 12.9001 7.8 12.4988 7.8 12.0001C7.8 11.5013 8.20125 11.1001 8.7 11.1001H11.1V8.7001C11.1 8.20135 11.5012 7.8001 12 7.8001C12.4987 7.8001 12.9 8.20135 12.9 8.7001V11.1001H15.3C15.7987 11.1001 16.2 11.5013 16.2 12.0001C16.2 12.4988 15.7987 12.9001 15.3 12.9001H12.9V15.3001C12.9 15.7988 12.4987 16.2001 12 16.2001C11.5012 16.2001 11.1 15.7988 11.1 15.3001Z" fill="black" fill-opacity="0.45"/>
</svg>
