<svg width="24" height="24" viewBox="0 0 24 24" fill="none" xmlns="http://www.w3.org/2000/svg">
<path d="M6 5.4001C5.67 5.4001 5.4 5.6701 5.4 6.0001V18.0001C5.4 18.3301 5.67 18.6001 6 18.6001H18C18.33 18.6001 18.6 18.3301 18.6 18.0001V6.0001C18.6 5.6701 18.33 5.4001 18 5.4001H6ZM3.6 6.0001C3.6 4.67635 4.67625 3.6001 6 3.6001H18C19.3237 3.6001 20.4 4.67635 20.4 6.0001V18.0001C20.4 19.3238 19.3237 20.4001 18 20.4001H6C4.67625 20.4001 3.6 19.3238 3.6 18.0001V6.0001ZM9.3 11.1001H14.7C15.1987 11.1001 15.6 11.5013 15.6 12.0001C15.6 12.4988 15.1987 12.9001 14.7 12.9001H9.3C8.80125 12.9001 8.4 12.4988 8.4 12.0001C8.4 11.5013 8.80125 11.1001 9.3 11.1001Z" fill="black" fill-opacity="0.45"/>
</svg>
