<svg width="24" height="24" viewBox="0 0 24 24" fill="none" xmlns="http://www.w3.org/2000/svg">
<path d="M6.00001 5.4001C5.67001 5.4001 5.40001 5.6701 5.40001 6.0001V18.0001C5.40001 18.3301 5.67001 18.6001 6.00001 18.6001H18C18.33 18.6001 18.6 18.3301 18.6 18.0001V6.0001C18.6 5.6701 18.33 5.4001 18 5.4001H6.00001ZM3.60001 6.0001C3.60001 4.67635 4.67626 3.6001 6.00001 3.6001H18C19.3238 3.6001 20.4 4.67635 20.4 6.0001V18.0001C20.4 19.3238 19.3238 20.4001 18 20.4001H6.00001C4.67626 20.4001 3.60001 19.3238 3.60001 18.0001V6.0001ZM16.1888 12.3601L12.7575 15.8438C12.5475 16.0576 12.27 16.1626 11.9963 16.1626C11.7225 16.1626 11.4488 16.0538 11.2425 15.8438L7.81126 12.3601C6.82126 11.3551 6.82126 9.7201 7.81126 8.7151C8.80126 7.7101 10.41 7.7101 11.4038 8.7151L12.0038 9.3226L12.6038 8.7151C13.5938 7.7101 15.2025 7.7101 16.1963 8.7151C17.19 9.7201 17.1863 11.3551 16.1963 12.3601H16.1888Z" fill="black" fill-opacity="0.45"/>
</svg>
