<svg width="24" height="24" viewBox="0 0 24 24" fill="none" xmlns="http://www.w3.org/2000/svg">
<path d="M15 5.98319C15 5.43936 15.4469 5 16 5H20C20.5531 5 21 5.43936 21 5.98319C21 6.52702 20.5531 6.96639 20 6.96639H17V9.91597C17 10.4598 16.5531 10.8992 16 10.8992H13V13.8487C13 14.3926 12.5531 14.8319 12 14.8319H9V17.7815C9 18.3253 8.55313 18.7647 8 18.7647H4C3.44687 18.7647 3 18.3253 3 17.7815C3 17.2377 3.44687 16.7983 4 16.7983H7V13.8487C7 13.3049 7.44688 12.8655 8 12.8655H11V9.91597C11 9.37214 11.4469 8.93277 12 8.93277H15V5.98319Z" fill="#8C8C8C"/>
</svg>
