<svg width="24" height="24" viewBox="0 0 24 24" fill="none" xmlns="http://www.w3.org/2000/svg">
<path d="M11.9963 2.40002C12.3413 2.40002 12.6563 2.59502 12.8063 2.90627L15.3788 8.20502L21.1238 9.05252C21.4613 9.10127 21.7425 9.33752 21.8475 9.66377C21.9525 9.99002 21.8663 10.3425 21.6263 10.5825L17.46 14.715L18.4425 20.55C18.4988 20.8875 18.36 21.2288 18.0788 21.4313C17.7975 21.6338 17.43 21.6563 17.13 21.495L11.9925 18.75L6.86251 21.4913C6.55876 21.6525 6.19126 21.63 5.91376 21.4275C5.63626 21.225 5.49376 20.8838 5.55001 20.5463L6.53251 14.7113L2.36626 10.5825C2.12251 10.3425 2.04001 9.98627 2.14501 9.66377C2.25001 9.34127 2.53126 9.10502 2.86876 9.05252L8.61376 8.20502L11.1863 2.90627C11.34 2.59502 11.6513 2.40002 11.9963 2.40002ZM11.9963 5.36252L10.0275 9.42002C9.89626 9.68627 9.64501 9.87377 9.34876 9.91877L4.91251 10.5713L8.13376 13.7625C8.34001 13.9688 8.43751 14.2613 8.38876 14.55L7.62751 19.0388L11.5725 16.9313C11.8388 16.7888 12.1575 16.7888 12.42 16.9313L16.365 19.0388L15.6075 14.5538C15.5588 14.265 15.6525 13.9725 15.8625 13.7663L19.0838 10.575L14.6475 9.91877C14.355 9.87377 14.1 9.69002 13.9688 9.42002L11.9963 5.36252Z" fill="black" fill-opacity="0.45"/>
</svg>
