<svg width="24" height="24" viewBox="0 0 24 24" fill="none" xmlns="http://www.w3.org/2000/svg">
<path d="M6.54374 2.98511C6.71999 3.45011 6.48374 3.96761 6.01874 4.14386L4.39499 4.75136C4.27874 4.79636 4.19999 4.90886 4.19999 5.03261V9.90011C4.19999 12.0526 5.94749 13.8001 8.09999 13.8001H8.39999H8.69999C10.8525 13.8001 12.6 12.0526 12.6 9.90011V5.03261C12.6 4.90886 12.5212 4.79636 12.405 4.75136L10.785 4.14386C10.32 3.96761 10.0837 3.45011 10.26 2.98511C10.4362 2.52011 10.9537 2.28386 11.4187 2.46011L13.0387 3.06761C13.8562 3.37136 14.4 4.15511 14.4 5.03261V9.90011C14.4 12.8439 12.1687 15.2664 9.30749 15.5664C9.44624 17.9289 11.4037 19.8001 13.8 19.8001C16.2862 19.8001 18.3 17.7864 18.3 15.3001V12.4614C17.0812 12.0789 16.2 10.9426 16.2 9.60011C16.2 7.94261 17.5425 6.60011 19.2 6.60011C20.8575 6.60011 22.2 7.94261 22.2 9.60011C22.2 10.9426 21.3187 12.0789 20.1 12.4614V15.3001C20.1 18.7801 17.28 21.6001 13.8 21.6001C10.41 21.6001 7.64624 18.9226 7.50749 15.5701C4.63874 15.2739 2.39999 12.8476 2.39999 9.90011V5.03261C2.39999 4.15886 2.94374 3.37511 3.76124 3.06761L5.38499 2.45636C5.84999 2.28011 6.36749 2.51636 6.54374 2.98136V2.98511ZM19.2 8.40011C18.8817 8.40011 18.5765 8.52654 18.3515 8.75158C18.1264 8.97663 18 9.28185 18 9.60011C18 9.91837 18.1264 10.2236 18.3515 10.4486C18.5765 10.6737 18.8817 10.8001 19.2 10.8001C19.5183 10.8001 19.8235 10.6737 20.0485 10.4486C20.2736 10.2236 20.4 9.91837 20.4 9.60011C20.4 9.28185 20.2736 8.97663 20.0485 8.75158C19.8235 8.52654 19.5183 8.40011 19.2 8.40011Z" fill="black" fill-opacity="0.45"/>
</svg>
