<svg width="24" height="24" viewBox="0 0 24 24" fill="none" xmlns="http://www.w3.org/2000/svg">
<path d="M16.8 6.60005C17.13 6.60005 17.4 6.87005 17.4 7.20005V16.8C17.4 17.13 17.13 17.4 16.8 17.4H7.2C6.87 17.4 6.6 17.13 6.6 16.8V7.20005C6.6 6.87005 6.87 6.60005 7.2 6.60005H16.8ZM7.2 4.80005C5.87625 4.80005 4.8 5.8763 4.8 7.20005V16.8C4.8 18.1238 5.87625 19.2 7.2 19.2H16.8C18.1238 19.2 19.2 18.1238 19.2 16.8V7.20005C19.2 5.8763 18.1238 4.80005 16.8 4.80005H7.2Z" fill="black" fill-opacity="0.45"/>
</svg>
