<svg width="24" height="24" viewBox="0 0 24 24" fill="none" xmlns="http://www.w3.org/2000/svg">
<path d="M20.2163 7.25615C20.4338 7.60115 20.4563 8.0249 20.3025 8.3849C20.1563 8.7299 19.8863 8.9399 19.5488 8.9849C19.4738 8.99615 19.4025 8.9999 19.3313 8.9999C18.8925 8.9999 18.4988 8.80865 18.2175 8.5049C17.8763 8.1299 17.3925 7.91615 16.8825 7.91615C16.3725 7.91615 15.8888 8.13365 15.5513 8.50865C15.2775 8.8124 14.8875 9.00365 14.4413 9.00365C13.9988 9.00365 13.605 8.8124 13.3313 8.50865C12.99 8.1299 12.5063 7.91615 11.9963 7.91615C11.4863 7.91615 11.0025 8.1299 10.6613 8.50865C10.3875 8.8124 9.9975 9.00365 9.55125 9.00365C9.10875 9.00365 8.715 8.8124 8.44125 8.50865C8.1 8.1299 7.61625 7.91615 7.10625 7.91615C6.59625 7.91615 6.1125 8.1299 5.77125 8.50865C5.4975 8.8124 5.1075 9.00365 4.66125 9.00365C4.59375 9.00365 4.51875 8.9999 4.44375 8.98865C4.11 8.94365 3.84375 8.73365 3.6975 8.38865C3.54375 8.02865 3.56625 7.6049 3.78375 7.2599L5.715 4.1999H18.285L20.2163 7.25615ZM19.3313 10.7999C19.485 10.7999 19.635 10.7887 19.7813 10.7699C21.8625 10.4924 22.8488 8.05115 21.735 6.2924L19.5863 2.89115C19.395 2.5874 19.0538 2.3999 18.69 2.3999H5.31C4.94625 2.3999 4.605 2.5874 4.41375 2.89115L2.26125 6.2924C1.15125 8.0474 2.13375 10.4887 4.2075 10.7699C4.3575 10.7887 4.51125 10.7999 4.66125 10.7999C5.39625 10.7999 6.0675 10.5599 6.6075 10.1624C6.7875 10.0312 6.9525 9.8774 7.1025 9.71615C7.2525 9.88115 7.4175 10.0312 7.5975 10.1624C8.14125 10.5599 8.8125 10.7999 9.5475 10.7999C10.2825 10.7999 10.9538 10.5599 11.4975 10.1624C11.6775 10.0312 11.8425 9.8774 11.9925 9.7124C12.1425 9.8774 12.3075 10.0274 12.4875 10.1587C13.0313 10.5562 13.7025 10.7962 14.4375 10.7962C15.18 10.7962 15.855 10.5524 16.3988 10.1474C16.575 10.0162 16.7363 9.8699 16.8825 9.70865C17.0288 9.8699 17.1938 10.0199 17.37 10.1512C17.9138 10.5524 18.5888 10.7962 19.3275 10.7962L19.3313 10.7999ZM5.4 14.9999V11.9399C5.16 11.9812 4.91625 11.9999 4.665 11.9999C4.45875 11.9999 4.2525 11.9849 4.05375 11.9587H4.05C3.89625 11.9362 3.74625 11.9099 3.6 11.8724V14.9999V16.7999V19.1999C3.6 20.5237 4.67625 21.5999 6 21.5999H18C19.3238 21.5999 20.4 20.5237 20.4 19.1999V16.7999V14.9999V11.8724C20.25 11.9099 20.1 11.9399 19.9388 11.9587H19.935C19.7363 11.9849 19.5338 11.9999 19.3275 11.9999C19.08 11.9999 18.8363 11.9812 18.6 11.9399V14.9999H5.4ZM18.6 16.7999V19.1999C18.6 19.5299 18.33 19.7999 18 19.7999H6C5.67 19.7999 5.4 19.5299 5.4 19.1999V16.7999H18.6Z" fill="black" fill-opacity="0.45"/>
</svg>
