<svg width="24" height="24" viewBox="0 0 24 24" fill="none" xmlns="http://www.w3.org/2000/svg">
<path d="M20.9288 3.65615C21.1238 3.19865 20.9138 2.6699 20.4563 2.4749C19.9988 2.2799 19.47 2.4899 19.275 2.9474C18.8888 3.8399 18.1613 4.7174 17.475 5.3999C17.4488 5.42615 17.4225 5.4524 17.4 5.4749C17.4 5.44865 17.4 5.4224 17.4 5.39615C17.4 4.0574 16.7363 3.04865 16.395 2.62115C16.275 2.4749 16.0913 2.3999 15.9 2.3999C15.7088 2.3999 15.525 2.4749 15.4013 2.6249C15.06 3.0374 14.4 3.98615 14.4 5.0999C14.4 6.5999 14.9738 7.17365 15.9 8.0999C16.8263 9.02615 17.4 9.5999 18.9 9.5999C20.0138 9.5999 20.9625 8.9399 21.375 8.59865C21.525 8.4749 21.6 8.29115 21.6 8.0999C21.6 7.90865 21.525 7.7249 21.375 7.6049C20.97 7.2824 20.0475 6.67115 18.8175 6.6074C19.545 5.86865 20.4263 4.82615 20.9288 3.65615ZM9.60751 6.5999C10.3763 6.5999 11.1375 6.8924 11.7225 7.4774L16.5225 12.2774C17.1075 12.8624 17.4 13.6274 17.4 14.3999C17.4 16.6199 15.0413 19.7999 9.00001 19.7999C6.75001 19.7999 5.70751 19.3612 5.17126 18.8287C4.63501 18.2962 4.20001 17.2499 4.20001 14.9999C4.20001 8.9624 7.38376 6.5999 9.60751 6.5999ZM9.60751 4.7999C6.00751 4.7999 2.40001 8.3999 2.40001 14.9999C2.40001 19.7999 4.20001 21.5999 9.00001 21.5999C15.6 21.5999 19.2 17.9999 19.2 14.3999C19.2 13.1699 18.7313 11.9437 17.7938 11.0062L12.9938 6.20615C12.06 5.2724 10.8338 4.80365 9.60751 4.7999ZM9.50251 8.19365C9.28126 7.9724 8.66251 8.07365 8.21626 8.5199C7.77001 8.96615 7.66876 9.58115 7.89001 9.80615C8.11126 10.0312 8.73001 9.92615 9.17626 9.4799C9.62251 9.03365 9.72376 8.41865 9.50251 8.19365ZM11.2763 11.8799C11.7225 11.4337 11.8238 10.8187 11.6025 10.5937C11.3813 10.3687 10.7625 10.4737 10.3163 10.9199C9.87001 11.3662 9.76876 11.9812 9.99001 12.2062C10.2113 12.4312 10.83 12.3262 11.2763 11.8799ZM10.0763 14.8799C10.5225 14.4337 10.6238 13.8187 10.4025 13.5937C10.1813 13.3687 9.56251 13.4737 9.11626 13.9199C8.67001 14.3662 8.56876 14.9812 8.79001 15.2062C9.01126 15.4312 9.63001 15.3262 10.0763 14.8799ZM8.87626 17.8799C9.32251 17.4337 9.42376 16.8187 9.20251 16.5937C8.98126 16.3687 8.36251 16.4737 7.91626 16.9199C7.47001 17.3662 7.36876 17.9812 7.59001 18.2062C7.81126 18.4312 8.43001 18.3262 8.87626 17.8799ZM12.5025 15.3937C12.2813 15.1724 11.6625 15.2737 11.2163 15.7199C10.77 16.1662 10.6688 16.7812 10.89 17.0062C11.1113 17.2312 11.73 17.1262 12.1763 16.6799C12.6225 16.2337 12.7238 15.6187 12.5025 15.3937ZM13.4025 12.3937C13.1813 12.1724 12.5625 12.2737 12.1163 12.7199C11.67 13.1662 11.5688 13.7812 11.79 14.0062C12.0113 14.2312 12.63 14.1262 13.0763 13.6799C13.5225 13.2337 13.6238 12.6187 13.4025 12.3937ZM15.4763 15.7799C15.9225 15.3337 16.0238 14.7187 15.8025 14.4937C15.5813 14.2687 14.9625 14.3737 14.5163 14.8199C14.07 15.2662 13.9688 15.8812 14.19 16.1062C14.4113 16.3312 15.03 16.2262 15.4763 15.7799ZM8.27626 12.7799C8.72251 12.3337 8.82376 11.7187 8.60251 11.4937C8.38126 11.2687 7.76251 11.3737 7.31626 11.8199C6.87001 12.2662 6.76876 12.8812 6.99001 13.1062C7.21126 13.3312 7.83001 13.2262 8.27626 12.7799ZM7.40251 14.7937C7.18126 14.5724 6.56251 14.6737 6.11626 15.1199C5.67001 15.5662 5.56876 16.1812 5.79001 16.4062C6.01126 16.6312 6.63001 16.5262 7.07626 16.0799C7.52251 15.6337 7.62376 15.0187 7.40251 14.7937Z" fill="black" fill-opacity="0.45"/>
</svg>
