<svg width="24" height="24" viewBox="0 0 24 24" fill="none" xmlns="http://www.w3.org/2000/svg">
<path d="M12 4.1999C12.2387 4.1999 12.4676 4.29472 12.6364 4.46351C12.8052 4.63229 12.9 4.86121 12.9 5.0999C12.9 5.3386 12.8052 5.56752 12.6364 5.7363C12.4676 5.90508 12.2387 5.9999 12 5.9999C11.7613 5.9999 11.5324 5.90508 11.3636 5.7363C11.1948 5.56752 11.1 5.3386 11.1 5.0999C11.1 4.86121 11.1948 4.63229 11.3636 4.46351C11.5324 4.29472 11.7613 4.1999 12 4.1999ZM12 7.7999C12.7161 7.7999 13.4028 7.51544 13.9092 7.00909C14.4155 6.50274 14.7 5.81599 14.7 5.0999C14.7 4.38382 14.4155 3.69706 13.9092 3.19071C13.4028 2.68437 12.7161 2.3999 12 2.3999C11.2839 2.3999 10.5972 2.68437 10.0908 3.19071C9.58447 3.69706 9.3 4.38382 9.3 5.0999C9.3 5.81599 9.58447 6.50274 10.0908 7.00909C10.5972 7.51544 11.2839 7.7999 12 7.7999ZM9.6 12.8999V11.3999C9.6 10.7362 10.1363 10.1999 10.8 10.1999H13.2C13.8638 10.1999 14.4 10.7362 14.4 11.3999V12.8999C13.6725 13.0837 13.1325 13.6987 13.05 14.4449L12.8175 16.5299C12.7988 16.6837 12.6713 16.7962 12.5175 16.7962H11.4788C11.325 16.7962 11.1975 16.6799 11.1788 16.5299L10.95 14.4487C10.8675 13.7024 10.3275 13.0874 9.6 12.9037V12.8999ZM9.39 16.7324C9.51 17.7974 10.4063 18.5999 11.4788 18.5999H12.5213C13.59 18.5999 14.49 17.7937 14.61 16.7324L14.8425 14.6474C15.6225 14.4524 16.2038 13.7437 16.2038 12.8999V11.3999C16.2038 9.7424 14.8613 8.3999 13.2038 8.3999H10.8C9.1425 8.3999 7.8 9.7424 7.8 11.3999V12.8999C7.8 13.7437 8.3775 14.4487 9.16125 14.6474L9.39375 16.7324H9.39ZM7.36125 17.1824C7.84875 17.0924 8.175 16.6237 8.085 16.1362C7.995 15.6487 7.52625 15.3224 7.03875 15.4124C5.82375 15.6337 4.755 15.9449 3.96375 16.3424C3.57 16.5412 3.2025 16.7812 2.92125 17.0774C2.64 17.3812 2.4 17.7937 2.4 18.2999C2.4 19.1024 2.98125 19.6537 3.49125 19.9874C4.0425 20.3474 4.7775 20.6362 5.60625 20.8649C7.2825 21.3262 9.54 21.5999 12 21.5999C14.46 21.5999 16.7175 21.3262 18.39 20.8649C19.2188 20.6362 19.9575 20.3474 20.505 19.9874C21.0188 19.6537 21.5963 19.1024 21.5963 18.2999C21.5963 17.7937 21.3563 17.3812 21.0713 17.0774C20.79 16.7812 20.4225 16.5412 20.0288 16.3424C19.2413 15.9449 18.1725 15.6337 16.9538 15.4124C16.4663 15.3224 15.9975 15.6487 15.9075 16.1362C15.8175 16.6237 16.1438 17.0924 16.6313 17.1824C17.7638 17.3887 18.645 17.6624 19.2188 17.9512C19.3388 18.0112 19.4363 18.0674 19.515 18.1199C19.65 18.2099 19.65 18.3899 19.515 18.4799C19.185 18.6937 18.6488 18.9224 17.9025 19.1287C16.4363 19.5374 14.3438 19.7999 12 19.7999C9.65625 19.7999 7.56375 19.5374 6.08625 19.1287C5.34 18.9224 4.80375 18.6937 4.47375 18.4799C4.33875 18.3899 4.33875 18.2099 4.47375 18.1199C4.5525 18.0674 4.65375 18.0112 4.77 17.9512C5.34375 17.6624 6.225 17.3924 7.3575 17.1824H7.36125Z" fill="black" fill-opacity="0.45"/>
</svg>
