<svg width="24" height="24" viewBox="0 0 24 24" fill="none" xmlns="http://www.w3.org/2000/svg">
<path d="M7.85625 7.57489C8.00625 6.76864 8.5275 6.17239 9.42 5.79739C10.3463 5.40739 11.6475 5.28364 13.1663 5.51614C13.6463 5.59114 15.1313 5.87239 15.6 5.99614C16.08 6.11989 16.5713 5.83489 16.6988 5.35114C16.8263 4.86739 16.5375 4.37989 16.0538 4.25239C15.5025 4.10989 13.95 3.81364 13.44 3.73489C11.7075 3.46864 10.05 3.58114 8.72625 4.13614C7.3725 4.70239 6.3525 5.75239 6.0825 7.28239C6.07875 7.29739 6.07875 7.31614 6.075 7.33114C5.97 8.20864 6.09375 8.98864 6.4425 9.66364C6.7875 10.3311 7.3125 10.8336 7.8975 11.2199C7.9875 11.2799 8.085 11.3399 8.17875 11.3961H3.3C2.80125 11.3961 2.4 11.7974 2.4 12.2961C2.4 12.7949 2.80125 13.1961 3.3 13.1961H20.7C21.1988 13.1961 21.6 12.7949 21.6 12.2961C21.6 11.7974 21.1988 11.3961 20.7 11.3961H13.4925C13.1213 11.2799 12.7538 11.1711 12.3975 11.0661L12.3863 11.0624C10.9725 10.6461 9.7425 10.2861 8.8875 9.71989C8.47875 9.44989 8.205 9.16114 8.04 8.83864C7.8825 8.53114 7.7925 8.12989 7.85625 7.57114V7.57489ZM16.05 15.0411C16.1888 15.3636 16.2563 15.7949 16.1475 16.4024C16.005 17.2199 15.48 17.8236 14.58 18.2024C13.6538 18.5924 12.3525 18.7161 10.8375 18.4836C10.0838 18.3636 8.80125 17.9361 7.7925 17.5986C7.57125 17.5236 7.365 17.4561 7.18125 17.3961C6.70875 17.2424 6.2025 17.5011 6.045 17.9736C5.8875 18.4461 6.15 18.9561 6.6225 19.1099C6.7725 19.1586 6.9525 19.2186 7.1475 19.2861C8.145 19.6199 9.6375 20.1186 10.5563 20.2686H10.56C12.2925 20.5349 13.95 20.4224 15.2738 19.8674C16.6275 19.3011 17.6475 18.2511 17.9175 16.7211C18.0675 15.8624 18.0075 15.0899 17.73 14.4074H15.585C15.7988 14.6061 15.9488 14.8199 16.0463 15.0486L16.05 15.0411Z" fill="black" fill-opacity="0.45"/>
</svg>
