<svg width="24" height="24" viewBox="0 0 24 24" fill="none" xmlns="http://www.w3.org/2000/svg">
<path d="M16.4888 3.13866C16.4325 2.83866 16.23 2.58741 15.9488 2.47116C15.6675 2.35491 15.345 2.38866 15.0938 2.56116L12 4.69116L8.90626 2.55741C8.65501 2.38491 8.33251 2.35116 8.05126 2.46741C7.77001 2.58366 7.56751 2.83491 7.51126 3.13491L6.83251 6.82866L3.13876 7.51116C2.83876 7.56741 2.58751 7.76991 2.47126 8.05116C2.35501 8.33241 2.38876 8.65491 2.56126 8.90616L4.69126 11.9999L2.55751 15.0937C2.38501 15.3449 2.35126 15.6674 2.46751 15.9487C2.58376 16.2299 2.83501 16.4362 3.13501 16.4887L6.82876 17.1674L7.50751 20.8612C7.56376 21.1612 7.76626 21.4124 8.04751 21.5287C8.32876 21.6449 8.65126 21.6112 8.90251 21.4387L12 19.3087L15.0938 21.4424C15.345 21.6149 15.6675 21.6487 15.9488 21.5324C16.23 21.4162 16.4325 21.1649 16.4888 20.8649L17.1675 17.1712L20.8613 16.4924C21.1613 16.4362 21.4125 16.2337 21.5288 15.9524C21.645 15.6712 21.6113 15.3487 21.4388 15.0974L19.3088 11.9999L21.4425 8.90616C21.615 8.65491 21.6488 8.33241 21.5325 8.05116C21.4163 7.76991 21.165 7.56741 20.865 7.51116L17.1713 6.83241L16.4888 3.13866ZM12.51 6.52491L14.97 4.82991L15.51 7.76616C15.5775 8.13366 15.8663 8.42241 16.2338 8.48991L19.17 9.02991L17.475 11.4899C17.2613 11.7974 17.2613 12.2024 17.475 12.5099L19.17 14.9699L16.2338 15.5099C15.8663 15.5774 15.5775 15.8662 15.51 16.2337L14.97 19.1699L12.51 17.4749C12.2025 17.2612 11.7975 17.2612 11.49 17.4749L9.03001 19.1699L8.49001 16.2337C8.42251 15.8662 8.13376 15.5774 7.76626 15.5099L4.83001 14.9699L6.52501 12.5099C6.73876 12.2024 6.73876 11.7974 6.52501 11.4899L4.83001 9.02991L7.76626 8.48991C8.13376 8.42241 8.42251 8.13366 8.49001 7.76616L9.03001 4.82991L11.49 6.52491C11.7975 6.73866 12.2025 6.73866 12.51 6.52491ZM12 16.1999C13.1139 16.1999 14.1822 15.7574 14.9699 14.9698C15.7575 14.1821 16.2 13.1138 16.2 11.9999C16.2 10.886 15.7575 9.81771 14.9699 9.03006C14.1822 8.24241 13.1139 7.79991 12 7.79991C10.8861 7.79991 9.81781 8.24241 9.03016 9.03006C8.24251 9.81771 7.80001 10.886 7.80001 11.9999C7.80001 13.1138 8.24251 14.1821 9.03016 14.9698C9.81781 15.7574 10.8861 16.1999 12 16.1999ZM9.60001 11.9999C9.60001 11.3634 9.85287 10.7529 10.303 10.3029C10.753 9.85277 11.3635 9.59991 12 9.59991C12.6365 9.59991 13.247 9.85277 13.6971 10.3029C14.1472 10.7529 14.4 11.3634 14.4 11.9999C14.4 12.6364 14.1472 13.2469 13.6971 13.697C13.247 14.1471 12.6365 14.3999 12 14.3999C11.3635 14.3999 10.753 14.1471 10.303 13.697C9.85287 13.2469 9.60001 12.6364 9.60001 11.9999Z" fill="black" fill-opacity="0.45"/>
</svg>
