<svg width="24" height="24" viewBox="0 0 24 24" fill="none" xmlns="http://www.w3.org/2000/svg">
<path d="M4.19999 12.3001V8.4001H11.1V12.3001H4.19999ZM4.19999 14.1001H11.1V18.6001H4.79999C4.46999 18.6001 4.19999 18.3301 4.19999 18.0001V14.1001ZM12.9 18.6001V14.1001H19.8V18.0001C19.8 18.3301 19.53 18.6001 19.2 18.6001H12.9ZM19.8 12.3001H12.9V8.4001H19.8V12.3001ZM4.79999 3.6001C3.47624 3.6001 2.39999 4.67635 2.39999 6.0001V18.0001C2.39999 19.3238 3.47624 20.4001 4.79999 20.4001H19.2C20.5237 20.4001 21.6 19.3238 21.6 18.0001V6.0001C21.6 4.67635 20.5237 3.6001 19.2 3.6001H4.79999Z" fill="black" fill-opacity="0.45"/>
</svg>
