<svg width="24" height="24" viewBox="0 0 24 24" fill="none" xmlns="http://www.w3.org/2000/svg">
<path d="M11.0063 3.6001C11.6438 3.6001 12.255 3.85135 12.705 4.30135L19.305 10.9013C20.2425 11.8388 20.2425 13.3576 19.305 14.2951L14.2988 19.3013C13.3613 20.2388 11.8425 20.2388 10.905 19.3013L4.30501 12.7013C3.85126 12.2513 3.60001 11.6438 3.60001 11.0063V5.4001C3.60001 4.40635 4.40626 3.6001 5.40001 3.6001H11.0063ZM5.40001 11.0063C5.40001 11.1638 5.46376 11.3176 5.57626 11.4301L12.1763 18.0301C12.4088 18.2626 12.7913 18.2626 13.0238 18.0301L18.03 13.0238C18.2625 12.7913 18.2625 12.4088 18.03 12.1763L11.43 5.57635C11.3175 5.46385 11.1638 5.4001 11.0063 5.4001H5.40001V11.0063ZM7.80001 6.6001C8.11827 6.6001 8.42349 6.72653 8.64853 6.95157C8.87358 7.17661 9.00001 7.48184 9.00001 7.8001C9.00001 8.11836 8.87358 8.42358 8.64853 8.64863C8.42349 8.87367 8.11827 9.0001 7.80001 9.0001C7.48175 9.0001 7.17652 8.87367 6.95148 8.64863C6.72643 8.42358 6.60001 8.11836 6.60001 7.8001C6.60001 7.48184 6.72643 7.17661 6.95148 6.95157C7.17652 6.72653 7.48175 6.6001 7.80001 6.6001Z" fill="black" fill-opacity="0.45"/>
</svg>
