<svg width="24" height="24" viewBox="0 0 24 24" fill="none" xmlns="http://www.w3.org/2000/svg">
<path d="M15.3375 3.86634C14.9887 3.51384 14.4187 3.5101 14.0662 3.85885C13.7137 4.2076 13.71 4.7776 14.0587 5.1301L18.8475 9.97885C20.1187 11.2651 20.1187 13.3313 18.8475 14.6176L14.6512 18.8663C14.3025 19.2188 14.3062 19.7888 14.6587 20.1376C15.0112 20.4863 15.5812 20.4826 15.93 20.1301L20.13 15.8851C22.095 13.8976 22.095 10.7026 20.13 8.71509L15.3375 3.86634ZM11.5012 4.30134C11.0512 3.85135 10.44 3.6001 9.80249 3.6001H4.19999C3.20624 3.6001 2.39999 4.40635 2.39999 5.40009V11.0063C2.39999 11.6438 2.65124 12.2551 3.10124 12.7051L9.40124 19.0051C10.3387 19.9426 11.8575 19.9426 12.795 19.0051L17.8012 13.9988C18.7387 13.0613 18.7387 11.5426 17.8012 10.6051L11.5012 4.30509V4.30134ZM4.19999 5.40009H9.80624C9.96374 5.40009 10.1175 5.46384 10.23 5.57634L16.53 11.8763C16.7625 12.1088 16.7625 12.4913 16.53 12.7238L11.5237 17.7301C11.2912 17.9626 10.9087 17.9626 10.6762 17.7301L4.37624 11.4301C4.26374 11.3176 4.19999 11.1638 4.19999 11.0063V5.40009ZM7.79999 7.8001C7.79999 7.48184 7.67357 7.17661 7.44852 6.95157C7.22348 6.72652 6.91825 6.6001 6.59999 6.6001C6.28173 6.6001 5.97651 6.72652 5.75147 6.95157C5.52642 7.17661 5.39999 7.48184 5.39999 7.8001C5.39999 8.11835 5.52642 8.42358 5.75147 8.64862C5.97651 8.87367 6.28173 9.00009 6.59999 9.00009C6.91825 9.00009 7.22348 8.87367 7.44852 8.64862C7.67357 8.42358 7.79999 8.11835 7.79999 7.8001Z" fill="black" fill-opacity="0.45"/>
</svg>
