<svg width="24" height="24" viewBox="0 0 24 24" fill="none" xmlns="http://www.w3.org/2000/svg">
<path d="M4.79999 3.8999C5.29874 3.8999 5.69999 4.30115 5.69999 4.7999V13.1512L8.69999 12.1499V4.7999C8.69999 4.30115 9.10124 3.8999 9.59999 3.8999C10.0987 3.8999 10.5 4.30115 10.5 4.7999V11.5499L13.5 10.5487V4.7999C13.5 4.30115 13.9012 3.8999 14.4 3.8999C14.8987 3.8999 15.3 4.30115 15.3 4.7999V9.9524L18.3 8.95115V4.7999C18.3 4.30115 18.7012 3.8999 19.2 3.8999C19.6987 3.8999 20.1 4.30115 20.1 4.7999V8.35115L22.515 7.5449C22.9875 7.3874 23.4975 7.6424 23.655 8.1149C23.8125 8.5874 23.5575 9.0974 23.085 9.2549L20.1 10.2487V19.1999C20.1 19.6987 19.6987 20.0999 19.2 20.0999C18.7012 20.0999 18.3 19.6987 18.3 19.1999V10.8487L15.3 11.8499V19.1999C15.3 19.6987 14.8987 20.0999 14.4 20.0999C13.9012 20.0999 13.5 19.6987 13.5 19.1999V12.4499L10.5 13.4512V19.1999C10.5 19.6987 10.0987 20.0999 9.59999 20.0999C9.10124 20.0999 8.69999 19.6987 8.69999 19.1999V14.0474L5.69999 15.0487V19.1999C5.69999 19.6987 5.29874 20.0999 4.79999 20.0999C4.30124 20.0999 3.89999 19.6987 3.89999 19.1999V15.6487L1.48499 16.4549C1.01249 16.6124 0.502492 16.3574 0.344992 15.8849C0.187492 15.4124 0.442492 14.9024 0.914992 14.7449L3.89999 13.7512V4.7999C3.89999 4.30115 4.30124 3.8999 4.79999 3.8999Z" fill="black" fill-opacity="0.45"/>
</svg>
