<svg width="24" height="24" viewBox="0 0 24 24" fill="none" xmlns="http://www.w3.org/2000/svg">
<path d="M5.40001 5.4001V7.2001C5.40001 7.69885 4.99876 8.1001 4.50001 8.1001C4.00126 8.1001 3.60001 7.69885 3.60001 7.2001V5.1001C3.60001 4.27135 4.27126 3.6001 5.10001 3.6001H18.9C19.7288 3.6001 20.4 4.27135 20.4 5.1001V7.2001C20.4 7.69885 19.9988 8.1001 19.5 8.1001C19.0013 8.1001 18.6 7.69885 18.6 7.2001V5.4001H12.9V18.6001H14.7C15.1988 18.6001 15.6 19.0013 15.6 19.5001C15.6 19.9988 15.1988 20.4001 14.7 20.4001H9.30001C8.80126 20.4001 8.40001 19.9988 8.40001 19.5001C8.40001 19.0013 8.80126 18.6001 9.30001 18.6001H11.1V5.4001H5.40001Z" fill="black" fill-opacity="0.45"/>
</svg>
