<svg width="24" height="24" viewBox="0 0 24 24" fill="none" xmlns="http://www.w3.org/2000/svg">
<path d="M12 2.3999C10.1738 2.3999 8.5725 3.3599 7.6725 4.7999C4.7475 4.87115 2.4 7.2599 2.4 10.1999C2.4 13.1812 4.81875 15.5999 7.8 15.5999C8.1525 15.5999 8.50125 15.5662 8.835 15.4987C9.64875 16.3012 10.7663 16.7999 12 16.7999C13.2338 16.7999 14.3513 16.3012 15.165 15.4987C15.5025 15.5624 15.8475 15.5999 16.2 15.5999C19.1813 15.5999 21.6 13.1812 21.6 10.1999C21.6 7.2599 19.2525 4.87115 16.3275 4.7999C15.4275 3.3599 13.8263 2.3999 12 2.3999ZM9.01125 6.10115C9.54 4.97615 10.68 4.1999 12 4.1999C13.32 4.1999 14.46 4.97615 14.9888 6.10115C15.15 6.4424 15.5063 6.64865 15.8813 6.6149C15.9863 6.6074 16.0913 6.5999 16.2 6.5999C18.1875 6.5999 19.8 8.2124 19.8 10.1999C19.8 12.1874 18.1875 13.7999 16.2 13.7999C15.825 13.7999 15.4613 13.7437 15.1238 13.6349C14.7638 13.5224 14.3738 13.6462 14.1413 13.9462C13.6463 14.5874 12.87 14.9999 12 14.9999C11.13 14.9999 10.3538 14.5874 9.85875 13.9462C9.63 13.6462 9.23625 13.5224 8.87625 13.6349C8.53875 13.7399 8.175 13.7999 7.8 13.7999C5.8125 13.7999 4.2 12.1874 4.2 10.1999C4.2 8.2124 5.8125 6.5999 7.8 6.5999C7.90875 6.5999 8.01375 6.60365 8.11875 6.6149C8.49375 6.64865 8.85 6.4424 9.01125 6.10115ZM9.6 18.5999C9.6 18.1225 9.41036 17.6647 9.07279 17.3271C8.73523 16.9895 8.27739 16.7999 7.8 16.7999C7.32261 16.7999 6.86478 16.9895 6.52721 17.3271C6.18964 17.6647 6 18.1225 6 18.5999C6 19.0773 6.18964 19.5351 6.52721 19.8727C6.86478 20.2103 7.32261 20.3999 7.8 20.3999C8.27739 20.3999 8.73523 20.2103 9.07279 19.8727C9.41036 19.5351 9.6 19.0773 9.6 18.5999ZM4.8 20.3999C4.8 20.0816 4.67357 19.7764 4.44853 19.5514C4.22349 19.3263 3.91826 19.1999 3.6 19.1999C3.28174 19.1999 2.97652 19.3263 2.75147 19.5514C2.52643 19.7764 2.4 20.0816 2.4 20.3999C2.4 20.7182 2.52643 21.0234 2.75147 21.2484C2.97652 21.4735 3.28174 21.5999 3.6 21.5999C3.91826 21.5999 4.22349 21.4735 4.44853 21.2484C4.67357 21.0234 4.8 20.7182 4.8 20.3999Z" fill="black" fill-opacity="0.45"/>
</svg>
