<svg width="24" height="24" viewBox="0 0 24 24" fill="none" xmlns="http://www.w3.org/2000/svg">
<path d="M14.5425 20.295C13.11 20.7038 11.6137 19.875 11.205 18.4425L10.9912 17.6925C10.8525 17.205 10.6012 16.755 10.26 16.38L8.33624 14.265C8.00249 13.8975 8.02874 13.3275 8.39624 12.9938C8.76374 12.66 9.33374 12.6863 9.66749 13.0538L11.5912 15.1688C12.12 15.75 12.5062 16.4438 12.72 17.1975L12.9337 17.9475C13.0687 18.4238 13.5675 18.7013 14.0475 18.5663C14.5275 18.4313 14.8012 17.9325 14.6662 17.4525L14.4525 16.7025C14.2387 15.9563 13.9012 15.2513 13.455 14.6213C13.26 14.3475 13.2375 13.9875 13.3912 13.6875C13.545 13.3875 13.8525 13.2 14.19 13.2H19.2C19.53 13.2 19.8 12.93 19.8 12.6C19.8 12.345 19.6387 12.1238 19.41 12.0375C19.1325 11.9325 18.9225 11.7 18.8512 11.4113C18.78 11.1225 18.855 10.8188 19.05 10.5975C19.1437 10.4925 19.2 10.3538 19.2 10.2C19.2 9.90753 18.99 9.66378 18.7125 9.61128C18.405 9.55128 18.1462 9.33753 18.0375 9.04128C17.9287 8.74503 17.9775 8.41503 18.1725 8.16753C18.2512 8.06628 18.3 7.93878 18.3 7.79628C18.3 7.54503 18.1425 7.32378 17.9175 7.23753C17.4862 7.06878 17.2537 6.60378 17.3775 6.15753C17.3925 6.10878 17.4 6.05253 17.4 5.99628C17.4 5.66628 17.13 5.39628 16.8 5.39628H13.1437C12.6712 5.39628 12.2062 5.53503 11.8125 5.79753L9.49874 7.33878C9.08624 7.61628 8.52749 7.50378 8.24999 7.08753C7.97249 6.67128 8.08499 6.11628 8.50124 5.83878L10.815 4.29753C11.505 3.83628 12.315 3.59253 13.1437 3.59253H16.8C18.1012 3.59253 19.1587 4.62753 19.2 5.91753C19.7475 6.35628 20.1 7.03128 20.1 7.79253C20.1 7.96128 20.0812 8.12253 20.0512 8.28003C20.6287 8.71878 21 9.41253 21 10.1925C21 10.4363 20.9625 10.6725 20.895 10.8938C21.33 11.3363 21.6 11.9363 21.6 12.6C21.6 13.9238 20.5275 15 19.2 15H15.7387C15.915 15.39 16.065 15.795 16.1812 16.2075L16.395 16.9575C16.8037 18.39 15.975 19.8863 14.5425 20.295ZM3.59999 16.8C2.93624 16.8 2.39999 16.2638 2.39999 15.6V7.20003C2.39999 6.53628 2.93624 6.00003 3.59999 6.00003H5.99999C6.66374 6.00003 7.19999 6.53628 7.19999 7.20003V15.6C7.19999 16.2638 6.66374 16.8 5.99999 16.8H3.59999Z" fill="black" fill-opacity="0.45"/>
</svg>
