<svg width="24" height="24" viewBox="0 0 24 24" fill="none" xmlns="http://www.w3.org/2000/svg">
<path d="M9.8475 4.33865L9.4425 9.6224C9.40125 10.1699 9.1125 10.6649 8.65875 10.9724C7.7625 11.5799 7.09125 12.5024 6.8175 13.6087L6.76875 13.7999H11.1V10.4999C11.1 10.0012 11.5013 9.5999 12 9.5999C12.4988 9.5999 12.9 10.0012 12.9 10.4999V13.7999H17.2313L17.1825 13.6087C16.905 12.5024 16.2375 11.5799 15.3413 10.9762C14.8875 10.6687 14.5988 10.1699 14.5575 9.62615L14.1525 4.33865C14.1488 4.29365 14.1488 4.2449 14.1488 4.1999H9.855C9.855 4.2449 9.855 4.29365 9.85125 4.33865H9.8475ZM11.1 15.5999H6C5.62875 15.5999 5.28 15.4312 5.055 15.1387C4.83 14.8462 4.7475 14.4674 4.8375 14.1074L5.07 13.1699C5.45625 11.6212 6.3975 10.3312 7.64625 9.48365L7.91625 5.9999L8.055 4.1999H6.9C6.735 4.1999 6.5775 4.1549 6.4425 4.07615C6.18 3.91865 6 3.6299 6 3.2999C6 2.80115 6.40125 2.3999 6.9 2.3999H8.055H15.945H17.1C17.5988 2.3999 18 2.80115 18 3.2999C18 3.6299 17.82 3.91865 17.5575 4.07615C17.4225 4.1549 17.2688 4.1999 17.1 4.1999H15.945L16.0838 5.9999L16.35 9.48365C17.5988 10.3312 18.54 11.6249 18.9263 13.1699L19.1588 14.1074C19.2488 14.4674 19.1663 14.8462 18.9413 15.1387C18.7163 15.4312 18.3638 15.5999 17.9963 15.5999H12.9V20.6999C12.9 21.1987 12.4988 21.5999 12 21.5999C11.5013 21.5999 11.1 21.1987 11.1 20.6999V15.5999Z" fill="black" fill-opacity="0.45"/>
</svg>
