<svg width="24" height="24" viewBox="0 0 24 24" fill="none" xmlns="http://www.w3.org/2000/svg">
<path d="M14.5425 3.7049C13.11 3.29615 11.6137 4.1249 11.205 5.5574L10.9912 6.3074C10.8525 6.7949 10.6012 7.2449 10.26 7.6199L8.33624 9.7349C8.00249 10.1024 8.02874 10.6724 8.39624 11.0061C8.76374 11.3399 9.33374 11.3136 9.66749 10.9461L11.5912 8.83115C12.12 8.2499 12.5062 7.55615 12.72 6.8024L12.9337 6.0524C13.0687 5.57615 13.5675 5.29865 14.0475 5.43365C14.5275 5.56865 14.8012 6.0674 14.6662 6.5474L14.4525 7.2974C14.2387 8.04365 13.9012 8.74865 13.455 9.37865C13.26 9.6524 13.2375 10.0124 13.3912 10.3124C13.545 10.6124 13.8525 10.7999 14.19 10.7999H19.2C19.53 10.7999 19.8 11.0699 19.8 11.3999C19.8 11.6549 19.6387 11.8761 19.41 11.9624C19.1325 12.0674 18.9225 12.2999 18.8512 12.5886C18.78 12.8774 18.855 13.1811 19.05 13.4024C19.1437 13.5074 19.2 13.6461 19.2 13.7999C19.2 14.0924 18.99 14.3361 18.7125 14.3886C18.405 14.4486 18.1462 14.6624 18.0375 14.9586C17.9287 15.2549 17.9775 15.5849 18.1725 15.8324C18.2512 15.9336 18.3 16.0611 18.3 16.2036C18.3 16.4549 18.1425 16.6761 17.9175 16.7624C17.4862 16.9311 17.2537 17.3961 17.3775 17.8424C17.3925 17.8911 17.4 17.9474 17.4 18.0036C17.4 18.3336 17.13 18.6036 16.8 18.6036H13.1437C12.6712 18.6036 12.2062 18.4649 11.8125 18.2024L9.49874 16.6611C9.08624 16.3836 8.52749 16.4961 8.24999 16.9124C7.97249 17.3286 8.08499 17.8836 8.50124 18.1611L10.815 19.7024C11.505 20.1636 12.315 20.4074 13.1437 20.4074H16.8C18.1012 20.4074 19.1587 19.3724 19.2 18.0824C19.7475 17.6436 20.1 16.9686 20.1 16.2074C20.1 16.0386 20.0812 15.8774 20.0512 15.7199C20.6287 15.2811 21 14.5874 21 13.8074C21 13.5636 20.9625 13.3274 20.895 13.1061C21.33 12.6636 21.6 12.0636 21.6 11.3999C21.6 10.0761 20.5275 8.9999 19.2 8.9999H15.7387C15.915 8.6099 16.065 8.2049 16.1812 7.7924L16.395 7.0424C16.8037 5.6099 15.975 4.11365 14.5425 3.7049ZM3.59999 9.5999C2.93624 9.5999 2.39999 10.1361 2.39999 10.7999V19.1999C2.39999 19.8636 2.93624 20.3999 3.59999 20.3999H5.99999C6.66374 20.3999 7.19999 19.8636 7.19999 19.1999V10.7999C7.19999 10.1361 6.66374 9.5999 5.99999 9.5999H3.59999Z" fill="black" fill-opacity="0.45"/>
</svg>
