<svg width="24" height="24" viewBox="0 0 24 24" fill="none" xmlns="http://www.w3.org/2000/svg">
<path d="M3.60001 4.80005C2.27626 4.80005 1.20001 5.8763 1.20001 7.20005V9.4538C1.20001 9.8363 1.44001 10.1738 1.80001 10.3013C2.50126 10.5488 3.00001 11.2163 3.00001 12C3.00001 12.7838 2.50126 13.4513 1.80001 13.6988C1.44001 13.8263 1.20001 14.1675 1.20001 14.5463V16.8C1.20001 18.1238 2.27626 19.2 3.60001 19.2H20.4C21.7238 19.2 22.8 18.1238 22.8 16.8V14.5463C22.8 14.1638 22.56 13.8263 22.2 13.6988C21.4988 13.4513 21 12.7838 21 12C21 11.2163 21.4988 10.5488 22.2 10.3013C22.56 10.1738 22.8 9.83255 22.8 9.4538V7.20005C22.8 5.8763 21.7238 4.80005 20.4 4.80005H3.60001ZM3.00001 7.20005C3.00001 6.87005 3.27001 6.60005 3.60001 6.60005H20.4C20.73 6.60005 21 6.87005 21 7.20005V8.8838C19.9238 9.5063 19.2 10.6688 19.2 12C19.2 13.3313 19.9238 14.4975 21 15.1163V16.8C21 17.13 20.73 17.4 20.4 17.4H3.60001C3.27001 17.4 3.00001 17.13 3.00001 16.8V15.1163C4.07626 14.4938 4.80001 13.3313 4.80001 12C4.80001 10.6688 4.07626 9.50255 3.00001 8.8838V7.20005ZM16.2 13.8H7.80001V10.2H16.2V13.8ZM6.00001 9.60005V14.4C6.00001 15.0638 6.53626 15.6 7.20001 15.6H16.8C17.4638 15.6 18 15.0638 18 14.4V9.60005C18 8.9363 17.4638 8.40005 16.8 8.40005H7.20001C6.53626 8.40005 6.00001 8.9363 6.00001 9.60005Z" fill="black" fill-opacity="0.45"/>
</svg>
