<svg width="24" height="24" viewBox="0 0 24 24" fill="none" xmlns="http://www.w3.org/2000/svg">
<path d="M15 7.5C17.4844 7.5 19.5 9.51562 19.5 12C19.5 14.4844 17.4844 16.5 15 16.5H9C6.51562 16.5 4.5 14.4844 4.5 12C4.5 9.51562 6.51562 7.5 9 7.5H15ZM21 12C21 8.6875 18.3125 6 15 6H9C5.6875 6 3 8.6875 3 12C3 15.3125 5.6875 18 9 18H15C18.3125 18 21 15.3125 21 12ZM9 15C9.79565 15 10.5587 14.6839 11.1213 14.1213C11.6839 13.5587 12 12.7956 12 12C12 11.2044 11.6839 10.4413 11.1213 9.87868C10.5587 9.31607 9.79565 9 9 9C8.20435 9 7.44129 9.31607 6.87868 9.87868C6.31607 10.4413 6 11.2044 6 12C6 12.7956 6.31607 13.5587 6.87868 14.1213C7.44129 14.6839 8.20435 15 9 15Z" fill="black" fill-opacity="0.45"/>
</svg>
