<svg width="24" height="24" viewBox="0 0 24 24" fill="none" xmlns="http://www.w3.org/2000/svg">
<path d="M9 7.5C6.51562 7.5 4.5 9.51562 4.5 12C4.5 14.4844 6.51562 16.5 9 16.5H15C17.4844 16.5 19.5 14.4844 19.5 12C19.5 9.51562 17.4844 7.5 15 7.5H9ZM3 12C3 8.6875 5.6875 6 9 6H15C18.3125 6 21 8.6875 21 12C21 15.3125 18.3125 18 15 18H9C5.6875 18 3 15.3125 3 12ZM15 9C15.7956 9 16.5587 9.31607 17.1213 9.87868C17.6839 10.4413 18 11.2044 18 12C18 12.7956 17.6839 13.5587 17.1213 14.1213C16.5587 14.6839 15.7956 15 15 15C14.2044 15 13.4413 14.6839 12.8787 14.1213C12.3161 13.5587 12 12.7956 12 12C12 11.2044 12.3161 10.4413 12.8787 9.87868C13.4413 9.31607 14.2044 9 15 9Z" fill="black" fill-opacity="0.45"/>
</svg>
