<svg width="24" height="24" viewBox="0 0 24 24" fill="none" xmlns="http://www.w3.org/2000/svg">
<path d="M10.5675 2.9624C10.7062 2.6249 11.0362 2.3999 11.4 2.3999H12.6C12.9675 2.3999 13.2975 2.62115 13.4325 2.9624L20.2837 19.7999H20.7C21.1987 19.7999 21.6 20.2012 21.6 20.6999C21.6 21.1987 21.1987 21.5999 20.7 21.5999H3.29999C2.80124 21.5999 2.39999 21.1987 2.39999 20.6999C2.39999 20.2012 2.80124 19.7999 3.29999 19.7999H3.71624L10.5675 2.9624ZM16.875 16.1999H7.12499L5.65874 19.7999H18.3412L16.8787 16.1999H16.875ZM16.1437 14.3999L14.4337 10.1999H9.56624L7.85624 14.3999H16.1437ZM10.2975 8.3999H13.7025L12 4.2149L10.2975 8.3999Z" fill="black" fill-opacity="0.45"/>
</svg>
