<svg width="24" height="24" viewBox="0 0 24 24" fill="none" xmlns="http://www.w3.org/2000/svg">
<path d="M10.2413 4.20002H13.755C13.8563 4.20002 13.95 4.24877 14.0063 4.33502L14.7188 5.40002H9.28126L9.99376 4.33502C10.05 4.25252 10.1438 4.20002 10.245 4.20002H10.2413ZM16.8825 5.40002L15.5063 3.33377C15.1163 2.75252 14.46 2.40002 13.7588 2.40002H10.2413C9.54001 2.40002 8.88376 2.75252 8.49376 3.33377L7.11751 5.40002H6.60376H4.80001H4.50001C4.00126 5.40002 3.60001 5.80127 3.60001 6.30002C3.60001 6.79877 4.00126 7.20002 4.50001 7.20002H4.93501L5.83501 19.3763C5.92876 20.6288 6.97126 21.6 8.22751 21.6H15.7725C17.0288 21.6 18.0713 20.6288 18.165 19.3763L19.065 7.20002H19.5C19.9988 7.20002 20.4 6.79877 20.4 6.30002C20.4 5.80127 19.9988 5.40002 19.5 5.40002H19.2H17.3963H16.8825ZM17.2613 7.20002L16.3688 19.245C16.3463 19.56 16.0838 19.8 15.7688 19.8H8.22751C7.91251 19.8 7.65376 19.5563 7.62751 19.245L6.73876 7.20002H17.2613Z" fill="black" fill-opacity="0.45"/>
</svg>
