<svg width="24" height="24" viewBox="0 0 24 24" fill="none" xmlns="http://www.w3.org/2000/svg">
<path d="M12.6675 2.69615C12.4988 2.50865 12.255 2.3999 12 2.3999C11.745 2.3999 11.5013 2.50865 11.3325 2.69615L5.9325 8.69615C5.69625 8.95865 5.63625 9.34115 5.77875 9.66365C5.92125 9.98615 6.24375 10.1999 6.6 10.1999H7.0425L4.7175 12.9149C4.48875 13.1812 4.43625 13.5562 4.5825 13.8749C4.72875 14.1937 5.0475 14.3999 5.4 14.3999H6.3L3.78 17.7599C3.57375 18.0337 3.54375 18.3974 3.69375 18.7012C3.84375 19.0049 4.15875 19.1999 4.5 19.1999H9.6H11.1V20.6999C11.1 21.1987 11.5013 21.5999 12 21.5999C12.4988 21.5999 12.9 21.1987 12.9 20.6999V19.1999H14.4H19.5C19.8413 19.1999 20.1525 19.0087 20.3063 18.7012C20.46 18.3937 20.4263 18.0299 20.22 17.7599L17.7 14.3999H18.6C18.9525 14.3999 19.2713 14.1937 19.4175 13.8749C19.5638 13.5562 19.5113 13.1812 19.2825 12.9149L16.9575 10.1999H17.4C17.7563 10.1999 18.0788 9.9899 18.2213 9.6674C18.3638 9.3449 18.3075 8.9624 18.0675 8.6999L12.6675 2.6999V2.69615ZM12.9 17.3999V10.4999C12.9 10.0012 12.4988 9.5999 12 9.5999C11.5013 9.5999 11.1 10.0012 11.1 10.4999V17.3999H9.6H6.3L8.82 14.0399C9.02625 13.7662 9.05625 13.4024 8.90625 13.0987C8.75625 12.7949 8.44125 12.5999 8.1 12.5999H7.3575L9.6825 9.8849C9.91125 9.61865 9.96375 9.24365 9.8175 8.9249C9.67125 8.60615 9.3525 8.3999 9 8.3999H8.62125L12 4.64615L15.3788 8.3999H15C14.6475 8.3999 14.3288 8.60615 14.1825 8.9249C14.0363 9.24365 14.0888 9.61865 14.3175 9.8849L16.6425 12.5999H15.9C15.5588 12.5999 15.2475 12.7912 15.0938 13.0987C14.94 13.4062 14.9738 13.7699 15.18 14.0399L17.7 17.3999H14.4H12.9Z" fill="black" fill-opacity="0.45"/>
</svg>
