<svg width="24" height="24" viewBox="0 0 24 24" fill="none" xmlns="http://www.w3.org/2000/svg">
<path d="M13.2 4.1999C13.53 4.1999 13.8 4.4699 13.8 4.7999V15.5999C13.8 15.9299 13.53 16.1999 13.2 16.1999H12H9.12C8.4975 15.1237 7.335 14.3999 6 14.3999C4.665 14.3999 3.5025 15.1237 2.88 16.1999H2.4C2.07 16.1999 1.8 15.9299 1.8 15.5999V4.7999C1.8 4.4699 2.07 4.1999 2.4 4.1999H13.2ZM14.4 17.9999C14.4 19.9874 16.0125 21.5999 18 21.5999C19.9875 21.5999 21.6 19.9874 21.6 17.9999H23.1C23.5988 17.9999 24 17.5987 24 17.0999C24 16.6012 23.5988 16.1999 23.1 16.1999H22.8V11.5987C22.8 11.0399 22.5788 10.5074 22.185 10.1137L18.6863 6.6149C18.2925 6.22115 17.76 5.9999 17.2013 5.9999H15.6V4.7999C15.6 3.47615 14.5238 2.3999 13.2 2.3999H2.4C1.07625 2.3999 0 3.47615 0 4.7999V15.5999C0 16.9237 1.07625 17.9999 2.4 17.9999C2.4 19.9874 4.0125 21.5999 6 21.5999C7.9875 21.5999 9.6 19.9874 9.6 17.9999H12H13.2H14.1H14.4ZM20.9138 11.3849C20.9175 11.3887 20.925 11.3962 20.9287 11.3999H15.6V7.7999H17.2013C17.28 7.7999 17.3588 7.8299 17.415 7.88615L20.9138 11.3849ZM4.2 17.9999C4.2 17.5225 4.38964 17.0647 4.72721 16.7271C5.06477 16.3895 5.52261 16.1999 6 16.1999C6.47739 16.1999 6.93523 16.3895 7.27279 16.7271C7.61036 17.0647 7.8 17.5225 7.8 17.9999C7.8 18.4773 7.61036 18.9351 7.27279 19.2727C6.93523 19.6103 6.47739 19.7999 6 19.7999C5.52261 19.7999 5.06477 19.6103 4.72721 19.2727C4.38964 18.9351 4.2 18.4773 4.2 17.9999ZM18 16.1999C18.4774 16.1999 18.9352 16.3895 19.2728 16.7271C19.6104 17.0647 19.8 17.5225 19.8 17.9999C19.8 18.4773 19.6104 18.9351 19.2728 19.2727C18.9352 19.6103 18.4774 19.7999 18 19.7999C17.5226 19.7999 17.0648 19.6103 16.7272 19.2727C16.3896 18.9351 16.2 18.4773 16.2 17.9999C16.2 17.5225 16.3896 17.0647 16.7272 16.7271C17.0648 16.3895 17.5226 16.1999 18 16.1999Z" fill="black" fill-opacity="0.45"/>
</svg>
