<svg width="24" height="24" viewBox="0 0 24 24" fill="none" xmlns="http://www.w3.org/2000/svg">
<path d="M5.39999 4.1999C4.73624 4.1999 4.19999 4.73615 4.19999 5.3999V11.0999C4.35749 10.9799 4.52624 10.8712 4.69874 10.7737L6.19874 7.55615C6.64499 6.6074 7.59749 5.9999 8.64749 5.9999H15.3525C16.4025 5.9999 17.355 6.6074 17.7975 7.5599L19.2975 10.7774C19.47 10.8749 19.6387 10.9837 19.7962 11.1037V5.3999C19.7962 4.73615 19.26 4.1999 18.5962 4.1999H5.39999ZM4.19999 14.6999V16.1999C4.19999 16.8637 4.73624 17.3999 5.39999 17.3999H18.6C19.2637 17.3999 19.8 16.8637 19.8 16.1999V14.6999C19.8 13.2074 18.5925 11.9999 17.1 11.9999H6.89999C5.40749 11.9999 4.19999 13.2074 4.19999 14.6999ZM2.39999 14.6999V5.3999C2.39999 3.7424 3.74249 2.3999 5.39999 2.3999H18.6C20.2575 2.3999 21.6 3.7424 21.6 5.3999V14.6999V16.1999C21.6 17.1824 21.1275 18.0524 20.4 18.5999V20.6999C20.4 21.1987 19.9987 21.5999 19.5 21.5999C19.0012 21.5999 18.6 21.1987 18.6 20.6999V19.1999H5.39999V20.6999C5.39999 21.1987 4.99874 21.5999 4.49999 21.5999C4.00124 21.5999 3.59999 21.1987 3.59999 20.6999V18.5999C2.87249 18.0524 2.39999 17.1824 2.39999 16.1999V14.6999ZM6.95249 10.1999H17.0475L16.17 8.32115C16.0237 8.00615 15.705 7.7999 15.3562 7.7999H8.64749C8.29874 7.7999 7.97999 8.0024 7.83374 8.32115L6.95249 10.1999ZM5.99999 14.3999C5.99999 14.0816 6.12642 13.7764 6.35147 13.5514C6.57651 13.3263 6.88173 13.1999 7.19999 13.1999C7.51825 13.1999 7.82348 13.3263 8.04852 13.5514C8.27357 13.7764 8.39999 14.0816 8.39999 14.3999C8.39999 14.7182 8.27357 15.0234 8.04852 15.2484C7.82348 15.4735 7.51825 15.5999 7.19999 15.5999C6.88173 15.5999 6.57651 15.4735 6.35147 15.2484C6.12642 15.0234 5.99999 14.7182 5.99999 14.3999ZM16.8 13.1999C17.1183 13.1999 17.4235 13.3263 17.6485 13.5514C17.8736 13.7764 18 14.0816 18 14.3999C18 14.7182 17.8736 15.0234 17.6485 15.2484C17.4235 15.4735 17.1183 15.5999 16.8 15.5999C16.4817 15.5999 16.1765 15.4735 15.9515 15.2484C15.7264 15.0234 15.6 14.7182 15.6 14.3999C15.6 14.0816 15.7264 13.7764 15.9515 13.5514C16.1765 13.3263 16.4817 13.1999 16.8 13.1999Z" fill="black" fill-opacity="0.45"/>
</svg>
