<svg width="24" height="24" viewBox="0 0 24 24" fill="none" xmlns="http://www.w3.org/2000/svg">
<path d="M13.2 4.20002H4.8C4.47 4.20002 4.2 4.47002 4.2 4.80002V6.00002H9C9.33 6.00002 9.6 6.27002 9.6 6.60002C9.6 6.93002 9.33 7.20002 9 7.20002H0.6C0.27 7.20002 0 6.93002 0 6.60002C0 6.27002 0.27 6.00002 0.6 6.00002H2.4V4.80002C2.4 3.47627 3.47625 2.40002 4.8 2.40002H13.2C14.5238 2.40002 15.6 3.47627 15.6 4.80002V6.00002H17.2013C17.76 6.00002 18.2925 6.22127 18.6863 6.61502L22.185 10.1138C22.5788 10.5075 22.8 11.04 22.8 11.5988V16.2H23.1C23.5988 16.2 24 16.6013 24 17.1C24 17.5988 23.5988 18 23.1 18H21.6C21.6 19.9875 19.9875 21.6 18 21.6C16.0125 21.6 14.4 19.9875 14.4 18H14.1H13.2H12H9.6C9.6 19.9875 7.9875 21.6 6 21.6C4.0125 21.6 2.4 19.9875 2.4 18V16.2V13.2H4.2V14.88C4.72875 14.5725 5.34375 14.4 6 14.4C7.33125 14.4 8.4975 15.1238 9.12 16.2H12H13.2C13.53 16.2 13.8 15.93 13.8 15.6V4.80002C13.8 4.47002 13.53 4.20002 13.2 4.20002ZM20.9138 11.385L17.415 7.88627C17.3588 7.83002 17.2838 7.80002 17.2013 7.80002H15.6V11.4H20.925L20.9175 11.3925L20.91 11.385H20.9138ZM7.8 18C7.8 17.5226 7.61036 17.0648 7.27279 16.7272C6.93523 16.3897 6.47739 16.2 6 16.2C5.52261 16.2 5.06477 16.3897 4.72721 16.7272C4.38964 17.0648 4.2 17.5226 4.2 18C4.2 18.4774 4.38964 18.9353 4.72721 19.2728C5.06477 19.6104 5.52261 19.8 6 19.8C6.47739 19.8 6.93523 19.6104 7.27279 19.2728C7.61036 18.9353 7.8 18.4774 7.8 18ZM18 19.8C18.4774 19.8 18.9352 19.6104 19.2728 19.2728C19.6104 18.9353 19.8 18.4774 19.8 18C19.8 17.5226 19.6104 17.0648 19.2728 16.7272C18.9352 16.3897 18.4774 16.2 18 16.2C17.5226 16.2 17.0648 16.3897 16.7272 16.7272C16.3896 17.0648 16.2 17.5226 16.2 18C16.2 18.4774 16.3896 18.9353 16.7272 19.2728C17.0648 19.6104 17.5226 19.8 18 19.8ZM1.8 8.40002H10.2C10.53 8.40002 10.8 8.67002 10.8 9.00002C10.8 9.33002 10.53 9.60002 10.2 9.60002H1.8C1.47 9.60002 1.2 9.33002 1.2 9.00002C1.2 8.67002 1.47 8.40002 1.8 8.40002ZM0.6 10.8H9C9.33 10.8 9.6 11.07 9.6 11.4C9.6 11.73 9.33 12 9 12H0.6C0.27 12 0 11.73 0 11.4C0 11.07 0.27 10.8 0.6 10.8Z" fill="black" fill-opacity="0.45"/>
</svg>
