<svg width="24" height="24" viewBox="0 0 24 24" fill="none" xmlns="http://www.w3.org/2000/svg">
<path d="M6.6225 11.6363C5.96625 12.2513 5.96625 12.2513 5.96625 12.255V12.2588L5.97 12.2625L5.98125 12.2738C5.98875 12.2813 5.99625 12.2888 6.0075 12.3C6.03 12.3188 6.05625 12.345 6.09 12.3788C6.1575 12.4388 6.25125 12.5175 6.375 12.6113C6.6225 12.7913 6.97875 13.02 7.46625 13.2413C8.445 13.6875 9.915 14.1038 11.9963 14.1038C14.0775 14.1038 15.5475 13.6875 16.5263 13.2413C17.0138 13.02 17.3738 12.7913 17.6175 12.6113C17.7413 12.5213 17.835 12.4425 17.9025 12.3788C17.9363 12.3488 17.9625 12.3225 17.985 12.3C17.9963 12.2888 18.0037 12.2813 18.0112 12.2738L18.0225 12.2625L18.0263 12.2588V12.255C18.0263 12.255 18.0263 12.255 17.37 11.6363L18.0263 12.2513C18.165 12.105 18.2513 11.9138 18.2663 11.7113C18.285 11.4938 18.2925 11.2763 18.2888 11.0663C19.4138 11.4 20.3363 11.8125 21.0075 12.2588C21.9113 12.8663 22.1888 13.4175 22.1888 13.8188C22.1888 14.115 22.0463 14.4825 21.5963 14.91C21.1463 15.3413 20.4412 15.7725 19.5037 16.1513C17.6362 16.9125 14.9775 17.4 12 17.4C9.0225 17.4 6.36375 16.9125 4.48875 16.155C3.5475 15.7763 2.84625 15.345 2.39625 14.9138C1.9425 14.4825 1.8 14.115 1.8 13.8188C1.8 13.4175 2.0775 12.8663 2.98125 12.2588C3.6525 11.8088 4.57125 11.3963 5.7 11.0663C5.69625 11.28 5.70375 11.4938 5.7225 11.7113C5.74125 11.9138 5.82375 12.105 5.9625 12.2513L6.61875 11.6363H6.6225ZM17.9775 9.1163C17.13 6.5588 14.7225 4.80005 12 4.80005C9.2775 4.80005 6.87 6.5588 6.0225 9.1163C4.42125 9.51005 3.0225 10.0688 1.98 10.7663C0.8775 11.5088 0 12.5325 0 13.8188C0 14.76 0.47625 15.57 1.15125 16.215C1.8225 16.8563 2.74875 17.3925 3.81375 17.8238C5.955 18.6863 8.85 19.2 12 19.2C15.15 19.2 18.045 18.6863 20.1863 17.8238C21.255 17.3925 22.1775 16.8563 22.8488 16.215C23.5238 15.5738 24 14.7638 24 13.8188C24 12.5325 23.1225 11.505 22.02 10.7663C20.9775 10.0688 19.5788 9.51005 17.9775 9.1163ZM16.5 11.1975C16.3463 11.3063 16.11 11.4525 15.7838 11.6025C15.0487 11.9363 13.8338 12.3038 12 12.3038C10.1663 12.3038 8.95125 11.94 8.21625 11.6025C7.89 11.4525 7.65375 11.3063 7.5 11.1975C7.47 8.5763 9.5625 6.60005 12 6.60005C14.4375 6.60005 16.53 8.5763 16.5 11.1975ZM5.7 14.1C5.7 13.8614 5.60518 13.6324 5.4364 13.4637C5.26761 13.2949 5.03869 13.2 4.8 13.2C4.56131 13.2 4.33239 13.2949 4.1636 13.4637C3.99482 13.6324 3.9 13.8614 3.9 14.1C3.9 14.3387 3.99482 14.5677 4.1636 14.7364C4.33239 14.9052 4.56131 15 4.8 15C5.03869 15 5.26761 14.9052 5.4364 14.7364C5.60518 14.5677 5.7 14.3387 5.7 14.1ZM12.9 15.6C12.9 15.3614 12.8052 15.1324 12.6364 14.9637C12.4676 14.7949 12.2387 14.7 12 14.7C11.7613 14.7 11.5324 14.7949 11.3636 14.9637C11.1948 15.1324 11.1 15.3614 11.1 15.6C11.1 15.8387 11.1948 16.0677 11.3636 16.2364C11.5324 16.4052 11.7613 16.5 12 16.5C12.2387 16.5 12.4676 16.4052 12.6364 16.2364C12.8052 16.0677 12.9 15.8387 12.9 15.6ZM19.2 15C19.4387 15 19.6676 14.9052 19.8364 14.7364C20.0052 14.5677 20.1 14.3387 20.1 14.1C20.1 13.8614 20.0052 13.6324 19.8364 13.4637C19.6676 13.2949 19.4387 13.2 19.2 13.2C18.9613 13.2 18.7324 13.2949 18.5636 13.4637C18.3948 13.6324 18.3 13.8614 18.3 14.1C18.3 14.3387 18.3948 14.5677 18.5636 14.7364C18.7324 14.9052 18.9613 15 19.2 15Z" fill="black" fill-opacity="0.45"/>
</svg>
