<svg width="24" height="24" viewBox="0 0 24 24" fill="none" xmlns="http://www.w3.org/2000/svg">
<path d="M12 2.40002C12.4988 2.40002 12.9 2.80127 12.9 3.30002V4.23377C17.5388 4.59377 21.3788 7.72127 22.4813 11.8988C22.4963 11.9513 22.5075 12.0075 22.5225 12.06C22.575 12.2775 22.6238 12.4988 22.6613 12.72C22.6838 12.8513 22.7025 12.9863 22.7213 13.1213C22.7963 13.7063 22.0725 14.0363 21.6788 13.5975C21.585 13.4925 21.4725 13.3913 21.3488 13.2975C21.2213 13.2038 21.0825 13.1138 20.9325 13.035L20.9063 13.02L20.8838 13.0088C20.3775 12.7538 19.77 12.5963 19.2 12.5963C18.0713 12.5963 17.0888 13.2188 16.575 14.1413C16.5563 14.175 16.5375 14.205 16.5225 14.2388C16.4438 14.3925 16.38 14.55 16.3313 14.7188C16.305 14.8088 16.2788 14.9025 16.26 15C16.1963 15.3263 15.9338 15.5963 15.6 15.5963C15.2663 15.5963 15.0075 15.3263 14.94 15C14.9213 14.9063 14.8988 14.8125 14.8688 14.7188C14.8163 14.5538 14.7525 14.3925 14.6775 14.2388C14.6588 14.205 14.6438 14.1713 14.625 14.1413C14.1113 13.2188 13.1288 12.5963 12 12.5963C10.8713 12.5963 9.88875 13.2188 9.375 14.1413C9.35625 14.175 9.34125 14.205 9.3225 14.2388C9.24375 14.3925 9.18 14.55 9.13125 14.7188C9.105 14.8088 9.07875 14.9025 9.06 15C8.99625 15.3263 8.73375 15.5963 8.4 15.5963C8.06625 15.5963 7.8075 15.3263 7.74 15C7.72125 14.9063 7.69875 14.8125 7.66875 14.7188C7.61625 14.5538 7.5525 14.3925 7.4775 14.2388C7.45875 14.205 7.44375 14.1713 7.425 14.1413C6.91125 13.2225 5.92875 12.6 4.8 12.6C4.23 12.6 3.6225 12.7575 3.11625 13.0125C3.10125 13.02 3.0825 13.0313 3.0675 13.0388C2.9175 13.1175 2.77875 13.2038 2.65125 13.3013C2.5275 13.395 2.415 13.4963 2.32125 13.6013C1.9275 14.04 1.20375 13.7063 1.27875 13.1213C1.2975 12.9863 1.31625 12.8513 1.33875 12.72C1.37625 12.4988 1.425 12.2775 1.4775 12.06C1.4925 12.0075 1.50375 11.9513 1.51875 11.8988C2.62125 7.72127 6.46125 4.59752 11.1 4.23377V3.30002C11.1 2.80127 11.5013 2.40002 12 2.40002ZM15.6 12.4238C16.4775 11.4263 17.7638 10.8 19.2 10.8C19.5225 10.8 19.8563 10.8338 20.19 10.8975C18.7838 8.03252 15.6788 6.00002 12 6.00002C8.32125 6.00002 5.21625 8.03252 3.81 10.8975C4.14375 10.8338 4.4775 10.8 4.8 10.8C6.23625 10.8 7.5225 11.43 8.4 12.4238C9.2775 11.4263 10.5638 10.8 12 10.8C13.4363 10.8 14.7225 11.43 15.6 12.4238ZM12 13.8C12.3263 13.8 12.6338 13.8863 12.9 14.04V18.8475C12.9 20.37 11.6663 21.6 10.1475 21.6C9.105 21.6 8.1525 21.0113 7.68375 20.0775L7.5975 19.9013C7.37625 19.455 7.55625 18.915 7.99875 18.6938C8.44125 18.4725 8.985 18.6525 9.20625 19.095L9.2925 19.2713C9.45375 19.5938 9.78375 19.8 10.1475 19.8C10.6763 19.8 11.1 19.3725 11.1 18.8475V14.04C11.3663 13.8863 11.6738 13.8 12 13.8Z" fill="black" fill-opacity="0.45"/>
</svg>
