<svg width="24" height="24" viewBox="0 0 24 24" fill="none" xmlns="http://www.w3.org/2000/svg">
<path d="M12.9 15.9001C12.9 16.3988 12.4988 16.8001 12 16.8001C11.5013 16.8001 11.1 16.3988 11.1 15.9001V5.47132L7.5375 9.03382C7.185 9.38632 6.615 9.38632 6.26625 9.03382C5.9175 8.68132 5.91375 8.11132 6.26625 7.76257L11.3625 2.66257C11.715 2.31007 12.285 2.31007 12.6338 2.66257L17.7375 7.76257C18.09 8.11507 18.09 8.68507 17.7375 9.03382C17.385 9.38257 16.815 9.38632 16.4663 9.03382L12.9038 5.47132V15.9001H12.9ZM14.1 15.6001V13.8001H19.2C20.5238 13.8001 21.6 14.8763 21.6 16.2001V19.2001C21.6 20.5238 20.5238 21.6001 19.2 21.6001H4.8C3.47625 21.6001 2.4 20.5238 2.4 19.2001V16.2001C2.4 14.8763 3.47625 13.8001 4.8 13.8001H9.9V15.6001H4.8C4.47 15.6001 4.2 15.8701 4.2 16.2001V19.2001C4.2 19.5301 4.47 19.8001 4.8 19.8001H19.2C19.53 19.8001 19.8 19.5301 19.8 19.2001V16.2001C19.8 15.8701 19.53 15.6001 19.2 15.6001H14.1ZM16.8 17.7001C16.8 17.4614 16.8948 17.2325 17.0636 17.0637C17.2324 16.8949 17.4613 16.8001 17.7 16.8001C17.9387 16.8001 18.1676 16.8949 18.3364 17.0637C18.5052 17.2325 18.6 17.4614 18.6 17.7001C18.6 17.9388 18.5052 18.1677 18.3364 18.3365C18.1676 18.5052 17.9387 18.6001 17.7 18.6001C17.4613 18.6001 17.2324 18.5052 17.0636 18.3365C16.8948 18.1677 16.8 17.9388 16.8 17.7001Z" fill="black" fill-opacity="0.45"/>
</svg>
