<svg width="24" height="24" viewBox="0 0 24 24" fill="none" xmlns="http://www.w3.org/2000/svg">
<path d="M7.20001 7.20013V5.03263C7.20001 4.53388 7.51126 4.08388 7.98001 3.90763L11.58 2.55763C11.85 2.45638 12.15 2.45638 12.4238 2.55763L16.0238 3.90763C16.4925 4.08388 16.8038 4.53013 16.8038 5.03263V7.20013H16.7925C16.8 7.29763 16.8038 7.39888 16.8038 7.50013V9.00013C16.8038 11.6514 14.655 13.8001 12.0038 13.8001C9.35251 13.8001 7.20376 11.6514 7.20376 9.00013V7.50013C7.20376 7.39888 7.20751 7.29763 7.21501 7.20013H7.20001ZM9.00001 9.00013C9.00001 10.6576 10.3425 12.0001 12 12.0001C13.6575 12.0001 15 10.6576 15 9.00013V8.40013H9.00001V9.00013ZM11.7 3.90013C11.535 3.90013 11.4 4.03513 11.4 4.20013V4.80013H10.8C10.635 4.80013 10.5 4.93513 10.5 5.10013V5.70013C10.5 5.86513 10.635 6.00013 10.8 6.00013H11.4V6.60013C11.4 6.76513 11.535 6.90013 11.7 6.90013H12.3C12.465 6.90013 12.6 6.76513 12.6 6.60013V6.00013H13.2C13.365 6.00013 13.5 5.86513 13.5 5.70013V5.10013C13.5 4.93513 13.365 4.80013 13.2 4.80013H12.6V4.20013C12.6 4.03513 12.465 3.90013 12.3 3.90013H11.7ZM5.44876 19.7214H18.5513C18.3263 18.2476 17.3438 17.0214 16.0125 16.4551L13.6988 18.7689C12.7613 19.7064 11.2425 19.7064 10.305 18.7689L7.99126 16.4551C6.66001 17.0214 5.67751 18.2476 5.45251 19.7214H5.44876ZM7.89001 14.5801C8.26876 14.4639 8.67376 14.5951 8.95501 14.8764L11.5725 17.4939C11.805 17.7264 12.1875 17.7264 12.42 17.4939L15.0375 14.8764C15.3188 14.5951 15.7238 14.4639 16.1025 14.5801C18.5925 15.3339 20.4 17.6401 20.4 20.3701C20.4 21.0076 19.8825 21.5214 19.2488 21.5214H4.75126C4.11376 21.5214 3.60001 21.0039 3.60001 20.3701C3.60001 17.6401 5.40751 15.3339 7.89001 14.5801Z" fill="black" fill-opacity="0.45"/>
</svg>
