<svg width="24" height="24" viewBox="0 0 24 24" fill="none" xmlns="http://www.w3.org/2000/svg">
<path d="M15.7125 6.8999C15.2025 5.3249 13.725 4.1999 12 4.1999C10.275 4.1999 8.79749 5.3249 8.28749 6.8999H15.7125ZM15.9187 8.2649L12.9 8.83115V12.5212L13.2562 12.4499C13.5412 10.5862 14.865 9.39365 15.9525 8.7824L15.9187 8.2649ZM8.08124 8.2649L8.04749 8.7824C9.13499 9.39365 10.455 10.5862 10.7437 12.4499L11.1 12.5212V8.83115L8.08124 8.2649ZM7.19999 5.0249C8.21624 3.43865 9.99374 2.3999 12 2.3999C15.0037 2.3999 17.4937 4.7324 17.6887 7.7324L17.9625 12.0187C18.0112 12.7687 17.4975 13.4399 16.7587 13.5862L12.9787 14.3399C12.7837 14.3774 12.5887 14.3999 12.39 14.3999H11.6062C11.4075 14.3999 11.2125 14.3812 11.0175 14.3399L7.23749 13.5862C6.62999 13.4662 6.17249 12.9862 6.05999 12.4012C6.02249 12.2737 5.99999 12.1387 5.99999 11.9999V2.9999C5.99999 2.6699 6.26999 2.3999 6.59999 2.3999H7.19999C7.52999 2.3999 7.79999 2.6699 7.79999 2.9999C7.79999 3.3299 7.52999 3.5999 7.19999 3.5999V5.0249ZM15.36 17.3999H8.63999C7.13999 17.3999 5.87999 18.4162 5.50874 19.7999H9.59999L11.82 18.1349C11.925 18.0562 12.075 18.0562 12.18 18.1349L14.4 19.7999H18.4912C18.12 18.4162 16.86 17.3999 15.36 17.3999ZM3.59999 20.6399C3.59999 17.8574 5.85749 15.5999 8.63999 15.5999H15.36C18.1425 15.5999 20.4 17.8574 20.4 20.6399C20.4 21.1687 19.9687 21.5999 19.44 21.5999H4.55999C4.03124 21.5999 3.59999 21.1687 3.59999 20.6399Z" fill="black" fill-opacity="0.45"/>
</svg>
