<svg width="24" height="24" viewBox="0 0 24 24" fill="none" xmlns="http://www.w3.org/2000/svg">
<path d="M5 6.5C5 6.10218 5.15804 5.72064 5.43934 5.43934C5.72064 5.15804 6.10218 5 6.5 5C6.89782 5 7.27936 5.15804 7.56066 5.43934C7.84196 5.72064 8 6.10218 8 6.5C8 6.89782 7.84196 7.27936 7.56066 7.56066C7.27936 7.84196 6.89782 8 6.5 8C6.10218 8 5.72064 7.84196 5.43934 7.56066C5.15804 7.27936 5 6.89782 5 6.5ZM9 6.5C9 5.83696 8.73661 5.20107 8.26777 4.73223C7.79893 4.26339 7.16304 4 6.5 4C5.83696 4 5.20107 4.26339 4.73223 4.73223C4.26339 5.20107 4 5.83696 4 6.5C4 7.16304 4.26339 7.79893 4.73223 8.26777C5.20107 8.73661 5.83696 9 6.5 9C7.16304 9 7.79893 8.73661 8.26777 8.26777C8.73661 7.79893 9 7.16304 9 6.5ZM12 9C12.5304 9 13.0391 9.21071 13.4142 9.58579C13.7893 9.96086 14 10.4696 14 11C14 11.5304 13.7893 12.0391 13.4142 12.4142C13.0391 12.7893 12.5304 13 12 13C11.4696 13 10.9609 12.7893 10.5858 12.4142C10.2107 12.0391 10 11.5304 10 11C10 10.4696 10.2107 9.96086 10.5858 9.58579C10.9609 9.21071 11.4696 9 12 9ZM12 14C12.394 14 12.7841 13.9224 13.1481 13.7716C13.512 13.6209 13.8427 13.3999 14.1213 13.1213C14.3999 12.8427 14.6209 12.512 14.7716 12.1481C14.9224 11.7841 15 11.394 15 11C15 10.606 14.9224 10.2159 14.7716 9.85195C14.6209 9.48797 14.3999 9.15726 14.1213 8.87868C13.8427 8.6001 13.512 8.37913 13.1481 8.22836C12.7841 8.0776 12.394 8 12 8C11.606 8 11.2159 8.0776 10.8519 8.22836C10.488 8.37913 10.1573 8.6001 9.87868 8.87868C9.6001 9.15726 9.37913 9.48797 9.22836 9.85195C9.0776 10.2159 9 10.606 9 11C9 11.394 9.0776 11.7841 9.22836 12.1481C9.37913 12.512 9.6001 12.8427 9.87868 13.1213C10.1573 13.3999 10.488 13.6209 10.8519 13.7716C11.2159 13.9224 11.606 14 12 14ZM10.1656 16H13.8313C15.525 16 16.9062 17.3281 16.9937 19H7.00313C7.09063 17.3281 8.47187 16 10.1656 16ZM10.1656 15C7.86562 15 6 16.8656 6 19.1656C6 19.625 6.37187 20 6.83437 20H17.1687C17.6281 20 18.0031 19.6281 18.0031 19.1656C18 16.8656 16.1344 15 13.8344 15H10.1656ZM18 5C18.3978 5 18.7794 5.15804 19.0607 5.43934C19.342 5.72064 19.5 6.10218 19.5 6.5C19.5 6.89782 19.342 7.27936 19.0607 7.56066C18.7794 7.84196 18.3978 8 18 8C17.6022 8 17.2206 7.84196 16.9393 7.56066C16.658 7.27936 16.5 6.89782 16.5 6.5C16.5 6.10218 16.658 5.72064 16.9393 5.43934C17.2206 5.15804 17.6022 5 18 5ZM18 9C18.663 9 19.2989 8.73661 19.7678 8.26777C20.2366 7.79893 20.5 7.16304 20.5 6.5C20.5 5.83696 20.2366 5.20107 19.7678 4.73223C19.2989 4.26339 18.663 4 18 4C17.337 4 16.7011 4.26339 16.2322 4.73223C15.7634 5.20107 15.5 5.83696 15.5 6.5C15.5 7.16304 15.7634 7.79893 16.2322 8.26777C16.7011 8.73661 17.337 9 18 9ZM18.5 11C19.8813 11 21 12.1187 21 13.5C21 13.775 21.225 14 21.5 14C21.775 14 22 13.775 22 13.5C22 11.5656 20.4344 10 18.5 10H15.875C15.9563 10.3187 16 10.6562 16 11H18.5ZM8 11C8 10.6562 8.04375 10.3187 8.125 10H5.5C3.56562 10 2 11.5656 2 13.5C2 13.775 2.225 14 2.5 14C2.775 14 3 13.775 3 13.5C3 12.1187 4.11875 11 5.5 11H8Z" fill="black" fill-opacity="0.45"/>
<path d="M13.834 14.8496C16.2167 14.8496 18.1499 16.7826 18.1533 19.165V19.166C18.1531 19.7115 17.7106 20.1503 17.1689 20.1504H6.83398C6.28859 20.1502 5.84982 19.7076 5.84961 19.166C5.84961 16.7832 7.78317 14.8496 10.166 14.8496H13.834ZM10.166 16.1504C8.60651 16.1504 7.32816 17.3323 7.16895 18.8496H16.8281C16.6689 17.3323 15.3906 16.1504 13.8311 16.1504H10.166ZM8.31836 9.84961L8.27051 10.0371C8.19231 10.3439 8.15039 10.6689 8.15039 11V11.1504H5.5C4.20159 11.1504 3.15039 12.2016 3.15039 13.5C3.15039 13.8578 2.85784 14.1504 2.5 14.1504C2.14216 14.1504 1.84961 13.8578 1.84961 13.5C1.84961 11.4828 3.48278 9.84961 5.5 9.84961H8.31836ZM12 7.84961C12.4136 7.84961 12.823 7.93162 13.2051 8.08984C13.5873 8.24815 13.935 8.47996 14.2275 8.77246C14.52 9.06497 14.7519 9.41275 14.9102 9.79492C15.0684 10.177 15.1504 10.5864 15.1504 11C15.1504 11.4136 15.0684 11.823 14.9102 12.2051C14.7519 12.5873 14.52 12.935 14.2275 13.2275C13.935 13.52 13.5873 13.7519 13.2051 13.9102C12.823 14.0684 12.4136 14.1504 12 14.1504C11.5864 14.1504 11.177 14.0684 10.7949 13.9102C10.4127 13.7519 10.065 13.52 9.77246 13.2275C9.47996 12.935 9.24815 12.5873 9.08984 12.2051C8.93162 11.823 8.84961 11.4136 8.84961 11C8.84961 10.5864 8.93162 10.177 9.08984 9.79492C9.24815 9.41275 9.47996 9.06497 9.77246 8.77246C10.065 8.47996 10.4127 8.24815 10.7949 8.08984C11.177 7.93162 11.5864 7.84961 12 7.84961ZM18.5 9.84961C20.5172 9.84961 22.1504 11.4828 22.1504 13.5C22.1504 13.8578 21.8578 14.1504 21.5 14.1504C21.1422 14.1504 20.8496 13.8578 20.8496 13.5C20.8496 12.2016 19.7984 11.1504 18.5 11.1504H15.8496V11C15.8496 10.6689 15.8077 10.3439 15.7295 10.0371L15.6816 9.84961H18.5ZM12 9.15039C11.5093 9.15039 11.0383 9.34446 10.6914 9.69141C10.3445 10.0383 10.1504 10.5093 10.1504 11C10.1504 11.4907 10.3445 11.9617 10.6914 12.3086C11.0383 12.6555 11.5093 12.8496 12 12.8496C12.4907 12.8496 12.9617 12.6555 13.3086 12.3086C13.6555 11.9617 13.8496 11.4907 13.8496 11C13.8496 10.5093 13.6555 10.0383 13.3086 9.69141C12.9617 9.34446 12.4907 9.15039 12 9.15039ZM6.5 3.84961C7.20282 3.84961 7.87705 4.12901 8.37402 4.62598C8.87099 5.12295 9.15039 5.79718 9.15039 6.5C9.15039 7.20282 8.87099 7.87705 8.37402 8.37402C7.87705 8.87099 7.20282 9.15039 6.5 9.15039C5.79718 9.15039 5.12295 8.87099 4.62598 8.37402C4.12901 7.87705 3.84961 7.20282 3.84961 6.5C3.84961 5.79718 4.12901 5.12295 4.62598 4.62598C5.12295 4.12901 5.79718 3.84961 6.5 3.84961ZM18 3.84961C18.7028 3.84961 19.3771 4.12901 19.874 4.62598C20.371 5.12295 20.6504 5.79718 20.6504 6.5C20.6504 7.20282 20.371 7.87705 19.874 8.37402C19.3771 8.87099 18.7028 9.15039 18 9.15039C17.2972 9.15039 16.6229 8.871 16.126 8.37402C15.629 7.87705 15.3496 7.20282 15.3496 6.5C15.3496 5.79718 15.629 5.12295 16.126 4.62598C16.6229 4.12901 17.2972 3.84961 18 3.84961ZM6.5 5.15039C6.14196 5.15039 5.7981 5.29175 5.54492 5.54492C5.29175 5.7981 5.15039 6.14196 5.15039 6.5C5.15039 6.85804 5.29175 7.2019 5.54492 7.45508C5.7981 7.70825 6.14196 7.84961 6.5 7.84961C6.85804 7.84961 7.2019 7.70825 7.45508 7.45508C7.70825 7.2019 7.84961 6.85804 7.84961 6.5C7.84961 6.14196 7.70825 5.7981 7.45508 5.54492C7.2019 5.29175 6.85804 5.15039 6.5 5.15039ZM18 5.15039C17.642 5.15039 17.2981 5.29175 17.0449 5.54492C16.7917 5.7981 16.6504 6.14196 16.6504 6.5C16.6504 6.85804 16.7917 7.2019 17.0449 7.45508C17.2981 7.70825 17.642 7.84961 18 7.84961C18.358 7.84961 18.7019 7.70825 18.9551 7.45508C19.2083 7.2019 19.3496 6.85804 19.3496 6.5C19.3496 6.14196 19.2083 5.7981 18.9551 5.54492C18.7019 5.29175 18.358 5.15039 18 5.15039Z" stroke="black" stroke-opacity="0.45" stroke-width="0.3"/>
</svg>
