<svg width="24" height="24" viewBox="0 0 24 24" fill="none" xmlns="http://www.w3.org/2000/svg">
<path d="M15 7.20002C15 6.40438 14.6839 5.64131 14.1213 5.0787C13.5587 4.51609 12.7956 4.20002 12 4.20002C11.2043 4.20002 10.4413 4.51609 9.87865 5.0787C9.31605 5.64131 8.99998 6.40438 8.99998 7.20002C8.99998 7.99567 9.31605 8.75874 9.87865 9.32134C10.4413 9.88395 11.2043 10.2 12 10.2C12.7956 10.2 13.5587 9.88395 14.1213 9.32134C14.6839 8.75874 15 7.99567 15 7.20002ZM7.19998 7.20002C7.19998 5.92699 7.70569 4.70609 8.60586 3.80591C9.50604 2.90574 10.7269 2.40002 12 2.40002C13.273 2.40002 14.4939 2.90574 15.3941 3.80591C16.2943 4.70609 16.8 5.92699 16.8 7.20002C16.8 8.47306 16.2943 9.69396 15.3941 10.5941C14.4939 11.4943 13.273 12 12 12C10.7269 12 9.50604 11.4943 8.60586 10.5941C7.70569 9.69396 7.19998 8.47306 7.19998 7.20002ZM5.44873 19.8H18.5512C18.2175 17.4263 16.1775 15.6 13.7137 15.6H10.2862C7.82248 15.6 5.78248 17.4263 5.44873 19.8ZM3.59998 20.4863C3.59998 16.7925 6.59248 13.8 10.2862 13.8H13.7137C17.4075 13.8 20.4 16.7925 20.4 20.4863C20.4 21.1013 19.9012 21.6 19.2862 21.6H4.71373C4.09873 21.6 3.59998 21.1013 3.59998 20.4863Z" fill="black" fill-opacity="0.45"/>
</svg>
