<svg width="24" height="24" viewBox="0 0 24 24" fill="none" xmlns="http://www.w3.org/2000/svg">
<path d="M12 2.9999C11.7488 2.9999 11.595 2.8949 11.4188 2.77115C11.1713 2.6024 10.875 2.3999 10.2 2.3999C9.05626 2.3999 8.25001 4.03865 7.72501 5.7524C5.95126 6.07865 4.80001 6.6074 4.80001 7.1999C4.80001 7.7024 5.62876 8.1599 6.96376 8.48615C6.92251 8.7524 6.90001 9.0224 6.90001 9.2999C6.90001 9.82115 6.97876 10.3274 7.12501 10.7999H5.30251C5.02501 10.7999 4.80001 11.0249 4.80001 11.3024C4.80001 11.3662 4.81126 11.4299 4.83751 11.4899L6.29251 15.1237C4.65751 16.3424 3.60001 18.2924 3.60001 20.4862C3.60001 21.1012 4.09876 21.5999 4.71376 21.5999H9.90001H14.1H19.2863C19.9013 21.5999 20.4 21.1012 20.4 20.4862C20.4 18.2924 19.3425 16.3462 17.7113 15.1237L19.1625 11.4899C19.185 11.4299 19.2 11.3662 19.2 11.3024C19.2 11.0249 18.975 10.7999 18.6975 10.7999H16.875C17.0213 10.3274 17.1 9.82115 17.1 9.2999C17.1 9.0224 17.0775 8.7524 17.0363 8.48615C18.3713 8.1599 19.2 7.7024 19.2 7.1999C19.2 6.6074 18.0488 6.07865 16.275 5.7524C15.75 4.03865 14.9438 2.3999 13.8 2.3999C13.125 2.3999 12.8288 2.6024 12.5813 2.77115C12.4013 2.8949 12.2513 2.9999 12 2.9999ZM13.65 19.7999L12.72 16.0837C12.6413 15.7762 12.69 15.4499 12.855 15.1762L13.4438 14.1937C14.4075 13.9087 15.255 13.3462 15.8888 12.5999H16.7813L16.0388 14.4562C15.735 15.2137 15.9788 16.0799 16.635 16.5674C17.6588 17.3324 18.3675 18.4799 18.555 19.7999H13.65ZM10.5563 14.1937L11.145 15.1762C11.31 15.4499 11.3588 15.7762 11.28 16.0837L10.35 19.7999H5.44876C5.63251 18.4799 6.34501 17.3324 7.36876 16.5674C8.02126 16.0799 8.26501 15.2137 7.96501 14.4562L7.21876 12.5999H8.11126C8.74501 13.3462 9.59251 13.9087 10.5563 14.1937ZM12 12.5999C10.5675 12.5999 9.34876 11.6849 8.89126 10.4099C9.15751 10.6537 9.51001 10.7999 9.90001 10.7999H10.365C10.9838 10.7999 11.5313 10.4024 11.7263 9.8174C11.8125 9.5549 12.1838 9.5549 12.27 9.8174C12.465 10.4024 13.0163 10.7999 13.6313 10.7999H14.1C14.49 10.7999 14.8425 10.6537 15.1088 10.4099C14.6513 11.6849 13.4325 12.5999 12 12.5999Z" fill="black" fill-opacity="0.45"/>
</svg>
