<svg width="24" height="24" viewBox="0 0 24 24" fill="none" xmlns="http://www.w3.org/2000/svg">
<path d="M9 5.5C9.66304 5.5 10.2989 5.76339 10.7678 6.23223C11.2366 6.70107 11.5 7.33696 11.5 8C11.5 8.66304 11.2366 9.29893 10.7678 9.76777C10.2989 10.2366 9.66304 10.5 9 10.5C8.33696 10.5 7.70107 10.2366 7.23223 9.76777C6.76339 9.29893 6.5 8.66304 6.5 8C6.5 7.33696 6.76339 6.70107 7.23223 6.23223C7.70107 5.76339 8.33696 5.5 9 5.5ZM9 12C10.0609 12 11.0783 11.5786 11.8284 10.8284C12.5786 10.0783 13 9.06087 13 8C13 6.93913 12.5786 5.92172 11.8284 5.17157C11.0783 4.42143 10.0609 4 9 4C7.93913 4 6.92172 4.42143 6.17157 5.17157C5.42143 5.92172 5 6.93913 5 8C5 9.06087 5.42143 10.0783 6.17157 10.8284C6.92172 11.5786 7.93913 12 9 12ZM7.57188 15H10.4281C12.4813 15 14.1813 16.5219 14.4594 18.5H3.54062C3.81875 16.5219 5.51875 15 7.57188 15ZM7.57188 13.5C4.49375 13.5 2 15.9937 2 19.0719C2 19.5844 2.41563 20 2.92813 20H15.0719C15.5844 20 16 19.5844 16 19.0719C16 15.9937 13.5063 13.5 10.4281 13.5H7.57188ZM17.75 13.75C17.75 14.1656 18.0844 14.5 18.5 14.5C18.9156 14.5 19.25 14.1656 19.25 13.75V11.75H21.25C21.6656 11.75 22 11.4156 22 11C22 10.5844 21.6656 10.25 21.25 10.25H19.25V8.25C19.25 7.83437 18.9156 7.5 18.5 7.5C18.0844 7.5 17.75 7.83437 17.75 8.25V10.25H15.75C15.3344 10.25 15 10.5844 15 11C15 11.4156 15.3344 11.75 15.75 11.75H17.75V13.75Z" fill="black" fill-opacity="0.45"/>
</svg>
