<svg width="24" height="24" viewBox="0 0 24 24" fill="none" xmlns="http://www.w3.org/2000/svg">
<g clip-path="url(#clip0_9_2047)">
<path d="M0.191247 2.74511C0.498747 2.35511 1.065 2.28386 1.455 2.59136L4.27125 4.80011H13.2C14.5237 4.80011 15.6 5.87636 15.6 7.20011V8.43761V13.2001V13.6801L21 17.9101V16.0276V15.6001V13.2001V7.97261L16.8 9.86261V7.89011L20.7112 6.13136C20.9025 6.04511 21.1087 6.00011 21.3187 6.00011C22.1362 6.00011 22.8 6.66386 22.8 7.48136V15.6001V16.5189V19.3239L23.655 19.9951C24.045 20.3026 24.1162 20.8689 23.8087 21.2589C23.5012 21.6489 22.935 21.7201 22.545 21.4126L0.344997 4.00886C-0.0450028 3.70136 -0.116253 3.13511 0.191247 2.74511ZM13.8 12.2664V7.20011C13.8 6.87011 13.53 6.60011 13.2 6.60011H6.57L13.8 12.2664ZM1.2 7.20011C1.2 7.11761 1.20375 7.03511 1.21125 6.95636L3 8.36261V16.8001C3 17.1301 3.27 17.4001 3.6 17.4001H13.2C13.5075 17.4001 13.7625 17.1676 13.7962 16.8714L15.2625 18.0264C14.8425 18.7276 14.0775 19.2001 13.2 19.2001H3.6C2.27625 19.2001 1.2 18.1239 1.2 16.8001V7.20011Z" fill="black" fill-opacity="0.45"/>
</g>
<defs>
<clipPath id="clip0_9_2047">
<rect width="24" height="24" fill="white"/>
</clipPath>
</defs>
</svg>
