<svg width="24" height="24" viewBox="0 0 24 24" fill="none" xmlns="http://www.w3.org/2000/svg">
<path d="M3.6 6.60005C3.27 6.60005 3 6.87005 3 7.20005V16.8C3 17.13 3.27 17.4 3.6 17.4H13.2C13.53 17.4 13.8 17.13 13.8 16.8V7.20005C13.8 6.87005 13.53 6.60005 13.2 6.60005H3.6ZM1.2 7.20005C1.2 5.8763 2.27625 4.80005 3.6 4.80005H13.2C14.5237 4.80005 15.6 5.8763 15.6 7.20005V8.43755V15.5625V16.8C15.6 18.1238 14.5237 19.2 13.2 19.2H3.6C2.27625 19.2 1.2 18.1238 1.2 16.8V7.20005ZM21 16.0275V7.97255L16.8 9.86255V7.89005L20.7112 6.1313C20.9025 6.04505 21.1087 6.00005 21.3187 6.00005C22.1362 6.00005 22.8 6.6638 22.8 7.4813V16.5188C22.8 17.3363 22.1362 18 21.3187 18C21.1087 18 20.9025 17.955 20.7112 17.8688L16.8 16.11V14.1375L21 16.0275Z" fill="black" fill-opacity="0.45"/>
</svg>
