<svg width="24" height="24" viewBox="0 0 24 24" fill="none" xmlns="http://www.w3.org/2000/svg">
<path d="M8.39624 9.97135L12.6 6.23635V17.7638L8.39624 14.0288C8.23124 13.8826 8.01749 13.8001 7.79999 13.8001H4.49999C4.33499 13.8001 4.19999 13.6651 4.19999 13.5001V10.5001C4.19999 10.3351 4.33499 10.2001 4.49999 10.2001H7.79999C8.02124 10.2001 8.23499 10.1176 8.39624 9.97135ZM13.2825 3.6001C13.0087 3.6001 12.7462 3.70135 12.54 3.88135L7.45874 8.4001H4.49999C3.34124 8.4001 2.39999 9.34135 2.39999 10.5001V13.5001C2.39999 14.6588 3.34124 15.6001 4.49999 15.6001H7.45874L12.54 20.1188C12.7462 20.2988 13.0087 20.4001 13.2825 20.4001C13.9012 20.4001 14.4 19.9013 14.4 19.2826V4.7176C14.4 4.09885 13.9012 3.6001 13.2825 3.6001ZM20.1412 6.4126C19.755 6.0976 19.1887 6.1576 18.8737 6.54385C18.5587 6.9301 18.6187 7.49635 19.005 7.81135C20.2237 8.80135 21 10.3088 21 12.0001C21 13.6913 20.2237 15.1988 19.005 16.1926C18.6187 16.5076 18.5625 17.0738 18.8737 17.4601C19.185 17.8463 19.755 17.9026 20.1412 17.5913C21.7612 16.2713 22.8 14.2576 22.8 12.0038C22.8 9.7501 21.7612 7.73635 20.1412 6.41635V6.4126ZM17.8725 9.20635C17.4862 8.89135 16.92 8.95135 16.605 9.3376C16.29 9.72385 16.35 10.2901 16.7362 10.6051C17.1412 10.9351 17.4 11.4376 17.4 12.0001C17.4 12.5626 17.1412 13.0651 16.7362 13.3988C16.35 13.7138 16.2937 14.2801 16.605 14.6663C16.9162 15.0526 17.4862 15.1088 17.8725 14.7976C18.6787 14.1338 19.2 13.1288 19.2 12.0001C19.2 10.8713 18.6787 9.86635 17.8725 9.20635Z" fill="black" fill-opacity="0.45"/>
</svg>
