<svg width="24" height="24" viewBox="0 0 24 24" fill="none" xmlns="http://www.w3.org/2000/svg">
<path d="M10.0013 4.00127L8.5875 4.53002C8.475 4.57127 8.4 4.68002 8.4 4.80002C8.4 4.92002 8.475 5.02877 8.5875 5.07002L10.0013 5.59877L10.53 7.01252C10.5712 7.12502 10.68 7.20002 10.8 7.20002C10.92 7.20002 11.0288 7.12502 11.07 7.01252L11.5988 5.59877L13.0125 5.07002C13.125 5.02877 13.2 4.92002 13.2 4.80002C13.2 4.68002 13.125 4.57127 13.0125 4.53002L11.5988 4.00127L11.07 2.58752C11.0288 2.47502 10.92 2.40002 10.8 2.40002C10.68 2.40002 10.5712 2.47502 10.53 2.58752L10.0013 4.00127ZM18.5025 4.20002L19.8 5.49752L15.6825 9.61127L14.385 8.31377L18.5025 4.20002ZM4.2 18.5025L13.1138 9.58877L14.4112 10.8863L5.4975 19.8L4.2 18.5025ZM17.2275 2.92877L2.92875 17.2275C2.2275 17.9288 2.2275 19.0688 2.92875 19.7738L4.22625 21.0713C4.9275 21.7725 6.0675 21.7725 6.7725 21.0713L21.0713 6.76877C21.7725 6.06752 21.7725 4.92752 21.0713 4.22252L19.7737 2.92877C19.0725 2.22752 17.9325 2.22752 17.2275 2.92877ZM1.48125 6.79502C1.3125 6.85877 1.2 7.02002 1.2 7.20002C1.2 7.38002 1.3125 7.54127 1.48125 7.60502L3.6 8.40002L4.395 10.5188C4.45875 10.6875 4.62 10.8 4.8 10.8C4.98 10.8 5.14125 10.6875 5.205 10.5188L6 8.40002L8.11875 7.60502C8.2875 7.54127 8.4 7.38002 8.4 7.20002C8.4 7.02002 8.2875 6.85877 8.11875 6.79502L6 6.00002L5.205 3.88127C5.14125 3.71252 4.98 3.60002 4.8 3.60002C4.62 3.60002 4.45875 3.71252 4.395 3.88127L3.6 6.00002L1.48125 6.79502ZM14.6812 16.395C14.5125 16.4588 14.4 16.62 14.4 16.8C14.4 16.98 14.5125 17.1413 14.6812 17.205L16.8 18L17.595 20.1188C17.6588 20.2875 17.82 20.4 18 20.4C18.18 20.4 18.3412 20.2875 18.405 20.1188L19.2 18L21.3188 17.205C21.4875 17.1413 21.6 16.98 21.6 16.8C21.6 16.62 21.4875 16.4588 21.3188 16.395L19.2 15.6L18.405 13.4813C18.3412 13.3125 18.18 13.2 18 13.2C17.82 13.2 17.6588 13.3125 17.595 13.4813L16.8 15.6L14.6812 16.395Z" fill="black" fill-opacity="0.45"/>
</svg>
