<svg width="24" height="24" viewBox="0 0 24 24" fill="none" xmlns="http://www.w3.org/2000/svg">
<path d="M9.59999 2.3999C10.0774 2.3999 10.5352 2.58954 10.8728 2.92711C11.2104 3.26468 11.4 3.72251 11.4 4.1999C11.4 4.67729 11.2104 5.13513 10.8728 5.47269C10.5352 5.81026 10.0774 5.9999 9.59999 5.9999C9.1226 5.9999 8.66477 5.81026 8.3272 5.47269C7.98964 5.13513 7.79999 4.67729 7.79999 4.1999C7.79999 3.72251 7.98964 3.26468 8.3272 2.92711C8.66477 2.58954 9.1226 2.3999 9.59999 2.3999ZM6.91874 11.6699C5.32874 12.2699 4.19999 13.8037 4.19999 15.5999C4.19999 17.9212 6.07874 19.7999 8.39999 19.7999C10.005 19.7999 11.4 18.8999 12.1087 17.5762C12.3412 17.1374 12.8887 16.9724 13.3275 17.2049C13.7662 17.4374 13.9312 17.9849 13.6987 18.4237C12.6862 20.3137 10.695 21.5999 8.39999 21.5999C5.08499 21.5999 2.39999 18.9149 2.39999 15.5999C2.39999 13.0312 4.01624 10.8412 6.28124 9.98615C6.74624 9.8099 7.26374 10.0462 7.43999 10.5112C7.61624 10.9762 7.37999 11.4937 6.91499 11.6699H6.91874ZM9.43874 7.2149C9.92624 7.1249 10.395 7.45115 10.485 7.93865L10.6762 8.9999H15.3C15.7987 8.9999 16.2 9.40115 16.2 9.8999C16.2 10.3987 15.7987 10.7999 15.3 10.7999H11.0062L11.5087 13.5524C11.535 13.6949 11.6587 13.7999 11.805 13.7999H16.4062C17.0025 13.7999 17.5425 14.1524 17.7787 14.6999L19.3912 18.3862L20.4112 18.0449C20.8837 17.8874 21.3937 18.1424 21.5512 18.6149C21.7087 19.0874 21.4537 19.5974 20.9812 19.7549L19.1812 20.3549C18.7387 20.5012 18.2587 20.2874 18.0712 19.8637L16.2112 15.5999H11.8012C10.785 15.5999 9.91499 14.8724 9.73499 13.8749L8.71499 8.26115C8.62499 7.77365 8.95124 7.3049 9.43874 7.2149Z" fill="black" fill-opacity="0.45"/>
</svg>
