<svg width="24" height="24" viewBox="0 0 24 24" fill="none" xmlns="http://www.w3.org/2000/svg">
<g clip-path="url(#clip0_9_2186)">
<path d="M1.49624 9.36385C4.29749 6.89635 7.97249 5.4001 12 5.4001C16.0275 5.4001 19.7025 6.89635 22.5037 9.36385C22.875 9.69385 23.445 9.65635 23.775 9.28135C24.105 8.90635 24.0675 8.3401 23.6925 8.0101C20.5762 5.2651 16.4812 3.6001 12 3.6001C7.51874 3.6001 3.42374 5.2651 0.307492 8.0101C-0.0637578 8.3401 -0.101258 8.90635 0.224992 9.28135C0.551242 9.65635 1.12124 9.6901 1.49624 9.36385ZM12 12.0001C14.4225 12.0001 16.6312 12.9263 18.285 14.4451C18.6525 14.7826 19.2187 14.7563 19.5562 14.3888C19.8937 14.0213 19.8675 13.4551 19.5 13.1176C17.5275 11.3063 14.8912 10.2001 12 10.2001C9.10874 10.2001 6.47249 11.3063 4.49624 13.1213C4.12874 13.4588 4.10624 14.0251 4.43999 14.3926C4.77374 14.7601 5.34374 14.7826 5.71124 14.4488C7.36874 12.9263 9.57749 12.0001 12 12.0001ZM14.1 18.3001C14.1 18.0243 14.0457 17.7512 13.9401 17.4965C13.8346 17.2417 13.6799 17.0102 13.4849 16.8152C13.2899 16.6202 13.0584 16.4655 12.8036 16.36C12.5488 16.2544 12.2758 16.2001 12 16.2001C11.7242 16.2001 11.4511 16.2544 11.1964 16.36C10.9416 16.4655 10.7101 16.6202 10.5151 16.8152C10.3201 17.0102 10.1654 17.2417 10.0598 17.4965C9.95431 17.7512 9.89999 18.0243 9.89999 18.3001C9.89999 18.5759 9.95431 18.8489 10.0598 19.1037C10.1654 19.3585 10.3201 19.59 10.5151 19.785C10.7101 19.98 10.9416 20.1347 11.1964 20.2402C11.4511 20.3458 11.7242 20.4001 12 20.4001C12.2758 20.4001 12.5488 20.3458 12.8036 20.2402C13.0584 20.1347 13.2899 19.98 13.4849 19.785C13.6799 19.59 13.8346 19.3585 13.9401 19.1037C14.0457 18.8489 14.1 18.5759 14.1 18.3001Z" fill="black" fill-opacity="0.45"/>
</g>
<defs>
<clipPath id="clip0_9_2186">
<rect width="24" height="24" fill="white"/>
</clipPath>
</defs>
</svg>
