<svg width="24" height="24" viewBox="0 0 24 24" fill="none" xmlns="http://www.w3.org/2000/svg">
<path d="M2.39999 6.0001C2.39999 4.67635 3.47624 3.6001 4.79999 3.6001H19.2C20.5237 3.6001 21.6 4.67635 21.6 6.0001V8.4001V10.2001V10.8001V18.0001C21.6 19.3238 20.5237 20.4001 19.2 20.4001H4.79999C3.47624 20.4001 2.39999 19.3238 2.39999 18.0001V10.8001V10.2001V8.4001V6.0001ZM19.8 10.8001H4.19999V18.0001C4.19999 18.3301 4.46999 18.6001 4.79999 18.6001H19.2C19.53 18.6001 19.8 18.3301 19.8 18.0001V10.8001ZM5.99999 8.4001C6.31825 8.4001 6.62348 8.27367 6.84852 8.04863C7.07357 7.82358 7.19999 7.51836 7.19999 7.2001C7.19999 6.88184 7.07357 6.57661 6.84852 6.35157C6.62348 6.12653 6.31825 6.0001 5.99999 6.0001C5.68173 6.0001 5.37651 6.12653 5.15147 6.35157C4.92642 6.57661 4.79999 6.88184 4.79999 7.2001C4.79999 7.51836 4.92642 7.82358 5.15147 8.04863C5.37651 8.27367 5.68173 8.4001 5.99999 8.4001ZM10.8 7.2001C10.8 6.88184 10.6736 6.57661 10.4485 6.35157C10.2235 6.12653 9.91825 6.0001 9.59999 6.0001C9.28173 6.0001 8.97651 6.12653 8.75147 6.35157C8.52642 6.57661 8.39999 6.88184 8.39999 7.2001C8.39999 7.51836 8.52642 7.82358 8.75147 8.04863C8.97651 8.27367 9.28173 8.4001 9.59999 8.4001C9.91825 8.4001 10.2235 8.27367 10.4485 8.04863C10.6736 7.82358 10.8 7.51836 10.8 7.2001ZM13.2 8.4001C13.5183 8.4001 13.8235 8.27367 14.0485 8.04863C14.2736 7.82358 14.4 7.51836 14.4 7.2001C14.4 6.88184 14.2736 6.57661 14.0485 6.35157C13.8235 6.12653 13.5183 6.0001 13.2 6.0001C12.8817 6.0001 12.5765 6.12653 12.3515 6.35157C12.1264 6.57661 12 6.88184 12 7.2001C12 7.51836 12.1264 7.82358 12.3515 8.04863C12.5765 8.27367 12.8817 8.4001 13.2 8.4001Z" fill="black" fill-opacity="0.45"/>
</svg>
